<svg width="592" height="234" viewBox="0 0 592 234" fill="none" xmlns="http://www.w3.org/2000/svg">
<path d="M591.119 233.73H0C4.20417 222.907 10.9722 213.792 19.708 206.578C35.1233 193.849 55.4858 187.958 75.8896 187.199C87.6121 186.763 99.0958 191.09 107.011 194.76C106.849 190.265 106.605 184.698 106.583 179.758C106.555 173.376 106.84 166.023 108.42 159.301C116.725 123.966 127.502 100.278 130.573 94.5928C143.141 71.3293 165.946 63.0746 187.237 62.3008C208.269 61.5365 230.04 67.7764 245.96 76.0391C256.375 81.4448 266.358 92.3917 273.936 102.283C277.339 106.726 280.583 111.396 283.507 115.987C286.752 112.799 290.348 109.204 294.025 105.484C306.535 92.8325 319.478 79.3068 321.933 76.7666C333.854 64.4299 344.849 56.8672 356.687 52.6494C368.27 48.5225 379.468 48.0757 390.141 47.8818C401.569 47.6743 411.01 51.2575 417.464 54.2969C420.287 55.6265 423.244 57.2137 424.706 57.9678C426.272 57.6306 428.605 56.7857 431.824 54.9385C436.322 52.3575 441.248 48.5833 446.478 44.1035C451.819 39.5279 456.515 35.0778 461.537 30.5713C465.867 26.6857 471.3 21.9351 476.397 19.292C486.73 13.9347 503.06 9.5248 518.727 8.92969C530.363 8.48771 545.769 10.0459 557.184 18.8809C558.4 18.2716 559.795 17.5548 561.379 16.7148C568.703 12.8305 578.612 7.17221 591.119 0V233.73Z" fill="white"/>
<path d="M320.229 135.73H314.15L307.041 125.559L304.697 127.949V135.73H299.9V112.762H304.697V122.105L313.479 112.762H319.682L310.307 122.168L320.229 135.73ZM335.129 131.246L338.614 118.699H343.348L337.489 135.449C337.155 136.428 336.853 137.277 336.582 137.996C336.311 138.725 336.041 139.35 335.77 139.871C335.509 140.402 335.228 140.835 334.926 141.168C334.634 141.512 334.291 141.783 333.895 141.98C333.499 142.178 333.035 142.314 332.504 142.387C331.973 142.47 331.343 142.512 330.614 142.512C330.322 142.512 330.046 142.501 329.785 142.48C329.535 142.47 329.233 142.449 328.879 142.418V138.84C329.056 138.861 329.275 138.882 329.535 138.902C329.796 138.923 330.015 138.934 330.192 138.934C330.66 138.934 331.056 138.845 331.379 138.668C331.702 138.491 331.957 138.277 332.145 138.027C332.343 137.788 332.483 137.538 332.567 137.277C332.65 137.017 332.692 136.798 332.692 136.621L326.457 118.699H331.41L335.067 131.246H335.129ZM357.905 118.902C358.311 118.663 358.759 118.486 359.249 118.371C359.749 118.257 360.311 118.199 360.936 118.199C361.457 118.199 361.993 118.262 362.545 118.387C363.097 118.512 363.634 118.715 364.155 118.996C364.686 119.267 365.186 119.626 365.655 120.074C366.124 120.512 366.535 121.053 366.889 121.699C367.243 122.345 367.525 123.1 367.733 123.965C367.941 124.819 368.045 125.798 368.045 126.902C368.045 128.277 367.894 129.538 367.592 130.684C367.301 131.829 366.853 132.814 366.249 133.637C365.655 134.46 364.9 135.1 363.983 135.559C363.077 136.017 362.009 136.246 360.78 136.246C360.353 136.246 359.92 136.204 359.483 136.121C359.045 136.038 358.618 135.897 358.202 135.699C357.785 135.501 357.389 135.236 357.014 134.902C356.65 134.559 356.327 134.132 356.045 133.621H355.983V142.324H351.561V118.699H355.78V121.137H355.842C356.144 120.626 356.462 120.189 356.795 119.824C357.129 119.449 357.499 119.142 357.905 118.902ZM357.202 131.527C357.483 131.809 357.821 132.038 358.217 132.215C358.613 132.382 359.082 132.465 359.624 132.465C360.165 132.465 360.634 132.382 361.03 132.215C361.426 132.038 361.764 131.809 362.045 131.527C362.327 131.246 362.556 130.923 362.733 130.559C362.92 130.194 363.066 129.819 363.17 129.434C363.275 129.038 363.342 128.652 363.374 128.277C363.415 127.892 363.436 127.538 363.436 127.215C363.436 126.621 363.368 126.022 363.233 125.418C363.097 124.814 362.879 124.272 362.577 123.793C362.285 123.314 361.894 122.923 361.405 122.621C360.915 122.319 360.321 122.168 359.624 122.168C358.915 122.168 358.316 122.319 357.827 122.621C357.347 122.923 356.957 123.314 356.655 123.793C356.363 124.272 356.15 124.814 356.014 125.418C355.879 126.022 355.811 126.621 355.811 127.215C355.811 127.538 355.827 127.892 355.858 128.277C355.9 128.652 355.972 129.038 356.077 129.434C356.181 129.819 356.321 130.194 356.499 130.559C356.686 130.923 356.92 131.246 357.202 131.527ZM384.79 125.105C384.946 125.085 385.113 125.053 385.29 125.012C385.477 124.97 385.649 124.902 385.805 124.809C385.962 124.704 386.092 124.569 386.196 124.402C386.3 124.225 386.352 123.991 386.352 123.699C386.352 123.418 386.305 123.163 386.212 122.934C386.128 122.694 385.982 122.491 385.774 122.324C385.566 122.147 385.285 122.012 384.93 121.918C384.587 121.824 384.154 121.777 383.634 121.777C383.04 121.777 382.561 121.84 382.196 121.965C381.842 122.079 381.561 122.246 381.352 122.465C381.144 122.673 380.993 122.923 380.899 123.215C380.805 123.496 380.738 123.798 380.696 124.121H376.274C376.274 123.913 376.305 123.626 376.368 123.262C376.441 122.887 376.566 122.48 376.743 122.043C376.93 121.605 377.186 121.163 377.509 120.715C377.842 120.267 378.274 119.861 378.805 119.496C379.347 119.121 380.003 118.814 380.774 118.574C381.545 118.335 382.467 118.21 383.54 118.199C385.061 118.199 386.29 118.355 387.227 118.668C388.175 118.97 388.91 119.371 389.43 119.871C389.962 120.361 390.316 120.913 390.493 121.527C390.68 122.132 390.774 122.736 390.774 123.34V132.371C390.774 132.882 390.8 133.303 390.852 133.637C390.915 133.96 390.993 134.22 391.087 134.418C391.18 134.605 391.285 134.746 391.399 134.84C391.524 134.923 391.654 134.986 391.79 135.027V135.73H386.899C386.816 135.533 386.722 135.272 386.618 134.949C386.524 134.616 386.477 134.215 386.477 133.746C386.134 134.1 385.795 134.428 385.462 134.73C385.139 135.033 384.774 135.298 384.368 135.527C383.962 135.746 383.493 135.918 382.962 136.043C382.43 136.178 381.79 136.246 381.04 136.246C380.279 136.246 379.576 136.132 378.93 135.902C378.295 135.684 377.743 135.355 377.274 134.918C376.805 134.48 376.441 133.934 376.18 133.277C375.92 132.621 375.79 131.861 375.79 130.996C375.79 130.298 375.899 129.652 376.118 129.059C376.337 128.454 376.644 127.928 377.04 127.48C377.446 127.022 377.936 126.647 378.509 126.355C379.092 126.053 379.743 125.85 380.462 125.746L384.79 125.105ZM381.571 132.98C381.842 133.064 382.134 133.105 382.446 133.105C382.613 133.105 382.826 133.09 383.087 133.059C383.347 133.017 383.623 132.944 383.915 132.84C384.206 132.736 384.498 132.595 384.79 132.418C385.081 132.23 385.342 131.991 385.571 131.699C385.8 131.408 385.988 131.053 386.134 130.637C386.279 130.21 386.352 129.71 386.352 129.137V127.418C386.081 127.564 385.811 127.699 385.54 127.824C385.269 127.939 384.91 128.038 384.462 128.121L383.29 128.34C382.779 128.434 382.331 128.543 381.946 128.668C381.561 128.793 381.238 128.96 380.977 129.168C380.727 129.366 380.535 129.611 380.399 129.902C380.274 130.194 380.212 130.559 380.212 130.996C380.212 131.361 380.269 131.678 380.384 131.949C380.498 132.21 380.654 132.428 380.852 132.605C381.061 132.772 381.3 132.897 381.571 132.98ZM413.831 118.699V122.293H408.675V135.73H404.269V122.293H399.112V118.699H413.831ZM426.404 135.574C425.331 135.126 424.414 134.501 423.654 133.699C422.904 132.897 422.325 131.944 421.919 130.84C421.523 129.736 421.325 128.527 421.325 127.215C421.325 125.902 421.523 124.694 421.919 123.59C422.325 122.486 422.904 121.538 423.654 120.746C424.414 119.944 425.331 119.319 426.404 118.871C427.476 118.423 428.685 118.199 430.029 118.199C431.393 118.199 432.612 118.423 433.685 118.871C434.768 119.319 435.68 119.944 436.419 120.746C437.169 121.538 437.742 122.486 438.138 123.59C438.534 124.694 438.732 125.902 438.732 127.215C438.732 128.527 438.534 129.736 438.138 130.84C437.742 131.944 437.169 132.897 436.419 133.699C435.68 134.501 434.768 135.126 433.685 135.574C432.612 136.022 431.393 136.246 430.029 136.246C428.685 136.246 427.476 136.022 426.404 135.574ZM426.154 129.121C426.289 129.757 426.518 130.324 426.841 130.824C427.164 131.314 427.586 131.71 428.107 132.012C428.627 132.314 429.268 132.465 430.029 132.465C430.82 132.465 431.476 132.319 431.997 132.027C432.529 131.725 432.95 131.335 433.263 130.855C433.575 130.366 433.794 129.809 433.919 129.184C434.055 128.548 434.122 127.892 434.122 127.215C434.122 126.548 434.055 125.897 433.919 125.262C433.794 124.626 433.575 124.069 433.263 123.59C432.95 123.1 432.529 122.71 431.997 122.418C431.476 122.116 430.82 121.965 430.029 121.965C429.268 121.965 428.627 122.116 428.107 122.418C427.586 122.72 427.164 123.121 426.841 123.621C426.518 124.111 426.284 124.673 426.138 125.309C426.002 125.934 425.935 126.569 425.935 127.215C425.935 127.861 426.008 128.496 426.154 129.121ZM453.914 118.902C454.32 118.663 454.768 118.486 455.257 118.371C455.757 118.257 456.32 118.199 456.945 118.199C457.466 118.199 458.002 118.262 458.554 118.387C459.106 118.512 459.643 118.715 460.164 118.996C460.695 119.267 461.195 119.626 461.664 120.074C462.132 120.512 462.544 121.053 462.898 121.699C463.252 122.345 463.533 123.1 463.742 123.965C463.95 124.819 464.054 125.798 464.054 126.902C464.054 128.277 463.903 129.538 463.601 130.684C463.309 131.829 462.861 132.814 462.257 133.637C461.664 134.46 460.908 135.1 459.992 135.559C459.085 136.017 458.018 136.246 456.789 136.246C456.361 136.246 455.929 136.204 455.492 136.121C455.054 136.038 454.627 135.897 454.21 135.699C453.794 135.501 453.398 135.236 453.023 134.902C452.658 134.559 452.335 134.132 452.054 133.621H451.992V142.324H447.57V118.699H451.789V121.137H451.851C452.153 120.626 452.471 120.189 452.804 119.824C453.137 119.449 453.507 119.142 453.914 118.902ZM453.21 131.527C453.492 131.809 453.83 132.038 454.226 132.215C454.622 132.382 455.091 132.465 455.632 132.465C456.174 132.465 456.643 132.382 457.039 132.215C457.434 132.038 457.773 131.809 458.054 131.527C458.335 131.246 458.565 130.923 458.742 130.559C458.929 130.194 459.075 129.819 459.179 129.434C459.283 129.038 459.351 128.652 459.382 128.277C459.424 127.892 459.445 127.538 459.445 127.215C459.445 126.621 459.377 126.022 459.242 125.418C459.106 124.814 458.887 124.272 458.585 123.793C458.294 123.314 457.903 122.923 457.414 122.621C456.924 122.319 456.33 122.168 455.632 122.168C454.924 122.168 454.325 122.319 453.835 122.621C453.356 122.923 452.966 123.314 452.664 123.793C452.372 124.272 452.158 124.814 452.023 125.418C451.887 126.022 451.82 126.621 451.82 127.215C451.82 127.538 451.835 127.892 451.867 128.277C451.908 128.652 451.981 129.038 452.085 129.434C452.19 129.819 452.33 130.194 452.507 130.559C452.695 130.923 452.929 131.246 453.21 131.527ZM484.283 124.949C485.106 125.168 485.804 125.507 486.377 125.965C486.95 126.423 487.387 127.007 487.689 127.715C487.991 128.413 488.142 129.241 488.142 130.199C488.142 131.064 488.017 131.803 487.767 132.418C487.517 133.033 487.194 133.548 486.799 133.965C486.413 134.371 485.981 134.694 485.502 134.934C485.022 135.163 484.554 135.34 484.095 135.465C483.637 135.579 483.21 135.652 482.814 135.684C482.429 135.715 482.132 135.73 481.924 135.73H473.017V118.699H477.439V124.621H481.455C482.507 124.621 483.45 124.73 484.283 124.949ZM494.517 118.699V135.73H490.095V118.699H494.517ZM480.299 127.949H477.439V132.402H480.674C481.017 132.402 481.356 132.376 481.689 132.324C482.033 132.262 482.34 132.152 482.611 131.996C482.892 131.829 483.116 131.605 483.283 131.324C483.45 131.033 483.533 130.658 483.533 130.199C483.533 129.751 483.444 129.382 483.267 129.09C483.101 128.798 482.866 128.569 482.564 128.402C482.272 128.236 481.929 128.121 481.533 128.059C481.147 127.986 480.736 127.949 480.299 127.949ZM510.746 131.074V135.73H506.012V131.074H510.746ZM506.012 124.027V119.371H510.746V124.027H506.012Z" fill="black"/>
<path d="M262.979 171.934C262.041 172.298 260.979 172.48 259.791 172.48H254.541V180.73H249.744V157.762H260.182C261.4 157.762 262.458 157.928 263.354 158.262C264.26 158.595 265.01 159.079 265.604 159.715C266.197 160.35 266.64 161.121 266.932 162.027C267.223 162.934 267.369 163.965 267.369 165.121C267.369 166.194 267.197 167.184 266.854 168.09C266.51 168.986 266.01 169.762 265.354 170.418C264.708 171.064 263.916 171.569 262.979 171.934ZM254.541 168.512H259.088C260.171 168.512 261.02 168.246 261.635 167.715C262.26 167.184 262.572 166.319 262.572 165.121C262.572 164.517 262.489 164.001 262.322 163.574C262.166 163.147 261.937 162.798 261.635 162.527C261.343 162.246 260.979 162.043 260.541 161.918C260.114 161.783 259.63 161.715 259.088 161.715H254.541V168.512ZM287.254 180.73V170.465H287.176L281.16 180.73H276.332V163.699H280.754V174.199H280.817L287.02 163.699H291.66V180.73H287.254ZM316.858 180.73H311.327L308.499 175.605L305.436 180.73H300.03L305.811 172.059L300.28 163.699H305.717L308.499 168.668L311.358 163.699H316.639L311.061 172.059L316.858 180.73ZM338.477 163.699V167.293H333.321V180.73H328.915V167.293H323.759V163.699H338.477ZM350.722 180.746C349.722 180.402 348.847 179.866 348.097 179.137C347.357 178.397 346.774 177.444 346.347 176.277C345.92 175.111 345.706 173.694 345.706 172.027C345.706 170.871 345.857 169.762 346.159 168.699C346.472 167.626 346.951 166.684 347.597 165.871C348.253 165.059 349.086 164.413 350.097 163.934C351.117 163.444 352.341 163.199 353.769 163.199C355.279 163.199 356.55 163.449 357.581 163.949C358.612 164.439 359.44 165.137 360.065 166.043C360.701 166.949 361.154 168.043 361.425 169.324C361.696 170.605 361.831 172.027 361.831 173.59H350.159C350.159 173.746 350.175 173.954 350.206 174.215C350.237 174.475 350.3 174.757 350.394 175.059C350.487 175.361 350.623 175.668 350.8 175.98C350.977 176.283 351.211 176.559 351.503 176.809C351.805 177.059 352.17 177.262 352.597 177.418C353.034 177.574 353.555 177.652 354.159 177.652C354.472 177.652 354.779 177.611 355.081 177.527C355.394 177.434 355.68 177.303 355.94 177.137C356.201 176.96 356.425 176.751 356.612 176.512C356.81 176.262 356.951 175.98 357.034 175.668H361.612C361.612 175.98 361.545 176.34 361.409 176.746C361.274 177.142 361.065 177.548 360.784 177.965C360.513 178.371 360.17 178.772 359.753 179.168C359.336 179.564 358.841 179.918 358.269 180.23C357.696 180.533 357.045 180.777 356.315 180.965C355.597 181.152 354.795 181.246 353.909 181.246C352.774 181.246 351.711 181.079 350.722 180.746ZM351.503 167.574C351.159 167.876 350.873 168.277 350.644 168.777C350.425 169.277 350.315 169.902 350.315 170.652H357.237C357.237 169.902 357.123 169.277 356.894 168.777C356.675 168.277 356.394 167.882 356.05 167.59C355.716 167.288 355.347 167.079 354.94 166.965C354.534 166.84 354.144 166.777 353.769 166.777C353.404 166.777 353.019 166.84 352.612 166.965C352.206 167.079 351.836 167.283 351.503 167.574ZM376.779 163.902C377.185 163.663 377.633 163.486 378.122 163.371C378.622 163.257 379.185 163.199 379.81 163.199C380.331 163.199 380.867 163.262 381.419 163.387C381.971 163.512 382.508 163.715 383.029 163.996C383.56 164.267 384.06 164.626 384.529 165.074C384.997 165.512 385.409 166.053 385.763 166.699C386.117 167.345 386.398 168.1 386.607 168.965C386.815 169.819 386.919 170.798 386.919 171.902C386.919 173.277 386.768 174.538 386.466 175.684C386.174 176.829 385.726 177.814 385.122 178.637C384.529 179.46 383.773 180.1 382.857 180.559C381.95 181.017 380.883 181.246 379.654 181.246C379.226 181.246 378.794 181.204 378.357 181.121C377.919 181.038 377.492 180.897 377.075 180.699C376.659 180.501 376.263 180.236 375.888 179.902C375.523 179.559 375.2 179.132 374.919 178.621H374.857V187.324H370.435V163.699H374.654V166.137H374.716C375.018 165.626 375.336 165.189 375.669 164.824C376.002 164.449 376.372 164.142 376.779 163.902ZM376.075 176.527C376.357 176.809 376.695 177.038 377.091 177.215C377.487 177.382 377.956 177.465 378.497 177.465C379.039 177.465 379.508 177.382 379.904 177.215C380.299 177.038 380.638 176.809 380.919 176.527C381.2 176.246 381.43 175.923 381.607 175.559C381.794 175.194 381.94 174.819 382.044 174.434C382.148 174.038 382.216 173.652 382.247 173.277C382.289 172.892 382.31 172.538 382.31 172.215C382.31 171.621 382.242 171.022 382.107 170.418C381.971 169.814 381.752 169.272 381.45 168.793C381.159 168.314 380.768 167.923 380.279 167.621C379.789 167.319 379.195 167.168 378.497 167.168C377.789 167.168 377.19 167.319 376.7 167.621C376.221 167.923 375.831 168.314 375.529 168.793C375.237 169.272 375.023 169.814 374.888 170.418C374.752 171.022 374.685 171.621 374.685 172.215C374.685 172.538 374.7 172.892 374.732 173.277C374.773 173.652 374.846 174.038 374.95 174.434C375.055 174.819 375.195 175.194 375.372 175.559C375.56 175.923 375.794 176.246 376.075 176.527ZM431.549 180.73H425.47L418.361 170.559L416.017 172.949V180.73H411.22V157.762H416.017V167.105L424.799 157.762H431.002L421.627 167.168L431.549 180.73ZM447.215 170.105C447.371 170.085 447.538 170.053 447.715 170.012C447.902 169.97 448.074 169.902 448.23 169.809C448.387 169.704 448.517 169.569 448.621 169.402C448.725 169.225 448.777 168.991 448.777 168.699C448.777 168.418 448.73 168.163 448.637 167.934C448.553 167.694 448.407 167.491 448.199 167.324C447.991 167.147 447.71 167.012 447.355 166.918C447.012 166.824 446.579 166.777 446.059 166.777C445.465 166.777 444.986 166.84 444.621 166.965C444.267 167.079 443.986 167.246 443.777 167.465C443.569 167.673 443.418 167.923 443.324 168.215C443.23 168.496 443.163 168.798 443.121 169.121H438.699C438.699 168.913 438.73 168.626 438.793 168.262C438.866 167.887 438.991 167.48 439.168 167.043C439.355 166.605 439.611 166.163 439.934 165.715C440.267 165.267 440.699 164.861 441.23 164.496C441.772 164.121 442.428 163.814 443.199 163.574C443.97 163.335 444.892 163.21 445.965 163.199C447.486 163.199 448.715 163.355 449.652 163.668C450.6 163.97 451.335 164.371 451.855 164.871C452.387 165.361 452.741 165.913 452.918 166.527C453.105 167.132 453.199 167.736 453.199 168.34V177.371C453.199 177.882 453.225 178.303 453.277 178.637C453.34 178.96 453.418 179.22 453.512 179.418C453.605 179.605 453.71 179.746 453.824 179.84C453.949 179.923 454.079 179.986 454.215 180.027V180.73H449.324C449.241 180.533 449.147 180.272 449.043 179.949C448.949 179.616 448.902 179.215 448.902 178.746C448.559 179.1 448.22 179.428 447.887 179.73C447.564 180.033 447.199 180.298 446.793 180.527C446.387 180.746 445.918 180.918 445.387 181.043C444.855 181.178 444.215 181.246 443.465 181.246C442.704 181.246 442.001 181.132 441.355 180.902C440.72 180.684 440.168 180.355 439.699 179.918C439.23 179.48 438.866 178.934 438.605 178.277C438.345 177.621 438.215 176.861 438.215 175.996C438.215 175.298 438.324 174.652 438.543 174.059C438.762 173.454 439.069 172.928 439.465 172.48C439.871 172.022 440.361 171.647 440.934 171.355C441.517 171.053 442.168 170.85 442.887 170.746L447.215 170.105ZM443.996 177.98C444.267 178.064 444.559 178.105 444.871 178.105C445.038 178.105 445.251 178.09 445.512 178.059C445.772 178.017 446.048 177.944 446.34 177.84C446.631 177.736 446.923 177.595 447.215 177.418C447.506 177.23 447.767 176.991 447.996 176.699C448.225 176.408 448.413 176.053 448.559 175.637C448.704 175.21 448.777 174.71 448.777 174.137V172.418C448.506 172.564 448.236 172.699 447.965 172.824C447.694 172.939 447.335 173.038 446.887 173.121L445.715 173.34C445.204 173.434 444.756 173.543 444.371 173.668C443.986 173.793 443.663 173.96 443.402 174.168C443.152 174.366 442.96 174.611 442.824 174.902C442.699 175.194 442.637 175.559 442.637 175.996C442.637 176.361 442.694 176.678 442.809 176.949C442.923 177.21 443.079 177.428 443.277 177.605C443.486 177.772 443.725 177.897 443.996 177.98ZM475.428 163.699H481.881V180.73H477.725V167.027H477.662L474.459 180.73H470.428L467.24 167.027H467.162V180.73H463.006V163.699H469.662L472.537 176.059H472.615L475.428 163.699ZM502.813 180.73V170.465H502.735L496.719 180.73H491.891V163.699H496.313V174.199H496.375L502.579 163.699H507.219V180.73H502.813ZM523.823 167.293L523.729 170.465C523.677 172.246 523.562 173.809 523.385 175.152C523.208 176.496 522.917 177.621 522.51 178.527C522.115 179.423 521.573 180.1 520.885 180.559C520.208 181.017 519.339 181.246 518.276 181.246C517.776 181.246 517.339 181.215 516.964 181.152C516.589 181.1 516.281 181.022 516.042 180.918V177.215C516.187 177.277 516.37 177.335 516.589 177.387C516.818 177.439 517.094 177.465 517.417 177.465C517.75 177.465 518.047 177.366 518.307 177.168C518.568 176.96 518.792 176.59 518.979 176.059C519.167 175.517 519.312 174.772 519.417 173.824C519.521 172.876 519.589 171.652 519.62 170.152L519.745 163.699H533.448V180.73H529.042V167.293H523.823ZM551.63 170.105C551.786 170.085 551.953 170.053 552.13 170.012C552.317 169.97 552.489 169.902 552.645 169.809C552.802 169.704 552.932 169.569 553.036 169.402C553.14 169.225 553.192 168.991 553.192 168.699C553.192 168.418 553.145 168.163 553.052 167.934C552.968 167.694 552.822 167.491 552.614 167.324C552.406 167.147 552.125 167.012 551.77 166.918C551.427 166.824 550.994 166.777 550.474 166.777C549.88 166.777 549.401 166.84 549.036 166.965C548.682 167.079 548.401 167.246 548.192 167.465C547.984 167.673 547.833 167.923 547.739 168.215C547.645 168.496 547.578 168.798 547.536 169.121H543.114C543.114 168.913 543.145 168.626 543.208 168.262C543.281 167.887 543.406 167.48 543.583 167.043C543.77 166.605 544.026 166.163 544.349 165.715C544.682 165.267 545.114 164.861 545.645 164.496C546.187 164.121 546.843 163.814 547.614 163.574C548.385 163.335 549.307 163.21 550.38 163.199C551.901 163.199 553.13 163.355 554.067 163.668C555.015 163.97 555.75 164.371 556.27 164.871C556.802 165.361 557.156 165.913 557.333 166.527C557.52 167.132 557.614 167.736 557.614 168.34V177.371C557.614 177.882 557.64 178.303 557.692 178.637C557.755 178.96 557.833 179.22 557.927 179.418C558.02 179.605 558.125 179.746 558.239 179.84C558.364 179.923 558.494 179.986 558.63 180.027V180.73H553.739C553.656 180.533 553.562 180.272 553.458 179.949C553.364 179.616 553.317 179.215 553.317 178.746C552.974 179.1 552.635 179.428 552.302 179.73C551.979 180.033 551.614 180.298 551.208 180.527C550.802 180.746 550.333 180.918 549.802 181.043C549.27 181.178 548.63 181.246 547.88 181.246C547.119 181.246 546.416 181.132 545.77 180.902C545.135 180.684 544.583 180.355 544.114 179.918C543.645 179.48 543.281 178.934 543.02 178.277C542.76 177.621 542.63 176.861 542.63 175.996C542.63 175.298 542.739 174.652 542.958 174.059C543.177 173.454 543.484 172.928 543.88 172.48C544.286 172.022 544.776 171.647 545.349 171.355C545.932 171.053 546.583 170.85 547.302 170.746L551.63 170.105ZM548.411 177.98C548.682 178.064 548.974 178.105 549.286 178.105C549.453 178.105 549.666 178.09 549.927 178.059C550.187 178.017 550.463 177.944 550.755 177.84C551.046 177.736 551.338 177.595 551.63 177.418C551.921 177.23 552.182 176.991 552.411 176.699C552.64 176.408 552.828 176.053 552.974 175.637C553.119 175.21 553.192 174.71 553.192 174.137V172.418C552.921 172.564 552.651 172.699 552.38 172.824C552.109 172.939 551.75 173.038 551.302 173.121L550.13 173.34C549.619 173.434 549.171 173.543 548.786 173.668C548.401 173.793 548.078 173.96 547.817 174.168C547.567 174.366 547.375 174.611 547.239 174.902C547.114 175.194 547.052 175.559 547.052 175.996C547.052 176.361 547.109 176.678 547.224 176.949C547.338 177.21 547.494 177.428 547.692 177.605C547.901 177.772 548.14 177.897 548.411 177.98ZM269.588 212.73H264.369L262.9 207.996H254.416L252.822 212.73H247.76L255.979 189.762H261.463L269.588 212.73ZM261.557 204.027L258.697 194.934H258.635L255.697 204.027H261.557ZM284.332 195.902C284.739 195.663 285.186 195.486 285.676 195.371C286.176 195.257 286.739 195.199 287.364 195.199C287.884 195.199 288.421 195.262 288.973 195.387C289.525 195.512 290.061 195.715 290.582 195.996C291.114 196.267 291.614 196.626 292.082 197.074C292.551 197.512 292.962 198.053 293.317 198.699C293.671 199.345 293.952 200.1 294.16 200.965C294.369 201.819 294.473 202.798 294.473 203.902C294.473 205.277 294.322 206.538 294.02 207.684C293.728 208.829 293.28 209.814 292.676 210.637C292.082 211.46 291.327 212.1 290.41 212.559C289.504 213.017 288.436 213.246 287.207 213.246C286.78 213.246 286.348 213.204 285.91 213.121C285.473 213.038 285.046 212.897 284.629 212.699C284.212 212.501 283.817 212.236 283.442 211.902C283.077 211.559 282.754 211.132 282.473 210.621H282.41V219.324H277.989V195.699H282.207V198.137H282.27C282.572 197.626 282.89 197.189 283.223 196.824C283.556 196.449 283.926 196.142 284.332 195.902ZM283.629 208.527C283.91 208.809 284.249 209.038 284.645 209.215C285.041 209.382 285.509 209.465 286.051 209.465C286.593 209.465 287.061 209.382 287.457 209.215C287.853 209.038 288.192 208.809 288.473 208.527C288.754 208.246 288.983 207.923 289.16 207.559C289.348 207.194 289.494 206.819 289.598 206.434C289.702 206.038 289.77 205.652 289.801 205.277C289.843 204.892 289.864 204.538 289.864 204.215C289.864 203.621 289.796 203.022 289.66 202.418C289.525 201.814 289.306 201.272 289.004 200.793C288.712 200.314 288.322 199.923 287.832 199.621C287.343 199.319 286.749 199.168 286.051 199.168C285.343 199.168 284.744 199.319 284.254 199.621C283.775 199.923 283.384 200.314 283.082 200.793C282.791 201.272 282.577 201.814 282.442 202.418C282.306 203.022 282.239 203.621 282.239 204.215C282.239 204.538 282.254 204.892 282.285 205.277C282.327 205.652 282.4 206.038 282.504 206.434C282.608 206.819 282.749 207.194 282.926 207.559C283.114 207.923 283.348 208.246 283.629 208.527ZM311.217 202.105C311.374 202.085 311.54 202.053 311.717 202.012C311.905 201.97 312.077 201.902 312.233 201.809C312.389 201.704 312.519 201.569 312.624 201.402C312.728 201.225 312.78 200.991 312.78 200.699C312.78 200.418 312.733 200.163 312.639 199.934C312.556 199.694 312.41 199.491 312.202 199.324C311.993 199.147 311.712 199.012 311.358 198.918C311.014 198.824 310.582 198.777 310.061 198.777C309.467 198.777 308.988 198.84 308.624 198.965C308.269 199.079 307.988 199.246 307.78 199.465C307.571 199.673 307.42 199.923 307.327 200.215C307.233 200.496 307.165 200.798 307.124 201.121H302.702C302.702 200.913 302.733 200.626 302.795 200.262C302.868 199.887 302.993 199.48 303.17 199.043C303.358 198.605 303.613 198.163 303.936 197.715C304.269 197.267 304.702 196.861 305.233 196.496C305.775 196.121 306.431 195.814 307.202 195.574C307.972 195.335 308.894 195.21 309.967 195.199C311.488 195.199 312.717 195.355 313.655 195.668C314.603 195.97 315.337 196.371 315.858 196.871C316.389 197.361 316.743 197.913 316.92 198.527C317.108 199.132 317.202 199.736 317.202 200.34V209.371C317.202 209.882 317.228 210.303 317.28 210.637C317.342 210.96 317.42 211.22 317.514 211.418C317.608 211.605 317.712 211.746 317.827 211.84C317.952 211.923 318.082 211.986 318.217 212.027V212.73H313.327C313.243 212.533 313.15 212.272 313.045 211.949C312.952 211.616 312.905 211.215 312.905 210.746C312.561 211.1 312.222 211.428 311.889 211.73C311.566 212.033 311.202 212.298 310.795 212.527C310.389 212.746 309.92 212.918 309.389 213.043C308.858 213.178 308.217 213.246 307.467 213.246C306.707 213.246 306.004 213.132 305.358 212.902C304.722 212.684 304.17 212.355 303.702 211.918C303.233 211.48 302.868 210.934 302.608 210.277C302.347 209.621 302.217 208.861 302.217 207.996C302.217 207.298 302.327 206.652 302.545 206.059C302.764 205.454 303.071 204.928 303.467 204.48C303.874 204.022 304.363 203.647 304.936 203.355C305.519 203.053 306.17 202.85 306.889 202.746L311.217 202.105ZM307.999 209.98C308.269 210.064 308.561 210.105 308.874 210.105C309.04 210.105 309.254 210.09 309.514 210.059C309.775 210.017 310.051 209.944 310.342 209.84C310.634 209.736 310.926 209.595 311.217 209.418C311.509 209.23 311.769 208.991 311.999 208.699C312.228 208.408 312.415 208.053 312.561 207.637C312.707 207.21 312.78 206.71 312.78 206.137V204.418C312.509 204.564 312.238 204.699 311.967 204.824C311.696 204.939 311.337 205.038 310.889 205.121L309.717 205.34C309.207 205.434 308.759 205.543 308.374 205.668C307.988 205.793 307.665 205.96 307.405 206.168C307.155 206.366 306.962 206.611 306.827 206.902C306.702 207.194 306.639 207.559 306.639 207.996C306.639 208.361 306.696 208.678 306.811 208.949C306.926 209.21 307.082 209.428 307.28 209.605C307.488 209.772 307.728 209.897 307.999 209.98ZM344.102 212.73H338.337L333.337 205.543L331.555 207.34V212.73H327.134V195.699H331.555V202.168L337.93 195.699H343.805L336.774 202.777L344.102 212.73ZM356.065 212.746C355.065 212.402 354.19 211.866 353.44 211.137C352.701 210.397 352.117 209.444 351.69 208.277C351.263 207.111 351.05 205.694 351.05 204.027C351.05 202.871 351.201 201.762 351.503 200.699C351.815 199.626 352.295 198.684 352.94 197.871C353.597 197.059 354.43 196.413 355.44 195.934C356.461 195.444 357.685 195.199 359.112 195.199C360.623 195.199 361.894 195.449 362.925 195.949C363.956 196.439 364.784 197.137 365.409 198.043C366.045 198.949 366.498 200.043 366.769 201.324C367.039 202.605 367.175 204.027 367.175 205.59H355.503C355.503 205.746 355.519 205.954 355.55 206.215C355.581 206.475 355.644 206.757 355.737 207.059C355.831 207.361 355.966 207.668 356.144 207.98C356.321 208.283 356.555 208.559 356.847 208.809C357.149 209.059 357.513 209.262 357.94 209.418C358.378 209.574 358.899 209.652 359.503 209.652C359.815 209.652 360.123 209.611 360.425 209.527C360.737 209.434 361.024 209.303 361.284 209.137C361.545 208.96 361.769 208.751 361.956 208.512C362.154 208.262 362.295 207.98 362.378 207.668H366.956C366.956 207.98 366.888 208.34 366.753 208.746C366.617 209.142 366.409 209.548 366.128 209.965C365.857 210.371 365.513 210.772 365.097 211.168C364.68 211.564 364.185 211.918 363.612 212.23C363.039 212.533 362.388 212.777 361.659 212.965C360.94 213.152 360.138 213.246 359.253 213.246C358.117 213.246 357.055 213.079 356.065 212.746ZM356.847 199.574C356.503 199.876 356.216 200.277 355.987 200.777C355.769 201.277 355.659 201.902 355.659 202.652H362.581C362.581 201.902 362.466 201.277 362.237 200.777C362.019 200.277 361.737 199.882 361.394 199.59C361.06 199.288 360.69 199.079 360.284 198.965C359.878 198.84 359.487 198.777 359.112 198.777C358.748 198.777 358.362 198.84 357.956 198.965C357.55 199.079 357.18 199.283 356.847 199.574ZM382.513 199.293L382.419 202.465C382.367 204.246 382.252 205.809 382.075 207.152C381.898 208.496 381.607 209.621 381.2 210.527C380.805 211.423 380.263 212.1 379.575 212.559C378.898 213.017 378.029 213.246 376.966 213.246C376.466 213.246 376.029 213.215 375.654 213.152C375.279 213.1 374.971 213.022 374.732 212.918V209.215C374.877 209.277 375.06 209.335 375.279 209.387C375.508 209.439 375.784 209.465 376.107 209.465C376.44 209.465 376.737 209.366 376.997 209.168C377.258 208.96 377.482 208.59 377.669 208.059C377.857 207.517 378.002 206.772 378.107 205.824C378.211 204.876 378.279 203.652 378.31 202.152L378.435 195.699H392.138V212.73H387.732V199.293H382.513ZM403.242 206.059C403.408 205.819 403.637 205.611 403.929 205.434C404.221 205.257 404.611 205.095 405.101 204.949C404.945 204.908 404.768 204.85 404.57 204.777C404.382 204.694 404.179 204.59 403.96 204.465C403.752 204.329 403.539 204.163 403.32 203.965C403.111 203.757 402.914 203.501 402.726 203.199C402.591 203.001 402.481 202.793 402.398 202.574C402.325 202.345 402.268 202.126 402.226 201.918C402.184 201.699 402.158 201.496 402.148 201.309C402.137 201.121 402.132 200.96 402.132 200.824C402.132 200.22 402.205 199.684 402.351 199.215C402.497 198.736 402.684 198.319 402.914 197.965C403.143 197.611 403.403 197.309 403.695 197.059C403.986 196.809 404.283 196.605 404.585 196.449C404.919 196.262 405.289 196.121 405.695 196.027C406.101 195.923 406.497 195.85 406.882 195.809C407.268 195.757 407.627 195.725 407.96 195.715C408.294 195.704 408.554 195.699 408.742 195.699H417.898V212.73H413.46V206.465H410.57C409.934 206.465 409.387 206.491 408.929 206.543C408.481 206.585 408.111 206.694 407.82 206.871C407.528 207.038 407.304 207.288 407.148 207.621C407.002 207.954 406.919 208.408 406.898 208.98L406.835 210.621C406.815 210.861 406.783 211.173 406.742 211.559C406.71 211.944 406.611 212.335 406.445 212.73H401.773C401.908 212.501 402.018 212.283 402.101 212.074C402.184 211.855 402.247 211.647 402.289 211.449C402.341 211.241 402.377 211.033 402.398 210.824C402.429 210.616 402.455 210.397 402.476 210.168L402.695 208.121C402.747 207.663 402.809 207.267 402.882 206.934C402.955 206.6 403.075 206.309 403.242 206.059ZM407.054 202.434C407.231 202.715 407.46 202.923 407.742 203.059C408.033 203.194 408.356 203.272 408.71 203.293C409.065 203.314 409.419 203.324 409.773 203.324H413.46V199.027H409.898C409.523 199.027 409.148 199.038 408.773 199.059C408.398 199.079 408.059 199.163 407.757 199.309C407.466 199.444 407.226 199.663 407.039 199.965C406.861 200.257 406.773 200.673 406.773 201.215C406.773 201.746 406.867 202.152 407.054 202.434ZM438.783 205.434H432.283V212.73H427.861V195.699H432.283V201.855H438.783V195.699H443.189V212.73H438.783V205.434ZM481.803 212.73V202.465H472.787V212.73H467.975V189.762H472.787V198.496H481.803V189.762H486.6V212.73H481.803ZM500.797 212.574C499.724 212.126 498.808 211.501 498.047 210.699C497.297 209.897 496.719 208.944 496.313 207.84C495.917 206.736 495.719 205.527 495.719 204.215C495.719 202.902 495.917 201.694 496.313 200.59C496.719 199.486 497.297 198.538 498.047 197.746C498.808 196.944 499.724 196.319 500.797 195.871C501.87 195.423 503.079 195.199 504.422 195.199C505.787 195.199 507.006 195.423 508.079 195.871C509.162 196.319 510.073 196.944 510.813 197.746C511.563 198.538 512.136 199.486 512.532 200.59C512.927 201.694 513.125 202.902 513.125 204.215C513.125 205.527 512.927 206.736 512.532 207.84C512.136 208.944 511.563 209.897 510.813 210.699C510.073 211.501 509.162 212.126 508.079 212.574C507.006 213.022 505.787 213.246 504.422 213.246C503.079 213.246 501.87 213.022 500.797 212.574ZM500.547 206.121C500.683 206.757 500.912 207.324 501.235 207.824C501.558 208.314 501.98 208.71 502.5 209.012C503.021 209.314 503.662 209.465 504.422 209.465C505.214 209.465 505.87 209.319 506.391 209.027C506.922 208.725 507.344 208.335 507.657 207.855C507.969 207.366 508.188 206.809 508.313 206.184C508.448 205.548 508.516 204.892 508.516 204.215C508.516 203.548 508.448 202.897 508.313 202.262C508.188 201.626 507.969 201.069 507.657 200.59C507.344 200.1 506.922 199.71 506.391 199.418C505.87 199.116 505.214 198.965 504.422 198.965C503.662 198.965 503.021 199.116 502.5 199.418C501.98 199.72 501.558 200.121 501.235 200.621C500.912 201.111 500.677 201.673 500.532 202.309C500.396 202.934 500.329 203.569 500.329 204.215C500.329 204.861 500.401 205.496 500.547 206.121ZM533.01 205.434H526.51V212.73H522.089V195.699H526.51V201.855H533.01V195.699H537.417V212.73H533.01V205.434ZM555.192 202.105C555.349 202.085 555.515 202.053 555.692 202.012C555.88 201.97 556.052 201.902 556.208 201.809C556.364 201.704 556.494 201.569 556.599 201.402C556.703 201.225 556.755 200.991 556.755 200.699C556.755 200.418 556.708 200.163 556.614 199.934C556.531 199.694 556.385 199.491 556.177 199.324C555.968 199.147 555.687 199.012 555.333 198.918C554.989 198.824 554.557 198.777 554.036 198.777C553.442 198.777 552.963 198.84 552.599 198.965C552.244 199.079 551.963 199.246 551.755 199.465C551.546 199.673 551.395 199.923 551.302 200.215C551.208 200.496 551.14 200.798 551.099 201.121H546.677C546.677 200.913 546.708 200.626 546.77 200.262C546.843 199.887 546.968 199.48 547.145 199.043C547.333 198.605 547.588 198.163 547.911 197.715C548.244 197.267 548.677 196.861 549.208 196.496C549.75 196.121 550.406 195.814 551.177 195.574C551.947 195.335 552.869 195.21 553.942 195.199C555.463 195.199 556.692 195.355 557.63 195.668C558.578 195.97 559.312 196.371 559.833 196.871C560.364 197.361 560.718 197.913 560.895 198.527C561.083 199.132 561.177 199.736 561.177 200.34V209.371C561.177 209.882 561.203 210.303 561.255 210.637C561.317 210.96 561.395 211.22 561.489 211.418C561.583 211.605 561.687 211.746 561.802 211.84C561.927 211.923 562.057 211.986 562.192 212.027V212.73H557.302C557.218 212.533 557.125 212.272 557.02 211.949C556.927 211.616 556.88 211.215 556.88 210.746C556.536 211.1 556.197 211.428 555.864 211.73C555.541 212.033 555.177 212.298 554.77 212.527C554.364 212.746 553.895 212.918 553.364 213.043C552.833 213.178 552.192 213.246 551.442 213.246C550.682 213.246 549.979 213.132 549.333 212.902C548.697 212.684 548.145 212.355 547.677 211.918C547.208 211.48 546.843 210.934 546.583 210.277C546.322 209.621 546.192 208.861 546.192 207.996C546.192 207.298 546.302 206.652 546.52 206.059C546.739 205.454 547.046 204.928 547.442 204.48C547.849 204.022 548.338 203.647 548.911 203.355C549.494 203.053 550.145 202.85 550.864 202.746L555.192 202.105ZM551.974 209.98C552.244 210.064 552.536 210.105 552.849 210.105C553.015 210.105 553.229 210.09 553.489 210.059C553.75 210.017 554.026 209.944 554.317 209.84C554.609 209.736 554.901 209.595 555.192 209.418C555.484 209.23 555.744 208.991 555.974 208.699C556.203 208.408 556.39 208.053 556.536 207.637C556.682 207.21 556.755 206.71 556.755 206.137V204.418C556.484 204.564 556.213 204.699 555.942 204.824C555.671 204.939 555.312 205.038 554.864 205.121L553.692 205.34C553.182 205.434 552.734 205.543 552.349 205.668C551.963 205.793 551.64 205.96 551.38 206.168C551.13 206.366 550.937 206.611 550.802 206.902C550.677 207.194 550.614 207.559 550.614 207.996C550.614 208.361 550.671 208.678 550.786 208.949C550.901 209.21 551.057 209.428 551.255 209.605C551.463 209.772 551.703 209.897 551.974 209.98Z" fill="black"/>
</svg>
