<svg width="649" height="209" viewBox="0 0 649 209" fill="none" xmlns="http://www.w3.org/2000/svg">
<path d="M0 0C3.8782 0.5317 7.67919 1.50445 11.3965 3.06348C20.7439 6.98379 27.635 13.7958 33.6738 21.9463C38.7704 28.825 43.9026 37.5686 49.6592 47.8887C52.4371 46.8217 56.1729 44.9886 61.0049 42.3223C66.6804 39.1905 74.8027 34.3598 81.3682 30.9102C87.9985 27.4264 96.2402 23.5417 104.164 22.4404C128.812 19.0148 145.198 18.218 158.678 25.6992C165.237 29.3398 170.149 34.4098 174.456 39.1758C178.742 43.9189 182.679 48.6494 188.477 54.6816C188.785 54.6786 189.17 54.6638 189.641 54.627C192.982 54.3651 197.969 53.1971 204.918 50.9229C211.709 48.7002 219.441 45.7425 228.132 42.376C236.696 39.0583 246.104 35.3781 255.749 31.9453C274.847 25.1484 296.28 18.7886 316.61 17.8691C337.231 16.9366 358.544 21.575 374.616 38.7998C379.133 43.6408 381.591 49.6069 383.002 55.2969C384.426 61.0396 385.017 67.4503 385.13 74.1553C385.267 82.2766 384.705 91.6349 383.667 102.03C385.623 101.24 387.682 100.395 389.823 99.5039C397.451 96.3291 406.183 92.5707 413.467 89.626C420.227 86.8932 427.973 83.9047 433.296 83.0264C462.649 78.1831 484.268 83.0781 501.331 96.9219C517.044 109.67 527.263 129.006 537.049 147.345C541.086 154.911 549.227 157.664 563.889 155.896C570.763 155.066 577.565 153.371 583.71 151.771C586.59 151.022 589.693 150.195 592.241 149.642C593.54 149.36 595.041 149.07 596.554 148.897C597.734 148.763 600.001 148.559 602.573 148.989L603.092 149.084L604.058 149.285C624.218 153.707 636.044 169.5 642.702 186.504C645.364 193.302 647.391 200.721 648.913 208.482H0V0Z" fill="white"/>
<path d="M25.8418 180.586C24.7871 180.996 23.5918 181.201 22.2559 181.201H16.3496V190.482H10.9531V164.643H22.6953C24.0664 164.643 25.2559 164.83 26.2637 165.205C27.2832 165.58 28.127 166.125 28.7949 166.84C29.4629 167.555 29.9609 168.422 30.2891 169.441C30.6172 170.461 30.7812 171.621 30.7812 172.922C30.7812 174.129 30.5879 175.242 30.2012 176.262C29.8145 177.27 29.252 178.143 28.5137 178.881C27.7871 179.607 26.8965 180.176 25.8418 180.586ZM16.3496 176.736H21.4648C22.6836 176.736 23.6387 176.438 24.3301 175.84C25.0332 175.242 25.3848 174.27 25.3848 172.922C25.3848 172.242 25.291 171.662 25.1035 171.182C24.9277 170.701 24.6699 170.309 24.3301 170.004C24.002 169.688 23.5918 169.459 23.0996 169.318C22.6191 169.166 22.0742 169.09 21.4648 169.09H16.3496V176.736ZM45.4351 190.307C44.228 189.803 43.1968 189.1 42.3413 188.197C41.4976 187.295 40.8472 186.223 40.3902 184.98C39.9448 183.738 39.7222 182.379 39.7222 180.902C39.7222 179.426 39.9448 178.066 40.3902 176.824C40.8472 175.582 41.4976 174.516 42.3413 173.625C43.1968 172.723 44.228 172.02 45.4351 171.516C46.6421 171.012 48.0015 170.76 49.5132 170.76C51.0484 170.76 52.4195 171.012 53.6265 171.516C54.8452 172.02 55.8706 172.723 56.7027 173.625C57.5464 174.516 58.1909 175.582 58.6362 176.824C59.0816 178.066 59.3042 179.426 59.3042 180.902C59.3042 182.379 59.0816 183.738 58.6362 184.98C58.1909 186.223 57.5464 187.295 56.7027 188.197C55.8706 189.1 54.8452 189.803 53.6265 190.307C52.4195 190.811 51.0484 191.062 49.5132 191.062C48.0015 191.062 46.6421 190.811 45.4351 190.307ZM45.1538 183.047C45.3062 183.762 45.564 184.4 45.9273 184.963C46.2905 185.514 46.7652 185.959 47.3511 186.299C47.937 186.639 48.6577 186.809 49.5132 186.809C50.4038 186.809 51.1421 186.645 51.728 186.316C52.3257 185.977 52.8003 185.537 53.1519 184.998C53.5034 184.447 53.7495 183.82 53.8902 183.117C54.0425 182.402 54.1187 181.664 54.1187 180.902C54.1187 180.152 54.0425 179.42 53.8902 178.705C53.7495 177.99 53.5034 177.363 53.1519 176.824C52.8003 176.273 52.3257 175.834 51.728 175.506C51.1421 175.166 50.4038 174.996 49.5132 174.996C48.6577 174.996 47.937 175.166 47.3511 175.506C46.7652 175.846 46.2905 176.297 45.9273 176.859C45.564 177.41 45.3003 178.043 45.1362 178.758C44.9839 179.461 44.9077 180.176 44.9077 180.902C44.9077 181.629 44.9898 182.344 45.1538 183.047ZM83.3623 171.322H90.6221V190.482H85.9463V175.066H85.876L82.2725 190.482H77.7373L74.1514 175.066H74.0635V190.482H69.3877V171.322H76.876L80.1104 185.227H80.1983L83.3623 171.322ZM110.637 178.529C110.813 178.506 111.001 178.471 111.2 178.424C111.411 178.377 111.604 178.301 111.78 178.195C111.956 178.078 112.102 177.926 112.219 177.738C112.336 177.539 112.395 177.275 112.395 176.947C112.395 176.631 112.342 176.344 112.237 176.086C112.143 175.816 111.979 175.588 111.745 175.4C111.51 175.201 111.194 175.049 110.795 174.943C110.409 174.838 109.922 174.785 109.336 174.785C108.669 174.785 108.129 174.855 107.719 174.996C107.321 175.125 107.004 175.312 106.77 175.559C106.536 175.793 106.366 176.074 106.26 176.402C106.155 176.719 106.079 177.059 106.032 177.422H101.057C101.057 177.188 101.092 176.865 101.163 176.455C101.245 176.033 101.385 175.576 101.585 175.084C101.795 174.592 102.083 174.094 102.446 173.59C102.821 173.086 103.307 172.629 103.905 172.219C104.514 171.797 105.253 171.451 106.12 171.182C106.987 170.912 108.024 170.771 109.231 170.76C110.942 170.76 112.325 170.936 113.379 171.287C114.446 171.627 115.272 172.078 115.858 172.641C116.456 173.191 116.854 173.812 117.053 174.504C117.264 175.184 117.37 175.863 117.37 176.543V186.703C117.37 187.277 117.399 187.752 117.458 188.127C117.528 188.49 117.616 188.783 117.721 189.006C117.827 189.217 117.944 189.375 118.073 189.48C118.213 189.574 118.36 189.645 118.512 189.691V190.482H113.01C112.917 190.26 112.811 189.967 112.694 189.604C112.588 189.229 112.536 188.777 112.536 188.25C112.149 188.648 111.768 189.018 111.393 189.357C111.03 189.697 110.62 189.996 110.163 190.254C109.706 190.5 109.178 190.693 108.581 190.834C107.983 190.986 107.262 191.062 106.419 191.062C105.563 191.062 104.772 190.934 104.045 190.676C103.331 190.43 102.71 190.061 102.182 189.568C101.655 189.076 101.245 188.461 100.952 187.723C100.659 186.984 100.512 186.129 100.512 185.156C100.512 184.371 100.635 183.645 100.881 182.977C101.128 182.297 101.473 181.705 101.919 181.201C102.376 180.686 102.926 180.264 103.571 179.936C104.227 179.596 104.96 179.367 105.768 179.25L110.637 178.529ZM107.016 187.389C107.321 187.482 107.649 187.529 108.001 187.529C108.188 187.529 108.428 187.512 108.721 187.477C109.014 187.43 109.325 187.348 109.653 187.23C109.981 187.113 110.309 186.955 110.637 186.756C110.965 186.545 111.258 186.275 111.516 185.947C111.774 185.619 111.985 185.221 112.149 184.752C112.313 184.271 112.395 183.709 112.395 183.064V181.131C112.09 181.295 111.786 181.447 111.481 181.588C111.176 181.717 110.772 181.828 110.268 181.922L108.95 182.168C108.376 182.273 107.872 182.396 107.438 182.537C107.004 182.678 106.641 182.865 106.348 183.1C106.067 183.322 105.85 183.598 105.698 183.926C105.557 184.254 105.487 184.664 105.487 185.156C105.487 185.566 105.551 185.924 105.68 186.229C105.809 186.521 105.985 186.768 106.208 186.967C106.442 187.154 106.711 187.295 107.016 187.389ZM140.69 182.273H133.377V190.482H128.402V171.322H133.377V178.248H140.69V171.322H145.647V190.482H140.69V182.273ZM161.461 190.307C160.254 189.803 159.222 189.1 158.367 188.197C157.523 187.295 156.873 186.223 156.416 184.98C155.97 183.738 155.748 182.379 155.748 180.902C155.748 179.426 155.97 178.066 156.416 176.824C156.873 175.582 157.523 174.516 158.367 173.625C159.222 172.723 160.254 172.02 161.461 171.516C162.668 171.012 164.027 170.76 165.539 170.76C167.074 170.76 168.445 171.012 169.652 171.516C170.871 172.02 171.896 172.723 172.728 173.625C173.572 174.516 174.216 175.582 174.662 176.824C175.107 178.066 175.33 179.426 175.33 180.902C175.33 182.379 175.107 183.738 174.662 184.98C174.216 186.223 173.572 187.295 172.728 188.197C171.896 189.1 170.871 189.803 169.652 190.307C168.445 190.811 167.074 191.062 165.539 191.062C164.027 191.062 162.668 190.811 161.461 190.307ZM161.179 183.047C161.332 183.762 161.589 184.4 161.953 184.963C162.316 185.514 162.791 185.959 163.377 186.299C163.962 186.639 164.683 186.809 165.539 186.809C166.429 186.809 167.168 186.645 167.754 186.316C168.351 185.977 168.826 185.537 169.177 184.998C169.529 184.447 169.775 183.82 169.916 183.117C170.068 182.402 170.144 181.664 170.144 180.902C170.144 180.152 170.068 179.42 169.916 178.705C169.775 177.99 169.529 177.363 169.177 176.824C168.826 176.273 168.351 175.834 167.754 175.506C167.168 175.166 166.429 174.996 165.539 174.996C164.683 174.996 163.962 175.166 163.377 175.506C162.791 175.846 162.316 176.297 161.953 176.859C161.589 177.41 161.326 178.043 161.162 178.758C161.009 179.461 160.933 180.176 160.933 180.902C160.933 181.629 161.015 182.344 161.179 183.047ZM196.294 190.482H185.554V171.322H195.468C196.347 171.322 197.191 171.398 197.999 171.551C198.819 171.703 199.54 171.973 200.161 172.359C200.782 172.734 201.275 173.25 201.638 173.906C202.013 174.551 202.2 175.371 202.2 176.367C202.2 176.941 202.136 177.439 202.007 177.861C201.89 178.283 201.726 178.646 201.515 178.951C201.304 179.244 201.058 179.496 200.776 179.707C200.507 179.906 200.226 180.076 199.933 180.217C200.894 180.557 201.626 181.102 202.13 181.852C202.634 182.59 202.886 183.475 202.886 184.506C202.886 185.408 202.728 186.229 202.411 186.967C202.107 187.693 201.667 188.32 201.093 188.848C200.53 189.363 199.839 189.768 199.019 190.061C198.21 190.342 197.302 190.482 196.294 190.482ZM195.907 182.273C195.474 182.203 194.958 182.168 194.36 182.168H190.528V186.949H194.36C195.075 186.949 195.65 186.873 196.083 186.721C196.528 186.568 196.868 186.375 197.103 186.141C197.349 185.906 197.507 185.648 197.577 185.367C197.659 185.086 197.7 184.822 197.7 184.576C197.7 184.107 197.636 183.721 197.507 183.416C197.39 183.1 197.196 182.848 196.927 182.66C196.669 182.473 196.329 182.344 195.907 182.273ZM196.663 178.318C196.874 178.154 197.021 177.949 197.103 177.703C197.196 177.445 197.243 177.146 197.243 176.807C197.243 176.525 197.196 176.268 197.103 176.033C197.021 175.787 196.874 175.582 196.663 175.418C196.452 175.242 196.171 175.107 195.819 175.014C195.468 174.908 195.028 174.855 194.501 174.855H190.528V178.846H194.36C194.923 178.846 195.392 178.805 195.767 178.723C196.142 178.629 196.441 178.494 196.663 178.318ZM221.231 186.809C221.805 186.809 222.303 186.697 222.725 186.475C223.147 186.24 223.499 185.953 223.78 185.613C224.061 185.273 224.266 184.91 224.395 184.523C224.536 184.137 224.606 183.785 224.606 183.469H229.792C229.792 183.785 229.733 184.195 229.616 184.699C229.51 185.203 229.329 185.736 229.071 186.299C228.813 186.861 228.467 187.43 228.034 188.004C227.612 188.566 227.079 189.076 226.434 189.533C225.801 189.979 225.057 190.342 224.202 190.623C223.346 190.916 222.356 191.062 221.231 191.062C219.766 191.062 218.471 190.84 217.346 190.395C216.233 189.949 215.296 189.299 214.534 188.443C213.784 187.576 213.21 186.51 212.811 185.244C212.424 183.979 212.231 182.531 212.231 180.902C212.231 179.273 212.442 177.832 212.864 176.578C213.298 175.312 213.907 174.252 214.692 173.396C215.477 172.529 216.421 171.873 217.522 171.428C218.635 170.982 219.872 170.76 221.231 170.76C221.817 170.76 222.421 170.807 223.042 170.9C223.674 170.994 224.296 171.158 224.905 171.393C225.514 171.615 226.094 171.908 226.645 172.271C227.208 172.635 227.706 173.092 228.139 173.643C228.585 174.182 228.948 174.82 229.229 175.559C229.522 176.285 229.71 177.129 229.792 178.09H224.606C224.512 177.586 224.383 177.146 224.219 176.771C224.055 176.385 223.839 176.062 223.569 175.805C223.311 175.535 222.989 175.336 222.602 175.207C222.227 175.066 221.77 174.996 221.231 174.996C220.399 174.996 219.731 175.189 219.227 175.576C218.735 175.963 218.354 176.449 218.085 177.035C217.815 177.621 217.633 178.26 217.54 178.951C217.458 179.643 217.417 180.293 217.417 180.902C217.417 181.535 217.452 182.203 217.522 182.906C217.592 183.598 217.756 184.236 218.014 184.822C218.272 185.396 218.653 185.871 219.157 186.246C219.661 186.621 220.352 186.809 221.231 186.809ZM259.123 190.482H252.637L247.012 182.396L245.008 184.418V190.482H240.033V171.322H245.008V178.6L252.18 171.322H258.789L250.879 179.285L259.123 190.482ZM277.134 178.529C277.31 178.506 277.498 178.471 277.697 178.424C277.908 178.377 278.101 178.301 278.277 178.195C278.453 178.078 278.599 177.926 278.716 177.738C278.834 177.539 278.892 177.275 278.892 176.947C278.892 176.631 278.84 176.344 278.734 176.086C278.64 175.816 278.476 175.588 278.242 175.4C278.008 175.201 277.691 175.049 277.293 174.943C276.906 174.838 276.42 174.785 275.834 174.785C275.166 174.785 274.627 174.855 274.216 174.996C273.818 175.125 273.502 175.312 273.267 175.559C273.033 175.793 272.863 176.074 272.758 176.402C272.652 176.719 272.576 177.059 272.529 177.422H267.554C267.554 177.188 267.59 176.865 267.66 176.455C267.742 176.033 267.883 175.576 268.082 175.084C268.293 174.592 268.58 174.094 268.943 173.59C269.318 173.086 269.804 172.629 270.402 172.219C271.011 171.797 271.75 171.451 272.617 171.182C273.484 170.912 274.521 170.771 275.728 170.76C277.439 170.76 278.822 170.936 279.877 171.287C280.943 171.627 281.769 172.078 282.355 172.641C282.953 173.191 283.351 173.812 283.55 174.504C283.761 175.184 283.867 175.863 283.867 176.543V186.703C283.867 187.277 283.896 187.752 283.955 188.127C284.025 188.49 284.113 188.783 284.218 189.006C284.324 189.217 284.441 189.375 284.57 189.48C284.711 189.574 284.857 189.645 285.009 189.691V190.482H279.508C279.414 190.26 279.308 189.967 279.191 189.604C279.086 189.229 279.033 188.777 279.033 188.25C278.646 188.648 278.265 189.018 277.89 189.357C277.527 189.697 277.117 189.996 276.66 190.254C276.203 190.5 275.675 190.693 275.078 190.834C274.48 190.986 273.759 191.062 272.916 191.062C272.06 191.062 271.269 190.934 270.543 190.676C269.828 190.43 269.207 190.061 268.679 189.568C268.152 189.076 267.742 188.461 267.449 187.723C267.156 186.984 267.009 186.129 267.009 185.156C267.009 184.371 267.133 183.645 267.379 182.977C267.625 182.297 267.97 181.705 268.416 181.201C268.873 180.686 269.424 180.264 270.068 179.936C270.724 179.596 271.457 179.367 272.265 179.25L277.134 178.529ZM273.513 187.389C273.818 187.482 274.146 187.529 274.498 187.529C274.685 187.529 274.925 187.512 275.218 187.477C275.511 187.43 275.822 187.348 276.15 187.23C276.478 187.113 276.806 186.955 277.134 186.756C277.463 186.545 277.756 186.275 278.013 185.947C278.271 185.619 278.482 185.221 278.646 184.752C278.81 184.271 278.892 183.709 278.892 183.064V181.131C278.588 181.295 278.283 181.447 277.978 181.588C277.674 181.717 277.269 181.828 276.765 181.922L275.447 182.168C274.873 182.273 274.369 182.396 273.935 182.537C273.502 182.678 273.138 182.865 272.845 183.1C272.564 183.322 272.347 183.598 272.195 183.926C272.054 184.254 271.984 184.664 271.984 185.156C271.984 185.566 272.049 185.924 272.177 186.229C272.306 186.521 272.482 186.768 272.705 186.967C272.939 187.154 273.209 187.295 273.513 187.389ZM295.691 182.977C295.878 182.707 296.136 182.473 296.464 182.273C296.792 182.074 297.232 181.893 297.782 181.729C297.607 181.682 297.407 181.617 297.185 181.535C296.974 181.441 296.745 181.324 296.499 181.184C296.265 181.031 296.025 180.844 295.779 180.621C295.544 180.387 295.321 180.1 295.111 179.76C294.958 179.537 294.835 179.303 294.741 179.057C294.659 178.799 294.595 178.553 294.548 178.318C294.501 178.072 294.472 177.844 294.46 177.633C294.448 177.422 294.443 177.24 294.443 177.088C294.443 176.408 294.525 175.805 294.689 175.277C294.853 174.738 295.064 174.27 295.321 173.871C295.579 173.473 295.872 173.133 296.2 172.852C296.529 172.57 296.862 172.342 297.202 172.166C297.577 171.955 297.993 171.797 298.45 171.691C298.907 171.574 299.353 171.492 299.786 171.445C300.22 171.387 300.624 171.352 300.999 171.34C301.374 171.328 301.667 171.322 301.878 171.322H312.179V190.482H307.187V183.434H303.935C303.22 183.434 302.605 183.463 302.089 183.521C301.585 183.568 301.169 183.691 300.841 183.891C300.513 184.078 300.261 184.359 300.085 184.734C299.921 185.109 299.827 185.619 299.804 186.264L299.734 188.109C299.71 188.379 299.675 188.73 299.628 189.164C299.593 189.598 299.482 190.037 299.294 190.482H294.038C294.191 190.225 294.314 189.979 294.407 189.744C294.501 189.498 294.571 189.264 294.618 189.041C294.677 188.807 294.718 188.572 294.741 188.338C294.777 188.104 294.806 187.857 294.829 187.6L295.075 185.297C295.134 184.781 295.204 184.336 295.286 183.961C295.368 183.586 295.503 183.258 295.691 182.977ZM299.98 178.898C300.179 179.215 300.437 179.449 300.753 179.602C301.081 179.754 301.445 179.842 301.843 179.865C302.241 179.889 302.64 179.9 303.038 179.9H307.187V175.066H303.179C302.757 175.066 302.335 175.078 301.913 175.102C301.491 175.125 301.111 175.219 300.771 175.383C300.443 175.535 300.173 175.781 299.962 176.121C299.763 176.449 299.663 176.918 299.663 177.527C299.663 178.125 299.769 178.582 299.98 178.898ZM362.791 190.482H356.92L355.268 185.156H345.723L343.93 190.482H338.235L347.481 164.643H353.651L362.791 190.482ZM353.756 180.691L350.539 170.461H350.469L347.164 180.691H353.756ZM384.67 182.273H377.357V190.482H372.383V171.322H377.357V178.248H384.67V171.322H389.627V190.482H384.67V182.273ZM409.624 178.529C409.8 178.506 409.988 178.471 410.187 178.424C410.398 178.377 410.591 178.301 410.767 178.195C410.943 178.078 411.089 177.926 411.206 177.738C411.324 177.539 411.382 177.275 411.382 176.947C411.382 176.631 411.329 176.344 411.224 176.086C411.13 175.816 410.966 175.588 410.732 175.4C410.497 175.201 410.181 175.049 409.783 174.943C409.396 174.838 408.909 174.785 408.324 174.785C407.656 174.785 407.116 174.855 406.706 174.996C406.308 175.125 405.991 175.312 405.757 175.559C405.523 175.793 405.353 176.074 405.247 176.402C405.142 176.719 405.066 177.059 405.019 177.422H400.044C400.044 177.188 400.079 176.865 400.15 176.455C400.232 176.033 400.372 175.576 400.572 175.084C400.783 174.592 401.07 174.094 401.433 173.59C401.808 173.086 402.294 172.629 402.892 172.219C403.501 171.797 404.24 171.451 405.107 171.182C405.974 170.912 407.011 170.771 408.218 170.76C409.929 170.76 411.312 170.936 412.366 171.287C413.433 171.627 414.259 172.078 414.845 172.641C415.443 173.191 415.841 173.812 416.04 174.504C416.251 175.184 416.357 175.863 416.357 176.543V186.703C416.357 187.277 416.386 187.752 416.445 188.127C416.515 188.49 416.603 188.783 416.708 189.006C416.814 189.217 416.931 189.375 417.06 189.48C417.2 189.574 417.347 189.645 417.499 189.691V190.482H411.997C411.904 190.26 411.798 189.967 411.681 189.604C411.575 189.229 411.523 188.777 411.523 188.25C411.136 188.648 410.755 189.018 410.38 189.357C410.017 189.697 409.607 189.996 409.15 190.254C408.693 190.5 408.165 190.693 407.568 190.834C406.97 190.986 406.249 191.062 405.406 191.062C404.55 191.062 403.759 190.934 403.033 190.676C402.318 190.43 401.697 190.061 401.169 189.568C400.642 189.076 400.232 188.461 399.939 187.723C399.646 186.984 399.499 186.129 399.499 185.156C399.499 184.371 399.622 183.645 399.868 182.977C400.115 182.297 400.46 181.705 400.906 181.201C401.363 180.686 401.913 180.264 402.558 179.936C403.214 179.596 403.947 179.367 404.755 179.25L409.624 178.529ZM406.003 187.389C406.308 187.482 406.636 187.529 406.988 187.529C407.175 187.529 407.415 187.512 407.708 187.477C408.001 187.43 408.312 187.348 408.64 187.23C408.968 187.113 409.296 186.955 409.624 186.756C409.952 186.545 410.245 186.275 410.503 185.947C410.761 185.619 410.972 185.221 411.136 184.752C411.3 184.271 411.382 183.709 411.382 183.064V181.131C411.077 181.295 410.773 181.447 410.468 181.588C410.163 181.717 409.759 181.828 409.255 181.922L407.937 182.168C407.363 182.273 406.859 182.396 406.425 182.537C405.991 182.678 405.628 182.865 405.335 183.1C405.054 183.322 404.837 183.598 404.685 183.926C404.544 184.254 404.474 184.664 404.474 185.156C404.474 185.566 404.538 185.924 404.667 186.229C404.796 186.521 404.972 186.768 405.195 186.967C405.429 187.154 405.699 187.295 406.003 187.389ZM435.247 186.809C435.821 186.809 436.319 186.697 436.741 186.475C437.163 186.24 437.514 185.953 437.796 185.613C438.077 185.273 438.282 184.91 438.411 184.523C438.552 184.137 438.622 183.785 438.622 183.469H443.807C443.807 183.785 443.749 184.195 443.632 184.699C443.526 185.203 443.345 185.736 443.087 186.299C442.829 186.861 442.483 187.43 442.05 188.004C441.628 188.566 441.095 189.076 440.45 189.533C439.817 189.979 439.073 190.342 438.218 190.623C437.362 190.916 436.372 191.062 435.247 191.062C433.782 191.062 432.487 190.84 431.362 190.395C430.249 189.949 429.311 189.299 428.55 188.443C427.8 187.576 427.225 186.51 426.827 185.244C426.44 183.979 426.247 182.531 426.247 180.902C426.247 179.273 426.458 177.832 426.88 176.578C427.313 175.312 427.923 174.252 428.708 173.396C429.493 172.529 430.436 171.873 431.538 171.428C432.651 170.982 433.888 170.76 435.247 170.76C435.833 170.76 436.436 170.807 437.057 170.9C437.69 170.994 438.311 171.158 438.921 171.393C439.53 171.615 440.11 171.908 440.661 172.271C441.223 172.635 441.721 173.092 442.155 173.643C442.6 174.182 442.964 174.82 443.245 175.559C443.538 176.285 443.725 177.129 443.807 178.09H438.622C438.528 177.586 438.399 177.146 438.235 176.771C438.071 176.385 437.854 176.062 437.585 175.805C437.327 175.535 437.005 175.336 436.618 175.207C436.243 175.066 435.786 174.996 435.247 174.996C434.415 174.996 433.747 175.189 433.243 175.576C432.751 175.963 432.37 176.449 432.1 177.035C431.831 177.621 431.649 178.26 431.555 178.951C431.473 179.643 431.432 180.293 431.432 180.902C431.432 181.535 431.468 182.203 431.538 182.906C431.608 183.598 431.772 184.236 432.03 184.822C432.288 185.396 432.669 185.871 433.173 186.246C433.677 186.621 434.368 186.809 435.247 186.809ZM468.815 171.322V175.365H463.014V190.482H458.057V175.365H452.256V171.322H468.815ZM487.142 178.529C487.318 178.506 487.506 178.471 487.705 178.424C487.916 178.377 488.109 178.301 488.285 178.195C488.461 178.078 488.607 177.926 488.724 177.738C488.842 177.539 488.9 177.275 488.9 176.947C488.9 176.631 488.848 176.344 488.742 176.086C488.648 175.816 488.484 175.588 488.25 175.4C488.015 175.201 487.699 175.049 487.301 174.943C486.914 174.838 486.428 174.785 485.842 174.785C485.174 174.785 484.635 174.855 484.224 174.996C483.826 175.125 483.51 175.312 483.275 175.559C483.041 175.793 482.871 176.074 482.765 176.402C482.66 176.719 482.584 177.059 482.537 177.422H477.562C477.562 177.188 477.598 176.865 477.668 176.455C477.75 176.033 477.89 175.576 478.09 175.084C478.301 174.592 478.588 174.094 478.951 173.59C479.326 173.086 479.812 172.629 480.41 172.219C481.019 171.797 481.758 171.451 482.625 171.182C483.492 170.912 484.529 170.771 485.736 170.76C487.447 170.76 488.83 170.936 489.885 171.287C490.951 171.627 491.777 172.078 492.363 172.641C492.961 173.191 493.359 173.812 493.558 174.504C493.769 175.184 493.875 175.863 493.875 176.543V186.703C493.875 187.277 493.904 187.752 493.963 188.127C494.033 188.49 494.121 188.783 494.226 189.006C494.332 189.217 494.449 189.375 494.578 189.48C494.719 189.574 494.865 189.645 495.017 189.691V190.482H489.515C489.422 190.26 489.316 189.967 489.199 189.604C489.094 189.229 489.041 188.777 489.041 188.25C488.654 188.648 488.273 189.018 487.898 189.357C487.535 189.697 487.125 189.996 486.668 190.254C486.211 190.5 485.683 190.693 485.086 190.834C484.488 190.986 483.767 191.062 482.924 191.062C482.068 191.062 481.277 190.934 480.551 190.676C479.836 190.43 479.215 190.061 478.687 189.568C478.16 189.076 477.75 188.461 477.457 187.723C477.164 186.984 477.017 186.129 477.017 185.156C477.017 184.371 477.14 183.645 477.387 182.977C477.633 182.297 477.978 181.705 478.424 181.201C478.881 180.686 479.431 180.264 480.076 179.936C480.732 179.596 481.465 179.367 482.273 179.25L487.142 178.529ZM483.521 187.389C483.826 187.482 484.154 187.529 484.506 187.529C484.693 187.529 484.933 187.512 485.226 187.477C485.519 187.43 485.83 187.348 486.158 187.23C486.486 187.113 486.814 186.955 487.142 186.756C487.471 186.545 487.764 186.275 488.021 185.947C488.279 185.619 488.49 185.221 488.654 184.752C488.818 184.271 488.9 183.709 488.9 183.064V181.131C488.596 181.295 488.291 181.447 487.986 181.588C487.681 181.717 487.277 181.828 486.773 181.922L485.455 182.168C484.881 182.273 484.377 182.396 483.943 182.537C483.51 182.678 483.146 182.865 482.853 183.1C482.572 183.322 482.355 183.598 482.203 183.926C482.062 184.254 481.992 184.664 481.992 185.156C481.992 185.566 482.056 185.924 482.185 186.229C482.314 186.521 482.49 186.768 482.713 186.967C482.947 187.154 483.217 187.295 483.521 187.389ZM512.765 186.809C513.339 186.809 513.837 186.697 514.259 186.475C514.681 186.24 515.033 185.953 515.314 185.613C515.595 185.273 515.8 184.91 515.929 184.523C516.07 184.137 516.14 183.785 516.14 183.469H521.326C521.326 183.785 521.267 184.195 521.15 184.699C521.044 185.203 520.863 185.736 520.605 186.299C520.347 186.861 520.001 187.43 519.568 188.004C519.146 188.566 518.613 189.076 517.968 189.533C517.335 189.979 516.591 190.342 515.736 190.623C514.88 190.916 513.89 191.062 512.765 191.062C511.3 191.062 510.005 190.84 508.88 190.395C507.767 189.949 506.829 189.299 506.068 188.443C505.318 187.576 504.744 186.51 504.345 185.244C503.958 183.979 503.765 182.531 503.765 180.902C503.765 179.273 503.976 177.832 504.398 176.578C504.831 175.312 505.441 174.252 506.226 173.396C507.011 172.529 507.954 171.873 509.056 171.428C510.169 170.982 511.406 170.76 512.765 170.76C513.351 170.76 513.954 170.807 514.576 170.9C515.208 170.994 515.829 171.158 516.439 171.393C517.048 171.615 517.628 171.908 518.179 172.271C518.742 172.635 519.24 173.092 519.673 173.643C520.119 174.182 520.482 174.82 520.763 175.559C521.056 176.285 521.244 177.129 521.326 178.09H516.14C516.046 177.586 515.917 177.146 515.753 176.771C515.589 176.385 515.372 176.062 515.103 175.805C514.845 175.535 514.523 175.336 514.136 175.207C513.761 175.066 513.304 174.996 512.765 174.996C511.933 174.996 511.265 175.189 510.761 175.576C510.269 175.963 509.888 176.449 509.619 177.035C509.349 177.621 509.167 178.26 509.074 178.951C508.992 179.643 508.951 180.293 508.951 180.902C508.951 181.535 508.986 182.203 509.056 182.906C509.126 183.598 509.29 184.236 509.548 184.822C509.806 185.396 510.187 185.871 510.691 186.246C511.195 186.621 511.886 186.809 512.765 186.809ZM543.714 190.482V178.934H543.626L536.858 190.482H531.427V171.322H536.401V183.135H536.472L543.45 171.322H548.671V190.482H543.714ZM560.705 182.977C560.893 182.707 561.151 182.473 561.479 182.273C561.807 182.074 562.246 181.893 562.797 181.729C562.621 181.682 562.422 181.617 562.2 181.535C561.989 181.441 561.76 181.324 561.514 181.184C561.28 181.031 561.039 180.844 560.793 180.621C560.559 180.387 560.336 180.1 560.125 179.76C559.973 179.537 559.85 179.303 559.756 179.057C559.674 178.799 559.61 178.553 559.563 178.318C559.516 178.072 559.487 177.844 559.475 177.633C559.463 177.422 559.457 177.24 559.457 177.088C559.457 176.408 559.539 175.805 559.703 175.277C559.868 174.738 560.078 174.27 560.336 173.871C560.594 173.473 560.887 173.133 561.215 172.852C561.543 172.57 561.877 172.342 562.217 172.166C562.592 171.955 563.008 171.797 563.465 171.691C563.922 171.574 564.368 171.492 564.801 171.445C565.235 171.387 565.639 171.352 566.014 171.34C566.389 171.328 566.682 171.322 566.893 171.322H577.194V190.482H572.202V183.434H568.95C568.235 183.434 567.62 183.463 567.104 183.521C566.6 183.568 566.184 183.691 565.856 183.891C565.528 184.078 565.276 184.359 565.1 184.734C564.936 185.109 564.842 185.619 564.819 186.264L564.748 188.109C564.725 188.379 564.69 188.73 564.643 189.164C564.608 189.598 564.496 190.037 564.309 190.482H559.053C559.205 190.225 559.328 189.979 559.422 189.744C559.516 189.498 559.586 189.264 559.633 189.041C559.692 188.807 559.733 188.572 559.756 188.338C559.791 188.104 559.821 187.857 559.844 187.6L560.09 185.297C560.149 184.781 560.219 184.336 560.301 183.961C560.383 183.586 560.518 183.258 560.705 182.977ZM564.995 178.898C565.194 179.215 565.452 179.449 565.768 179.602C566.096 179.754 566.459 179.842 566.858 179.865C567.256 179.889 567.655 179.9 568.053 179.9H572.202V175.066H568.194C567.772 175.066 567.35 175.078 566.928 175.102C566.506 175.125 566.125 175.219 565.786 175.383C565.457 175.535 565.188 175.781 564.977 176.121C564.778 176.449 564.678 176.918 564.678 177.527C564.678 178.125 564.784 178.582 564.995 178.898Z" fill="black"/>
<path d="M26.0664 120.119C26.7435 120.145 27.4596 120.243 28.2148 120.412C28.9831 120.568 29.7513 120.822 30.5195 121.174C31.3008 121.525 32.0039 122.027 32.6289 122.678C33.2539 123.316 33.7617 124.136 34.1523 125.139C34.543 126.128 34.7383 127.352 34.7383 128.811C34.7383 130.256 34.543 131.473 34.1523 132.463C33.7617 133.452 33.2604 134.273 32.6484 134.924C32.0495 135.562 31.3789 136.057 30.6367 136.408C29.8945 136.747 29.1719 137.001 28.4688 137.17C27.7786 137.326 27.1406 137.417 26.5547 137.443C25.9818 137.469 25.5586 137.482 25.2852 137.482H11.2812V108.771H32.1797V113.713H17.2773V120.08H24.4062C24.8359 120.08 25.3893 120.093 26.0664 120.119ZM17.2773 132.521H23.7617C24.3086 132.521 24.8685 132.482 25.4414 132.404C26.0273 132.326 26.5612 132.157 27.043 131.896C27.5378 131.636 27.9414 131.252 28.2539 130.744C28.5664 130.223 28.7227 129.533 28.7227 128.674C28.7227 127.775 28.5664 127.072 28.2539 126.564C27.9544 126.044 27.5573 125.653 27.0625 125.393C26.5677 125.132 26.0078 124.969 25.3828 124.904C24.7708 124.839 24.1523 124.807 23.5273 124.807H17.2773V132.521ZM57.8172 114.924C57.1531 114.13 56.2026 113.732 54.9656 113.732C53.2729 113.732 52.1206 114.364 51.5086 115.627C51.157 116.356 50.9487 117.515 50.8836 119.104H45.4734C45.5646 116.695 46.0008 114.748 46.782 113.264C48.2664 110.438 50.9031 109.025 54.6922 109.025C57.687 109.025 60.0698 109.859 61.8406 111.525C63.6115 113.179 64.4969 115.373 64.4969 118.107C64.4969 120.204 63.8719 122.066 62.6219 123.693C61.8016 124.774 60.4539 125.979 58.5789 127.307L56.3523 128.889C54.9591 129.878 54.0021 130.594 53.4813 131.037C52.9734 131.48 52.5438 131.994 52.1922 132.58H64.5555V137.482H45.1609C45.213 135.451 45.6492 133.596 46.4695 131.916C47.2638 130.028 49.1388 128.029 52.0945 125.92C54.6596 124.084 56.3198 122.769 57.075 121.975C58.2339 120.738 58.8133 119.383 58.8133 117.912C58.8133 116.714 58.4813 115.718 57.8172 114.924ZM84.0406 123.42C83.3635 123.42 82.7776 123.505 82.2828 123.674C81.4104 123.986 80.7529 124.566 80.3102 125.412L75.3102 125.178L77.3023 109.533H92.9078V114.26H81.3258L80.3102 120.451C81.1695 119.891 81.8401 119.52 82.3219 119.338C83.1292 119.038 84.1122 118.889 85.2711 118.889C87.6148 118.889 89.6591 119.676 91.4039 121.252C93.1487 122.827 94.0211 125.119 94.0211 128.127C94.0211 130.744 93.1813 133.081 91.5016 135.139C89.8219 137.196 87.3089 138.225 83.9625 138.225C81.2672 138.225 79.0536 137.502 77.3219 136.057C75.5901 134.611 74.6266 132.561 74.4313 129.904H79.9781C80.1995 131.115 80.6227 132.053 81.2477 132.717C81.8727 133.368 82.7841 133.693 83.982 133.693C85.3622 133.693 86.4104 133.212 87.1266 132.248C87.8557 131.271 88.2203 130.048 88.2203 128.576C88.2203 127.131 87.8818 125.913 87.2047 124.924C86.5276 123.921 85.4729 123.42 84.0406 123.42ZM111.065 132.834C111.885 132.834 112.53 132.593 112.998 132.111C113.467 131.63 113.793 131.024 113.975 130.295L103.799 108.771H110.557L117.08 124.201L122.803 108.771H129.248L120.088 129.963C118.89 132.762 117.621 134.839 116.28 136.193C114.939 137.535 113.441 138.205 111.787 138.205C111.267 138.205 110.811 138.179 110.42 138.127C110.043 138.075 109.711 138.01 109.424 137.932C109.151 137.854 108.903 137.775 108.682 137.697C108.474 137.619 108.272 137.548 108.077 137.482V132.033C108.454 132.281 108.89 132.476 109.385 132.619C109.88 132.762 110.44 132.834 111.065 132.834ZM165.609 137.482H158.011L149.124 124.768L146.195 127.756V137.482H140.198V108.771H146.195V120.451L157.171 108.771H164.925L153.206 120.529L165.609 137.482ZM193.141 137.482V118.049H193.062L181.715 137.482H175.621V108.771H181.383V128.322H181.461L192.828 108.771H198.902V137.482H193.141ZM219.95 138.186C216.343 138.186 213.811 136.923 212.352 134.396C210.907 131.87 210.184 128.27 210.184 123.596C210.184 118.921 210.907 115.314 212.352 112.775C213.811 110.236 216.343 108.967 219.95 108.967C223.557 108.967 226.089 110.236 227.548 112.775C228.993 115.314 229.716 118.921 229.716 123.596C229.716 128.27 228.986 131.87 227.528 134.396C226.083 136.923 223.557 138.186 219.95 138.186ZM223.212 131.057C223.72 129.338 223.973 126.851 223.973 123.596C223.973 120.184 223.713 117.658 223.192 116.018C222.684 114.377 221.604 113.557 219.95 113.557C218.296 113.557 217.203 114.377 216.669 116.018C216.135 117.658 215.868 120.184 215.868 123.596C215.868 126.851 216.135 129.344 216.669 131.076C217.203 132.795 218.296 133.654 219.95 133.654C221.604 133.654 222.691 132.788 223.212 131.057ZM252.306 114.924C251.642 114.13 250.692 113.732 249.455 113.732C247.762 113.732 246.61 114.364 245.998 115.627C245.646 116.356 245.438 117.515 245.373 119.104H239.962C240.054 116.695 240.49 114.748 241.271 113.264C242.755 110.438 245.392 109.025 249.181 109.025C252.176 109.025 254.559 109.859 256.33 111.525C258.101 113.179 258.986 115.373 258.986 118.107C258.986 120.204 258.361 122.066 257.111 123.693C256.291 124.774 254.943 125.979 253.068 127.307L250.841 128.889C249.448 129.878 248.491 130.594 247.97 131.037C247.462 131.48 247.033 131.994 246.681 132.58H259.045V137.482H239.65C239.702 135.451 240.138 133.596 240.959 131.916C241.753 130.028 243.628 128.029 246.584 125.92C249.149 124.084 250.809 122.769 251.564 121.975C252.723 120.738 253.302 119.383 253.302 117.912C253.302 116.714 252.97 115.718 252.306 114.924Z" fill="black"/>
</svg>
