<svg width="96" height="96" viewBox="0 0 96 96" fill="none" xmlns="http://www.w3.org/2000/svg">
<path d="M44.3165 54.5022C41.0689 54.5086 33.4065 54.7223 31.39 55.5041C29.2679 56.3268 28.1007 62.7027 27.1185 71.1539C26.719 74.5912 30.8697 77.4306 33.087 78.9014C34.0383 79.5324 37.4525 80.1333 43.7582 81.0047C51.6356 82.0932 57.0041 81.3067 58.9408 80.8047C63.873 79.5265 66.1167 77.659 68.1631 76.0463C70.0866 74.5305 70.8166 72.2031 71.4722 68.4416C72.1051 64.8106 68.2731 58.8658 65.8541 55.2119C64.7957 53.6133 59.2833 51.171 54.7546 49.2185C51.8298 47.9575 42.9484 49.0139 38.6581 50.2523C33.0426 51.873 33.5929 56.2043 32.2085 60.2095C31.1355 63.3134 31.9515 67.259 32.6272 68.5689C33.412 70.0903 34.7655 70.9354 35.3445 71.5498C35.5785 71.7982 35.9865 71.5998 36.1972 71.3408C37.2985 69.9872 37.517 65.5587 38.0113 61.8507C38.261 59.9773 38.7506 58.6982 39.3955 58.0116C39.794 57.5874 40.2521 60.0966 41.2286 62.8479C43.7299 69.8953 45.8088 71.0192 45.8863 72.0326C46.0885 74.6744 47.5299 63.2948 49.1674 58.2564C49.8201 56.2478 49.7615 54.1819 50.597 52.8747C52.1938 50.3764 52.3137 57.7657 54.5211 60.9002C58.1689 66.0803 57.8935 71.8952 57.9632 72.4461C58.2493 74.7101 62.3367 67.6411 63.6255 64.141C63.9171 63.3489 63.8352 62.8847 63.8215 63.2785C63.6743 67.5108 61.7615 70.9961 60.2651 71.9636C58.4615 73.1297 55.0532 73.0818 52.011 72.892C46.8265 72.5686 41.5452 63.6176 39.7458 61.4548C37.3558 58.5821 31.6862 57.4427 25.3994 56.2602C21.8276 55.5884 20.0348 55.232 18.0219 55.1671C16.1183 55.1057 22.9943 56.8616 29.4922 59.9576C33.8958 62.0557 35.5103 63.5681 36.4234 64.9116C36.5779 65.1388 35.9881 65.3499 35.6155 65.3413C35.243 65.3328 34.8831 65.1332 34.6858 65.1998C33.513 65.5952 32.8601 66.9868 29.4327 68.5373C22.6752 71.5942 21.5105 72.8094 19.5373 74.0931C18.5212 74.7541 17.4643 75.6136 16.5724 76.1128C15.3071 76.821 20.2811 74.2612 23.612 72.731C27.7364 70.8362 32.6513 69.7442 36.0155 69.1976C37.2819 68.9918 37.6684 69.0117 37.8962 70.3401C38.5727 74.2861 38.1015 78.0899 37.6813 80.2554C36.6643 85.4959 33.6788 88.8067 32.3636 90.4839C32.2233 90.6628 32.7456 89.4408 34.7754 86.6199C42.397 76.0276 43.4453 74.6877 44.902 73.8141C48.3641 71.7377 55.2015 73.8745 57.3552 72.7158C58.9833 71.8398 64.0642 70.8447 70.9375 70.6423C75.1604 70.5179 83.4938 71.2795 87.9284 71.5324C88.3256 71.555 88.6628 71.7835 89.0479 71.8642C89.433 71.9449 89.8387 71.9568 89.045 71.7379C88.2513 71.519 86.2459 71.0689 82.8342 70.5762C79.4226 70.0836 74.6654 69.562 70.7896 69.2433C59.2949 68.2982 55.2527 67.2732 54.7923 66.8227C54.5712 66.6064 54.7034 66.2117 54.8892 65.8475C57.2266 61.2664 66.2638 57.2782 67.8417 56.7908C68.904 56.4626 73.3527 55.5485 78.7975 53.7442C80.5334 53.169 80.0304 52.9316 79.4697 52.8983C76.2044 52.7042 71.7921 55.2206 68.8505 56.5374C62.2937 59.4726 57.9401 63.0719 54.6323 64.6356C54.3091 64.7884 54.0779 64.2773 53.9777 63.8104C53.5192 61.6759 57.0124 54.3631 58.6336 49.6697C59.3085 47.7159 59.9907 46.4039 60.8995 45.0449C61.6986 43.85 61.899 42.4913 62.2233 41.5025C62.2615 41.386 62.4548 42.0101 62.4163 42.4339C62.2499 44.2696 60.1695 45.6073 58.6132 49.6693C56.6995 54.6643 54.9627 57.9603 54.4111 58.3996C53.1228 59.4256 50.5656 58.2894 48.2672 58.3961C46.3306 58.4861 44.8034 58.3521 43.9575 57.9547C42.6794 57.3542 40.0863 54.4089 35.4127 48.9437C32.6931 45.7634 29.9688 41.2836 27.8488 38.4555C24.7309 34.2961 22.6622 32.9345 20.7388 31.8678C13.5867 27.9013 8.60063 24.9467 5.55812 23.2285C4.83731 22.8215 11.021 25.6231 17.6599 29.7583C21.2226 31.9774 24.8231 34.8975 27.2947 36.9587C31.0642 40.1023 34.1454 43.393 38.2069 46.8316C41.8155 49.8867 44.7772 51.0599 46.0119 51.269C46.4959 51.351 46.7192 50.931 46.8172 50.5401C47.3564 48.3899 45.5595 45.8163 45.2085 40.8142C44.9147 36.6276 44.9606 29.0692 44.8868 23.5668C44.7697 14.8405 44.9954 10.3933 45.4282 8.42336C45.7259 7.06849 45.89 6.25572 46.5115 5.80226C46.8334 5.56737 47.2679 5.44835 47.4032 5.52329C49.2501 6.54643 43.1848 9.67461 42.1556 11.6071C41.7202 12.4247 41.0735 17.0126 39.9989 24.4825C39.1685 30.2553 40.1225 35.3733 40.9957 39.4708C41.6767 42.6662 43.6332 46.8676 44.9159 50.4532C45.1455 51.1278 45.3224 51.8285 45.4906 52.406C45.6587 52.9835 45.8128 53.4166 46.0776 54.3978" stroke="black" stroke-width="11" stroke-linecap="round"/>
</svg>
