<svg width="2800" height="812" viewBox="0 0 2800 812" fill="none" xmlns="http://www.w3.org/2000/svg">
<rect width="1400" height="812" fill="white"/>
<path d="M1179.91 572.672C1179.83 581.882 1179.21 603.719 1177.54 609.809C1177.14 611.302 1176.23 612.657 1175.04 613.62C1173.86 614.582 1172.24 615.055 1170.54 614.995C1168.85 614.935 1167.14 614.328 1165.46 612.659C1157.65 604.881 1153.58 580.787 1151.06 543.794C1150.49 535.348 1153.89 531.814 1155.95 528.882C1157.86 526.156 1160.83 524.481 1166.23 523.501C1183.57 520.359 1191.62 526.892 1211 536.158C1215.14 538.136 1217.23 537.938 1219.08 537.394C1233.17 533.236 1242.75 509.592 1245.57 498.154C1247.99 488.287 1245.41 480.609 1243.76 477.706C1239.6 470.425 1229.69 464.056 1206.59 450.773C1199.55 446.721 1197.16 443.005 1195.53 440.105C1193.96 437.326 1194.13 431.324 1194.81 423.901C1195.31 418.516 1198.9 415.479 1203.14 412.721C1218.36 402.826 1236.96 403.553 1251.53 407.545C1278.99 415.071 1295.55 435.169 1304.23 436.887C1310.16 438.062 1315.48 436.523 1318.89 435.016C1329.61 430.283 1333.31 413.44 1334.67 400.95C1335.49 393.518 1336.21 386.221 1335.48 380.332C1334.02 368.455 1314.2 360.963 1309.17 354.386C1303.86 347.438 1307.02 334.777 1312.44 320.568C1317.25 307.949 1329.45 301.91 1343.09 297.328C1347.56 295.825 1352.61 295.792 1358.48 296.281C1368.47 297.112 1371.29 313.285 1374 325.155C1372.64 329.346 1368.74 332.457 1363.96 334.711C1361.8 335.461 1360.17 335.411 1357.84 333.432" stroke="black" stroke-width="30" stroke-linecap="round"/>
<path d="M1058 275.46C1068.79 275.513 1094.65 277.736 1101.13 282.893C1104.59 285.642 1113.15 304.42 1126.02 329.902C1131.82 341.39 1143.14 345.495 1157.95 350.67C1171.28 355.329 1180.54 351.951 1183.84 349.598C1192.15 343.673 1193.09 336.199 1195.79 326.173C1198.14 317.423 1184.67 302.645 1178.13 292.338C1176.38 289.581 1176.3 284.637 1176.74 278.884C1177.11 274.059 1181.25 271.31 1184.18 269.198C1187.37 266.896 1191.87 265.713 1197.46 264.471C1213.38 260.934 1228.04 278.309 1235.74 283.533C1238.47 285.387 1244.87 285.143 1252.19 284.911C1260.3 281.024 1265.48 275.647 1267.58 272.903C1268.59 271.528 1269.49 270.187 1271 268.145" stroke="black" stroke-width="30" stroke-linecap="round"/>
<path d="M1351 18C1349.06 18 1341.54 19.1985 1331.34 25.4981C1322.86 30.7423 1318.5 40.98 1317.59 48.4637C1317.16 51.9843 1322.7 63.6862 1330.96 87.4487C1341.48 117.737 1342.86 142.962 1342.27 156.88C1341.24 181.328 1333.25 188.642 1327.5 194.461C1319.62 202.444 1301.51 195.031 1295.81 190.681C1287.4 184.257 1283.76 164.165 1280.83 141.941C1276.31 107.726 1278.49 84.0484 1276.84 78.9252C1273.55 68.6904 1263.38 61.788 1253.45 55.7086C1246.1 51.2118 1235.23 50.476 1201.95 50.4505C1180.43 50.434 1163.78 76.7637 1160.1 84.5619C1159.14 86.5856 1159.72 89.5033 1160.11 91.7682C1160.83 95.8457 1177.18 115.463 1200.69 144.009C1211.24 156.814 1212.85 161.76 1213.74 167.064C1215.15 175.428 1213.23 182.546 1210.88 185.893C1206.44 192.229 1197.34 192.05 1185.42 192.087C1175.11 192.119 1164.08 178.488 1155.97 166.164C1149.81 156.817 1148.33 148.388 1146.66 146.009C1145.83 144.834 1143.98 144.627 1142.43 144.615C1139.43 145.022 1136.17 147.161 1133.03 150.345C1131.66 151.823 1130.72 153.022 1128 157.062" stroke="black" stroke-width="30" stroke-linecap="round"/>
<path d="M1037.04 66.0664C1036.92 66.0664 1035.14 65.6256 1031.96 64.2359C1028.66 62.7953 1027.95 55.9328 1027.88 48.4785C1027.81 40.2971 1038.6 33.3358 1047.37 28.4388C1055.57 23.8622 1063.7 25.0589 1067.26 25.3838C1082.1 26.7373 1091.22 59.9478 1092.95 81.4916C1093.47 87.9012 1089.53 93.4476 1085.64 99.6554C1080.75 107.452 1050.89 111.681 1016.98 112.835C1000.47 113.398 973.272 95.1771 954.422 88.0127C947.165 85.2547 939.88 88.3548 935.625 90.1949C932.002 91.7616 930.23 95.0652 928.9 98.1354C927.472 101.431 927.587 106.066 927.935 110.907C928.581 119.903 940.92 128.15 960.427 138.499C985.594 151.851 1008.6 157.888 1017.07 162.492C1029.77 169.396 1037.36 180.503 1046.94 196.946C1051.01 203.932 1050.7 214.097 1049.74 222.708C1049.5 224.815 1047.71 227.069 1046.02 229.061C1042.69 232.972 1023.93 238.625 995.194 245.944C963.799 253.938 954.779 256.205 943.634 264.526C936.581 269.792 924.998 269.819 914.966 267.627C910.651 266.684 909.259 261.926 908.409 257.924C906.295 247.962 912.225 241.393 929.55 220.641C933.299 216.3 934.417 215.288 935.735 214.479C937.053 213.67 938.537 213.095 935.635 211.417" stroke="black" stroke-width="30" stroke-linecap="round"/>
<path d="M779.913 60.8849C779.687 60.8849 777.672 60.6503 774.284 59.4581C772.6 58.8657 771.768 56.8274 771.122 55.0182C769.84 51.4244 771.491 43.8928 776.566 34.0712C781.91 23.727 793.522 22.949 797.265 22.1767C799.047 21.8093 800.687 22.0436 802.229 22.6145C818.101 28.4925 832.511 51.9844 836.949 52.234C848.073 52.8596 870.374 35.5299 881.451 29.3204C884.449 27.6399 888.831 30.2671 892.471 33.1723C899.301 38.6233 897.077 53.6157 894.389 66.78C892.105 77.963 882.675 89.41 875.918 98.9602C871.942 104.579 851.612 118.481 822.685 138.018C810.432 146.294 808.509 150.111 807.451 154.579C804.69 166.231 820.946 192.142 828.683 209.308C830.651 213.675 827.61 218.763 824.523 222.617C819.121 229.36 810.643 232.617 793.612 238.298C776.674 243.948 754.915 239.644 742.962 235.327C736.06 232.835 732.353 228.275 730.378 225.329C725.798 218.498 739.833 185.281 746.135 161.488C748 154.45 745.365 148.891 742.595 146.134C734.831 138.404 719.224 139.964 704.227 136.386C701.07 135.633 699.458 135.398 698.313 136.06C697.167 136.721 696.545 138.255 696.225 143.117C695.904 147.978 695.904 156.121 696.368 165.06" stroke="black" stroke-width="30" stroke-linecap="round"/>
<path d="M649.06 275C649.02 261.744 647.729 235.023 644.759 232.644C641.072 229.69 621.253 224.235 593.345 216.396C570.319 209.928 561.956 199.641 556.167 188.418C550.632 177.69 556.969 167.774 561.066 164.403C567.621 159.009 574.148 156.284 577.676 155.246C589.165 151.865 603.424 162.656 609.791 169.404C611.307 171.01 613.183 171.625 615.188 171.74C624.375 172.27 632.425 161.582 639.156 150.262C649.396 133.04 644.803 108.37 648.68 100.76C654.336 94.9144 659.024 92.0981 662.542 91.0918C664.615 90.6203 667.271 90.2283 674 90" stroke="black" stroke-width="30" stroke-linecap="round"/>
<path d="M575 25.7863C574.723 31.4755 574.196 44.4971 573.055 47.2676C571.88 50.1221 560.196 53.2461 537.743 58.1072C491.826 68.0481 478.232 72.7168 468.355 80.824C465.353 83.288 465.769 87.8017 466.016 92.098C467.344 115.226 494.452 144.329 494.604 152.717C494.863 166.962 468.977 170.662 459.618 173.561C450.308 176.445 439.823 174.494 433.616 172.078C427.571 169.725 411.534 148.79 401.079 133.541C395.877 125.954 397.287 103.786 398.914 88.9629C399.852 80.4169 406.333 75.2561 406.345 71.8126C406.4 55.3836 371.533 36.6346 355.088 27.4681C346.383 22.6159 332.552 23.7386 322.231 25.5422C320.246 25.8892 318.824 27.0184 317.76 28.2547C313.241 33.5088 318.274 48.4847 323.291 59.0392C328.215 69.4 348.385 85.3899 354.742 96.6852C357.372 101.36 354.7 107.243 353.242 111.332C351.413 114.694 348.994 117.278 346.134 118.931C344.658 119.529 343.133 119.635 341.129 119.574" stroke="black" stroke-width="30" stroke-linecap="round"/>
<path d="M306 282C306.174 268.574 307.636 237.895 310.838 230.71C316.189 218.698 333.778 212.293 341.677 209.336C353.694 204.836 362.957 212.767 368.464 217.434C373.918 222.055 376.015 230.545 377.107 259.005C377.419 267.112 379.516 270.563 381.979 273.269C394.601 287.135 432.93 277.052 446.015 273.9C465.776 269.139 476.921 266.212 485.877 267.694C489.522 268.297 493.342 268.508 497.434 267.724C506.53 265.982 511.448 254.094 514.205 246.025C517.692 235.82 508.979 223.874 502.193 216.522C498.872 215.184 483.096 214.147 460.945 213.862C452.808 214.155 450.975 215.333 446.998 217.581" stroke="black" stroke-width="30" stroke-linecap="round"/>
<path d="M44.5304 70.8974C44.1843 67.3202 43.5159 57.9173 44.5652 52.1273C46.8397 39.5767 68.1926 35.9563 82.0836 32.8229C90.393 30.9486 97.2059 36.8905 100.957 40.6357C106.368 46.038 111.19 58.4121 114.743 74.4879C118.8 92.8436 117.753 107.813 119.862 112.696C121.96 117.555 126.947 120.357 132.193 122.525C148.184 129.134 166.807 124.356 198.269 109.743C205.045 106.595 206.399 104.942 207.47 103.261C209.634 99.8627 209.436 94.8677 208.554 89.9813C206.868 80.6427 191.688 71.1795 184.006 63.5307C173.016 52.5891 174.31 44.7475 175.006 40.1669C175.726 35.4225 181.083 32.908 185.637 31.2407C200.395 25.8386 220.307 30.7407 235.337 40.2105C262.26 57.1742 268.21 70.6011 272.256 80.332C281.543 102.665 274.996 126.107 271.121 134.96C265.957 146.756 254.27 151.511 239.953 156.2C208.924 166.361 189.35 166.338 180.508 170.051C176.488 171.739 174.3 175.6 173.195 179.361C171.916 183.714 173.763 188.934 176.183 194.144C181.663 205.941 203.217 215.39 225.782 226.058C229.576 227.851 230.446 229.834 231.027 232.676C232.397 239.379 231.254 245.697 229.542 249.987C225.451 260.244 199.38 269.782 187.706 280.176C188.352 295.797 193.788 305.972 199.316 313.551C201.781 316.53 203.557 317.746 205.385 319" stroke="black" stroke-width="30" stroke-linecap="round"/>
<path d="M49.7528 195.324C49.2671 195.324 47.6896 193.91 45.65 190.906C44.6667 189.458 44.88 187.593 45.7494 186.081C47.6487 182.777 52.3591 181.344 60.9387 180.271C67.387 179.464 78.2548 179.829 84.697 190.44C101.893 218.763 89.9431 249.716 81.4368 260.315C68.1835 276.827 67.2471 289.474 67.3756 300.288C67.4651 307.82 76.8054 320.246 84.344 329.481C94.8558 342.357 133.475 357.147 148.124 365.133C159.785 371.489 167.496 388.47 171.362 397.452C173.083 401.451 173.27 405.336 172.734 409.475C171.164 421.587 158.858 427.372 147.09 433.175C125.654 443.745 88.5511 441.334 78.4673 438.915C70.0824 436.904 65.6283 427.309 58.8315 415.156C55.3703 408.968 55.0914 403.075 54.9967 398.935C54.9128 395.264 58.1017 391.786 62.7433 388.489C73.9078 380.558 87.2604 382.568 89.7242 383.896C90.5668 384.984 90.5817 386.909 91.0038 388.855C91.4258 390.8 92.2545 392.707 93.9604 397.662" stroke="black" stroke-width="30" stroke-linecap="round"/>
<path d="M177.675 523.362C172.383 519.833 146.768 506.765 111.829 498.626C77.6031 490.653 61.0879 502.553 45.7616 511.466C38.4266 515.731 34.5533 523.461 32.3131 531.636C31.3466 535.162 32.7706 538.979 34.5023 542.831C36.364 546.973 40.3003 549.83 43.9871 552.188C47.774 554.611 65.2635 557.538 98.4955 562.891C137.888 569.235 161.821 570.89 165.803 572.432C170.721 574.337 174.136 577.634 176.057 581.113C183.841 595.215 176.927 618.993 170.697 627.205C163.901 636.162 148.427 635.148 130.449 634.477C126.643 634.335 125.604 637.322 124.957 641.768C122.136 661.149 125.88 667.75 131.254 676.606C136.047 684.505 163.018 689.238 181.067 694.768C185.705 696.189 188.38 700.496 190.644 704.224C192.834 707.832 193.168 714.345 192.938 721.694C192.564 733.678 176.022 744.81 165.881 750.502C161.304 752.275 156.77 753.128 152.428 752.985C150.416 752.726 148.793 752.089 145.916 747.935" stroke="black" stroke-width="30" stroke-linecap="round"/>
<path d="M64.6327 620C59.2764 627.135 46.7309 648.849 40.1256 690.354C35.1408 721.677 40.1343 743.15 42.805 749.208C44.6972 753.5 47.4568 756.137 50.321 758.565C53.4496 761.218 60.2546 762.746 68.1012 763.887C77.3413 765.231 88.6977 754.288 94.6979 746.704C97.3681 743.329 97.1732 735.874 96.7508 728.142C96.5818 725.049 95.1978 723.774 93.8491 722.892C92.5004 722.009 90.8948 721.592 89.1885 721.645C87.4823 721.698 85.724 722.233 81.5351 726.389" stroke="black" stroke-width="30" stroke-linecap="round"/>
<path d="M1344.4 494C1344.04 499.218 1342.45 513.62 1329.54 532.351C1317.79 549.396 1253 578.387 1274.25 606.208C1277.15 610.011 1296.08 620.164 1322.31 634.455C1340.22 644.211 1370 693.081 1350.76 712.287C1341.39 721.645 1317.6 714.773 1311.87 711.243C1309.1 700.013 1310.32 691.92 1320.26 686.005" stroke="black" stroke-width="30" stroke-linecap="round"/>
<path d="M1210.72 706.522C1213.32 705.846 1221.89 699.654 1227.96 690.15C1237.42 675.353 1216.07 665.732 1205.39 661.01C1193.61 655.799 1180.9 661.568 1171.8 668.625C1164.15 674.561 1157.82 704.928 1154.26 741.537C1151.99 764.884 1165.2 775.45 1177.14 786.173C1207.33 813.311 1236.88 751.92 1251.83 734.917C1262.6 722.674 1276.85 747.305 1280.38 753.289C1293.06 774.806 1323.33 790.388 1348.41 776.101C1350.44 774.802 1352.53 773.181 1358 769.995" stroke="black" stroke-width="30" stroke-linecap="round"/>
<g clip-path="url(#clip0_433_4801)">
<rect width="1400" height="812" transform="translate(1400)" fill="white"/>
<path d="M2575.86 569.708C2575.46 578.91 2574.07 600.712 2572.19 606.74C2571.73 608.217 2570.78 609.54 2569.56 610.46C2568.34 611.381 2566.7 611.796 2565.01 611.677C2563.32 611.558 2561.63 610.891 2560.02 609.165C2552.48 601.118 2549.26 576.896 2548.04 539.837C2547.76 531.377 2551.28 527.964 2553.44 525.106C2555.45 522.448 2558.47 520.878 2563.91 520.088C2581.34 517.556 2589.17 524.366 2608.21 534.306C2612.27 536.427 2614.38 536.302 2616.24 535.824C2630.47 532.162 2640.87 508.868 2644.08 497.535C2646.85 487.759 2644.54 479.996 2642.99 477.036C2639.1 469.614 2629.41 462.902 2606.79 448.819C2599.89 444.522 2597.64 440.725 2596.11 437.77C2594.64 434.938 2595.02 428.945 2595.96 421.551C2596.65 416.186 2600.34 413.276 2604.67 410.669C2620.23 401.313 2638.8 402.691 2653.22 407.191C2680.4 415.674 2696.24 436.339 2704.86 438.36C2710.74 439.742 2716.11 438.391 2719.57 437.003C2730.45 432.649 2734.74 415.946 2736.54 403.511C2737.61 396.113 2738.59 388.845 2738.07 382.935C2737.02 371.013 2717.47 362.832 2712.68 356.083C2707.62 348.954 2711.22 336.411 2717.13 322.4C2722.38 309.958 2734.79 304.349 2748.58 300.248C2753.1 298.902 2758.15 299.047 2764 299.74C2773.95 300.92 2776.2 317.183 2778.5 329.14C2776.99 333.281 2772.98 336.253 2768.13 338.339C2765.94 339.012 2764.32 338.905 2762.06 336.847" stroke="black" stroke-width="30" stroke-linecap="round"/>
<path d="M2453.05 312.035C2463.27 308.563 2488.44 302.222 2496.24 304.981C2500.41 306.452 2514.63 321.406 2535.11 341.292C2544.34 350.257 2556.39 350.441 2572.07 350.5C2586.19 350.553 2593.84 344.336 2596.19 341.035C2602.11 332.721 2600.57 325.349 2599.84 314.992C2599.21 305.953 2581.65 296.383 2572.1 288.776C2569.55 286.741 2567.86 282.093 2566.4 276.511C2565.18 271.83 2568.19 267.879 2570.27 264.928C2572.53 261.711 2576.4 259.123 2581.29 256.123C2595.18 247.583 2614.7 259.223 2623.68 261.648C2626.87 262.508 2632.84 260.188 2639.68 257.58C2646.08 251.259 2649.22 244.485 2650.32 241.204C2650.82 239.574 2651.23 238.013 2651.99 235.592" stroke="black" stroke-width="30" stroke-linecap="round"/>
<path d="M2767.72 44.0353C2765.83 43.6195 2758.22 43.1744 2746.91 47.1386C2737.5 50.4387 2731.04 59.5016 2728.55 66.6154C2727.37 69.9621 2730.28 82.5814 2733.24 107.562C2737.01 139.403 2732.95 164.336 2729.38 177.803C2723.13 201.46 2713.75 206.888 2706.89 211.337C2697.47 217.442 2681.38 206.313 2676.75 200.842C2669.91 192.762 2670.67 172.356 2672.58 150.022C2675.51 115.635 2682.72 92.9771 2682.21 87.6197C2681.2 76.9168 2672.75 67.9929 2664.35 59.9219C2658.13 53.9519 2647.68 50.9003 2615.18 43.7316C2594.17 39.0947 2572.25 61.2367 2566.98 68.0623C2565.61 69.8336 2565.55 72.8066 2565.45 75.1038C2565.27 79.2394 2577.03 101.909 2593.87 134.838C2601.42 149.61 2601.93 154.784 2601.66 160.156C2601.24 168.629 2597.84 175.168 2594.83 177.933C2589.13 183.167 2580.28 181.04 2568.63 178.516C2558.55 176.333 2550.71 160.653 2545.43 146.875C2541.42 136.424 2541.79 127.874 2540.66 125.191C2540.11 123.865 2538.34 123.265 2536.83 122.922C2533.82 122.676 2530.17 124.065 2526.42 126.501C2524.76 127.65 2523.6 128.62 2520.07 131.98" stroke="black" stroke-width="30" stroke-linecap="round"/>
<path d="M2447.35 71.5605C2447.23 71.5443 2445.52 70.874 2442.55 69.0788C2439.47 67.2176 2439.66 60.3209 2440.57 52.9221C2441.57 44.8016 2453.18 39.3163 2462.52 35.6127C2471.25 32.1514 2479.16 34.4055 2482.64 35.1947C2497.17 38.4826 2501.85 72.6025 2500.75 94.1882C2500.42 100.61 2495.78 105.591 2491.11 111.235C2485.24 118.322 2455.08 118.596 2421.32 115.293C2404.88 113.684 2380.31 92.0517 2362.56 82.476C2355.73 78.7897 2348.1 80.9071 2343.64 82.1729C2339.84 83.2507 2337.65 86.2933 2335.93 89.1624C2334.08 92.2426 2333.59 96.8523 2333.3 101.697C2332.76 110.7 2343.91 120.494 2361.89 133.314C2385.09 149.853 2407.1 158.856 2414.89 164.531C2426.57 173.042 2432.65 185.049 2439.98 202.607C2443.1 210.066 2441.46 220.103 2439.38 228.513C2438.87 230.571 2436.79 232.57 2434.86 234.323C2431.05 237.764 2411.71 240.907 2382.26 244.391C2350.09 248.197 2340.85 249.261 2328.71 256.048C2321.02 260.342 2309.54 258.85 2299.88 255.36C2295.72 253.859 2294.97 248.96 2294.65 244.881C2293.86 234.728 2300.6 228.994 2320.5 210.694C2324.79 206.883 2326.03 206.026 2327.44 205.397C2328.85 204.768 2330.4 204.393 2327.74 202.348" stroke="black" stroke-width="30" stroke-linecap="round"/>
<path d="M2187.39 59.537C2187.17 59.5133 2185.19 59.0691 2181.95 57.5289C2180.33 56.7635 2179.72 54.6494 2179.27 52.7825C2178.37 49.0742 2180.8 41.7568 2186.87 32.5202C2193.27 22.792 2204.9 23.2335 2208.7 22.8572C2210.51 22.6782 2212.12 23.0829 2213.59 23.8121C2228.76 31.3188 2240.63 56.1898 2245.02 56.9024C2256.02 58.6887 2280.01 43.788 2291.68 38.7718C2294.84 37.4142 2298.92 40.4856 2302.23 43.7558C2308.46 49.8916 2304.68 64.569 2300.62 77.3796C2297.18 88.2623 2286.61 98.6595 2278.89 107.45C2274.35 112.622 2252.67 124.32 2221.86 140.723C2208.81 147.671 2206.5 151.266 2204.98 155.598C2201.01 166.897 2214.47 194.367 2220.36 212.249C2221.86 216.798 2218.31 221.54 2214.83 225.05C2208.76 231.19 2199.98 233.542 2182.45 237.41C2165.02 241.256 2143.83 234.699 2132.39 229.155C2125.79 225.953 2122.58 221.031 2120.92 217.894C2117.08 210.621 2134.52 179.056 2143.27 156.053C2145.86 149.248 2143.83 143.444 2141.36 140.412C2134.45 131.913 2118.76 131.83 2104.22 126.703C2101.16 125.623 2099.58 125.221 2098.37 125.759C2097.17 126.298 2096.39 127.758 2095.56 132.559C2094.73 137.361 2093.88 145.459 2093.41 154.397" stroke="black" stroke-width="30" stroke-linecap="round"/>
<path d="M2085.29 251.078C2079.58 239.116 2066.97 215.521 2063.27 214.643C2058.67 213.552 2038.43 217.11 2009.85 221.976C1986.27 225.99 1974.31 220.275 1964.27 212.613C1954.68 205.288 1956.16 193.613 1958.42 188.812C1962.03 181.131 1966.76 175.874 1969.5 173.425C1978.44 165.45 1995.95 169.096 2004.59 172.467C2006.65 173.27 2008.6 173.022 2010.47 172.268C2019 168.813 2021.69 155.707 2022.93 142.595C2024.81 122.647 2010.09 102.32 2010.34 93.783C2012.95 86.0785 2015.98 81.5257 2018.73 79.1099C2020.4 77.7963 2022.63 76.305 2028.61 73.2171" stroke="black" stroke-width="30" stroke-linecap="round"/>
<path d="M1978.41 32.1359C1977.86 37.805 1976.71 50.7859 1975.43 53.498C1974.12 56.2923 1962.3 58.8476 1939.64 62.617C1893.29 70.3255 1879.49 74.3313 1869.23 81.9512C1866.11 84.2672 1866.31 88.7957 1866.35 93.099C1866.56 116.264 1892.23 146.644 1891.97 155.03C1891.54 169.271 1865.51 171.714 1856.02 174.157C1846.58 176.588 1836.2 174.132 1830.12 171.418C1824.2 168.776 1809.19 147.089 1799.48 131.352C1794.66 123.523 1797.14 101.449 1799.48 86.7222C1800.83 78.2316 1807.55 73.3902 1807.73 69.9514C1808.58 53.5442 1774.66 33.1309 1758.68 23.1797C1750.22 17.9122 1736.35 18.3646 1725.95 19.667C1723.95 19.9175 1722.48 20.9767 1721.36 22.1601C1716.59 27.1894 1720.89 42.3913 1725.39 53.176C1729.81 63.7628 1749.18 80.7096 1754.98 92.299C1757.39 97.0959 1754.43 102.842 1752.78 106.856C1750.79 110.125 1748.25 112.589 1745.31 114.103C1743.81 114.628 1742.28 114.66 1740.28 114.503" stroke="black" stroke-width="30" stroke-linecap="round"/>
<path d="M1699.8 250.823C1703.77 237.998 1713.88 208.995 1718.99 203.014C1727.53 193.015 1746.21 191.865 1754.63 191.271C1767.43 190.366 1774.06 200.6 1778.02 206.638C1781.93 212.617 1781.53 221.353 1774.51 248.953C1772.5 256.815 1773.54 260.719 1775.13 264.013C1783.3 280.89 1822.91 282.099 1836.35 282.79C1856.65 283.834 1868.17 284.189 1876.34 288.152C1879.66 289.765 1883.27 291.051 1887.41 291.461C1896.63 292.371 1904.72 282.367 1909.65 275.413C1915.89 266.617 1910.93 252.689 1906.51 243.714C1903.7 241.489 1888.87 236.017 1867.71 229.458C1859.82 227.429 1857.73 228.039 1853.28 229.066" stroke="black" stroke-width="30" stroke-linecap="round"/>
<path d="M1422.12 103.791C1420.87 100.42 1417.83 91.4963 1417.38 85.6298C1416.38 72.9135 1436.11 63.9802 1448.75 57.4161C1456.31 53.4896 1464.41 57.5028 1468.99 60.1706C1475.6 64.0187 1483.41 74.7589 1490.93 89.4019C1499.53 106.122 1502.32 120.865 1505.6 125.051C1508.87 129.216 1514.4 130.657 1520.03 131.419C1537.18 133.743 1553.97 124.384 1580.68 102.248C1586.43 97.4808 1587.32 95.5376 1587.93 93.6392C1589.16 89.8022 1587.69 85.0219 1585.6 80.5207C1581.59 71.9182 1564.51 66.6279 1555.13 61.1852C1541.72 53.3994 1540.97 45.4865 1540.48 40.8796C1539.97 36.1081 1544.51 32.3136 1548.49 29.5424C1561.39 20.5639 1581.9 20.239 1598.84 25.5739C1629.19 35.1304 1638.36 46.6018 1644.75 54.9833C1659.41 74.2194 1659.05 98.5552 1657.55 108.103C1655.56 120.824 1645.46 128.396 1632.81 136.573C1605.39 154.293 1586.45 159.251 1578.84 165.091C1575.39 167.746 1574.25 172.037 1574.14 175.955C1574.01 180.49 1577.13 185.068 1580.79 189.491C1589.09 199.506 1612.34 203.161 1636.88 207.737C1641 208.507 1642.35 210.203 1643.63 212.804C1646.66 218.938 1647.17 225.339 1646.6 229.923C1645.25 240.883 1622.47 256.74 1613.82 269.762C1618.42 284.704 1626.27 293.162 1633.54 299.085C1636.68 301.338 1638.71 302.064 1640.8 302.811" stroke="black" stroke-width="30" stroke-linecap="round"/>
<path d="M1472.89 186.115C1472.41 186.022 1471.13 184.333 1469.71 180.994C1469.02 179.385 1469.58 177.595 1470.73 176.277C1473.22 173.398 1478.12 172.893 1486.75 173.481C1493.23 173.923 1503.83 176.361 1508.12 188.008C1519.58 219.099 1501.93 247.193 1491.55 255.968C1475.38 269.639 1472.04 281.874 1470.1 292.512C1468.75 299.921 1475.54 313.906 1481.17 324.412C1489.02 339.062 1524.1 360.969 1536.95 371.61C1547.18 380.08 1551.5 398.223 1553.57 407.779C1554.49 412.033 1553.94 415.882 1552.62 419.842C1548.76 431.43 1535.57 434.753 1522.91 438.197C1499.85 444.47 1463.89 435.004 1454.46 430.7C1446.61 427.121 1444.08 416.852 1439.73 403.623C1437.52 396.886 1438.37 391.049 1439.07 386.967C1439.69 383.348 1443.49 380.545 1448.67 378.196C1461.15 372.548 1473.87 377.076 1476.04 378.852C1476.65 380.08 1476.3 381.973 1476.34 383.963C1476.38 385.954 1476.83 387.984 1477.56 393.173" stroke="black" stroke-width="30" stroke-linecap="round"/>
<path d="M1563.54 515.543C1557.82 512.754 1530.69 503.235 1494.97 499.85C1459.99 496.533 1445.22 510.539 1431.22 521.424C1424.52 526.634 1421.72 534.813 1420.6 543.214C1420.11 546.838 1422.03 550.43 1424.27 554.015C1426.66 557.87 1430.95 560.174 1434.92 562.018C1439 563.911 1456.72 564.469 1490.37 565.321C1530.26 566.332 1554.2 564.766 1558.35 565.761C1563.48 566.99 1567.3 569.799 1569.67 572.99C1579.27 585.922 1575.61 610.411 1570.53 619.385C1565 629.171 1549.53 630.238 1531.62 631.982C1527.83 632.351 1527.2 635.451 1527.16 639.943C1526.96 659.527 1531.55 665.567 1538.06 673.623C1543.87 680.809 1571.23 681.887 1589.86 684.949C1594.65 685.736 1597.88 689.646 1600.62 693.037C1603.27 696.319 1604.48 702.729 1605.23 710.042C1606.47 721.968 1591.57 735.216 1582.28 742.215C1577.98 744.585 1573.6 746.038 1569.28 746.478C1567.25 746.491 1565.56 746.077 1562.15 742.346" stroke="black" stroke-width="30" stroke-linecap="round"/>
<path d="M1479.02 620.87C1472.35 626.796 1455.74 645.578 1441 684.938C1429.88 714.641 1430.5 736.678 1431.91 743.147C1432.91 747.73 1435.09 750.863 1437.41 753.813C1439.95 757.035 1446.32 759.887 1453.78 762.568C1462.57 765.724 1475.87 757.261 1483.26 751.023C1486.55 748.247 1487.85 740.903 1488.97 733.241C1489.42 730.176 1488.32 728.651 1487.17 727.518C1486.03 726.385 1484.54 725.657 1482.85 725.369C1481.17 725.081 1479.34 725.256 1474.41 728.494" stroke="black" stroke-width="30" stroke-linecap="round"/>
<path d="M2715.48 489.815C2716.44 494.956 2718.5 509.298 2710.7 530.667C2703.6 550.111 2648.14 594.409 2675.68 616.021C2679.44 618.975 2700.31 624.061 2729.28 631.324C2749.06 636.283 2790.14 676.132 2776.33 699.545C2769.6 710.952 2744.85 710.261 2738.41 708.279C2732.92 698.101 2732.07 689.961 2740.22 681.743" stroke="black" stroke-width="30" stroke-linecap="round"/>
<path d="M2615.17 698.387C2617.85 698.21 2627.42 693.732 2635.17 685.534C2647.24 672.77 2628.06 659.321 2618.46 652.683C2607.86 645.357 2594.29 648.643 2584.03 653.871C2575.41 658.269 2563.5 686.913 2553.15 722.207C2546.54 744.716 2557.55 757.571 2567.26 770.339C2591.84 802.651 2632.37 747.882 2650.24 733.979C2663.11 723.969 2672.49 750.834 2674.84 757.372C2683.26 780.883 2710.08 801.858 2737.39 792.521C2739.63 791.626 2741.99 790.425 2747.96 788.32" stroke="black" stroke-width="30" stroke-linecap="round"/>
</g>
<defs>
<clipPath id="clip0_433_4801">
<rect width="1400" height="812" fill="white" transform="translate(1400)"/>
</clipPath>
</defs>
</svg>
