<svg width="441" height="94" viewBox="0 0 441 94" fill="none" xmlns="http://www.w3.org/2000/svg">
<path d="M423.222 67.7833V28.0922H422.92L399.661 67.7833H380.994V1.93359H398.09V42.5308H398.332L422.316 1.93359H440.258V67.7833H423.222Z" fill="black"/>
<path d="M311.421 27.7898H318.006C321.832 27.7898 324.53 27.1252 326.101 25.7962C327.712 24.4671 328.518 22.5339 328.518 19.9966C328.518 18.5064 328.276 17.2578 327.793 16.251C327.35 15.2441 326.705 14.4386 325.859 13.8345C325.054 13.1901 324.087 12.747 322.96 12.5054C321.832 12.2235 320.604 12.0825 319.274 12.0825C316.254 12.0825 313.797 12.7873 311.904 14.1969C310.052 15.5663 309.125 17.5599 309.125 20.1778H293.055C293.096 16.553 293.821 13.472 295.23 10.9347C296.68 8.35707 298.634 6.26277 301.09 4.65177C303.547 3.04076 306.447 1.87279 309.79 1.14784C313.133 0.382613 316.737 0 320.604 0C324.953 0 328.699 0.523575 331.84 1.57073C334.982 2.61788 337.579 4.00737 339.634 5.73919C341.688 7.47102 343.198 9.46463 344.164 11.72C345.131 13.9352 345.614 16.2107 345.614 18.5466C345.614 20.4799 345.332 22.2117 344.769 23.7421C344.205 25.2323 343.44 26.5412 342.473 27.6689C341.506 28.7564 340.379 29.6626 339.09 30.3875C337.841 31.1125 336.532 31.6562 335.163 32.0186V32.2603C337.459 32.6228 339.412 33.3074 341.023 34.3143C342.634 35.2809 343.943 36.4489 344.95 37.8182C345.957 39.1876 346.682 40.6979 347.125 42.3492C347.608 43.9602 347.85 45.5511 347.85 47.1218C347.85 51.2298 347.044 54.7136 345.433 57.5731C343.822 60.4327 341.708 62.7686 339.09 64.581C336.512 66.3934 333.592 67.7023 330.33 68.5078C327.108 69.3536 323.866 69.7765 320.604 69.7765C316.334 69.7765 312.408 69.3737 308.823 68.5682C305.279 67.803 302.218 66.5343 299.64 64.7622C297.103 62.9499 295.109 60.6139 293.66 57.7544C292.21 54.8546 291.465 51.3104 291.424 47.1218H307.736C307.736 48.6522 308.018 50.0619 308.581 51.3507C309.145 52.6395 309.931 53.747 310.938 54.6733C311.944 55.5997 313.153 56.3246 314.562 56.8482C315.972 57.3718 317.543 57.6336 319.274 57.6336C321.369 57.6336 323.101 57.3114 324.47 56.667C325.88 55.9823 326.987 55.1365 327.793 54.1296C328.598 53.1228 329.162 52.0555 329.484 50.9278C329.847 49.7598 330.028 48.6925 330.028 47.7259C330.028 44.5845 329.162 42.3895 327.43 41.1409C325.739 39.8521 323.02 39.2077 319.274 39.2077H311.421V27.7898Z" fill="black"/>
<path d="M218.706 26.0986C221.888 26.9444 224.587 28.2533 226.802 30.0254C229.017 31.7975 230.708 34.0529 231.876 36.7916C233.044 39.4901 233.628 42.6919 233.628 46.3972C233.628 49.74 233.145 52.5996 232.178 54.9758C231.212 57.352 229.963 59.3456 228.433 60.9566C226.943 62.5274 225.271 63.7759 223.419 64.7022C221.566 65.5883 219.754 66.2729 217.981 66.7562C216.209 67.1993 214.558 67.4812 213.028 67.602C211.537 67.7228 210.39 67.7833 209.584 67.7833H175.149V1.93359H192.246V24.8299H207.772C211.839 24.8299 215.484 25.2528 218.706 26.0986ZM258.277 1.93359V67.7833H241.18V1.93359H258.277ZM203.301 37.6978H192.246V54.9154H204.751C206.08 54.9154 207.389 54.8147 208.678 54.6133C210.007 54.3717 211.195 53.9488 212.242 53.3447C213.33 52.7003 214.196 51.8344 214.84 50.7469C215.484 49.6192 215.807 48.1693 215.807 46.3972C215.807 44.6654 215.464 43.2356 214.78 42.1079C214.135 40.9802 213.229 40.0942 212.061 39.4498C210.933 38.8054 209.604 38.3624 208.074 38.1207C206.584 37.8388 204.993 37.6978 203.301 37.6978Z" fill="black"/>
<path d="M101.289 2.71856C102.86 1.79224 104.592 1.10756 106.484 0.664538C108.418 0.221513 110.592 0 113.009 0C115.023 0 117.097 0.24165 119.231 0.72495C121.366 1.20825 123.44 1.99361 125.454 3.08104C127.508 4.12819 129.441 5.51768 131.254 7.2495C133.066 8.94105 134.657 11.0354 136.026 13.5324C137.396 16.0295 138.483 18.9494 139.288 22.2922C140.094 25.5948 140.497 29.3806 140.497 33.6498C140.497 38.9661 139.913 43.8394 138.745 48.2696C137.617 52.6999 135.885 56.5059 133.549 59.6876C131.254 62.8693 128.334 65.3462 124.789 67.1183C121.286 68.8904 117.157 69.7765 112.405 69.7765C110.754 69.7765 109.082 69.6154 107.391 69.2932C105.699 68.971 104.048 68.4273 102.437 67.662C100.826 66.8968 99.2954 65.8698 97.8455 64.581C96.4358 63.2519 95.1873 61.6006 94.0999 59.6272H93.8582V93.277H76.7615V1.9332H93.0729V11.3576H93.3145C94.4825 9.38408 95.7109 7.69253 96.9997 6.2829C98.2885 4.833 99.7182 3.64489 101.289 2.71856ZM98.5704 51.5319C99.6578 52.6193 100.967 53.5054 102.497 54.19C104.028 54.8344 105.84 55.1566 107.934 55.1566C110.029 55.1566 111.841 54.8344 113.371 54.19C114.902 53.5054 116.211 52.6193 117.298 51.5319C118.386 50.4445 119.272 49.1959 119.956 47.7863C120.681 46.3767 121.245 44.9268 121.648 43.4366C122.051 41.9062 122.313 40.416 122.433 38.9661C122.594 37.4759 122.675 36.1066 122.675 34.858C122.675 32.5624 122.413 30.2465 121.89 27.9106C121.366 25.5746 120.52 23.4803 119.352 21.6277C118.225 19.775 116.714 18.2647 114.821 17.0967C112.928 15.9288 110.633 15.3448 107.934 15.3448C105.196 15.3448 102.88 15.9288 100.987 17.0967C99.1343 18.2647 97.6239 19.775 96.456 21.6277C95.3283 23.4803 94.5026 25.5746 93.979 27.9106C93.4555 30.2465 93.1937 32.5624 93.1937 34.858C93.1937 36.1066 93.2541 37.4759 93.3749 38.9661C93.536 40.416 93.8179 41.9062 94.2207 43.4366C94.6235 44.9268 95.1672 46.3767 95.8518 47.7863C96.5768 49.1959 97.483 50.4445 98.5704 51.5319Z" fill="black"/>
<path d="M0 1.93359H44.2824V15.8285H17.0968V67.7833H0V1.93359Z" fill="black"/>
</svg>
