<svg width="386" height="460" viewBox="0 0 386 460" fill="none" xmlns="http://www.w3.org/2000/svg">
<path d="M2.17361 2.17383C15.4546 27.5143 32.2308 31.2785 55.371 37.3888V457.507C28.5837 451.521 8.21019 442.917 2.17361 416.355V2.17383Z" fill="#CAD6D8"/>
<path d="M383.61 37.3888H55.371C32.2308 31.2785 15.4546 27.5143 2.17361 2.17383H313.057L383.61 37.3888Z" fill="white"/>
<path d="M55.371 37.3888H383.61V457.507H55.371V37.3888Z" fill="#CAD6D8"/>
<path d="M380.853 454.751H58.0467V40.0987H380.853V454.751ZM4.93039 11.445C10.6158 19.8758 16.9576 25.4059 24.1322 29.4036C32.7091 34.1826 42.4026 36.7134 53.1165 39.5327V454.118C41.0881 451.276 30.7475 447.819 22.6358 442.331C14.0271 436.508 7.83006 428.332 4.93039 415.825V11.445ZM372.866 35.1704H55.9013C44.3804 32.1298 34.8598 29.7393 26.5318 25.099C19.1073 20.962 12.5655 14.9826 6.65307 4.92836H312.293L372.866 35.1704ZM0.00017407 416.393L0.0618017 416.663C3.21484 430.54 10.1748 439.853 19.8722 446.413C29.4574 452.897 41.6123 456.618 55.0433 459.62L55.3091 459.68H385.783V36.1108L313.455 0H0.00017407V416.393Z" fill="black"/>
<path d="M86.9372 114.363C86.9372 103.417 95.7454 94.5439 106.611 94.5439H335.682C346.547 94.5439 355.355 103.417 355.355 114.363V252.946C355.355 263.892 346.547 272.765 335.682 272.765H106.611C95.7454 272.765 86.9372 263.892 86.9372 252.946V114.363Z" fill="white"/>
<path d="M335.682 267.81V272.765H106.611V267.81H335.682ZM350.437 252.946V114.363C350.437 106.154 343.831 99.4989 335.682 99.4987H106.611C98.4618 99.4987 91.8557 106.154 91.8557 114.363V252.946C91.8557 261.155 98.4618 267.81 106.611 267.81V272.765L106.103 272.758C95.641 272.491 87.2093 263.997 86.944 253.458L86.9372 252.946V114.363C86.9372 103.417 95.7454 94.5439 106.611 94.5439H335.682L336.189 94.5507C346.82 94.8219 355.355 103.588 355.355 114.363V252.946L355.349 253.458C355.083 263.997 346.651 272.491 336.189 272.758L335.682 272.765V267.81C343.831 267.81 350.437 261.155 350.437 252.946Z" fill="black"/>
<path d="M301.746 197.37H289.979V176.378H300.841C301.804 176.378 302.729 176.461 303.615 176.628C304.513 176.795 305.303 177.091 305.983 177.514C306.664 177.925 307.203 178.49 307.601 179.209C308.012 179.915 308.217 180.814 308.217 181.905C308.217 182.534 308.147 183.08 308.006 183.542C307.877 184.004 307.697 184.403 307.466 184.736C307.235 185.057 306.966 185.333 306.657 185.564C306.362 185.783 306.054 185.969 305.733 186.123C306.786 186.495 307.588 187.092 308.14 187.914C308.692 188.723 308.969 189.692 308.969 190.822C308.969 191.811 308.795 192.71 308.449 193.518C308.115 194.314 307.633 195.001 307.004 195.579C306.388 196.144 305.63 196.587 304.732 196.908C303.846 197.216 302.851 197.37 301.746 197.37ZM301.323 188.376C300.848 188.299 300.283 188.261 299.628 188.261H295.429V193.499H299.628C300.411 193.499 301.04 193.416 301.515 193.249C302.003 193.082 302.376 192.87 302.632 192.613C302.902 192.356 303.075 192.074 303.152 191.766C303.242 191.458 303.287 191.169 303.287 190.899C303.287 190.386 303.216 189.962 303.075 189.628C302.947 189.281 302.735 189.005 302.44 188.8C302.157 188.595 301.785 188.453 301.323 188.376ZM302.151 184.043C302.382 183.863 302.542 183.639 302.632 183.369C302.735 183.086 302.786 182.759 302.786 182.387C302.786 182.079 302.735 181.796 302.632 181.539C302.542 181.27 302.382 181.045 302.151 180.865C301.92 180.673 301.612 180.525 301.226 180.422C300.841 180.307 300.36 180.249 299.782 180.249H295.429V184.621H299.628C300.244 184.621 300.758 184.576 301.169 184.486C301.579 184.383 301.907 184.236 302.151 184.043Z" fill="black"/>
<path d="M279.175 197.37V184.717H279.078L271.664 197.37H265.713V176.378H271.163V189.32H271.24L278.886 176.378H284.606V197.37H279.175Z" fill="black"/>
<path d="M262.323 176.378V180.807H255.968V197.37H250.537V180.807H244.181V176.378H262.323Z" fill="black"/>
<path d="M242.949 197.37H235.842L229.679 188.511L227.484 190.726V197.37H222.034V176.378H227.484V184.351L235.341 176.378H242.583L233.916 185.102L242.949 197.37Z" fill="black"/>
<path d="M204.527 197.391C203.295 196.967 202.216 196.306 201.292 195.407C200.38 194.495 199.661 193.32 199.135 191.882C198.608 190.444 198.345 188.698 198.345 186.644C198.345 185.219 198.531 183.851 198.904 182.542C199.289 181.219 199.879 180.057 200.675 179.056C201.484 178.055 202.511 177.258 203.757 176.668C205.015 176.064 206.524 175.763 208.283 175.763C210.144 175.763 211.711 176.071 212.982 176.687C214.253 177.291 215.274 178.151 216.044 179.268C216.827 180.385 217.386 181.733 217.72 183.312C218.053 184.891 218.22 186.644 218.22 188.57H203.834C203.834 188.763 203.853 189.019 203.892 189.34C203.93 189.661 204.007 190.008 204.123 190.38C204.238 190.753 204.405 191.131 204.623 191.517C204.842 191.889 205.131 192.229 205.49 192.537C205.862 192.845 206.312 193.096 206.838 193.288C207.377 193.481 208.019 193.577 208.764 193.577C209.149 193.577 209.528 193.526 209.9 193.423C210.286 193.308 210.639 193.147 210.96 192.942C211.281 192.723 211.557 192.467 211.788 192.171C212.032 191.863 212.205 191.517 212.308 191.131H217.951C217.951 191.517 217.867 191.96 217.7 192.46C217.533 192.948 217.277 193.449 216.93 193.962C216.596 194.463 216.172 194.957 215.659 195.445C215.145 195.933 214.535 196.37 213.829 196.755C213.123 197.127 212.321 197.429 211.422 197.66C210.536 197.891 209.547 198.007 208.456 198.007C207.056 198.007 205.747 197.801 204.527 197.391ZM205.49 181.155C205.066 181.528 204.713 182.022 204.431 182.638C204.161 183.254 204.026 184.025 204.026 184.949H212.558C212.558 184.025 212.417 183.254 212.134 182.638C211.865 182.022 211.518 181.534 211.094 181.174C210.684 180.802 210.228 180.545 209.727 180.404C209.226 180.25 208.745 180.173 208.283 180.173C207.833 180.173 207.358 180.25 206.857 180.404C206.357 180.545 205.901 180.796 205.49 181.155Z" fill="black"/>
<path d="M196.535 176.378V180.807H190.179V197.37H184.748V180.807H178.393V176.378H196.535Z" fill="black"/>
<path d="M162.85 197.391C161.618 196.967 160.539 196.306 159.615 195.407C158.703 194.495 157.984 193.32 157.458 191.882C156.932 190.444 156.668 188.698 156.668 186.644C156.668 185.219 156.855 183.851 157.227 182.542C157.612 181.219 158.203 180.057 158.999 179.056C159.808 178.055 160.835 177.258 162.08 176.668C163.338 176.064 164.847 175.763 166.606 175.763C168.468 175.763 170.034 176.071 171.305 176.687C172.576 177.291 173.597 178.151 174.367 179.268C175.151 180.385 175.709 181.733 176.043 183.312C176.377 184.891 176.544 186.644 176.544 188.57H162.157C162.157 188.763 162.176 189.019 162.215 189.34C162.253 189.661 162.33 190.008 162.446 190.38C162.562 190.753 162.729 191.131 162.947 191.517C163.165 191.889 163.454 192.229 163.813 192.537C164.186 192.845 164.635 193.096 165.162 193.288C165.701 193.481 166.343 193.577 167.087 193.577C167.473 193.577 167.851 193.526 168.224 193.423C168.609 193.308 168.962 193.147 169.283 192.942C169.604 192.723 169.88 192.467 170.111 192.171C170.355 191.863 170.528 191.517 170.631 191.131H176.274C176.274 191.517 176.191 191.96 176.024 192.46C175.857 192.948 175.6 193.449 175.253 193.962C174.919 194.463 174.496 194.957 173.982 195.445C173.469 195.933 172.859 196.37 172.153 196.755C171.446 197.127 170.644 197.429 169.745 197.66C168.859 197.891 167.871 198.007 166.779 198.007C165.38 198.007 164.07 197.801 162.85 197.391ZM163.813 181.155C163.39 181.528 163.037 182.022 162.754 182.638C162.485 183.254 162.35 184.025 162.35 184.949H170.881C170.881 184.025 170.74 183.254 170.458 182.638C170.188 182.022 169.842 181.534 169.418 181.174C169.007 180.802 168.551 180.545 168.05 180.404C167.55 180.25 167.068 180.173 166.606 180.173C166.157 180.173 165.682 180.25 165.181 180.404C164.68 180.545 164.224 180.796 163.813 181.155Z" fill="black"/>
<path d="M150.101 197.37H136.331V202.416H131.208V192.96H133.384C133.898 191.997 134.322 190.989 134.655 189.936C135.002 188.871 135.278 187.799 135.484 186.72C135.689 185.642 135.837 184.589 135.927 183.562C136.016 182.522 136.081 181.546 136.119 180.634C136.158 179.723 136.17 178.901 136.158 178.169C136.158 177.437 136.164 176.84 136.177 176.378H152.586V192.96H155.224V202.416H150.101V197.37ZM139.701 190.88C139.47 191.625 139.188 192.318 138.854 192.96H147.155V180.807H140.915C140.915 181.193 140.908 181.668 140.895 182.233C140.895 182.798 140.87 183.427 140.818 184.12C140.78 184.801 140.716 185.526 140.626 186.296C140.549 187.067 140.427 187.837 140.26 188.607C140.106 189.378 139.92 190.135 139.701 190.88Z" fill="black"/>
</svg>
