<svg width="386" height="460" viewBox="0 0 386 460" fill="none" xmlns="http://www.w3.org/2000/svg">
<path d="M2.17345 2.17383C15.4166 27.5143 32.145 31.2785 55.2193 37.3888V457.507C28.5083 451.521 8.19283 442.917 2.17345 416.355V2.17383Z" fill="#A6B5B7"/>
<path d="M382.523 37.3888H55.2193C32.145 31.2785 15.4166 27.5143 2.17345 2.17383H312.172L382.523 37.3888Z" fill="white"/>
<path d="M55.2193 37.3888H382.523V457.507H55.2193V37.3888Z" fill="#A6B5B7"/>
<path d="M380.853 454.751H58.0465V40.0987H380.853V454.751ZM4.93022 11.445C10.6156 19.8758 16.9574 25.4059 24.132 29.4036C32.709 34.1826 42.4024 36.7134 53.1163 39.5327V454.118C41.0879 451.276 30.7473 447.819 22.6356 442.331C14.0269 436.508 7.82989 428.332 4.93022 415.825V11.445ZM372.866 35.1704H55.9011C44.3803 32.1298 34.8596 29.7393 26.5317 25.099C19.1071 20.962 12.5653 14.9826 6.6529 4.92836H312.293L372.866 35.1704ZM6.22333e-06 416.393L0.0616339 416.663C3.21467 430.54 10.1746 439.853 19.872 446.413C29.4572 452.897 41.6121 456.618 55.0431 459.62L55.3089 459.68H385.783V36.1108L313.455 0H6.22333e-06V416.393Z" fill="black"/>
<path d="M84.7637 107.722C84.7637 96.8427 93.6075 88.0234 104.517 88.0234H334.515C345.425 88.0234 354.269 96.8427 354.269 107.722V245.459C354.269 256.338 345.425 265.158 334.515 265.158H104.517C93.6075 265.158 84.7637 256.338 84.7637 245.459V107.722Z" fill="#CAD6D8"/>
<path d="M334.515 260.233V265.158H104.517V260.233H334.515ZM349.33 245.459V107.722C349.33 99.5626 342.697 92.9482 334.515 92.948H104.517C96.3349 92.948 89.702 99.5625 89.702 107.722V245.459C89.702 253.619 96.3349 260.233 104.517 260.233V265.158L104.007 265.151C93.5027 264.885 85.0368 256.443 84.7704 245.968L84.7637 245.459V107.722C84.7637 96.8427 93.6075 88.0234 104.517 88.0234H334.515L335.025 88.0302C345.699 88.2997 354.269 97.0126 354.269 107.722V245.459L354.262 245.968C353.996 256.443 345.529 264.886 335.025 265.151L334.515 265.158V260.233C342.697 260.233 349.33 253.619 349.33 245.459Z" fill="black"/>
<path d="M272.312 201.529H264.3V210.523H258.85V189.53H264.3V197.118H272.312V189.53H277.743V210.523H272.312V201.529Z" fill="black"/>
<path d="M246.486 197.428C246.678 197.402 246.884 197.363 247.102 197.312C247.333 197.261 247.545 197.177 247.738 197.062C247.93 196.933 248.091 196.766 248.219 196.561C248.348 196.343 248.412 196.054 248.412 195.694C248.412 195.348 248.354 195.033 248.238 194.751C248.136 194.455 247.956 194.205 247.699 193.999C247.442 193.781 247.096 193.614 246.659 193.499C246.235 193.383 245.703 193.325 245.061 193.325C244.329 193.325 243.738 193.402 243.289 193.556C242.852 193.698 242.506 193.903 242.249 194.173C241.992 194.43 241.806 194.738 241.69 195.097C241.575 195.444 241.491 195.816 241.44 196.214H235.99C235.99 195.957 236.028 195.604 236.105 195.155C236.195 194.693 236.349 194.192 236.567 193.653C236.799 193.113 237.113 192.568 237.511 192.016C237.922 191.464 238.455 190.963 239.11 190.514C239.777 190.051 240.586 189.673 241.536 189.377C242.486 189.082 243.623 188.928 244.945 188.915C246.82 188.915 248.335 189.108 249.49 189.493C250.659 189.865 251.564 190.359 252.206 190.976C252.861 191.579 253.297 192.26 253.515 193.017C253.746 193.762 253.862 194.507 253.862 195.251V206.383C253.862 207.012 253.894 207.532 253.958 207.943C254.035 208.341 254.132 208.662 254.247 208.906C254.363 209.137 254.491 209.31 254.632 209.426C254.786 209.529 254.947 209.606 255.114 209.657V210.524H249.086C248.983 210.28 248.868 209.959 248.739 209.561C248.624 209.15 248.566 208.655 248.566 208.078C248.142 208.514 247.725 208.919 247.314 209.291C246.916 209.663 246.467 209.991 245.966 210.273C245.465 210.543 244.887 210.755 244.233 210.909C243.578 211.076 242.788 211.159 241.864 211.159C240.926 211.159 240.06 211.018 239.264 210.735C238.481 210.466 237.8 210.061 237.222 209.522C236.645 208.983 236.195 208.309 235.874 207.5C235.553 206.691 235.393 205.754 235.393 204.688C235.393 203.828 235.527 203.032 235.797 202.3C236.067 201.555 236.445 200.907 236.933 200.355C237.434 199.79 238.038 199.328 238.744 198.968C239.463 198.596 240.265 198.346 241.151 198.217L246.486 197.428ZM242.518 207.134C242.852 207.237 243.212 207.288 243.597 207.288C243.802 207.288 244.066 207.269 244.387 207.23C244.708 207.179 245.048 207.089 245.407 206.961C245.767 206.832 246.126 206.659 246.486 206.441C246.845 206.21 247.166 205.914 247.449 205.555C247.731 205.195 247.962 204.759 248.142 204.245C248.322 203.719 248.412 203.102 248.412 202.396V200.278C248.078 200.458 247.744 200.625 247.41 200.779C247.076 200.92 246.633 201.042 246.081 201.144L244.637 201.414C244.008 201.53 243.456 201.664 242.981 201.819C242.506 201.973 242.108 202.178 241.787 202.435C241.479 202.679 241.241 202.981 241.074 203.34C240.92 203.7 240.843 204.149 240.843 204.688C240.843 205.138 240.914 205.529 241.055 205.863C241.196 206.184 241.389 206.454 241.633 206.672C241.889 206.877 242.185 207.031 242.518 207.134Z" fill="black"/>
<path d="M223.702 189.53H231.656V210.523H226.533V193.632H226.456L222.508 210.523H217.539L213.611 193.632H213.514V210.523H208.391V189.53H216.596L220.139 204.764H220.236L223.702 189.53Z" fill="black"/>
<path d="M189.248 210.331C187.926 209.779 186.796 209.009 185.859 208.02C184.934 207.031 184.222 205.857 183.721 204.496C183.233 203.135 182.989 201.645 182.989 200.027C182.989 198.41 183.233 196.92 183.721 195.559C184.222 194.198 184.934 193.03 185.859 192.054C186.796 191.066 187.926 190.295 189.248 189.743C190.571 189.191 192.06 188.915 193.716 188.915C195.398 188.915 196.9 189.191 198.223 189.743C199.558 190.295 200.682 191.066 201.593 192.054C202.518 193.03 203.224 194.198 203.712 195.559C204.2 196.92 204.443 198.41 204.443 200.027C204.443 201.645 204.2 203.135 203.712 204.496C203.224 205.857 202.518 207.031 201.593 208.02C200.682 209.009 199.558 209.779 198.223 210.331C196.9 210.883 195.398 211.159 193.716 211.159C192.06 211.159 190.571 210.883 189.248 210.331ZM188.94 202.377C189.107 203.16 189.389 203.86 189.787 204.476C190.185 205.08 190.705 205.568 191.347 205.94C191.989 206.312 192.779 206.498 193.716 206.498C194.692 206.498 195.501 206.319 196.143 205.959C196.798 205.587 197.318 205.105 197.703 204.515C198.088 203.911 198.358 203.224 198.512 202.454C198.679 201.671 198.762 200.862 198.762 200.027C198.762 199.206 198.679 198.403 198.512 197.62C198.358 196.837 198.088 196.15 197.703 195.559C197.318 194.956 196.798 194.474 196.143 194.115C195.501 193.743 194.692 193.556 193.716 193.556C192.779 193.556 191.989 193.743 191.347 194.115C190.705 194.487 190.185 194.982 189.787 195.598C189.389 196.201 189.101 196.895 188.921 197.678C188.754 198.448 188.67 199.231 188.67 200.027C188.67 200.824 188.76 201.607 188.94 202.377Z" fill="black"/>
<path d="M167.793 189.782C168.294 189.486 168.846 189.268 169.45 189.127C170.066 188.986 170.759 188.915 171.53 188.915C172.172 188.915 172.833 188.992 173.513 189.146C174.194 189.3 174.855 189.551 175.497 189.897C176.152 190.231 176.768 190.674 177.346 191.226C177.924 191.765 178.431 192.433 178.867 193.229C179.304 194.025 179.651 194.956 179.907 196.022C180.164 197.074 180.293 198.281 180.293 199.642C180.293 201.337 180.106 202.891 179.734 204.303C179.375 205.715 178.822 206.929 178.078 207.943C177.346 208.957 176.415 209.747 175.285 210.312C174.168 210.877 172.852 211.159 171.337 211.159C170.811 211.159 170.278 211.108 169.739 211.005C169.199 210.902 168.673 210.729 168.159 210.485C167.646 210.241 167.158 209.914 166.696 209.503C166.246 209.079 165.848 208.553 165.502 207.924H165.425V218.651H159.974V189.531H165.174V192.536H165.251C165.624 191.907 166.015 191.367 166.426 190.918C166.837 190.456 167.293 190.077 167.793 189.782ZM166.927 205.343C167.273 205.69 167.691 205.972 168.179 206.19C168.667 206.396 169.244 206.498 169.912 206.498C170.58 206.498 171.157 206.396 171.645 206.19C172.133 205.972 172.55 205.69 172.897 205.343C173.244 204.996 173.526 204.598 173.745 204.149C173.976 203.7 174.155 203.237 174.284 202.762C174.412 202.274 174.496 201.799 174.534 201.337C174.585 200.862 174.611 200.425 174.611 200.027C174.611 199.296 174.528 198.557 174.361 197.813C174.194 197.068 173.924 196.4 173.552 195.81C173.192 195.219 172.711 194.738 172.107 194.365C171.504 193.993 170.772 193.807 169.912 193.807C169.039 193.807 168.301 193.993 167.697 194.365C167.107 194.738 166.625 195.219 166.253 195.81C165.893 196.4 165.63 197.068 165.463 197.813C165.296 198.557 165.213 199.296 165.213 200.027C165.213 200.425 165.232 200.862 165.271 201.337C165.322 201.799 165.412 202.274 165.54 202.762C165.669 203.237 165.842 203.7 166.06 204.149C166.291 204.598 166.58 204.996 166.927 205.343Z" fill="black"/>
<path d="M308.038 163.03H308.115L315.761 150.088H321.481V171.08H316.049V158.427H315.953L308.538 171.08H302.587V150.088H308.038V163.03ZM309.482 142.307C309.559 142.628 309.694 142.911 309.887 143.155C310.092 143.386 310.362 143.572 310.695 143.713C311.042 143.841 311.485 143.906 312.024 143.906C312.551 143.906 312.987 143.854 313.334 143.752C313.693 143.636 313.976 143.469 314.181 143.251C314.387 143.033 314.528 142.763 314.605 142.442C314.682 142.121 314.714 141.742 314.701 141.306H318.63C318.63 142.32 318.463 143.187 318.129 143.906C317.796 144.625 317.333 145.215 316.743 145.677C316.165 146.127 315.472 146.461 314.663 146.679C313.854 146.884 312.974 146.987 312.024 146.987C311.061 146.987 310.175 146.884 309.367 146.679C308.558 146.461 307.858 146.127 307.267 145.677C306.677 145.215 306.215 144.625 305.881 143.906C305.56 143.187 305.399 142.32 305.399 141.306H309.347C309.36 141.665 309.405 141.999 309.482 142.307Z" fill="black"/>
<path d="M284.773 157.791C285.787 158.061 286.647 158.478 287.353 159.043C288.06 159.608 288.599 160.327 288.971 161.2C289.344 162.061 289.53 163.081 289.53 164.263C289.53 165.328 289.376 166.24 289.068 166.997C288.759 167.755 288.361 168.39 287.873 168.904C287.398 169.405 286.866 169.803 286.275 170.098C285.684 170.38 285.107 170.599 284.542 170.753C283.977 170.894 283.45 170.984 282.962 171.022C282.487 171.061 282.121 171.08 281.865 171.08H270.887V150.088H276.337V157.387H281.287C282.584 157.387 283.746 157.522 284.773 157.791ZM297.387 150.088V171.08H291.937V150.088H297.387ZM279.862 161.489H276.337V166.978H280.324C280.748 166.978 281.165 166.946 281.576 166.882C281.999 166.805 282.378 166.67 282.712 166.477C283.059 166.272 283.335 165.996 283.54 165.649C283.746 165.29 283.848 164.827 283.848 164.263C283.848 163.71 283.739 163.255 283.521 162.895C283.315 162.536 283.027 162.253 282.654 162.048C282.295 161.842 281.871 161.701 281.383 161.624C280.908 161.534 280.401 161.489 279.862 161.489Z" fill="black"/>
<path d="M260.237 162.086H252.225V171.08H246.775V150.088H252.225V157.676H260.237V150.088H265.668V171.08H260.237V162.086Z" fill="black"/>
<path d="M235.161 171.08H223.394V150.088H234.256C235.219 150.088 236.144 150.171 237.03 150.338C237.928 150.505 238.718 150.8 239.398 151.224C240.079 151.635 240.618 152.2 241.016 152.919C241.427 153.625 241.633 154.524 241.633 155.615C241.633 156.244 241.562 156.79 241.421 157.252C241.292 157.714 241.113 158.112 240.881 158.446C240.65 158.767 240.381 159.043 240.073 159.274C239.777 159.493 239.469 159.679 239.148 159.833C240.201 160.205 241.003 160.802 241.555 161.624C242.108 162.433 242.384 163.402 242.384 164.532C242.384 165.521 242.21 166.42 241.864 167.228C241.53 168.024 241.048 168.711 240.419 169.289C239.803 169.854 239.045 170.297 238.147 170.618C237.261 170.926 236.266 171.08 235.161 171.08ZM234.738 162.086C234.263 162.009 233.698 161.971 233.043 161.971H228.845V167.209H233.043C233.826 167.209 234.455 167.126 234.93 166.959C235.418 166.792 235.791 166.58 236.047 166.323C236.317 166.066 236.49 165.784 236.567 165.476C236.657 165.168 236.702 164.879 236.702 164.609C236.702 164.096 236.632 163.672 236.49 163.338C236.362 162.991 236.15 162.715 235.855 162.51C235.572 162.305 235.2 162.163 234.738 162.086ZM235.566 157.753C235.797 157.573 235.958 157.349 236.047 157.079C236.15 156.796 236.201 156.469 236.201 156.097C236.201 155.789 236.15 155.506 236.047 155.249C235.958 154.98 235.797 154.755 235.566 154.575C235.335 154.383 235.027 154.235 234.642 154.132C234.256 154.017 233.775 153.959 233.197 153.959H228.845V158.331H233.043C233.659 158.331 234.173 158.286 234.584 158.196C234.995 158.093 235.322 157.946 235.566 157.753Z" fill="black"/>
<path d="M204.097 170.887C202.774 170.335 201.644 169.564 200.707 168.576C199.783 167.587 199.07 166.412 198.569 165.051C198.081 163.69 197.837 162.201 197.837 160.583C197.837 158.965 198.081 157.476 198.569 156.115C199.07 154.754 199.783 153.586 200.707 152.61C201.644 151.621 202.774 150.851 204.097 150.299C205.419 149.747 206.908 149.471 208.565 149.471C210.247 149.471 211.749 149.747 213.071 150.299C214.407 150.851 215.53 151.621 216.442 152.61C217.366 153.586 218.072 154.754 218.56 156.115C219.048 157.476 219.292 158.965 219.292 160.583C219.292 162.201 219.048 163.69 218.56 165.051C218.072 166.412 217.366 167.587 216.442 168.576C215.53 169.564 214.407 170.335 213.071 170.887C211.749 171.439 210.247 171.715 208.565 171.715C206.908 171.715 205.419 171.439 204.097 170.887ZM203.788 162.933C203.955 163.716 204.238 164.416 204.636 165.032C205.034 165.635 205.554 166.123 206.196 166.496C206.838 166.868 207.627 167.054 208.565 167.054C209.54 167.054 210.349 166.874 210.991 166.515C211.646 166.143 212.166 165.661 212.551 165.07C212.936 164.467 213.206 163.78 213.36 163.01C213.527 162.227 213.61 161.418 213.61 160.583C213.61 159.761 213.527 158.959 213.36 158.176C213.206 157.393 212.936 156.706 212.551 156.115C212.166 155.512 211.646 155.03 210.991 154.671C210.349 154.298 209.54 154.112 208.565 154.112C207.627 154.112 206.838 154.298 206.196 154.671C205.554 155.043 205.034 155.537 204.636 156.154C204.238 156.757 203.949 157.45 203.769 158.234C203.602 159.004 203.519 159.787 203.519 160.583C203.519 161.379 203.609 162.162 203.788 162.933Z" fill="black"/>
<path d="M187.823 142.961C188.118 142.794 188.304 142.621 188.381 142.441H193.312C193.325 143.52 193.138 144.406 192.753 145.099C192.368 145.78 191.855 146.332 191.213 146.755C190.583 147.166 189.852 147.468 189.017 147.661C188.195 147.84 187.348 147.962 186.475 148.027C185.871 148.078 185.249 148.161 184.607 148.277C183.965 148.38 183.336 148.547 182.719 148.778C182.103 148.996 181.519 149.291 180.967 149.664C180.415 150.023 179.92 150.472 179.484 151.012C179.047 151.551 178.688 152.193 178.405 152.938C178.123 153.682 177.95 154.555 177.885 155.557C178.091 154.889 178.418 154.26 178.868 153.669C179.317 153.066 179.875 152.546 180.543 152.109C181.224 151.66 182.007 151.307 182.893 151.05C183.779 150.781 184.761 150.646 185.839 150.646C187.277 150.646 188.574 150.89 189.73 151.378C190.885 151.853 191.867 152.527 192.676 153.4C193.485 154.273 194.101 155.326 194.525 156.558C194.962 157.791 195.18 159.158 195.18 160.66C195.18 162.33 194.93 163.845 194.429 165.206C193.941 166.566 193.235 167.735 192.31 168.711C191.399 169.674 190.282 170.425 188.959 170.964C187.637 171.49 186.147 171.754 184.491 171.754C182.077 171.754 180.081 171.259 178.502 170.271C176.922 169.282 175.709 167.671 174.862 165.437C174.579 164.679 174.361 163.877 174.207 163.029C174.053 162.182 173.937 161.386 173.86 160.641C173.796 159.896 173.757 159.248 173.745 158.696C173.732 158.144 173.725 157.778 173.725 157.598C173.725 155.595 173.957 153.766 174.419 152.109C174.881 150.44 175.613 148.989 176.614 147.757C177.629 146.524 178.925 145.529 180.505 144.772C182.097 144.014 184.023 143.533 186.282 143.327C187.001 143.263 187.515 143.141 187.823 142.961ZM184.684 154.69C183.746 154.69 182.944 154.851 182.276 155.172C181.622 155.48 181.082 155.903 180.659 156.443C180.235 156.982 179.927 157.611 179.734 158.33C179.542 159.036 179.445 159.787 179.445 160.583C179.445 161.379 179.529 162.169 179.696 162.952C179.875 163.723 180.164 164.416 180.562 165.032C180.96 165.636 181.48 166.124 182.122 166.496C182.764 166.868 183.554 167.054 184.491 167.054C185.48 167.054 186.295 166.875 186.937 166.515C187.592 166.143 188.112 165.661 188.497 165.071C188.882 164.467 189.152 163.78 189.306 163.01C189.46 162.227 189.537 161.418 189.537 160.583C189.537 159.762 189.447 158.991 189.267 158.272C189.088 157.553 188.805 156.931 188.42 156.404C188.035 155.865 187.534 155.448 186.918 155.152C186.302 154.844 185.557 154.69 184.684 154.69Z" fill="black"/>
<path d="M161.13 149.471C162.876 149.471 164.385 149.76 165.656 150.337C166.927 150.902 167.974 151.685 168.795 152.687C169.63 153.688 170.246 154.863 170.644 156.211C171.042 157.559 171.241 159.004 171.241 160.545C171.241 161.431 171.164 162.323 171.01 163.222C170.856 164.108 170.612 164.968 170.278 165.802C169.944 166.624 169.514 167.394 168.988 168.113C168.461 168.832 167.826 169.462 167.081 170.001C166.337 170.527 165.47 170.944 164.481 171.253C163.493 171.561 162.376 171.715 161.13 171.715C159.859 171.715 158.659 171.554 157.529 171.233C156.399 170.912 155.391 170.392 154.505 169.673C153.632 168.942 152.907 167.985 152.329 166.804C151.751 165.623 151.372 164.165 151.193 162.432H147.572V171.079H142.122V150.087H147.572V158.33H151.193C151.424 156.789 151.828 155.46 152.406 154.343C152.984 153.226 153.703 152.308 154.563 151.589C155.423 150.857 156.405 150.325 157.509 149.991C158.627 149.644 159.833 149.471 161.13 149.471ZM156.893 163.145C157.06 163.941 157.323 164.628 157.683 165.205C158.042 165.783 158.505 166.239 159.069 166.573C159.647 166.894 160.334 167.054 161.13 167.054C161.926 167.054 162.607 166.894 163.172 166.573C163.737 166.239 164.192 165.783 164.539 165.205C164.899 164.628 165.155 163.947 165.309 163.164C165.476 162.368 165.56 161.508 165.56 160.583C165.56 159.672 165.476 158.824 165.309 158.041C165.155 157.245 164.899 156.558 164.539 155.98C164.192 155.402 163.737 154.947 163.172 154.613C162.607 154.279 161.926 154.112 161.13 154.112C160.334 154.112 159.647 154.279 159.069 154.613C158.505 154.947 158.042 155.402 157.683 155.98C157.323 156.558 157.06 157.245 156.893 158.041C156.726 158.824 156.643 159.672 156.643 160.583C156.643 161.508 156.726 162.361 156.893 163.145Z" fill="black"/>
<path d="M124.538 154.517L124.422 158.427C124.358 160.623 124.217 162.548 123.999 164.205C123.78 165.861 123.421 167.248 122.92 168.365C122.432 169.469 121.765 170.303 120.917 170.868C120.083 171.433 119.01 171.716 117.701 171.716C117.085 171.716 116.545 171.677 116.083 171.6C115.621 171.536 115.242 171.44 114.947 171.311V166.747C115.127 166.824 115.351 166.895 115.621 166.959C115.903 167.023 116.244 167.055 116.642 167.055C117.052 167.055 117.418 166.933 117.739 166.689C118.06 166.432 118.336 165.977 118.568 165.322C118.799 164.654 118.978 163.736 119.107 162.568C119.235 161.399 119.319 159.891 119.357 158.042L119.511 150.088H136.401V171.08H130.97V154.517H124.538Z" fill="black"/>
</svg>
