<svg width="386" height="460" viewBox="0 0 386 460" fill="none" xmlns="http://www.w3.org/2000/svg">
<path d="M2.17346 2.17383C15.4166 27.5143 32.145 31.2785 55.2193 37.3888V457.507C28.5083 451.521 8.19285 442.917 2.17346 416.355V2.17383Z" fill="#A6B5B7"/>
<path d="M382.523 37.3888H55.2193C32.145 31.2785 15.4166 27.5143 2.17346 2.17383H312.172L382.523 37.3888Z" fill="white"/>
<path d="M55.2193 37.3888H382.523V457.507H55.2193V37.3888Z" fill="#A6B5B7"/>
<path d="M380.853 454.751H58.0465V40.0987H380.853V454.751ZM4.93023 11.445C10.6156 19.8758 16.9574 25.4059 24.1321 29.4036C32.709 34.1826 42.4024 36.7134 53.1163 39.5327V454.118C41.0879 451.276 30.7474 447.819 22.6357 442.331C14.0269 436.508 7.8299 428.332 4.93023 415.825V11.445ZM372.866 35.1704H55.9011C44.3803 32.1298 34.8596 29.7393 26.5317 25.099C19.1071 20.962 12.5653 14.9826 6.65292 4.92836H312.293L372.866 35.1704ZM2.14821e-05 416.393L0.0616491 416.663C3.21469 430.54 10.1747 439.853 19.872 446.413C29.4573 452.897 41.6121 456.618 55.0431 459.62L55.3089 459.68H385.783V36.1108L313.455 0H2.14821e-05V416.393Z" fill="black"/>
<path d="M84.7637 107.722C84.7637 96.8427 93.6076 88.0234 104.517 88.0234H334.515C345.425 88.0234 354.269 96.8427 354.269 107.722V245.459C354.269 256.338 345.425 265.158 334.515 265.158H104.517C93.6075 265.158 84.7637 256.338 84.7637 245.459V107.722Z" fill="white"/>
<path d="M334.515 260.233V265.158H104.517V260.233H334.515ZM349.33 245.459V107.722C349.33 99.5626 342.697 92.9482 334.515 92.948H104.517C96.3349 92.948 89.702 99.5625 89.702 107.722V245.459C89.7021 253.619 96.3349 260.233 104.517 260.233V265.158L104.007 265.151C93.5027 264.885 85.0368 256.443 84.7705 245.968L84.7637 245.459V107.722C84.7637 96.8427 93.6075 88.0234 104.517 88.0234H334.515L335.025 88.0302C345.699 88.2997 354.269 97.0126 354.269 107.722V245.459L354.262 245.968C353.996 256.443 345.529 264.886 335.025 265.151L334.515 265.158V260.233C342.697 260.233 349.33 253.619 349.33 245.459Z" fill="black"/>
<path d="M328.967 196.947C329.159 196.921 329.365 196.883 329.583 196.831C329.814 196.78 330.026 196.697 330.219 196.581C330.411 196.453 330.572 196.286 330.7 196.08C330.829 195.862 330.893 195.573 330.893 195.214C330.893 194.867 330.835 194.553 330.719 194.27C330.617 193.975 330.437 193.724 330.18 193.519C329.923 193.301 329.577 193.134 329.14 193.018C328.717 192.903 328.184 192.845 327.542 192.845C326.81 192.845 326.219 192.922 325.77 193.076C325.333 193.217 324.987 193.423 324.73 193.692C324.473 193.949 324.287 194.257 324.171 194.617C324.056 194.963 323.972 195.336 323.921 195.734H318.471C318.471 195.477 318.509 195.124 318.586 194.674C318.676 194.212 318.83 193.712 319.049 193.172C319.28 192.633 319.594 192.087 319.992 191.535C320.403 190.983 320.936 190.482 321.591 190.033C322.258 189.571 323.067 189.192 324.017 188.897C324.967 188.601 326.104 188.447 327.426 188.435C329.301 188.435 330.816 188.627 331.971 189.012C333.14 189.385 334.045 189.879 334.687 190.495C335.342 191.099 335.778 191.779 335.996 192.537C336.228 193.281 336.343 194.026 336.343 194.771V205.902C336.343 206.532 336.375 207.052 336.439 207.462C336.516 207.86 336.613 208.181 336.728 208.425C336.844 208.657 336.972 208.83 337.113 208.945C337.268 209.048 337.428 209.125 337.595 209.176V210.043H331.567C331.464 209.799 331.349 209.478 331.22 209.08C331.105 208.669 331.047 208.175 331.047 207.597C330.623 208.034 330.206 208.438 329.795 208.811C329.397 209.183 328.948 209.51 328.447 209.793C327.946 210.062 327.368 210.274 326.714 210.428C326.059 210.595 325.269 210.679 324.345 210.679C323.407 210.679 322.541 210.537 321.745 210.255C320.962 209.985 320.281 209.581 319.703 209.042C319.126 208.502 318.676 207.828 318.355 207.019C318.034 206.211 317.874 205.273 317.874 204.208C317.874 203.347 318.009 202.551 318.278 201.82C318.548 201.075 318.927 200.426 319.414 199.874C319.915 199.309 320.519 198.847 321.225 198.488C321.944 198.115 322.746 197.865 323.632 197.737L328.967 196.947ZM325 206.654C325.333 206.756 325.693 206.808 326.078 206.808C326.283 206.808 326.547 206.788 326.868 206.75C327.189 206.699 327.529 206.609 327.888 206.48C328.248 206.352 328.607 206.179 328.967 205.96C329.326 205.729 329.647 205.434 329.93 205.074C330.212 204.715 330.443 204.278 330.623 203.765C330.803 203.238 330.893 202.622 330.893 201.916V199.797C330.559 199.977 330.225 200.144 329.891 200.298C329.558 200.439 329.115 200.561 328.562 200.664L327.118 200.934C326.489 201.049 325.937 201.184 325.462 201.338C324.987 201.492 324.589 201.698 324.268 201.954C323.96 202.198 323.722 202.5 323.555 202.86C323.401 203.219 323.324 203.668 323.324 204.208C323.324 204.657 323.395 205.049 323.536 205.382C323.677 205.703 323.87 205.973 324.114 206.191C324.37 206.397 324.666 206.551 325 206.654Z" fill="black"/>
<path d="M302.929 189.301C303.43 189.006 303.982 188.788 304.585 188.646C305.202 188.505 305.895 188.435 306.665 188.435C307.307 188.435 307.969 188.512 308.649 188.666C309.33 188.82 309.991 189.07 310.633 189.417C311.288 189.751 311.904 190.194 312.482 190.746C313.059 191.285 313.567 191.953 314.003 192.749C314.44 193.545 314.786 194.475 315.043 195.541C315.3 196.594 315.428 197.801 315.428 199.162C315.428 200.857 315.242 202.41 314.87 203.822C314.51 205.235 313.958 206.448 313.213 207.462C312.482 208.477 311.551 209.266 310.421 209.831C309.304 210.396 307.988 210.679 306.473 210.679C305.946 210.679 305.414 210.627 304.874 210.525C304.335 210.422 303.809 210.249 303.295 210.005C302.782 209.761 302.294 209.433 301.831 209.022C301.382 208.599 300.984 208.072 300.637 207.443H300.56V218.17H295.11V189.051H300.31V192.055H300.387C300.759 191.426 301.151 190.887 301.562 190.438C301.973 189.975 302.428 189.597 302.929 189.301ZM302.063 204.862C302.409 205.209 302.826 205.492 303.314 205.71C303.802 205.915 304.38 206.018 305.048 206.018C305.715 206.018 306.293 205.915 306.781 205.71C307.269 205.492 307.686 205.209 308.033 204.862C308.379 204.516 308.662 204.118 308.88 203.668C309.111 203.219 309.291 202.757 309.419 202.282C309.548 201.794 309.631 201.319 309.67 200.857C309.721 200.382 309.747 199.945 309.747 199.547C309.747 198.815 309.663 198.077 309.496 197.332C309.33 196.588 309.06 195.92 308.688 195.329C308.328 194.739 307.847 194.257 307.243 193.885C306.64 193.513 305.908 193.326 305.048 193.326C304.175 193.326 303.436 193.513 302.833 193.885C302.242 194.257 301.761 194.739 301.388 195.329C301.029 195.92 300.766 196.588 300.599 197.332C300.432 198.077 300.348 198.815 300.348 199.547C300.348 199.945 300.368 200.382 300.406 200.857C300.458 201.319 300.547 201.794 300.676 202.282C300.804 202.757 300.978 203.219 301.196 203.668C301.427 204.118 301.716 204.516 302.063 204.862Z" fill="black"/>
<path d="M281.956 204.515L286.251 189.05H292.086L284.864 209.695C284.453 210.902 284.081 211.949 283.747 212.835C283.413 213.733 283.079 214.504 282.745 215.146C282.424 215.801 282.078 216.333 281.705 216.744C281.346 217.168 280.922 217.502 280.434 217.746C279.946 217.99 279.375 218.157 278.72 218.246C278.065 218.349 277.289 218.4 276.39 218.4C276.03 218.4 275.69 218.388 275.369 218.362C275.061 218.349 274.689 218.323 274.252 218.285V213.875C274.47 213.9 274.74 213.926 275.061 213.952C275.382 213.977 275.652 213.99 275.87 213.99C276.448 213.99 276.936 213.881 277.334 213.663C277.732 213.445 278.046 213.181 278.277 212.873C278.521 212.578 278.695 212.27 278.797 211.949C278.9 211.628 278.951 211.358 278.951 211.14L271.267 189.05H277.372L281.879 204.515H281.956Z" fill="black"/>
<path d="M269.919 189.05V193.479H263.564V210.042H258.133V193.479H251.777V189.05H269.919Z" fill="black"/>
<path d="M241.223 196.947C241.416 196.921 241.621 196.883 241.84 196.831C242.071 196.78 242.283 196.697 242.475 196.581C242.668 196.453 242.828 196.286 242.957 196.08C243.085 195.862 243.149 195.573 243.149 195.214C243.149 194.867 243.091 194.553 242.976 194.27C242.873 193.975 242.693 193.724 242.437 193.519C242.18 193.301 241.833 193.134 241.397 193.018C240.973 192.903 240.44 192.845 239.798 192.845C239.066 192.845 238.476 192.922 238.026 193.076C237.59 193.217 237.243 193.423 236.986 193.692C236.73 193.949 236.543 194.257 236.428 194.617C236.312 194.963 236.229 195.336 236.177 195.734H230.727C230.727 195.477 230.766 195.124 230.843 194.674C230.933 194.212 231.087 193.712 231.305 193.172C231.536 192.633 231.851 192.087 232.249 191.535C232.659 190.983 233.192 190.482 233.847 190.033C234.515 189.571 235.324 189.192 236.274 188.897C237.224 188.601 238.36 188.447 239.683 188.435C241.557 188.435 243.072 188.627 244.228 189.012C245.396 189.385 246.301 189.879 246.943 190.495C247.598 191.099 248.035 191.779 248.253 192.537C248.484 193.281 248.599 194.026 248.599 194.771V205.902C248.599 206.532 248.632 207.052 248.696 207.462C248.773 207.86 248.869 208.181 248.985 208.425C249.1 208.657 249.229 208.83 249.37 208.945C249.524 209.048 249.684 209.125 249.851 209.176V210.043H243.823C243.721 209.799 243.605 209.478 243.477 209.08C243.361 208.669 243.303 208.175 243.303 207.597C242.88 208.034 242.462 208.438 242.051 208.811C241.653 209.183 241.204 209.51 240.703 209.793C240.203 210.062 239.625 210.274 238.97 210.428C238.315 210.595 237.526 210.679 236.601 210.679C235.664 210.679 234.797 210.537 234.001 210.255C233.218 209.985 232.537 209.581 231.96 209.042C231.382 208.502 230.933 207.828 230.612 207.019C230.291 206.211 230.13 205.273 230.13 204.208C230.13 203.347 230.265 202.551 230.535 201.82C230.804 201.075 231.183 200.426 231.671 199.874C232.172 199.309 232.775 198.847 233.481 198.488C234.2 198.115 235.003 197.865 235.889 197.737L241.223 196.947ZM237.256 206.654C237.59 206.756 237.949 206.808 238.334 206.808C238.54 206.808 238.803 206.788 239.124 206.75C239.445 206.699 239.785 206.609 240.145 206.48C240.504 206.352 240.864 206.179 241.223 205.96C241.583 205.729 241.904 205.434 242.186 205.074C242.469 204.715 242.7 204.278 242.88 203.765C243.059 203.238 243.149 202.622 243.149 201.916V199.797C242.815 199.977 242.482 200.144 242.148 200.298C241.814 200.439 241.371 200.561 240.819 200.664L239.374 200.934C238.745 201.049 238.193 201.184 237.718 201.338C237.243 201.492 236.845 201.698 236.524 201.954C236.216 202.198 235.978 202.5 235.811 202.86C235.657 203.219 235.58 203.668 235.58 204.208C235.58 204.657 235.651 205.049 235.792 205.382C235.933 205.703 236.126 205.973 236.37 206.191C236.627 206.397 236.922 206.551 237.256 206.654Z" fill="black"/>
<path d="M215.185 189.301C215.686 189.006 216.238 188.788 216.841 188.646C217.458 188.505 218.151 188.435 218.921 188.435C219.563 188.435 220.224 188.512 220.905 188.666C221.585 188.82 222.247 189.07 222.889 189.417C223.543 189.751 224.16 190.194 224.737 190.746C225.315 191.285 225.822 191.953 226.259 192.749C226.695 193.545 227.042 194.475 227.299 195.541C227.556 196.594 227.684 197.801 227.684 199.162C227.684 200.857 227.498 202.41 227.126 203.822C226.766 205.235 226.214 206.448 225.469 207.462C224.737 208.477 223.807 209.266 222.677 209.831C221.56 210.396 220.244 210.679 218.729 210.679C218.202 210.679 217.669 210.627 217.13 210.525C216.591 210.422 216.065 210.249 215.551 210.005C215.037 209.761 214.549 209.433 214.087 209.022C213.638 208.599 213.24 208.072 212.893 207.443H212.816V218.17H207.366V189.051H212.566V192.055H212.643C213.015 191.426 213.407 190.887 213.818 190.438C214.229 189.975 214.684 189.597 215.185 189.301ZM214.318 204.862C214.665 205.209 215.082 205.492 215.57 205.71C216.058 205.915 216.636 206.018 217.304 206.018C217.971 206.018 218.549 205.915 219.037 205.71C219.525 205.492 219.942 205.209 220.289 204.862C220.635 204.516 220.918 204.118 221.136 203.668C221.367 203.219 221.547 202.757 221.675 202.282C221.804 201.794 221.887 201.319 221.926 200.857C221.977 200.382 222.003 199.945 222.003 199.547C222.003 198.815 221.919 198.077 221.752 197.332C221.585 196.588 221.316 195.92 220.943 195.329C220.584 194.739 220.102 194.257 219.499 193.885C218.896 193.513 218.164 193.326 217.304 193.326C216.43 193.326 215.692 193.513 215.089 193.885C214.498 194.257 214.017 194.739 213.644 195.329C213.285 195.92 213.022 196.588 212.855 197.332C212.688 198.077 212.604 198.815 212.604 199.547C212.604 199.945 212.624 200.382 212.662 200.857C212.713 201.319 212.803 201.794 212.932 202.282C213.06 202.757 213.233 203.219 213.452 203.668C213.683 204.118 213.972 204.516 214.318 204.862Z" fill="black"/>
<path d="M190.168 210.062C188.935 209.639 187.857 208.977 186.932 208.079C186.021 207.167 185.302 205.992 184.775 204.554C184.249 203.116 183.986 201.37 183.986 199.316C183.986 197.891 184.172 196.523 184.544 195.214C184.929 193.891 185.52 192.729 186.316 191.728C187.125 190.726 188.152 189.93 189.397 189.34C190.656 188.736 192.164 188.435 193.923 188.435C195.785 188.435 197.351 188.743 198.622 189.359C199.894 189.962 200.914 190.823 201.685 191.94C202.468 193.057 203.026 194.405 203.36 195.984C203.694 197.563 203.861 199.316 203.861 201.242H189.474C189.474 201.434 189.494 201.691 189.532 202.012C189.571 202.333 189.648 202.68 189.763 203.052C189.879 203.424 190.046 203.803 190.264 204.188C190.482 204.561 190.771 204.901 191.131 205.209C191.503 205.517 191.952 205.768 192.479 205.96C193.018 206.153 193.66 206.249 194.405 206.249C194.79 206.249 195.169 206.198 195.541 206.095C195.926 205.98 196.279 205.819 196.6 205.614C196.921 205.395 197.197 205.139 197.428 204.843C197.672 204.535 197.846 204.188 197.948 203.803H203.591C203.591 204.188 203.508 204.631 203.341 205.132C203.174 205.62 202.917 206.121 202.571 206.634C202.237 207.135 201.813 207.629 201.299 208.117C200.786 208.605 200.176 209.042 199.47 209.427C198.764 209.799 197.961 210.101 197.062 210.332C196.177 210.563 195.188 210.679 194.097 210.679C192.697 210.679 191.387 210.473 190.168 210.062ZM191.131 193.827C190.707 194.199 190.354 194.694 190.071 195.31C189.802 195.926 189.667 196.697 189.667 197.621H198.199C198.199 196.697 198.058 195.926 197.775 195.31C197.505 194.694 197.159 194.206 196.735 193.846C196.324 193.474 195.868 193.217 195.368 193.076C194.867 192.922 194.385 192.845 193.923 192.845C193.474 192.845 192.999 192.922 192.498 193.076C191.997 193.217 191.542 193.468 191.131 193.827Z" fill="black"/>
<path d="M182.175 189.05V193.479H175.82V210.042H170.389V193.479H164.033V189.05H182.175Z" fill="black"/>
<path d="M155.193 210.042V197.389H155.097L147.682 210.042H141.731V189.05H147.181V201.992H147.258L154.904 189.05H160.624V210.042H155.193Z" fill="black"/>
<path d="M124.148 193.479L124.032 197.389C123.968 199.584 123.827 201.51 123.609 203.167C123.39 204.823 123.031 206.21 122.53 207.327C122.042 208.431 121.375 209.265 120.527 209.83C119.693 210.395 118.621 210.678 117.311 210.678C116.695 210.678 116.155 210.639 115.693 210.562C115.231 210.498 114.852 210.402 114.557 210.273V205.709C114.737 205.786 114.961 205.856 115.231 205.921C115.513 205.985 115.854 206.017 116.252 206.017C116.663 206.017 117.029 205.895 117.349 205.651C117.67 205.394 117.947 204.938 118.178 204.284C118.409 203.616 118.588 202.698 118.717 201.53C118.845 200.361 118.929 198.853 118.967 197.004L119.121 189.05H136.011V210.042H130.58V193.479H124.148Z" fill="black"/>
<path d="M285.5 162.376C285.705 162.081 285.988 161.824 286.347 161.606C286.707 161.388 287.188 161.188 287.792 161.009C287.599 160.957 287.381 160.887 287.137 160.797C286.906 160.694 286.655 160.566 286.386 160.412C286.129 160.245 285.866 160.039 285.596 159.795C285.339 159.539 285.095 159.224 284.864 158.852C284.697 158.608 284.563 158.351 284.46 158.081C284.37 157.799 284.299 157.529 284.248 157.272C284.197 157.003 284.165 156.753 284.152 156.521C284.139 156.29 284.132 156.091 284.132 155.924C284.132 155.18 284.222 154.518 284.402 153.941C284.582 153.35 284.813 152.837 285.095 152.4C285.378 151.963 285.699 151.591 286.058 151.283C286.418 150.975 286.784 150.724 287.156 150.532C287.567 150.301 288.023 150.127 288.523 150.012C289.024 149.883 289.512 149.794 289.987 149.742C290.462 149.678 290.905 149.64 291.316 149.627C291.727 149.614 292.048 149.607 292.279 149.607H303.565V170.6H298.095V162.877H294.532C293.749 162.877 293.075 162.909 292.51 162.973C291.958 163.025 291.502 163.159 291.143 163.378C290.783 163.583 290.507 163.891 290.315 164.302C290.135 164.713 290.032 165.271 290.006 165.978L289.929 168C289.904 168.295 289.865 168.68 289.814 169.155C289.775 169.63 289.653 170.112 289.448 170.6H283.689C283.856 170.317 283.991 170.048 284.094 169.791C284.197 169.521 284.274 169.264 284.325 169.02C284.389 168.764 284.434 168.507 284.46 168.25C284.498 167.993 284.53 167.724 284.556 167.441L284.826 164.918C284.89 164.353 284.967 163.865 285.057 163.455C285.147 163.044 285.294 162.684 285.5 162.376ZM290.199 157.908C290.417 158.255 290.7 158.511 291.046 158.678C291.406 158.845 291.804 158.942 292.24 158.967C292.677 158.993 293.114 159.006 293.55 159.006H298.095V153.71H293.704C293.242 153.71 292.78 153.722 292.317 153.748C291.855 153.774 291.438 153.876 291.066 154.056C290.706 154.223 290.411 154.493 290.18 154.865C289.961 155.225 289.852 155.738 289.852 156.406C289.852 157.061 289.968 157.561 290.199 157.908Z" fill="black"/>
<path d="M272.269 157.503C272.461 157.477 272.667 157.439 272.885 157.387C273.116 157.336 273.328 157.252 273.521 157.137C273.713 157.008 273.874 156.841 274.002 156.636C274.131 156.418 274.195 156.129 274.195 155.769C274.195 155.423 274.137 155.108 274.021 154.826C273.919 154.53 273.739 154.28 273.482 154.075C273.225 153.856 272.879 153.689 272.442 153.574C272.019 153.458 271.486 153.401 270.844 153.401C270.112 153.401 269.521 153.478 269.072 153.632C268.635 153.773 268.289 153.978 268.032 154.248C267.775 154.505 267.589 154.813 267.473 155.172C267.358 155.519 267.274 155.891 267.223 156.289H261.773C261.773 156.033 261.811 155.68 261.888 155.23C261.978 154.768 262.132 154.267 262.351 153.728C262.582 153.189 262.896 152.643 263.294 152.091C263.705 151.539 264.238 151.038 264.893 150.589C265.56 150.127 266.369 149.748 267.319 149.452C268.269 149.157 269.406 149.003 270.728 148.99C272.603 148.99 274.118 149.183 275.273 149.568C276.442 149.94 277.347 150.435 277.989 151.051C278.644 151.654 279.08 152.335 279.298 153.092C279.53 153.837 279.645 154.582 279.645 155.326V166.458C279.645 167.087 279.677 167.607 279.741 168.018C279.818 168.416 279.915 168.737 280.03 168.981C280.146 169.212 280.274 169.385 280.415 169.501C280.57 169.604 280.73 169.681 280.897 169.732V170.599H274.869C274.766 170.355 274.651 170.034 274.522 169.636C274.407 169.225 274.349 168.731 274.349 168.153C273.925 168.589 273.508 168.994 273.097 169.366C272.699 169.739 272.25 170.066 271.749 170.348C271.248 170.618 270.67 170.83 270.016 170.984C269.361 171.151 268.571 171.234 267.647 171.234C266.709 171.234 265.843 171.093 265.047 170.811C264.264 170.541 263.583 170.137 263.005 169.597C262.428 169.058 261.978 168.384 261.657 167.575C261.336 166.766 261.176 165.829 261.176 164.763C261.176 163.903 261.311 163.107 261.58 162.375C261.85 161.631 262.229 160.982 262.716 160.43C263.217 159.865 263.821 159.403 264.527 159.043C265.246 158.671 266.048 158.421 266.934 158.292L272.269 157.503ZM268.302 167.209C268.635 167.312 268.995 167.363 269.38 167.363C269.585 167.363 269.849 167.344 270.17 167.306C270.491 167.254 270.831 167.164 271.19 167.036C271.55 166.908 271.909 166.734 272.269 166.516C272.628 166.285 272.949 165.989 273.232 165.63C273.514 165.27 273.745 164.834 273.925 164.32C274.105 163.794 274.195 163.178 274.195 162.472V160.353C273.861 160.533 273.527 160.7 273.193 160.854C272.86 160.995 272.417 161.117 271.864 161.22L270.42 161.489C269.791 161.605 269.239 161.74 268.764 161.894C268.289 162.048 267.891 162.253 267.57 162.51C267.262 162.754 267.024 163.056 266.857 163.415C266.703 163.775 266.626 164.224 266.626 164.763C266.626 165.213 266.697 165.604 266.838 165.938C266.979 166.259 267.172 166.529 267.416 166.747C267.672 166.952 267.968 167.107 268.302 167.209Z" fill="black"/>
<path d="M252.027 161.606H244.016V170.6H238.565V149.607H244.016V157.195H252.027V149.607H257.458V170.6H252.027V161.606Z" fill="black"/>
<path d="M226.952 162.626C226.554 162.742 226.111 162.845 225.623 162.935C225.148 163.025 224.647 163.095 224.121 163.146C223.607 163.198 223.113 163.224 222.638 163.224C221.444 163.224 220.385 163.121 219.46 162.915C218.536 162.697 217.759 162.35 217.13 161.875C216.501 161.4 216.026 160.784 215.705 160.027C215.384 159.256 215.223 158.312 215.223 157.195V149.607H220.674V156.117C220.674 156.72 220.744 157.215 220.885 157.6C221.04 157.985 221.271 158.293 221.579 158.524C221.887 158.755 222.272 158.916 222.734 159.006C223.197 159.096 223.742 159.141 224.371 159.141C225.309 159.141 226.053 159.057 226.605 158.89C227.157 158.711 227.588 158.511 227.896 158.293V149.607H233.346V170.6H227.896V162.318C227.665 162.421 227.35 162.524 226.952 162.626Z" fill="black"/>
<path d="M203.302 165.072L207.597 149.607H213.433L206.21 170.253C205.8 171.46 205.427 172.506 205.093 173.392C204.76 174.291 204.426 175.061 204.092 175.703C203.771 176.358 203.424 176.891 203.052 177.302C202.692 177.726 202.269 178.059 201.781 178.303C201.293 178.547 200.722 178.714 200.067 178.804C199.412 178.907 198.635 178.958 197.736 178.958C197.377 178.958 197.037 178.945 196.716 178.92C196.408 178.907 196.035 178.881 195.599 178.843V174.432C195.817 174.458 196.087 174.484 196.408 174.509C196.729 174.535 196.998 174.548 197.216 174.548C197.794 174.548 198.282 174.439 198.68 174.22C199.078 174.002 199.393 173.739 199.624 173.431C199.868 173.135 200.041 172.827 200.144 172.506C200.247 172.185 200.298 171.916 200.298 171.697L192.614 149.607H198.719L203.225 165.072H203.302Z" fill="black"/>
<path d="M182.291 157.503C182.483 157.477 182.689 157.439 182.907 157.387C183.138 157.336 183.35 157.252 183.543 157.137C183.735 157.008 183.896 156.841 184.024 156.636C184.153 156.418 184.217 156.129 184.217 155.769C184.217 155.423 184.159 155.108 184.043 154.826C183.941 154.53 183.761 154.28 183.504 154.075C183.247 153.856 182.901 153.689 182.464 153.574C182.04 153.458 181.508 153.401 180.866 153.401C180.134 153.401 179.543 153.478 179.094 153.632C178.657 153.773 178.311 153.978 178.054 154.248C177.797 154.505 177.611 154.813 177.495 155.172C177.38 155.519 177.296 155.891 177.245 156.289H171.795C171.795 156.033 171.833 155.68 171.91 155.23C172 154.768 172.154 154.267 172.372 153.728C172.604 153.189 172.918 152.643 173.316 152.091C173.727 151.539 174.26 151.038 174.915 150.589C175.582 150.127 176.391 149.748 177.341 149.452C178.291 149.157 179.428 149.003 180.75 148.99C182.625 148.99 184.14 149.183 185.295 149.568C186.464 149.94 187.369 150.435 188.011 151.051C188.666 151.654 189.102 152.335 189.32 153.092C189.551 153.837 189.667 154.582 189.667 155.326V166.458C189.667 167.087 189.699 167.607 189.763 168.018C189.84 168.416 189.937 168.737 190.052 168.981C190.168 169.212 190.296 169.385 190.437 169.501C190.591 169.604 190.752 169.681 190.919 169.732V170.599H184.891C184.788 170.355 184.673 170.034 184.544 169.636C184.429 169.225 184.371 168.731 184.371 168.153C183.947 168.589 183.53 168.994 183.119 169.366C182.721 169.739 182.272 170.066 181.771 170.348C181.27 170.618 180.692 170.83 180.038 170.984C179.383 171.151 178.593 171.234 177.669 171.234C176.731 171.234 175.865 171.093 175.069 170.811C174.285 170.541 173.605 170.137 173.027 169.597C172.449 169.058 172 168.384 171.679 167.575C171.358 166.766 171.198 165.829 171.198 164.763C171.198 163.903 171.332 163.107 171.602 162.375C171.872 161.631 172.25 160.982 172.738 160.43C173.239 159.865 173.843 159.403 174.549 159.043C175.268 158.671 176.07 158.421 176.956 158.292L182.291 157.503ZM178.323 167.209C178.657 167.312 179.017 167.363 179.402 167.363C179.607 167.363 179.871 167.344 180.192 167.306C180.513 167.254 180.853 167.164 181.212 167.036C181.572 166.908 181.931 166.734 182.291 166.516C182.65 166.285 182.971 165.989 183.254 165.63C183.536 165.27 183.767 164.834 183.947 164.32C184.127 163.794 184.217 163.178 184.217 162.472V160.353C183.883 160.533 183.549 160.7 183.215 160.854C182.881 160.995 182.438 161.117 181.886 161.22L180.442 161.489C179.813 161.605 179.261 161.74 178.786 161.894C178.311 162.048 177.913 162.253 177.592 162.51C177.283 162.754 177.046 163.056 176.879 163.415C176.725 163.775 176.648 164.224 176.648 164.763C176.648 165.213 176.719 165.604 176.86 165.938C177.001 166.259 177.194 166.529 177.438 166.747C177.694 166.952 177.99 167.107 178.323 167.209Z" fill="black"/>
<path d="M162.049 161.606H154.038V170.6H148.587V149.607H154.038V157.195H162.049V149.607H167.48V170.6H162.049V161.606Z" fill="black"/>
</svg>
