<svg width="386" height="460" viewBox="0 0 386 460" fill="none" xmlns="http://www.w3.org/2000/svg">
<path d="M2.17352 2.17383C15.4545 27.5143 32.2307 31.2785 55.3709 37.3888V457.507C28.5836 451.521 8.2101 442.917 2.17352 416.355V2.17383Z" fill="white"/>
<path d="M383.61 37.3888H55.3709C32.2307 31.2785 15.4545 27.5143 2.17352 2.17383H313.057L383.61 37.3888Z" fill="white"/>
<path d="M55.3709 37.3888H383.61V457.507H55.3709V37.3888Z" fill="white"/>
<path d="M380.853 454.751H58.0466V40.0987H380.853V454.751ZM4.93029 11.445C10.6157 19.8758 16.9575 25.4059 24.1321 29.4036C32.709 34.1826 42.4025 36.7134 53.1164 39.5327V454.118C41.088 451.276 30.7474 447.819 22.6357 442.331C14.027 436.508 7.82996 428.332 4.93029 415.825V11.445ZM372.866 35.1704H55.9012C44.3804 32.1298 34.8597 29.7393 26.5317 25.099C19.1072 20.962 12.5654 14.9826 6.65298 4.92836H312.293L372.866 35.1704ZM8.25173e-05 416.393L0.0617102 416.663C3.21475 430.54 10.1747 439.853 19.8721 446.413C29.4573 452.897 41.6122 456.618 55.0432 459.62L55.309 459.68H385.783V36.1108L313.455 0H8.25173e-05V416.393Z" fill="black"/>
<path d="M84.7637 107.722C84.7637 96.8427 93.6076 88.0234 104.517 88.0234H334.515C345.425 88.0234 354.269 96.8427 354.269 107.722V245.459C354.269 256.338 345.425 265.158 334.515 265.158H104.517C93.6076 265.158 84.7637 256.338 84.7637 245.459V107.722Z" fill="#CAD6D8"/>
<path d="M334.515 260.233V265.158H104.517V260.233H334.515ZM349.33 245.459V107.722C349.33 99.5626 342.697 92.9482 334.515 92.948H104.517C96.3349 92.948 89.7021 99.5625 89.7021 107.722V245.459C89.7021 253.619 96.335 260.233 104.517 260.233V265.158L104.007 265.151C93.5027 264.885 85.0368 256.443 84.7705 245.968L84.7637 245.459V107.722C84.7637 96.8427 93.6076 88.0234 104.517 88.0234H334.515L335.025 88.0302C345.699 88.2997 354.269 97.0126 354.269 107.722V245.459L354.262 245.968C353.996 256.443 345.529 264.886 335.025 265.151L334.515 265.158V260.233C342.697 260.233 349.33 253.619 349.33 245.459Z" fill="black"/>
<path d="M293.891 190.468V177.815H293.795L286.38 190.468H280.429V169.476H285.879V182.418H285.956L293.602 169.476H299.322V190.468H293.891Z" fill="black"/>
<path d="M265.349 177.719H267.448C268.668 177.719 269.528 177.508 270.029 177.084C270.542 176.66 270.799 176.044 270.799 175.235C270.799 174.76 270.722 174.362 270.568 174.041C270.427 173.72 270.221 173.463 269.952 173.271C269.695 173.065 269.387 172.924 269.027 172.847C268.668 172.757 268.276 172.712 267.853 172.712C266.89 172.712 266.106 172.937 265.503 173.386C264.912 173.823 264.617 174.458 264.617 175.293H259.494C259.507 174.137 259.738 173.155 260.187 172.346C260.65 171.525 261.272 170.857 262.056 170.343C262.839 169.83 263.763 169.457 264.829 169.226C265.895 168.982 267.044 168.86 268.276 168.86C269.663 168.86 270.857 169.027 271.858 169.361C272.86 169.695 273.688 170.138 274.343 170.69C274.998 171.242 275.479 171.878 275.787 172.597C276.095 173.303 276.249 174.028 276.249 174.773C276.249 175.389 276.16 175.941 275.98 176.429C275.8 176.904 275.556 177.321 275.248 177.681C274.94 178.028 274.58 178.317 274.169 178.548C273.771 178.779 273.354 178.952 272.918 179.068V179.145C273.649 179.26 274.272 179.478 274.786 179.799C275.299 180.108 275.717 180.48 276.038 180.916C276.359 181.353 276.59 181.834 276.731 182.361C276.885 182.874 276.962 183.382 276.962 183.882C276.962 185.192 276.705 186.303 276.192 187.214C275.678 188.126 275.004 188.87 274.169 189.448C273.348 190.026 272.417 190.443 271.377 190.7C270.35 190.97 269.316 191.104 268.276 191.104C266.915 191.104 265.663 190.976 264.521 190.719C263.391 190.475 262.415 190.071 261.593 189.506C260.784 188.928 260.149 188.184 259.687 187.272C259.225 186.348 258.987 185.218 258.974 183.882H264.174C264.174 184.37 264.264 184.82 264.444 185.23C264.623 185.641 264.874 185.994 265.195 186.29C265.516 186.585 265.901 186.816 266.35 186.983C266.8 187.15 267.3 187.233 267.853 187.233C268.52 187.233 269.072 187.131 269.509 186.925C269.958 186.707 270.311 186.437 270.568 186.116C270.825 185.795 271.005 185.455 271.107 185.096C271.223 184.723 271.281 184.383 271.281 184.075C271.281 183.073 271.005 182.374 270.452 181.976C269.913 181.565 269.047 181.359 267.853 181.359H265.349V177.719Z" fill="black"/>
<path d="M243.355 190.488C242.123 190.064 241.044 189.403 240.12 188.505C239.208 187.593 238.489 186.418 237.963 184.98C237.436 183.542 237.173 181.796 237.173 179.742C237.173 178.317 237.359 176.949 237.732 175.64C238.117 174.317 238.707 173.155 239.503 172.154C240.312 171.152 241.339 170.356 242.585 169.766C243.843 169.162 245.352 168.86 247.111 168.86C248.972 168.86 250.539 169.168 251.81 169.785C253.081 170.388 254.102 171.248 254.872 172.365C255.655 173.483 256.214 174.831 256.548 176.41C256.881 177.989 257.048 179.742 257.048 181.668H242.662C242.662 181.86 242.681 182.117 242.72 182.438C242.758 182.759 242.835 183.106 242.951 183.478C243.066 183.85 243.233 184.229 243.451 184.614C243.67 184.987 243.959 185.327 244.318 185.635C244.69 185.943 245.14 186.193 245.666 186.386C246.205 186.579 246.847 186.675 247.592 186.675C247.977 186.675 248.356 186.624 248.728 186.521C249.114 186.405 249.467 186.245 249.788 186.039C250.109 185.821 250.385 185.564 250.616 185.269C250.86 184.961 251.033 184.614 251.136 184.229H256.779C256.779 184.614 256.695 185.057 256.528 185.558C256.361 186.046 256.105 186.547 255.758 187.06C255.424 187.561 255 188.055 254.487 188.543C253.973 189.031 253.363 189.467 252.657 189.853C251.951 190.225 251.149 190.527 250.25 190.758C249.364 190.989 248.375 191.104 247.284 191.104C245.884 191.104 244.575 190.899 243.355 190.488ZM244.318 174.253C243.894 174.625 243.541 175.12 243.259 175.736C242.989 176.352 242.854 177.122 242.854 178.047H251.386C251.386 177.122 251.245 176.352 250.962 175.736C250.693 175.12 250.346 174.632 249.922 174.272C249.512 173.9 249.056 173.643 248.555 173.502C248.054 173.348 247.573 173.271 247.111 173.271C246.661 173.271 246.186 173.348 245.685 173.502C245.185 173.643 244.729 173.893 244.318 174.253Z" fill="black"/>
<path d="M235.363 169.476V173.905H229.007V190.468H223.576V173.905H217.221V169.476H235.363Z" fill="black"/>
<path d="M208.381 181.474H200.369V190.468H194.919V169.476H200.369V177.064H208.381V169.476H213.812V190.468H208.381V181.474Z" fill="black"/>
<path d="M177.567 190.488C176.334 190.064 175.255 189.403 174.331 188.505C173.419 187.593 172.7 186.418 172.174 184.98C171.648 183.542 171.384 181.796 171.384 179.742C171.384 178.317 171.571 176.949 171.943 175.64C172.328 174.317 172.919 173.155 173.715 172.154C174.524 171.152 175.551 170.356 176.796 169.766C178.054 169.162 179.563 168.86 181.322 168.86C183.184 168.86 184.75 169.168 186.021 169.785C187.292 170.388 188.313 171.248 189.083 172.365C189.867 173.483 190.425 174.831 190.759 176.41C191.093 177.989 191.26 179.742 191.26 181.668H176.873C176.873 181.86 176.892 182.117 176.931 182.438C176.97 182.759 177.047 183.106 177.162 183.478C177.278 183.85 177.445 184.229 177.663 184.614C177.881 184.987 178.17 185.327 178.529 185.635C178.902 185.943 179.351 186.193 179.878 186.386C180.417 186.579 181.059 186.675 181.804 186.675C182.189 186.675 182.567 186.624 182.94 186.521C183.325 186.405 183.678 186.245 183.999 186.039C184.32 185.821 184.596 185.564 184.827 185.269C185.071 184.961 185.244 184.614 185.347 184.229H190.99C190.99 184.614 190.907 185.057 190.74 185.558C190.573 186.046 190.316 186.547 189.969 187.06C189.635 187.561 189.212 188.055 188.698 188.543C188.185 189.031 187.575 189.467 186.869 189.853C186.162 190.225 185.36 190.527 184.461 190.758C183.575 190.989 182.587 191.104 181.495 191.104C180.096 191.104 178.786 190.899 177.567 190.488ZM178.529 174.253C178.106 174.625 177.753 175.12 177.47 175.736C177.201 176.352 177.066 177.122 177.066 178.047H185.598C185.598 177.122 185.456 176.352 185.174 175.736C184.904 175.12 184.558 174.632 184.134 174.272C183.723 173.9 183.267 173.643 182.766 173.502C182.266 173.348 181.784 173.271 181.322 173.271C180.873 173.271 180.398 173.348 179.897 173.502C179.396 173.643 178.94 173.893 178.529 174.253Z" fill="black"/>
<path d="M157.691 170.247C158.038 169.9 158.41 169.624 158.808 169.419C159.206 169.213 159.617 169.072 160.041 168.995C160.477 168.905 160.92 168.86 161.37 168.86C161.87 168.86 162.403 168.931 162.968 169.072C163.546 169.201 164.117 169.425 164.682 169.746C165.247 170.067 165.793 170.504 166.319 171.056C166.846 171.595 167.308 172.276 167.706 173.097C168.104 173.906 168.418 174.876 168.649 176.005C168.893 177.122 169.015 178.419 169.015 179.896C169.015 181.732 168.804 183.35 168.38 184.749C167.969 186.136 167.417 187.304 166.724 188.254C166.03 189.191 165.228 189.904 164.316 190.392C163.417 190.867 162.474 191.104 161.485 191.104C160.882 191.104 160.33 191.027 159.829 190.873C159.341 190.719 158.898 190.52 158.5 190.276C158.115 190.02 157.775 189.731 157.479 189.41C157.184 189.089 156.94 188.761 156.747 188.427H156.67V198.596H151.239V188.427H151.162C150.97 188.761 150.726 189.089 150.43 189.41C150.135 189.731 149.788 190.02 149.39 190.276C149.005 190.52 148.562 190.719 148.062 190.873C147.574 191.027 147.028 191.104 146.425 191.104C145.436 191.104 144.486 190.867 143.574 190.392C142.676 189.904 141.879 189.191 141.186 188.254C140.493 187.304 139.934 186.136 139.511 184.749C139.1 183.35 138.894 181.732 138.894 179.896C138.894 178.419 139.01 177.122 139.241 176.005C139.485 174.876 139.806 173.906 140.204 173.097C140.602 172.276 141.064 171.595 141.591 171.056C142.117 170.504 142.663 170.067 143.228 169.746C143.805 169.425 144.377 169.201 144.942 169.072C145.519 168.931 146.065 168.86 146.579 168.86C147.015 168.86 147.445 168.905 147.869 168.995C148.293 169.072 148.704 169.213 149.102 169.419C149.5 169.624 149.872 169.9 150.219 170.247C150.565 170.594 150.88 171.024 151.162 171.537H151.239V162.158H156.67V171.537H156.747C157.03 171.024 157.344 170.594 157.691 170.247ZM144.325 180.127C144.325 180.743 144.37 181.417 144.46 182.149C144.55 182.881 144.736 183.568 145.019 184.21C145.301 184.839 145.693 185.372 146.193 185.808C146.694 186.232 147.362 186.444 148.196 186.444C148.813 186.444 149.313 186.347 149.699 186.155C150.097 185.962 150.405 185.686 150.623 185.327C150.854 184.967 151.015 184.531 151.105 184.017C151.194 183.504 151.239 182.932 151.239 182.303V177.334C151.239 176.769 151.188 176.256 151.085 175.794C150.983 175.319 150.809 174.914 150.565 174.58C150.334 174.234 150.026 173.97 149.641 173.791C149.269 173.598 148.813 173.502 148.273 173.502C147.49 173.502 146.842 173.688 146.328 174.06C145.828 174.433 145.423 174.927 145.115 175.543C144.82 176.159 144.614 176.866 144.499 177.662C144.383 178.458 144.325 179.279 144.325 180.127ZM157.287 185.327C157.505 185.686 157.807 185.962 158.192 186.155C158.59 186.347 159.097 186.444 159.713 186.444C160.265 186.444 160.74 186.347 161.138 186.155C161.549 185.949 161.896 185.68 162.178 185.346C162.474 185.012 162.711 184.633 162.891 184.21C163.071 183.773 163.212 183.324 163.315 182.862C163.417 182.387 163.488 181.918 163.527 181.456C163.565 180.981 163.584 180.538 163.584 180.127C163.584 179.279 163.52 178.458 163.392 177.662C163.276 176.866 163.071 176.159 162.775 175.543C162.48 174.927 162.076 174.433 161.562 174.06C161.061 173.688 160.419 173.502 159.636 173.502C159.097 173.502 158.635 173.598 158.25 173.791C157.877 173.97 157.569 174.234 157.325 174.58C157.094 174.914 156.927 175.319 156.824 175.794C156.722 176.256 156.67 176.769 156.67 177.334V182.303C156.67 182.932 156.715 183.504 156.805 184.017C156.895 184.531 157.056 184.967 157.287 185.327Z" fill="black"/>
</svg>
