<svg width="386" height="460" viewBox="0 0 386 460" fill="none" xmlns="http://www.w3.org/2000/svg">
<path d="M2.17343 2.17285C15.4166 27.5133 32.145 31.2775 55.2193 37.3879V457.506C28.5082 451.52 8.19282 442.916 2.17343 416.354V2.17285Z" fill="#CAD6D8"/>
<path d="M382.523 37.3879H55.2193C32.145 31.2775 15.4166 27.5133 2.17343 2.17285H312.172L382.523 37.3879Z" fill="white"/>
<path d="M55.2193 37.3879H382.523V457.506H55.2193V37.3879Z" fill="#CAD6D8"/>
<path d="M380.853 454.751H58.0465V40.0987H380.853V454.751ZM4.9302 11.445C10.6156 19.8758 16.9574 25.4059 24.132 29.4036C32.7089 34.1826 42.4024 36.7134 53.1163 39.5327V454.118C41.0879 451.276 30.7473 447.819 22.6356 442.331C14.0269 436.508 7.82987 428.332 4.9302 415.825V11.445ZM372.866 35.1704H55.9011C44.3803 32.1298 34.8596 29.7393 26.5317 25.099C19.1071 20.962 12.5653 14.9826 6.65289 4.92836H312.293L372.866 35.1704ZM-9.03546e-06 416.393L0.0616186 416.663C3.21465 430.54 10.1746 439.853 19.872 446.413C29.4572 452.897 41.6121 456.618 55.0431 459.62L55.3089 459.68H385.783V36.1108L313.455 0H-9.03546e-06V416.393Z" fill="black"/>
<path d="M84.7634 107.722C84.7634 96.8427 93.6073 88.0234 104.517 88.0234H334.515C345.425 88.0234 354.268 96.8427 354.268 107.722V245.459C354.268 256.338 345.424 265.158 334.515 265.158H104.517C93.6072 265.158 84.7634 256.338 84.7634 245.459V107.722Z" fill="#A6B5B7"/>
<path d="M334.515 260.233V265.158H104.517V260.233H334.515ZM349.33 245.459V107.722C349.33 99.5626 342.697 92.9482 334.515 92.948H104.517C96.3346 92.948 89.7017 99.5625 89.7017 107.722V245.459C89.7018 253.619 96.3346 260.233 104.517 260.233V265.158L104.006 265.151C93.5024 264.885 85.0365 256.443 84.7701 245.968L84.7634 245.459V107.722C84.7634 96.8427 93.6072 88.0234 104.517 88.0234H334.515L335.024 88.0302C345.698 88.2997 354.268 97.0126 354.268 107.722V245.459L354.262 245.968C353.995 256.443 345.529 264.886 335.024 265.151L334.515 265.158V260.233C342.697 260.233 349.33 253.619 349.33 245.459Z" fill="black"/>
<path d="M275.997 177.373C276.189 177.347 276.395 177.309 276.613 177.257C276.844 177.206 277.056 177.122 277.248 177.007C277.441 176.879 277.601 176.712 277.73 176.506C277.858 176.288 277.922 175.999 277.922 175.64C277.922 175.293 277.865 174.978 277.749 174.696C277.646 174.401 277.467 174.15 277.21 173.945C276.953 173.726 276.606 173.56 276.17 173.444C275.746 173.328 275.213 173.271 274.571 173.271C273.84 173.271 273.249 173.348 272.8 173.502C272.363 173.643 272.016 173.848 271.76 174.118C271.503 174.375 271.317 174.683 271.201 175.042C271.086 175.389 271.002 175.761 270.951 176.16H265.5C265.5 175.903 265.539 175.55 265.616 175.1C265.706 174.638 265.86 174.137 266.078 173.598C266.309 173.059 266.624 172.513 267.022 171.961C267.433 171.409 267.966 170.908 268.62 170.459C269.288 169.997 270.097 169.618 271.047 169.323C271.997 169.027 273.133 168.873 274.456 168.86C276.33 168.86 277.845 169.053 279.001 169.438C280.169 169.81 281.075 170.305 281.716 170.921C282.371 171.525 282.808 172.205 283.026 172.963C283.257 173.707 283.373 174.452 283.373 175.197V186.328C283.373 186.957 283.405 187.477 283.469 187.888C283.546 188.286 283.642 188.607 283.758 188.851C283.873 189.082 284.002 189.256 284.143 189.371C284.297 189.474 284.458 189.551 284.625 189.602V190.469H278.597C278.494 190.225 278.378 189.904 278.25 189.506C278.134 189.095 278.077 188.601 278.077 188.023C277.653 188.46 277.236 188.864 276.825 189.236C276.427 189.609 275.977 189.936 275.477 190.219C274.976 190.488 274.398 190.7 273.743 190.854C273.088 191.021 272.299 191.104 271.374 191.104C270.437 191.104 269.57 190.963 268.774 190.681C267.991 190.411 267.311 190.007 266.733 189.467C266.155 188.928 265.706 188.254 265.385 187.445C265.064 186.636 264.903 185.699 264.903 184.633C264.903 183.773 265.038 182.977 265.308 182.245C265.577 181.501 265.956 180.852 266.444 180.3C266.945 179.735 267.548 179.273 268.254 178.914C268.973 178.541 269.776 178.291 270.662 178.162L275.997 177.373ZM272.029 187.079C272.363 187.182 272.723 187.233 273.108 187.233C273.313 187.233 273.576 187.214 273.897 187.176C274.218 187.124 274.559 187.034 274.918 186.906C275.278 186.778 275.637 186.604 275.997 186.386C276.356 186.155 276.677 185.86 276.96 185.5C277.242 185.141 277.473 184.704 277.653 184.191C277.833 183.664 277.922 183.048 277.922 182.342V180.223C277.589 180.403 277.255 180.57 276.921 180.724C276.587 180.865 276.144 180.987 275.592 181.09L274.148 181.359C273.519 181.475 272.966 181.61 272.491 181.764C272.016 181.918 271.618 182.123 271.297 182.38C270.989 182.624 270.752 182.926 270.585 183.285C270.431 183.645 270.354 184.094 270.354 184.633C270.354 185.083 270.424 185.474 270.566 185.808C270.707 186.129 270.899 186.399 271.143 186.617C271.4 186.823 271.695 186.977 272.029 187.079Z" fill="black"/>
<path d="M263.363 190.468H256.256L250.093 181.609L247.898 183.824V190.468H242.447V169.476H247.898V177.449L255.755 169.476H262.997L254.33 178.2L263.363 190.468Z" fill="black"/>
<path d="M227.213 177.719H229.312C230.532 177.719 231.392 177.508 231.893 177.084C232.407 176.66 232.663 176.044 232.663 175.235C232.663 174.76 232.586 174.362 232.432 174.041C232.291 173.72 232.086 173.463 231.816 173.271C231.559 173.065 231.251 172.924 230.892 172.847C230.532 172.757 230.141 172.712 229.717 172.712C228.754 172.712 227.971 172.937 227.367 173.386C226.777 173.823 226.481 174.458 226.481 175.293H221.358C221.371 174.137 221.602 173.155 222.052 172.346C222.514 171.525 223.137 170.857 223.92 170.343C224.703 169.83 225.628 169.457 226.693 169.226C227.759 168.982 228.908 168.86 230.141 168.86C231.527 168.86 232.721 169.027 233.723 169.361C234.724 169.695 235.552 170.138 236.207 170.69C236.862 171.242 237.343 171.878 237.652 172.597C237.96 173.303 238.114 174.028 238.114 174.773C238.114 175.389 238.024 175.941 237.844 176.429C237.664 176.904 237.42 177.321 237.112 177.681C236.804 178.028 236.445 178.317 236.034 178.548C235.636 178.779 235.218 178.952 234.782 179.068V179.145C235.514 179.26 236.136 179.478 236.65 179.799C237.164 180.108 237.581 180.48 237.902 180.916C238.223 181.353 238.454 181.834 238.595 182.361C238.749 182.874 238.826 183.382 238.826 183.882C238.826 185.192 238.57 186.303 238.056 187.214C237.542 188.126 236.868 188.87 236.034 189.448C235.212 190.026 234.281 190.443 233.241 190.7C232.214 190.97 231.181 191.104 230.141 191.104C228.78 191.104 227.528 190.976 226.385 190.719C225.255 190.475 224.279 190.071 223.458 189.506C222.649 188.928 222.013 188.184 221.551 187.272C221.089 186.348 220.851 185.218 220.838 183.882H226.038C226.038 184.37 226.128 184.82 226.308 185.23C226.488 185.641 226.738 185.994 227.059 186.29C227.38 186.585 227.765 186.816 228.215 186.983C228.664 187.15 229.165 187.233 229.717 187.233C230.384 187.233 230.937 187.131 231.373 186.925C231.822 186.707 232.176 186.437 232.432 186.116C232.689 185.795 232.869 185.455 232.972 185.096C233.087 184.723 233.145 184.383 233.145 184.075C233.145 183.073 232.869 182.374 232.317 181.976C231.778 181.565 230.911 181.359 229.717 181.359H227.213V177.719Z" fill="black"/>
<path d="M210.208 177.373C210.401 177.347 210.606 177.309 210.824 177.257C211.055 177.206 211.267 177.122 211.46 177.007C211.652 176.879 211.813 176.712 211.941 176.506C212.07 176.288 212.134 175.999 212.134 175.64C212.134 175.293 212.076 174.978 211.961 174.696C211.858 174.401 211.678 174.15 211.421 173.945C211.164 173.726 210.818 173.56 210.381 173.444C209.958 173.328 209.425 173.271 208.783 173.271C208.051 173.271 207.46 173.348 207.011 173.502C206.574 173.643 206.228 173.848 205.971 174.118C205.714 174.375 205.528 174.683 205.412 175.042C205.297 175.389 205.213 175.761 205.162 176.16H199.712C199.712 175.903 199.75 175.55 199.827 175.1C199.917 174.638 200.071 174.137 200.29 173.598C200.521 173.059 200.835 172.513 201.233 171.961C201.644 171.409 202.177 170.908 202.832 170.459C203.499 169.997 204.308 169.618 205.258 169.323C206.209 169.027 207.345 168.873 208.667 168.86C210.542 168.86 212.057 169.053 213.212 169.438C214.381 169.81 215.286 170.305 215.928 170.921C216.583 171.525 217.019 172.205 217.237 172.963C217.469 173.707 217.584 174.452 217.584 175.197V186.328C217.584 186.957 217.616 187.477 217.68 187.888C217.757 188.286 217.854 188.607 217.969 188.851C218.085 189.082 218.213 189.256 218.355 189.371C218.509 189.474 218.669 189.551 218.836 189.602V190.469H212.808C212.705 190.225 212.59 189.904 212.461 189.506C212.346 189.095 212.288 188.601 212.288 188.023C211.864 188.46 211.447 188.864 211.036 189.236C210.638 189.609 210.189 189.936 209.688 190.219C209.187 190.488 208.609 190.7 207.955 190.854C207.3 191.021 206.51 191.104 205.586 191.104C204.649 191.104 203.782 190.963 202.986 190.681C202.203 190.411 201.522 190.007 200.944 189.467C200.367 188.928 199.917 188.254 199.596 187.445C199.275 186.636 199.115 185.699 199.115 184.633C199.115 183.773 199.25 182.977 199.519 182.245C199.789 181.501 200.168 180.852 200.655 180.3C201.156 179.735 201.76 179.273 202.466 178.914C203.185 178.541 203.987 178.291 204.873 178.162L210.208 177.373ZM206.241 187.079C206.574 187.182 206.934 187.233 207.319 187.233C207.525 187.233 207.788 187.214 208.109 187.176C208.43 187.124 208.77 187.034 209.129 186.906C209.489 186.778 209.848 186.604 210.208 186.386C210.567 186.155 210.888 185.86 211.171 185.5C211.453 185.141 211.684 184.704 211.864 184.191C212.044 183.664 212.134 183.048 212.134 182.342V180.223C211.8 180.403 211.466 180.57 211.132 180.724C210.799 180.865 210.356 180.987 209.804 181.09L208.359 181.359C207.73 181.475 207.178 181.61 206.703 181.764C206.228 181.918 205.83 182.123 205.509 182.38C205.201 182.624 204.963 182.926 204.796 183.285C204.642 183.645 204.565 184.094 204.565 184.633C204.565 185.083 204.636 185.474 204.777 185.808C204.918 186.129 205.111 186.399 205.355 186.617C205.611 186.823 205.907 186.977 206.241 187.079Z" fill="black"/>
<path d="M197.574 190.468H190.467L184.304 181.609L182.109 183.824V190.468H176.659V169.476H182.109V177.449L189.967 169.476H197.208L188.541 178.2L197.574 190.468Z" fill="black"/>
<path d="M163.158 186.444C163.787 186.444 164.333 186.322 164.795 186.078C165.257 185.821 165.642 185.507 165.951 185.134C166.259 184.762 166.483 184.364 166.625 183.94C166.779 183.516 166.856 183.131 166.856 182.785H172.537C172.537 183.131 172.473 183.581 172.345 184.133C172.229 184.685 172.03 185.269 171.748 185.885C171.465 186.502 171.086 187.124 170.611 187.753C170.149 188.37 169.565 188.928 168.859 189.429C168.165 189.917 167.35 190.315 166.413 190.623C165.476 190.944 164.391 191.104 163.158 191.104C161.553 191.104 160.134 190.861 158.902 190.373C157.682 189.885 156.655 189.172 155.82 188.235C154.999 187.285 154.37 186.116 153.933 184.73C153.509 183.343 153.297 181.757 153.297 179.973C153.297 178.188 153.529 176.609 153.991 175.235C154.466 173.848 155.133 172.686 155.994 171.749C156.854 170.799 157.887 170.08 159.094 169.592C160.314 169.104 161.669 168.86 163.158 168.86C163.8 168.86 164.461 168.912 165.142 169.014C165.835 169.117 166.516 169.297 167.183 169.554C167.851 169.798 168.486 170.119 169.09 170.517C169.706 170.915 170.252 171.415 170.727 172.019C171.215 172.609 171.613 173.309 171.921 174.118C172.242 174.914 172.447 175.839 172.537 176.891H166.856C166.753 176.339 166.612 175.858 166.432 175.447C166.252 175.023 166.015 174.67 165.719 174.388C165.437 174.092 165.084 173.874 164.66 173.733C164.249 173.579 163.749 173.502 163.158 173.502C162.246 173.502 161.515 173.714 160.963 174.137C160.423 174.561 160.006 175.094 159.711 175.736C159.415 176.378 159.216 177.078 159.114 177.835C159.024 178.593 158.979 179.305 158.979 179.973C158.979 180.666 159.017 181.398 159.094 182.168C159.171 182.926 159.351 183.626 159.634 184.268C159.916 184.897 160.333 185.417 160.885 185.828C161.438 186.238 162.195 186.444 163.158 186.444Z" fill="black"/>
</svg>
