<svg width="1400" height="250" viewBox="0 0 1400 250" fill="none" xmlns="http://www.w3.org/2000/svg">
<g clip-path="url(#clip0_441_4874)">
<rect width="1400" height="250" fill="black"/>
<path d="M-29 33C-28.8413 33 -25.9582 33 -21.1539 33.462C-15.2719 34.0277 -9.7356 50.3217 -3.41562 67.1674C-2.4308 69.7924 -1.78991 70.8029 -0.780722 71.7041C5.26106 77.0994 16.5829 76.2712 21.7635 81.5476C27.8755 87.7726 29.1112 95.2005 29.0473 98.5753C28.8542 108.779 20.5674 121.841 14.8106 130.618C10.552 137.112 9.60813 144.198 8.92613 148.595C8.20418 153.249 2.86749 139.214 -5.63544 129.318C-11.3069 122.717 -17.7597 119.07 -20.2876 116.37C-25.6111 110.685 -0.340575 138.166 6.52963 145.654C10.6338 150.127 19.9934 119.963 23.0791 100.355C23.4338 98.1006 21.4703 97.7468 20.2821 97.9195C11.8179 99.1496 4.91961 120.114 0.203318 132.367C-6.41632 149.566 12.5177 80.8495 10.3905 83.7801C3.09101 93.8364 3.65755 99.9656 -3.71844 110.146C-6.75335 114.335 -8.40721 118.225 -9.74762 117.782C-27.9958 111.741 -5.77059 89.2157 -5.80424 73.4035C-5.81743 67.208 -13.2432 64.7458 -15.1902 55.2355C-15.6415 53.0308 -15.5009 51.4257 -15.6592 51.3056C-19.7803 48.1778 -16.99 63.7315 -19.3765 76.4905C-23.7533 99.8904 -22.0511 109.949 -21.4106 113.59C-18.4764 130.269 6.25361 78.3184 6.44503 80.8321C6.65759 83.6234 7.18292 86.1327 8.75689 88.0685C9.65804 89.0084 10.7671 89.8619 11.9254 90.3956C13.0836 90.9293 14.2573 91.1173 17.7592 91.6939" stroke="white" stroke-width="15" stroke-linecap="round"/>
<path d="M1414.02 0C1412.8 0.17489 1407.35 2.46362 1403.41 6.25927C1396.33 13.0763 1396.91 25.4046 1395.28 44.5097C1394.34 55.6307 1389.5 61.883 1382.55 69.7954C1378.45 74.461 1374.56 76.8502 1373.41 78.9547C1370.69 83.9693 1371.12 101.65 1369.84 111.728C1368.59 121.46 1353.56 134.431 1350.73 140.878C1343.29 157.813 1353.26 169.239 1354.85 170.853C1358.68 174.751 1368.58 175.483 1376.4 176.793C1378.85 177.204 1381.11 177.517 1383.24 177.919C1387.05 178.64 1390.23 188.296 1393.58 194.908C1397.08 201.818 1404.23 208.201 1412.25 212.651C1413.23 213.191 1413.45 211.422 1413.27 210.014C1412.57 204.419 1408.87 199.457 1400.98 187.583C1397.68 182.621 1395.88 178.88 1390.44 173.96C1385.26 169.285 1380.57 163.691 1376.53 162.015C1372.43 160.313 1366.97 159.739 1363.38 156.634C1362.41 155.796 1362.87 153.777 1362.49 153.351C1362.1 152.925 1361.4 153.779 1360.89 154.782C1359.86 156.812 1359.79 159.519 1360.23 161.88C1360.42 162.881 1361.57 163.137 1362.57 163.313C1366.59 164.022 1371.5 161.994 1374.33 163.19C1377.98 164.737 1370.21 154.866 1368.6 150.97C1366.52 145.948 1369.28 139.15 1370.5 136.001C1370.76 135.329 1369.27 134.898 1368.36 134.981C1364.53 135.333 1362.78 141.74 1360.55 146.246C1359.89 147.568 1359.34 149.474 1359.2 149.948C1356.72 158.483 1374.65 130.34 1376.46 129.724C1381.75 127.927 1382.68 140.246 1384.44 145.719C1387.38 154.841 1392.05 157.771 1395.22 165.986C1397.03 170.662 1400.18 175.319 1401.36 179.051C1403.26 185.06 1384.69 162.844 1378.25 155.295C1373.52 149.753 1372.91 143.07 1373.12 138.656C1373.17 137.635 1374.18 136.98 1375.02 137.059C1380.99 137.627 1392.59 159.985 1402.05 170.03C1406.51 174.765 1413.68 177.217 1417.39 181.221C1418.27 182.17 1418.68 183.07 1418.41 183.823C1418.14 184.577 1417.09 185.236 1415.18 185.484C1413.27 185.732 1410.52 185.548 1409.02 180.241C1401.07 152.156 1404.33 143.813 1404.72 135.877C1405.25 125.182 1407.79 111.346 1407.67 99.8387C1407.61 94.5026 1406.43 92.7073 1405.29 84.3485C1404.25 76.7569 1404.41 62.1464 1404.76 51.752C1405.62 26.3221 1409.28 17.6728 1408.96 15.0138C1408.12 7.92946 1406.12 27.7735 1404.81 32.6903C1401.69 44.4449 1401.87 63.7634 1401.53 65.0454C1401.48 65.2264 1401.18 64.007 1400.93 64.1343C1399.47 64.8654 1399.3 69.377 1398.1 73.5369C1397.17 76.777 1396.67 93.604 1395.72 118.26C1395.25 130.509 1393.05 142.592 1391.3 157.156C1390.48 163.973 1390.23 166.329 1389.04 167.107C1387.35 168.212 1386.28 157.024 1386.17 139.329C1386.1 129.435 1386.46 117.686 1387.06 108.306C1388.6 84.1045 1390.36 80.7313 1390.19 78.9294C1390.1 78.0808 1389.01 77.6288 1388.2 77.8611C1384.09 79.0437 1383.85 86.0943 1383.36 91.0333C1381.8 100.519 1376.93 121.367 1373.22 133.862C1371.91 138.518 1371.77 139.754 1371.32 140.86" stroke="white" stroke-width="15" stroke-linecap="round"/>
<path d="M551 -4.06296C554.766 -2.45518 563.859 2.43574 570.634 3.86076C578.112 5.43339 589.934 8.20073 600.515 14.7387C610.163 20.6996 630.738 21.228 639.189 19.418C652.979 16.4645 671.758 17.374 686.566 21.5268C694.249 23.6814 699.742 19.5638 705.769 15.8635C714.436 10.5424 723.384 8.3825 730.527 6.25459C735.822 4.67733 737.6 -0.707052 741.361 -5.70313C742.201 -6.81982 742.401 -7.86273 741.764 -8.2123C736.063 -11.3405 723.518 -4.4324 709.673 -0.0789471C705.883 1.11288 704.402 4.15126 702.53 6.38155C698.005 11.7712 685.34 7.96777 680.3 6.85015C675.404 5.7645 670.97 1.00985 665.96 -0.213641C659.712 -1.73955 654.058 1.86546 634.429 3.33593C625.348 4.01622 615.644 0.690093 609.164 -0.528136C601.239 -2.01778 592.776 -5.92414 590.667 -5.89443C589.64 -5.87995 588.756 -5.23966 588.577 -4.55074C588.398 -3.86181 588.966 -2.98336 589.786 -2.33915C594.278 1.18896 603.359 0.245117 611.045 4.7491C621.612 10.942 630.81 12.6359 645.408 14.0995C656.219 15.1832 667.296 16.1797 675.323 14.7811C678.291 14.2641 680.485 12.6636 681.791 11.1569C682.433 10.4168 682.28 9.21354 682.858 8.4143C685.627 4.58742 692.638 4.20249 695.931 0.539274C696.725 -0.342963 696.301 -1.87635 695.815 -2.88415C694.844 -4.89663 692.38 -5.71256 690.312 -6.22969C685.921 -7.32754 680.186 -3.35131 674.742 -1.57371C668.828 0.357164 661.248 1.30794 658.107 4.35083C657.38 5.05539 657.769 6.3249 658.325 7.00741C658.881 7.68992 659.921 7.9758 661.01 8.12308C662.099 8.27035 663.206 8.27035 664.674 6.20693" stroke="white" stroke-width="15" stroke-linecap="round"/>
<path d="M95 269.316C95.7311 268.873 98.5869 266.35 102.967 262.589C105.318 260.571 115.953 256.254 130.323 250.613C135.522 248.573 136.523 248.339 143.123 247.096C149.723 245.853 161.906 243.645 169.666 241.702C180.632 238.957 186.873 235.011 193.345 232.041C199.14 229.383 203.748 226.896 208.764 225.474C215.349 223.607 225.248 223.026 236.36 222.225C245.856 221.541 251.322 219.294 255.358 216.375C269.449 206.181 272.4 201.738 276.357 196.779C279.273 193.124 284.596 191.158 290.962 189.545C297.974 187.769 301.594 190.434 310.764 196.1C316.938 199.915 324.993 216.242 329.515 224.355C333.22 231.002 349.844 237.078 358.576 244.066C368.189 251.76 389.566 245.993 391.221 246.885C394.164 248.47 396.032 257.101 399.077 264.193C399.672 265.579 400.859 266.693 400.8 267.214C400.35 271.172 390.294 263.52 386.874 260.704C385.523 259.593 384.401 256.691 382.7 253.655C379.974 248.791 366.401 253.361 360.099 253.703C356.293 253.91 353.229 253.482 351.713 252.691C348.62 251.077 347.605 246.833 343.41 242.232C340.598 239.147 335.802 236.073 332.997 233.134C329.514 229.485 326.575 223.783 323.177 218.577C321.041 215.307 316.701 209.746 313.335 206.108C310.994 203.579 307.148 202.085 299.602 201.489C295.458 201.161 293.003 198.338 288.365 198.191C285.073 198.086 284.437 202.086 283.948 203.396C281.57 209.753 307.592 206.809 313.405 207.861C314.243 208.012 315.02 208.285 315.49 208.815C315.961 209.345 316.097 210.146 315.805 210.955C315.162 212.736 313.306 213.817 311.721 214.613C310.045 215.454 307.57 215.387 301.198 214.583C276.617 211.485 271.208 209.237 269.753 209.566C268.766 209.789 274.512 211.252 287.48 214.516C301.011 217.921 312.591 220.172 317.552 222.188C322.14 224.051 325.905 228.107 327.639 230.943C328.954 233.093 322.15 231.12 313.476 227.197C301.181 221.637 288.47 221.475 282.339 219.193C276.443 216.998 266.45 217.338 261.541 216.904C260.669 216.827 259.939 216.717 259.982 216.913C260.637 219.875 266.593 218.837 274.49 222.015C278.848 223.769 285.523 228.198 292.047 231.499C298.572 234.799 304.519 237.316 310.35 240.115C321.857 245.638 330.278 250.118 336.944 252.438C345.306 255.348 351.69 256.925 356.856 258.44C375.429 263.888 384.03 261.573 385.951 260.973C386.911 260.672 376.951 257.129 363.233 252.293C352.42 248.482 345.79 243.803 340.491 240.635C330.648 234.75 327.26 233.424 317.845 231.79C315.776 231.43 314.925 231.521 314.373 231.88C311.832 233.536 311.801 242.243 312.157 247.648C312.253 249.118 305.133 249.233 299.079 249.252C285.606 249.296 326.459 254.135 328.198 254.164C331.21 254.213 320.692 250.45 310.45 249.412C298.067 248.157 294.22 251.564 289.639 253.2C287.512 253.96 283.73 254.283 271.13 254.533C258.53 254.784 237.141 254.648 223.849 254.439C210.558 254.231 206.013 253.952 200.459 253.207C180.182 250.49 175.476 250.297 171.6 250.97C164.57 252.19 160.213 253.201 152.419 254.81C144.251 256.497 140.487 257.105 139.833 257.389C138.787 257.845 144.056 256.953 152.532 255.768C169.771 253.358 181.869 251.878 186.846 249.947C190.927 248.364 198.025 245.195 202.991 243.31C207.957 241.425 210.539 240.828 224.565 240.05C238.59 239.272 263.982 238.332 280.526 237.88C297.071 237.427 304 237.491 304.315 237.623C317.384 243.119 285.357 242.158 274.613 246.52C270.121 248.344 261.65 248.527 248.433 248.756C234.243 249.002 225.804 248.219 224.119 247.387C221.185 245.94 219.93 241.883 216.832 239.842C215.48 238.951 213.937 237.859 212.601 236.591C211.573 235.614 224.598 233.871 247.906 232.153C259.062 231.023 268.854 229.369 274.416 228.337C279.977 227.305 281.01 226.945 280.443 226.213" stroke="white" stroke-width="15" stroke-linecap="round"/>
<path d="M928 270.343C928.519 268.401 944.174 249.041 958.802 238.034C965.84 232.738 977.303 236.757 984.212 239.218C989.488 241.098 993.456 244.879 1003.68 247.084C1010.15 248.48 1018.05 245.497 1030.46 240.724C1050.11 233.164 1065.49 230.511 1070.49 230.083C1077.91 229.449 1083.95 232.536 1089.26 235.933C1097.14 240.976 1104.1 246.298 1110.13 250.541C1112.26 252.039 1113.24 254.313 1112.99 255.575C1111.21 264.599 1089.82 247.483 1082.4 241.632C1076.25 236.791 1069.82 236.257 1065.88 236.586C1063.5 236.784 1054.57 242.046 1042.78 246.878C1038.87 248.48 1060.63 246.892 1069.02 248.749C1074.52 249.966 1079.31 248.971 1081.18 248.197C1081.75 247.963 1080.4 246.804 1070.68 246.192C1060.95 245.58 1042.61 245.23 1032.44 245.232C1018.45 245.233 1014.99 249.918 1008.95 252.791C1000.57 256.777 992.562 253.23 990.65 252.234C988.844 251.292 988.36 249.053 987.465 247.531C984.755 242.925 975.809 244.91 965.395 244.695C961.82 244.621 957.67 244.903 955.982 245.355C954.293 245.807 955.192 246.561 956.14 247.02C957.947 247.896 966.251 247.933 981.155 248.72C988.878 249.128 996.865 250.411 1011.86 251.012C1026.86 251.612 1048.6 251.71 1062.72 251.84C1082.67 252.129 1091.49 251.804 1096.29 251.062C1098.27 250.81 1099.34 250.81 1099.39 250.81" stroke="white" stroke-width="15" stroke-linecap="round"/>
</g>
<defs>
<clipPath id="clip0_441_4874">
<rect width="1400" height="250" fill="white"/>
</clipPath>
</defs>
</svg>
