<svg width="698" height="71" viewBox="0 0 698 71" fill="none" xmlns="http://www.w3.org/2000/svg">
<path d="M672.497 1.94434H697.591V68.1743H681.428V14.8865H681.185L668.729 68.1743H653.053L640.658 14.8865H640.354V68.1743H624.191V1.94434H650.076L661.256 50.0067H661.559L672.497 1.94434Z" fill="black"/>
<path d="M541.394 67.5668C537.221 65.8249 533.657 63.3945 530.7 60.2754C527.783 57.1563 525.535 53.4498 523.955 49.156C522.416 44.8622 521.646 40.1633 521.646 35.0594C521.646 29.9554 522.416 25.2565 523.955 20.9627C525.535 16.6689 527.783 12.9827 530.7 9.90412C533.657 6.78503 537.221 4.35457 541.394 2.61274C545.566 0.870915 550.265 0 555.49 0C560.797 0 565.536 0.870915 569.709 2.61274C573.921 4.35457 577.466 6.78503 580.342 9.90412C583.258 12.9827 585.486 16.6689 587.026 20.9627C588.565 25.2565 589.335 29.9554 589.335 35.0594C589.335 40.1633 588.565 44.8622 587.026 49.156C585.486 53.4498 583.258 57.1563 580.342 60.2754C577.466 63.3945 573.921 65.8249 569.709 67.5668C565.536 69.3086 560.797 70.1795 555.49 70.1795C550.265 70.1795 545.566 69.3086 541.394 67.5668ZM540.422 42.4723C540.948 44.9432 541.839 47.1509 543.095 49.0953C544.351 50.9991 545.991 52.5384 548.017 53.7131C550.042 54.8879 552.533 55.4752 555.49 55.4752C558.569 55.4752 561.121 54.9081 563.146 53.7739C565.212 52.5992 566.853 51.0801 568.068 49.2168C569.283 47.3129 570.134 45.1458 570.62 42.7153C571.147 40.2444 571.41 37.6924 571.41 35.0594C571.41 32.4669 571.147 29.9352 570.62 27.4642C570.134 24.9932 569.283 22.8261 568.068 20.9627C566.853 19.0589 565.212 17.5398 563.146 16.4056C561.121 15.2309 558.569 14.6435 555.49 14.6435C552.533 14.6435 550.042 15.2309 548.017 16.4056C545.991 17.5803 544.351 19.1399 543.095 21.0842C541.839 22.9881 540.928 25.1755 540.361 27.6465C539.834 30.0769 539.571 32.5479 539.571 35.0594C539.571 37.5708 539.854 40.0418 540.422 42.4723Z" fill="black"/>
<path d="M447.722 15.9195L447.358 28.2541C447.155 35.1809 446.71 41.257 446.021 46.4825C445.332 51.708 444.198 56.0828 442.618 59.607C441.079 63.0906 438.973 65.7236 436.299 67.506C433.666 69.2883 430.284 70.1795 426.152 70.1795C424.208 70.1795 422.506 70.0579 421.048 69.8149C419.59 69.6124 418.395 69.3086 417.463 68.9035V54.503C418.03 54.7461 418.739 54.9688 419.59 55.1714C420.481 55.3739 421.554 55.4752 422.81 55.4752C424.106 55.4752 425.261 55.0904 426.274 54.3207C427.286 53.5106 428.157 52.0726 428.886 50.0067C429.615 47.9003 430.183 45.004 430.588 41.3178C430.993 37.6316 431.256 32.8719 431.378 27.0388L431.864 1.94434H485.151V68.1743H468.017V15.9195H447.722Z" fill="black"/>
<path d="M357.516 55.4752C359.501 55.4752 361.223 55.0904 362.681 54.3208C364.139 53.5106 365.354 52.5182 366.327 51.3434C367.299 50.1687 368.008 48.913 368.453 47.5762C368.939 46.2395 369.182 45.0243 369.182 43.9305H387.107C387.107 45.0243 386.904 46.442 386.499 48.1839C386.135 49.9257 385.507 51.7688 384.616 53.7131C383.725 55.6575 382.53 57.6221 381.031 59.607C379.573 61.5514 377.729 63.3135 375.502 64.8933C373.314 66.4325 370.742 67.6883 367.785 68.6605C364.828 69.6732 361.405 70.1795 357.516 70.1795C352.453 70.1795 347.977 69.4099 344.088 67.8706C340.24 66.3313 336.999 64.0831 334.366 61.126C331.774 58.1285 329.789 54.4423 328.411 50.0675C327.075 45.6926 326.406 40.6899 326.406 35.0594C326.406 29.4288 327.135 24.4464 328.594 20.112C330.092 15.7372 332.199 12.0713 334.913 9.11422C337.627 6.11666 340.888 3.84823 344.695 2.30894C348.544 0.769645 352.817 0 357.516 0C359.542 0 361.628 0.162031 363.775 0.486092C365.962 0.810153 368.109 1.37726 370.215 2.18741C372.322 2.95706 374.327 3.96975 376.231 5.22549C378.175 6.48122 379.897 8.06102 381.395 9.96488C382.935 11.8282 384.19 14.0359 385.163 16.5879C386.175 19.0994 386.823 22.0159 387.107 25.3375H369.182C368.858 23.5957 368.413 22.0767 367.846 20.7804C367.278 19.4437 366.529 18.3297 365.597 17.4385C364.706 16.5069 363.592 15.8182 362.256 15.3727C360.959 14.8866 359.379 14.6435 357.516 14.6435C354.64 14.6435 352.331 15.3119 350.589 16.6486C348.888 17.9854 347.571 19.6665 346.64 21.6918C345.708 23.7172 345.08 25.9249 344.756 28.3148C344.473 30.7048 344.331 32.953 344.331 35.0594C344.331 37.2468 344.452 39.5557 344.695 41.9862C344.939 44.3761 345.506 46.5838 346.397 48.6092C347.288 50.5941 348.604 52.2346 350.346 53.5309C352.088 54.8271 354.478 55.4752 357.516 55.4752Z" fill="black"/>
<path d="M251.752 26.2489C254.952 27.0996 257.666 28.4161 259.894 30.1984C262.122 31.9808 263.823 34.2492 264.998 37.0037C266.172 39.7177 266.76 42.9381 266.76 46.6648C266.76 50.0269 266.274 52.903 265.301 55.2929C264.329 57.6829 263.074 59.688 261.534 61.3083C260.035 62.8881 258.354 64.1438 256.491 65.0755C254.628 65.9667 252.805 66.6553 251.023 67.1414C249.24 67.587 247.579 67.8705 246.04 67.9921C244.541 68.1136 243.387 68.1743 242.577 68.1743H207.943V1.94434H225.138V24.9729H240.754C244.845 24.9729 248.511 25.3983 251.752 26.2489ZM291.55 1.94434V68.1743H274.355V1.94434H291.55ZM236.257 37.9151H225.138V55.2321H237.716C239.053 55.2321 240.369 55.1309 241.665 54.9283C243.002 54.6853 244.197 54.26 245.25 53.6523C246.344 53.0042 247.215 52.1333 247.863 51.0396C248.511 49.9054 248.835 48.4471 248.835 46.6648C248.835 44.923 248.491 43.4849 247.802 42.3507C247.154 41.2165 246.243 40.3253 245.068 39.6772C243.934 39.0291 242.597 38.5835 241.058 38.3405C239.559 38.0569 237.959 37.9151 236.257 37.9151Z" fill="black"/>
<path d="M143.922 1.94434H169.016V68.1743H152.854V14.8865H152.611L140.155 68.1743H124.478L112.083 14.8865H111.779V68.1743H95.6165V1.94434H121.501L132.681 50.0067H132.985L143.922 1.94434Z" fill="black"/>
<path d="M31.1099 55.4752C33.0948 55.4752 34.8163 55.0904 36.2746 54.3208C37.7329 53.5106 38.9481 52.5182 39.9203 51.3434C40.8925 50.1687 41.6014 48.913 42.0469 47.5762C42.533 46.2395 42.7761 45.0243 42.7761 43.9305H60.7007C60.7007 45.0243 60.4982 46.442 60.0931 48.1839C59.7285 49.9257 59.1007 51.7688 58.2095 53.7131C57.3183 55.6575 56.1234 57.6221 54.6246 59.607C53.1663 61.5514 51.3232 63.3135 49.0953 64.8933C46.9079 66.4325 44.3356 67.6883 41.3786 68.6605C38.4215 69.6732 34.9986 70.1795 31.1099 70.1795C26.0464 70.1795 21.5703 69.4099 17.6816 67.8706C13.8334 66.3313 10.5928 64.0831 7.95975 61.126C5.36726 58.1285 3.38239 54.4423 2.00513 50.0675C0.668376 45.6926 0 40.6899 0 35.0594C0 29.4288 0.729138 24.4464 2.18741 20.112C3.6862 15.7372 5.79259 12.0713 8.50661 9.11422C11.2206 6.11666 14.4815 3.84823 18.2892 2.30894C22.1374 0.769645 26.411 0 31.1099 0C33.1353 0 35.2214 0.162031 37.3683 0.486092C39.5557 0.810153 41.7026 1.37726 43.809 2.18741C45.9154 2.95706 47.9206 3.96975 49.8244 5.22549C51.7688 6.48122 53.4904 8.06102 54.9891 9.96488C56.5284 11.8282 57.7842 14.0359 58.7563 16.5879C59.769 19.0994 60.4172 22.0159 60.7007 25.3375H42.7761C42.452 23.5957 42.0064 22.0767 41.4393 20.7804C40.8722 19.4437 40.1228 18.3297 39.1912 17.4385C38.3 16.5069 37.186 15.8182 35.8493 15.3727C34.553 14.8866 32.9732 14.6435 31.1099 14.6435C28.2338 14.6435 25.9249 15.3119 24.1831 16.6486C22.4817 17.9854 21.1652 19.6665 20.2336 21.6918C19.3019 23.7172 18.674 25.9249 18.35 28.3148C18.0664 30.7048 17.9246 32.953 17.9246 35.0594C17.9246 37.2468 18.0462 39.5557 18.2892 41.9862C18.5323 44.3761 19.0994 46.5838 19.9905 48.6092C20.8817 50.5941 22.1982 52.2346 23.94 53.5309C25.6819 54.8271 28.0718 55.4752 31.1099 55.4752Z" fill="black"/>
</svg>
