<svg width="158" height="70" viewBox="0 0 158 70" fill="none" xmlns="http://www.w3.org/2000/svg">
<path d="M110.293 66.8853C106.163 65.1611 102.635 62.7551 99.7073 59.6675C96.8201 56.5799 94.5946 52.9108 93.0308 48.6603C91.507 44.4098 90.7451 39.7583 90.7451 34.7058C90.7451 29.6533 91.507 25.0018 93.0308 20.7513C94.5946 16.5008 96.8201 12.8518 99.7073 9.80424C102.635 6.7166 106.163 4.31066 110.293 2.58639C114.424 0.862131 119.075 0 124.248 0C129.501 0 134.193 0.862131 138.323 2.58639C142.493 4.31066 146.002 6.7166 148.849 9.80424C151.736 12.8518 153.941 16.5008 155.465 20.7513C156.989 25.0018 157.751 29.6533 157.751 34.7058C157.751 39.7583 156.989 44.4098 155.465 48.6603C153.941 52.9108 151.736 56.5799 148.849 59.6675C146.002 62.7551 142.493 65.1611 138.323 66.8853C134.193 68.6096 129.501 69.4717 124.248 69.4717C119.075 69.4717 114.424 68.6096 110.293 66.8853ZM109.331 42.0439C109.852 44.49 110.735 46.6754 111.978 48.6001C113.221 50.4848 114.845 52.0086 116.85 53.1714C118.855 54.3343 121.321 54.9158 124.248 54.9158C127.295 54.9158 129.822 54.3544 131.827 53.2316C133.872 52.0687 135.496 50.565 136.699 48.7204C137.902 46.8358 138.744 44.6905 139.225 42.2845C139.746 39.8385 140.007 37.3122 140.007 34.7058C140.007 32.1395 139.746 29.6333 139.225 27.1872C138.744 24.7412 137.902 22.5959 136.699 20.7513C135.496 18.8666 133.872 17.3629 131.827 16.2401C129.822 15.0773 127.295 14.4958 124.248 14.4958C121.321 14.4958 118.855 15.0773 116.85 16.2401C114.845 17.403 113.221 18.9468 111.978 20.8716C110.735 22.7563 109.832 24.9216 109.271 27.3677C108.75 29.7736 108.489 32.2197 108.489 34.7058C108.489 37.1919 108.77 39.638 109.331 42.0439Z" fill="black"/>
<path d="M30.7961 54.9158C32.761 54.9158 34.4652 54.5348 35.9088 53.7729C37.3523 52.9709 38.5553 51.9885 39.5177 50.8256C40.4801 49.6628 41.1818 48.4197 41.6229 47.0964C42.1041 45.7732 42.3447 44.5702 42.3447 43.4875H60.0886C60.0886 44.5702 59.8881 45.9737 59.4871 47.6979C59.1262 49.4222 58.5046 51.2467 57.6225 53.1714C56.7403 55.0962 55.5573 57.041 54.0737 59.0059C52.6301 60.9306 50.8056 62.6749 48.6001 64.2388C46.4348 65.7626 43.8885 67.0056 40.9613 67.968C38.034 68.9705 34.6457 69.4717 30.7961 69.4717C25.7837 69.4717 21.3528 68.7099 17.5033 67.1861C13.6939 65.6623 10.4859 63.4368 7.87948 60.5096C5.31314 57.5423 3.34828 53.8932 1.98491 49.5625C0.661636 45.2318 0 40.2796 0 34.7058C0 29.132 0.721784 24.1998 2.16535 19.9092C3.64902 15.5785 5.73418 11.9495 8.42082 9.0223C11.1075 6.05497 14.3354 3.80942 18.1048 2.28565C21.9142 0.761883 26.1446 0 30.7961 0C32.8011 0 34.8662 0.160397 36.9915 0.48119C39.1568 0.801983 41.2821 1.36337 43.3672 2.16535C45.4524 2.92724 47.4373 3.92971 49.3219 5.17279C51.2467 6.41586 52.9509 7.97973 54.4346 9.86439C55.9583 11.7089 57.2014 13.8943 58.1638 16.4206C59.1663 18.9067 59.8079 21.7939 60.0886 25.082H42.3447C42.0239 23.3577 41.5828 21.854 41.0214 20.5709C40.46 19.2476 39.7182 18.1449 38.7959 17.2627C37.9137 16.3404 36.811 15.6587 35.4877 15.2176C34.2046 14.7364 32.6407 14.4958 30.7961 14.4958C27.9491 14.4958 25.6634 15.1575 23.9392 16.4807C22.255 17.804 20.9518 19.4681 20.0295 21.4731C19.1072 23.478 18.4857 25.6634 18.1649 28.0293C17.8842 30.3951 17.7439 32.6206 17.7439 34.7058C17.7439 36.8711 17.8642 39.1568 18.1048 41.5627C18.3454 43.9286 18.9067 46.114 19.7889 48.119C20.6711 50.0838 21.9743 51.7078 23.6986 52.991C25.4229 54.2742 27.7887 54.9158 30.7961 54.9158Z" fill="black"/>
</svg>
