<svg width="4330" height="186" viewBox="0 0 4330 186" fill="none" xmlns="http://www.w3.org/2000/svg">
<path d="M3312.41 2C3316.25 2 3320.2 2.51278 3324.26 3.53906C3328.32 4.56538 3332.27 6.23386 3336.11 8.54297C3340.02 10.7667 3343.7 13.7179 3347.15 17.3955C3348.06 18.3423 3348.94 19.3493 3349.79 20.415C3349.02 20.7662 3348.33 21.2315 3347.75 21.8242C3346.23 23.3769 3345.8 25.3928 3345.95 27.2363C3346.16 29.8316 3347.51 32.5316 3349.4 34.6406C3348.92 34.8338 3348.41 35.045 3348.01 35.2227C3347.31 35.5339 3346.23 36.0432 3345.5 36.7959C3343.43 38.9498 3342.22 41.1997 3341.9 43.5254C3341.58 45.8597 3342.18 47.972 3343.18 49.7666C3344.83 52.721 3347.71 55.0885 3350.07 56.7705C3349.66 57.1398 3349.1 57.5865 3348.39 58.0996C3347.18 58.971 3345.97 59.7384 3344.74 60.582C3344.17 60.9743 3343.61 61.3802 3343.13 61.7695C3342.79 62.0547 3342.26 62.5064 3341.88 63.0771L3341.73 63.3291C3340.17 66.1536 3339.92 70.2056 3340.51 73.749C3341.1 77.2618 3342.67 81.1705 3345.7 83.2256C3346.27 83.6144 3346.93 83.7859 3347.33 83.876C3347.81 83.9826 3348.35 84.0577 3348.89 84.1143C3349.98 84.2278 3351.3 84.2878 3352.64 84.3252C3354.89 84.3876 3357.16 84.3916 3359.05 84.4434C3358.98 84.7588 3358.9 85.0915 3358.82 85.4795C3358.76 85.7323 3358.69 86.0566 3358.65 86.3652C3358.63 86.5217 3358.61 86.7333 3358.61 86.9678C3358.61 87.1722 3358.64 87.5794 3358.82 88.0312C3359.77 90.4107 3361.27 92.3758 3363.52 92.8848C3362.99 96.9066 3362.29 100.781 3361.41 104.508C3359.26 113.916 3355.96 121.999 3351.52 128.756C3347.15 135.513 3341.59 140.773 3334.84 144.536C3328.17 148.299 3320.31 150.182 3311.26 150.182C3308.12 150.182 3304.94 149.839 3301.72 149.155C3298.5 148.471 3295.35 147.316 3292.29 145.691C3289.22 144.066 3286.31 141.884 3283.54 139.147C3280.86 136.325 3278.49 132.818 3276.42 128.628H3275.95V186C3270.65 184.395 3265.45 181.982 3261.97 178.363C3260.33 176.653 3259.36 174.47 3258.68 172.07C3258.01 169.651 3257.65 167.098 3257.2 164.606C3256.76 162.159 3256.23 159.765 3255.16 157.873C3254.06 155.934 3252.41 154.55 3249.85 154.092C3248.04 153.767 3246.11 154.156 3244.27 154.874C3243.98 154.987 3243.69 155.111 3243.41 155.24V81.1641C3244.71 80.2832 3245.77 79.3447 3246.59 78.3154C3247.97 76.5975 3248.6 74.7966 3248.91 72.9902C3249.19 71.3044 3249.21 69.4232 3249.3 67.7715C3249.39 66.0301 3249.56 64.2193 3250.07 62.2041C3250.07 62.2266 3250.1 62.0875 3250.39 61.7676C3250.68 61.454 3251.07 61.1153 3251.59 60.6953C3252.05 60.3216 3252.7 59.8242 3253.22 59.3496C3253.73 58.889 3254.42 58.2041 3254.83 57.3125C3255.9 55.0035 3256.44 52.9159 3256.15 51.043C3255.83 48.9688 3254.58 47.6562 3253.21 46.8213C3251.97 46.0671 3250.44 45.5866 3249.26 45.1953C3249.22 45.1815 3249.17 45.167 3249.13 45.1533C3249.51 44.882 3249.92 44.5971 3250.33 44.3047C3251.55 43.4555 3252.91 42.5277 3253.97 41.7744C3254.5 41.3942 3255 41.0281 3255.4 40.708C3255.6 40.5484 3255.8 40.3808 3255.98 40.2148C3256.13 40.0778 3256.39 39.8294 3256.6 39.5127C3258.73 36.3772 3257.58 33.1228 3256.18 30.9404C3254.77 28.7395 3252.68 26.8763 3251.38 25.7764C3250.63 25.1419 3250.3 24.2385 3250.65 22.5225C3251.01 20.7128 3252.07 18.5107 3253.52 16.085C3254.97 13.6473 3256.55 11.3724 3257.98 9.13672C3258.65 8.09067 3259.28 7.0571 3259.76 6.10547H3274.46V26.1191H3274.92C3277.14 21.9285 3279.48 18.3362 3281.94 15.3428C3284.39 12.264 3287.11 9.74053 3290.1 7.77344C3293.09 5.80633 3296.39 4.35197 3299.99 3.41113C3303.67 2.47038 3307.81 2.00005 3312.41 2ZM390.413 0C394.247 0 398.196 0.518514 402.26 1.55469C406.323 2.59092 410.272 4.27509 414.105 6.60645C418.016 8.85157 421.696 11.8309 425.146 15.5439C428.597 19.1708 431.626 23.6618 434.232 29.0156C436.839 34.3695 438.91 40.6306 440.443 47.7979C441.977 54.8789 442.743 62.9968 442.743 72.1504C442.743 83.5491 441.632 93.9981 439.408 103.497C437.261 112.996 433.965 121.157 429.518 127.979C425.147 134.802 419.588 140.112 412.841 143.912C406.17 147.712 398.31 149.611 389.263 149.611C386.119 149.611 382.937 149.266 379.717 148.575C376.497 147.884 373.353 146.719 370.286 145.078C367.219 143.437 364.305 141.235 361.545 138.472C358.862 135.622 356.485 132.081 354.415 127.85H353.954V185L321.406 185.5V4.14551H352.459V24.3525H352.92C355.143 20.1212 357.482 16.4941 359.936 13.4717C362.389 10.3631 365.111 7.81522 368.101 5.8291C371.091 3.843 374.389 2.37472 377.992 1.4248C381.672 0.47497 385.813 4.62314e-05 390.413 0ZM1851.41 0C1855.25 0 1859.2 0.515993 1863.26 1.54785C1867.32 2.57976 1871.27 4.25741 1875.11 6.5791C1879.02 8.81491 1882.7 11.7819 1886.15 15.4795C1889.6 19.0912 1892.63 23.563 1895.23 28.8945C1897.84 34.2262 1899.91 40.4611 1901.44 47.5986C1902.98 54.6501 1903.74 62.7334 1903.74 71.8486C1903.74 83.2 1902.63 93.606 1900.41 103.065C1898.26 112.525 1894.96 120.652 1890.52 127.445C1886.15 134.239 1880.59 139.527 1873.84 143.311C1867.17 147.094 1859.31 148.986 1850.26 148.986C1847.12 148.986 1843.94 148.643 1840.72 147.955C1837.5 147.267 1834.35 146.105 1831.29 144.472C1828.22 142.838 1825.31 140.645 1822.54 137.894C1819.86 135.056 1817.49 131.529 1815.42 127.315H1814.95V185C1809.65 183.386 1804.45 180.961 1800.97 177.322C1799.33 175.602 1798.36 173.407 1797.68 170.994C1797.01 168.562 1796.65 165.994 1796.2 163.489C1795.76 161.029 1795.23 158.623 1794.16 156.721C1793.06 154.771 1791.41 153.379 1788.85 152.918C1787.04 152.592 1785.11 152.983 1783.27 153.705C1782.98 153.819 1782.69 153.943 1782.41 154.073V4.12793H1813.46V24.251H1813.92C1816.14 20.0373 1818.48 16.4248 1820.94 13.415C1823.39 10.3196 1826.11 7.78245 1829.1 5.80469C1832.09 3.82689 1835.39 2.3649 1838.99 1.41895C1842.67 0.473075 1846.81 4.62424e-05 1851.41 0ZM3137.22 2C3148.34 2.00001 3157.69 4.05289 3165.28 8.1582C3172.87 12.1781 3178.97 17.9086 3183.57 25.3496C3183.8 25.7161 3184.02 26.0879 3184.25 26.4619V26.4648C3183.96 26.8921 3183.56 27.5114 3183.08 28.2861C3182.12 29.8356 3180.86 32.0114 3179.66 34.5098C3178.46 37.0055 3177.31 39.8413 3176.59 42.7109C3175.87 45.5748 3175.55 48.5233 3176.07 51.2188C3176.76 54.7942 3178.83 56.9065 3180.67 58.8623C3182.53 60.8448 3184.18 62.6765 3184.57 65.7656C3185.08 69.7213 3182.84 72.4153 3180.34 75.4111C3177.93 78.3023 3175.25 81.5029 3176.07 86.2373C3176.13 86.6042 3176.22 86.9636 3176.32 87.3164H3110.65C3110.65 88.5993 3110.77 90.31 3111 92.4482C3111.23 94.5864 3111.69 96.8958 3112.38 99.376C3113.07 101.856 3114.06 104.38 3115.37 106.945C3116.67 109.426 3118.4 111.692 3120.54 113.745C3122.77 115.798 3125.45 117.466 3128.59 118.749C3131.81 120.032 3135.65 120.674 3140.09 120.674C3142.39 120.674 3144.66 120.332 3146.88 119.647C3149.18 118.878 3151.29 117.808 3153.21 116.439C3155.12 114.985 3156.77 113.275 3158.15 111.308C3159.61 109.255 3160.64 106.946 3161.26 104.38H3194.95C3194.95 106.946 3194.46 109.897 3193.46 113.232C3192.46 116.482 3190.93 119.818 3188.86 123.239C3186.86 126.575 3184.34 129.868 3181.27 133.118C3178.2 136.368 3174.56 139.276 3170.34 141.842C3166.12 144.322 3161.33 146.333 3155.97 147.872C3150.68 149.412 3144.77 150.182 3138.25 150.182C3132.23 150.182 3126.49 149.47 3121.02 148.048C3121.32 146.046 3121.17 143.926 3120.26 141.9C3119.8 140.882 3119.1 140.039 3118.51 139.389C3118.2 139.054 3117.88 138.729 3117.6 138.438C3117.3 138.137 3117.04 137.869 3116.8 137.603C3115.73 136.438 3115.68 135.994 3115.74 135.69C3117.01 129.406 3113.83 123.601 3109.26 120.166C3105.97 117.692 3101.7 116.251 3097.42 116.771C3097.94 114.602 3098.34 112.13 3098.34 109.738C3098.34 107.507 3098.01 105.112 3096.92 103.074C3095.78 100.928 3093.86 99.3027 3091.07 98.7246C3090.01 98.506 3088.8 98.7072 3087.99 98.8633C3087.11 99.0342 3086.07 99.2952 3085.3 99.4717C3085.12 93.8983 3082.63 88.2705 3078.18 84.5586C3077.98 81.335 3077.87 77.978 3077.87 74.4873C3077.87 64.9935 3078.98 55.8842 3081.21 47.1602C3083.51 38.3506 3087.04 30.6098 3091.79 23.9385C3091.82 23.8928 3091.86 23.8473 3091.89 23.8018C3092.63 24.0112 3093.4 24.2242 3094.19 24.4336C3098.6 25.6004 3102.54 23.7368 3104.67 22.6494C3105.61 22.1691 3106.15 21.3611 3106.45 20.832C3106.77 20.2606 3107.01 19.6197 3107.21 19.0713C3107.6 17.9837 3107.86 17.1071 3108.22 16.3057C3108.27 16.3097 3108.32 16.3143 3108.38 16.3223C3108.74 16.3731 3109.03 16.4557 3109.53 16.5674C3109.72 16.6112 3110.04 16.6785 3110.36 16.7061C3110.52 16.7202 3110.77 16.7325 3111.06 16.6963C3111.34 16.6616 3111.82 16.5621 3112.3 16.2246C3113.31 15.5259 3113.84 14.4696 3114.14 13.7178C3114.47 12.903 3114.69 12.0012 3114.86 11.208C3115.02 10.5085 3115.21 9.48543 3115.32 8.95605V8.95508C3115.78 9.11564 3116.3 9.32467 3116.88 9.56543C3117.5 9.82557 3118.23 10.1333 3118.88 10.3701C3119.14 10.4645 3120.5 11.0459 3121.87 10.3203C3122.5 9.98204 3122.89 9.4899 3123.13 9.14062C3123.36 8.78945 3123.55 8.39921 3123.71 8.04785C3124.51 6.26764 3125.12 4.49694 3125.55 2.92773C3129.21 2.30956 3133.1 2.00001 3137.22 2ZM4269.27 2C4280.47 2.00007 4289.52 3.2828 4296.42 5.84863C4299.95 7.10526 4303.08 8.57233 4305.81 10.2461C4305.87 13.4185 4305.73 16.8121 4305.14 19.5068C4304.72 21.4001 4303.55 23.2464 4302.05 25.0537C4300.54 26.8618 4298.79 28.5318 4297.24 30.1465C4296.47 30.9438 4295.75 31.7281 4295.16 32.4883C4294.58 33.2432 4294.09 34.0141 4293.82 34.792C4293.54 35.5872 4293.48 36.4265 4293.79 37.2461C4294.1 38.0444 4294.73 38.713 4295.63 39.29C4297.54 40.5179 4299.33 40.067 4300.92 39.6172C4302.55 39.1544 4303.97 38.7027 4305.55 39.3438C4307.5 40.1379 4308.42 41.5075 4308.83 43.2637C4309.27 45.0932 4309.16 47.346 4308.95 49.8643C4308.76 52.332 4308.48 55.0373 4308.65 57.5859C4308.83 60.1558 4309.47 62.6557 4311.18 64.7012C4313.94 67.9984 4318.61 70.2237 4322.52 71.626V118.364C4322.52 122.555 4322.72 126.019 4323.1 128.756C4323.56 131.407 4324.13 133.546 4324.82 135.171C4325.51 136.71 4326.28 137.865 4327.12 138.635C4328.04 139.319 4329 139.832 4330 140.174V145.947H4294C4293.39 144.322 4292.7 142.184 4291.93 139.533C4291.24 136.796 4290.9 133.503 4290.9 129.654C4288.37 132.562 4285.87 135.256 4283.42 137.736C4281.04 140.217 4278.36 142.398 4275.37 144.279C4272.38 146.075 4268.93 147.487 4265.02 148.514C4261.11 149.626 4256.39 150.182 4250.87 150.182C4250.05 150.182 4249.23 150.158 4248.43 150.117C4248.76 148.401 4248.89 146.272 4248.38 143.921C4248.01 142.191 4247.11 140.723 4245.9 139.237C4244.72 137.777 4243.06 136.099 4240.98 134.005C4239.18 132.19 4238.44 130.944 4238.24 129.346C4238.09 128.217 4237.9 127.286 4237.73 126.486C4237.54 125.648 4237.4 125.088 4237.3 124.493C4237.12 123.484 4237.08 122.539 4237.48 120.961C4238.27 117.844 4238.97 115.096 4239.46 112.971C4239.7 111.909 4239.9 110.973 4240.04 110.206C4240.16 109.513 4240.28 108.734 4240.24 108.107C4240.19 107.105 4239.98 105.077 4238.18 103.914C4237.43 103.426 4236.51 102.898 4235.65 102.397C4234.76 101.878 4233.9 101.361 4233.12 100.835C4232.33 100.3 4231.73 99.8193 4231.33 99.3984C4231.05 99.0982 4230.97 98.9325 4230.96 98.8955C4230.86 97.9977 4230.8 96.8295 4230.73 95.4512C4230.66 94.0877 4230.58 92.5571 4230.44 91.0781C4230.3 89.6105 4230.1 88.0962 4229.75 86.7725C4229.43 85.547 4228.88 84.0362 4227.76 83.0156C4226.02 81.4349 4223.71 79.5564 4221.79 78.0527C4221.74 78.0151 4221.69 77.9786 4221.64 77.9414C4224.59 74.2994 4228.12 71.3086 4232.24 68.9707C4236.53 66.4905 4241.33 64.8221 4246.62 63.9668L4278.47 58.707C4279.62 58.536 4280.85 58.2786 4282.16 57.9365C4283.54 57.5944 4284.8 57.0382 4285.95 56.2686C4287.1 55.4133 4288.06 54.3019 4288.83 52.9336C4289.59 51.4796 4289.98 49.5548 4289.98 47.1602C4289.98 44.851 4289.63 42.7556 4288.94 40.874C4288.33 38.907 4287.25 37.2385 4285.72 35.8701C4284.19 34.4162 4282.12 33.3039 4279.51 32.5342C4276.98 31.7645 4273.8 31.3799 4269.96 31.3799C4265.59 31.3799 4262.07 31.8927 4259.38 32.9189C4256.78 33.8597 4254.71 35.2284 4253.17 37.0244C4251.64 38.7349 4250.53 40.7879 4249.84 43.1826C4249.15 45.4919 4248.65 47.9726 4248.34 50.624H4215.79C4215.79 48.9134 4216.02 46.5609 4216.48 43.5674C4217.02 40.4884 4217.94 37.1527 4219.24 33.5605C4220.62 29.9684 4222.5 26.3329 4224.88 22.6553C4227.33 18.9777 4230.52 15.6418 4234.43 12.6484C4238.41 9.56955 4243.24 7.0462 4248.92 5.0791C4254.59 3.11203 4261.38 2.08553 4269.27 2ZM3944.19 2C3955.3 2 3964.66 4.05282 3972.25 8.1582C3979.84 12.1781 3985.94 17.9086 3990.54 25.3496C3995.21 32.7907 3998.55 41.7718 4000.54 52.292C4002.54 62.8121 4003.53 74.487 4003.53 87.3164H3917.62C3917.62 88.5993 3917.73 90.3101 3917.96 92.4482C3918.19 94.5864 3918.65 96.8957 3919.34 99.376C3920.03 101.856 3921.03 104.38 3922.33 106.945C3923.64 109.426 3925.36 111.692 3927.51 113.745C3929.73 115.798 3932.42 117.466 3935.56 118.749C3938.78 120.032 3942.61 120.674 3947.06 120.674C3949.12 120.674 3951.15 120.397 3953.14 119.85C3953.03 121.078 3953.19 122.341 3953.7 123.62C3954.53 125.68 3956.14 126.883 3957.95 127.674C3959.45 128.33 3961.16 128.732 3962.79 129.093C3962.22 129.599 3961.6 130.065 3960.89 130.412C3960.82 130.447 3960.74 130.486 3960.37 130.486C3960.16 130.487 3959.92 130.476 3959.55 130.46C3959.2 130.445 3958.78 130.429 3958.29 130.434C3956.33 130.453 3954.81 130.491 3953.68 130.667C3952.56 130.841 3951.42 131.204 3950.53 132.153L3950.36 132.352C3949.74 133.098 3949.13 133.961 3948.25 136.317C3947.53 138.26 3946.6 141.123 3945.82 143.051C3944.61 146.083 3943.96 147.828 3942.35 148.905C3941.5 149.472 3940.85 149.825 3940.38 150.023C3940.31 150.019 3940.25 150.014 3940.18 150.009C3940.08 149.907 3939.96 149.783 3939.81 149.63C3939.02 148.801 3937.7 147.399 3935.32 145.031C3933.8 143.531 3932.5 142.589 3929.39 140.83C3926.2 139.024 3921.75 136.674 3919.42 134.698C3918.37 133.809 3917.87 133.08 3917.59 132.524C3917.29 131.923 3917.19 131.445 3916.98 130.663L3916.96 130.576L3916.73 129.72C3916.16 127.673 3915.37 125.306 3913.34 122.898C3912.16 121.511 3910.2 119.32 3907.05 117.18C3904.19 115.239 3901.34 113.421 3899.09 112.678C3898.86 112.602 3898.64 112.544 3898.45 112.497C3898.44 112.412 3898.43 112.321 3898.42 112.222C3898.35 111.589 3898.28 110.76 3898.15 109.868C3897.91 108.168 3897.55 106.093 3896.81 104.069C3896.17 102.312 3895.61 100.826 3895.12 99.6777C3894.67 98.6444 3894.14 97.527 3893.49 96.8145C3892.27 95.4879 3890.36 93.4056 3887.7 92.4062C3887.04 92.1559 3886.39 91.9716 3885.81 91.8369C3885.16 86.4757 3884.84 80.6926 3884.84 74.4873C3884.84 64.9935 3885.95 55.8842 3888.18 47.1602C3890.48 38.3506 3894 30.6098 3898.76 23.9385C3903.59 17.2674 3909.72 11.9646 3917.16 8.03027C3924.67 4.01043 3933.68 2.00009 3944.19 2ZM215.219 0C226.336 1.32752e-05 235.691 2.07287 243.281 6.21777C250.872 10.2764 256.968 16.0624 261.568 23.5752C266.245 31.088 269.581 40.1558 271.574 50.7773C273.568 61.3989 274.564 73.1866 274.564 86.1396H188.651C188.651 87.4349 188.766 89.1626 188.996 91.3213C189.226 93.48 189.686 95.8123 190.376 98.3164C191.066 100.821 192.063 103.369 193.366 105.959C194.67 108.463 196.395 110.752 198.542 112.824C200.765 114.897 203.449 116.581 206.593 117.876C209.813 119.171 213.647 119.818 218.094 119.818C220.394 119.818 222.656 119.473 224.88 118.782C227.18 118.005 229.288 116.926 231.205 115.544C233.122 114.076 234.77 112.348 236.15 110.362C237.607 108.29 238.642 105.959 239.256 103.368H272.954C272.954 105.959 272.456 108.938 271.459 112.306C270.462 115.587 268.929 118.955 266.858 122.409C264.865 125.777 262.335 129.102 259.269 132.384C256.202 135.665 252.559 138.601 248.342 141.191C244.125 143.696 239.333 145.726 233.966 147.28C228.675 148.835 222.771 149.611 216.254 149.611C207.896 149.611 200.075 148.23 192.791 145.467C185.43 142.617 178.99 138.169 173.47 132.124C168.026 125.993 163.731 118.092 160.588 108.42C157.444 98.7482 155.873 87.0032 155.873 73.1865C155.873 63.6012 156.984 54.4039 159.208 45.5957C161.508 36.7013 165.035 28.886 169.789 22.1504C174.62 15.4147 180.754 10.0602 188.191 6.08789C195.705 2.02937 204.715 3.34324e-05 215.219 0ZM1022.19 0C1033.3 0 1042.66 2.07281 1050.25 6.21777C1057.84 10.2764 1063.94 16.0625 1068.54 23.5752C1073.21 31.088 1076.55 40.1559 1078.54 50.7773C1080.54 61.3989 1081.53 73.1866 1081.53 86.1396H995.618C995.618 87.4349 995.733 89.1626 995.963 91.3213C996.193 93.4801 996.654 95.8122 997.344 98.3164C998.034 100.82 999.031 103.369 1000.33 105.959C1001.64 108.463 1003.36 110.752 1005.51 112.824C1007.73 114.896 1010.42 116.581 1013.56 117.876C1016.78 119.171 1020.61 119.818 1025.06 119.818C1027.36 119.818 1029.62 119.473 1031.85 118.782C1034.15 118.005 1036.26 116.926 1038.17 115.544C1040.09 114.076 1041.74 112.348 1043.12 110.362C1044.57 108.29 1045.61 105.959 1046.22 103.368H1079.92C1079.92 105.959 1079.42 108.938 1078.43 112.306C1077.43 115.587 1075.9 118.955 1073.83 122.409C1071.83 125.777 1069.3 129.102 1066.24 132.384C1063.17 135.665 1059.53 138.601 1055.31 141.191C1051.09 143.696 1046.3 145.726 1040.93 147.28C1035.64 148.835 1029.74 149.611 1023.22 149.611C1014.86 149.611 1007.04 148.23 999.759 145.467C992.398 142.617 985.957 138.169 980.437 132.124C974.993 125.993 970.699 118.091 967.556 108.42C964.412 98.7482 962.84 87.0032 962.84 73.1865C962.84 63.6012 963.952 54.4039 966.176 45.5957C968.476 36.7013 972.003 28.886 976.757 22.1504C981.587 15.4148 987.721 10.0602 995.158 6.08789C1002.67 2.02927 1011.68 8.58893e-05 1022.19 0ZM1347.27 0C1358.47 7.46323e-05 1367.52 1.29514 1374.42 3.88574C1381.39 6.39004 1386.8 9.71539 1390.63 13.8604C1394.54 17.9189 1397.15 22.4961 1398.45 27.5908C1399.83 32.5992 1400.52 37.6079 1400.52 42.6162V117.487C1400.52 121.718 1400.72 125.216 1401.1 127.979C1401.56 130.656 1402.13 132.815 1402.82 134.456C1403.51 136.01 1404.28 137.176 1405.12 137.953C1406.05 138.644 1407 139.162 1408 139.508V145.337H1372C1371.39 143.696 1370.7 141.537 1369.93 138.86C1369.24 136.097 1368.9 132.772 1368.9 128.886C1366.37 131.822 1363.87 134.543 1361.42 137.047C1359.04 139.551 1356.36 141.754 1353.37 143.653C1350.38 145.467 1346.93 146.892 1343.02 147.928C1339.11 149.05 1334.39 149.611 1328.87 149.611C1323.28 149.611 1318.1 148.661 1313.35 146.762C1308.67 144.948 1304.6 142.227 1301.15 138.601C1297.7 134.974 1295.02 130.44 1293.1 125C1291.19 119.56 1290.23 113.255 1290.23 106.088C1290.23 100.302 1291.03 94.9484 1292.64 90.0264C1294.25 85.0181 1296.52 80.6564 1299.43 76.9434C1302.42 73.1439 1306.02 70.0341 1310.24 67.6162C1314.53 65.1122 1319.33 63.428 1324.62 62.5645L1356.47 57.2539C1357.62 57.0812 1358.85 56.8219 1360.16 56.4766C1361.54 56.1312 1362.8 55.5699 1363.95 54.793C1365.1 53.9295 1366.06 52.8063 1366.83 51.4248C1367.59 49.9568 1367.98 48.0133 1367.98 45.5957C1367.98 43.2645 1367.63 41.1486 1366.94 39.249C1366.33 37.2631 1365.25 35.5789 1363.72 34.1973C1362.19 32.7293 1360.12 31.6063 1357.51 30.8291C1354.98 30.0519 1351.8 29.6631 1347.96 29.6631C1343.59 29.6631 1340.07 30.1817 1337.38 31.2178C1334.78 32.1676 1332.71 33.5491 1331.17 35.3623C1329.64 37.0892 1328.53 39.1624 1327.84 41.5801C1327.15 43.9116 1326.65 46.4169 1326.34 49.0938H1293.79C1293.79 47.3667 1294.02 44.991 1294.48 41.9688C1295.02 38.8601 1295.94 35.4919 1297.24 31.8652C1298.62 28.2385 1300.5 24.5676 1302.88 20.8545C1305.33 17.1416 1308.52 13.7731 1312.43 10.751C1316.41 7.64247 1321.24 5.09444 1326.92 3.1084C1332.59 1.12239 1339.38 0.0863519 1347.27 0ZM1676.22 0C1687.34 1.38728e-05 1696.69 2.06383 1704.28 6.19141C1711.87 10.2331 1717.97 15.9951 1722.57 23.4766C1727.25 30.9581 1730.58 39.988 1732.57 50.5654C1734.57 61.1428 1735.56 72.8811 1735.56 85.7803H1649.65C1649.65 87.0701 1649.77 88.7898 1650 90.9395C1650.23 93.0892 1650.69 95.4115 1651.38 97.9053C1652.07 100.399 1653.06 102.936 1654.37 105.516C1655.67 108.009 1657.4 110.289 1659.54 112.353C1661.77 114.416 1664.45 116.094 1667.59 117.384C1670.81 118.674 1674.65 119.318 1679.09 119.318C1681.39 119.318 1683.66 118.974 1685.88 118.286C1688.18 117.512 1690.29 116.437 1692.21 115.062C1694.12 113.6 1695.77 111.879 1697.15 109.901C1698.61 107.838 1699.64 105.516 1700.26 102.937H1733.95C1733.95 105.516 1733.46 108.483 1732.46 111.837C1731.46 115.105 1729.93 118.459 1727.86 121.898C1725.86 125.252 1723.34 128.563 1720.27 131.831C1717.2 135.099 1713.56 138.023 1709.34 140.603C1705.12 143.096 1700.33 145.117 1694.97 146.665C1689.68 148.213 1683.77 148.986 1677.25 148.986C1668.9 148.986 1661.08 147.61 1653.79 144.858C1646.43 142.021 1639.99 137.592 1634.47 131.572C1629.03 125.467 1624.73 117.598 1621.59 107.967C1618.44 98.3354 1616.87 86.6399 1616.87 72.8809C1616.87 63.3354 1617.98 54.1767 1620.21 45.4053C1622.51 36.5479 1626.04 28.7652 1630.79 22.0576C1635.62 15.3502 1641.75 10.0182 1649.19 6.0625C1656.7 2.02076 1665.71 3.32936e-05 1676.22 0ZM2483.19 0C2494.3 0 2503.66 2.06371 2511.25 6.19141C2518.84 10.2332 2524.94 15.9951 2529.54 23.4766C2534.21 30.9581 2537.55 39.9881 2539.54 50.5654C2541.54 61.1428 2542.53 72.8811 2542.53 85.7803H2456.62C2456.62 87.0701 2456.73 88.7899 2456.96 90.9395C2457.19 93.0893 2457.65 95.4115 2458.34 97.9053C2459.03 100.399 2460.03 102.936 2461.33 105.516C2462.64 108.009 2464.36 110.289 2466.51 112.353C2468.73 114.416 2471.42 116.094 2474.56 117.384C2477.78 118.674 2481.61 119.318 2486.06 119.318C2488.12 119.318 2490.15 119.041 2492.14 118.49C2492.03 119.725 2492.19 120.995 2492.7 122.281C2493.53 124.353 2495.14 125.563 2496.95 126.357C2498.74 127.147 2500.84 127.572 2502.73 127.995C2504.68 128.429 2506.38 128.858 2507.58 129.619C2508.16 129.991 2508.59 130.422 2508.86 130.935C2509.12 131.44 2509.27 132.081 2509.22 132.936C2509.14 134.132 2508.7 136.401 2508.06 139.196C2507.64 141.038 2507.13 143.079 2506.61 145.143C2505.1 145.692 2503.54 146.201 2501.93 146.665C2496.64 148.213 2490.74 148.986 2484.22 148.986C2475.86 148.986 2468.04 147.61 2460.76 144.858C2453.4 142.021 2446.96 137.592 2441.44 131.572C2435.99 125.467 2431.7 117.598 2428.56 107.967C2425.41 98.3354 2423.84 86.64 2423.84 72.8809C2423.84 63.3354 2424.95 54.1767 2427.18 45.4053C2429.48 36.5479 2433 28.7651 2437.76 22.0576C2442.59 15.3502 2448.72 10.0182 2456.16 6.0625C2463.67 2.02082 2472.68 8.6036e-05 2483.19 0ZM2808.27 0C2819.47 3.68126e-05 2828.52 1.2903 2835.42 3.87012C2842.39 6.36384 2847.8 9.67438 2851.63 13.8018C2855.54 17.8435 2858.15 22.402 2859.45 27.4756C2860.83 32.4632 2861.52 37.4509 2861.52 42.4385V116.996C2861.52 121.21 2861.72 124.693 2862.1 127.445C2862.56 130.111 2863.13 132.261 2863.82 133.895C2864.51 135.442 2865.28 136.603 2866.12 137.377C2867.04 138.065 2868 138.581 2869 138.925V144.729H2833C2832.39 143.096 2831.7 140.946 2830.93 138.28C2830.24 135.528 2829.9 132.217 2829.9 128.348C2827.37 131.271 2824.87 133.981 2822.42 136.475C2820.04 138.968 2817.36 141.161 2814.37 143.053C2811.38 144.858 2807.93 146.278 2804.02 147.31C2800.11 148.427 2795.39 148.986 2789.87 148.986C2784.28 148.986 2779.1 148.04 2774.35 146.148C2769.67 144.343 2765.6 141.634 2762.15 138.022C2758.7 134.411 2756.02 129.896 2754.1 124.479C2752.19 119.061 2751.23 112.783 2751.23 105.646C2751.23 99.884 2752.03 94.552 2753.64 89.6504C2755.25 84.6629 2757.52 80.3197 2760.43 76.6221C2763.42 72.8384 2767.02 69.7418 2771.24 67.334C2775.53 64.8404 2780.33 63.1636 2785.62 62.3037L2817.47 57.0146C2818.62 56.8427 2819.85 56.5851 2821.16 56.2412C2822.54 55.8972 2823.8 55.3373 2824.95 54.5635C2826.1 53.7036 2827.06 52.5858 2827.83 51.21C2828.59 49.7481 2828.98 47.8129 2828.98 45.4053C2828.98 43.0836 2828.63 40.9768 2827.94 39.085C2827.33 37.1072 2826.25 35.4296 2824.72 34.0537C2823.19 32.5919 2821.12 31.4741 2818.51 30.7002C2815.98 29.9263 2812.8 29.5391 2808.96 29.5391C2804.59 29.5391 2801.07 30.0551 2798.38 31.0869C2795.78 32.0328 2793.71 33.4091 2792.17 35.2148C2790.64 36.9346 2789.53 38.9987 2788.84 41.4062C2788.15 43.7281 2787.65 46.2228 2787.34 48.8887H2754.79C2754.79 47.1688 2755.02 44.8036 2755.48 41.7939C2756.02 38.6982 2756.94 35.3441 2758.24 31.7324C2759.62 28.1207 2761.5 24.4653 2763.88 20.7676C2766.33 17.07 2769.52 13.7157 2773.43 10.7061C2777.41 7.61048 2782.24 5.07347 2787.92 3.0957C2793.59 1.11799 2800.38 0.0860284 2808.27 0ZM2954.55 49.4697C2954.55 53.4893 2954.97 56.7819 2955.81 59.3477C2956.73 61.9135 2958.11 63.9663 2959.95 65.5059C2961.79 67.0454 2964.09 68.1152 2966.85 68.7139C2969.61 69.3126 2972.87 69.6113 2976.63 69.6113C2982.23 69.6113 2986.67 69.0561 2989.97 67.9443C2993.27 66.7469 2995.84 65.4208 2997.68 63.9668V6.10547H3012.97C3012.89 6.28581 3012.82 6.47279 3012.76 6.66699C3012.14 8.64635 3012.74 10.6485 3013.45 12.1455C3014.65 14.6485 3016.8 17.0746 3018.5 18.5879C3018.41 19.2894 3018.28 20.1716 3018.14 21.208C3017.99 22.2652 3017.83 23.4396 3017.76 24.498C3017.69 25.4467 3017.64 26.6779 3017.9 27.6494C3018.64 30.3732 3020.95 31.6388 3022.31 32.3584C3023.12 32.7813 3023.66 33.0379 3024.17 33.3604C3023.9 33.4957 3023.57 33.6695 3023.24 33.8701C3022.71 34.1976 3021.71 34.8788 3021.26 36.1006L3021.18 36.3525C3019.39 42.4596 3023.66 47.897 3027.82 50.2109C3028.57 50.6255 3029.38 50.9798 3030.23 51.2354V145.947H2997.68V90.7803C2996.3 91.4645 2994.42 92.1488 2992.04 92.833C2990.96 93.1846 2989.81 93.5161 2988.62 93.832C2988.63 93.2265 2988.63 92.6091 2988.59 91.9795L2988.59 91.8516L2988.5 90.3262C2988.27 86.6819 2987.76 82.5267 2984.56 79.5518C2982.23 77.3761 2978.87 77.4844 2976.16 78.0088C2973.29 78.5643 2970.14 79.7841 2967.34 81.002C2965.93 81.6178 2964.55 82.2521 2963.32 82.8242C2962.25 83.3191 2961.29 83.7587 2960.46 84.1191C2960.07 83.5146 2959.64 82.9449 2959.17 82.4316C2958.8 81.2263 2958.37 80.012 2957.93 78.9082C2957.43 77.6295 2956.88 76.4156 2956.37 75.458C2956.12 74.9843 2955.84 74.5194 2955.55 74.125C2955.41 73.9277 2955.23 73.7078 2955.02 73.502C2954.88 73.3548 2954.64 73.141 2954.31 72.9551C2949.26 69.6848 2945.16 69.3468 2942.31 69.6289C2942.69 67.139 2942.95 63.9683 2942.7 61.0127C2942.52 58.8829 2942.05 56.6129 2940.98 54.7725C2939.83 52.8148 2937.96 51.3144 2935.26 51.1475C2934.02 51.0708 2932.82 51.3697 2931.87 51.6729C2930.94 51.9684 2929.9 52.3928 2929.22 52.6436C2928.83 52.7906 2928.53 52.8888 2928.3 52.9531C2927.13 50.9472 2925.61 48.746 2923.88 46.7725C2923.29 46.0993 2922.66 45.4346 2922 44.8047V6.10547H2954.55V49.4697ZM3480.02 6.10547C3485.77 6.10551 3491.29 6.66159 3496.58 7.77344C3501.95 8.88535 3506.66 10.8524 3510.73 13.6748C3514.79 16.4118 3518.01 20.1753 3520.39 24.9648C3522.84 29.669 3524.07 35.6569 3524.07 42.9268C3524.07 47.1173 3523.65 50.7522 3522.8 53.8311C3522.04 56.91 3520.96 59.5624 3519.58 61.7861C3518.2 63.9241 3516.59 65.7633 3514.75 67.3027C3512.99 68.7566 3511.15 69.9971 3509.23 71.0234C3515.52 73.5038 3520.31 77.4806 3523.61 82.9541C3525.55 86.1355 3526.93 89.6904 3527.72 93.6172C3527.09 93.2637 3526.43 92.9872 3525.75 92.8271C3524.24 92.4703 3522.66 92.688 3520.97 93.7129C3519.11 94.8458 3518.26 96.4135 3518.07 98.2568C3517.89 100.022 3518.33 101.989 3518.87 103.952C3519.43 105.969 3520.1 107.993 3520.53 110.079C3520.95 112.145 3521.1 114.159 3520.65 116.063C3519.55 120.721 3516.69 123.524 3513.88 126.549C3511.1 129.543 3508.39 132.749 3508.2 138.117C3508.17 138.904 3508.22 139.688 3508.31 140.468C3506.72 141.356 3505.03 142.159 3503.25 142.868C3497.96 144.921 3492.02 145.947 3485.42 145.947H3415.15V56.1162C3415.17 56.1322 3415.2 56.148 3415.22 56.1641C3416 56.7125 3416.77 57.3017 3417.6 57.9277C3418.42 58.5426 3419.28 59.1879 3420.17 59.7939C3423.73 62.2193 3428.25 64.3905 3433.81 62.0264C3436.39 60.9296 3438.18 59.361 3439.11 57.2891C3440.02 55.2737 3439.94 53.1695 3439.59 51.3477C3439.24 49.5445 3438.57 47.7108 3438.02 46.1787C3437.74 45.38 3437.49 44.6635 3437.29 44.0137C3437.37 44.0152 3437.46 44.0158 3437.55 44.0176C3437.87 44.024 3438.22 44.0315 3438.57 44.0293C3438.91 44.0271 3439.29 44.0147 3439.67 43.9736C3440.02 43.9353 3440.51 43.857 3441 43.6514C3443.56 42.5772 3445.33 40.8801 3446.24 38.7188C3447.14 36.6166 3447.1 34.3583 3446.64 32.3086C3446.17 30.223 3445.2 28.1594 3444.01 26.3291C3445.62 26.7007 3447.41 27.106 3449.11 27.4092C3451.22 27.7867 3453.53 28.0801 3455.32 27.832C3462.23 26.8727 3466.62 21.7613 3470.19 17.0068C3472.07 14.5036 3473.67 12.1556 3475.49 9.95703C3476.73 8.45603 3477.97 7.15252 3479.28 6.10547H3480.02ZM3693.74 70.2344C3691.03 71.5535 3689.38 73.0735 3688.01 74.5107C3686.36 76.244 3685.51 77.3352 3683.7 78.1348L3683.33 78.291C3682.59 78.5821 3682 79.0804 3681.58 79.5068C3681.14 79.9602 3680.73 80.4899 3680.38 81.0352C3679.66 82.1244 3679.02 83.4492 3678.57 84.7744C3678.14 86.063 3677.81 87.5682 3677.91 88.9639C3677.99 89.979 3678.35 91.2765 3679.35 92.1904C3679.25 92.4104 3679.13 92.6784 3678.97 92.9971C3678.55 93.8444 3677.98 94.8389 3677.33 95.9805C3676.68 97.0998 3675.96 98.344 3675.28 99.6094C3673.96 102.067 3672.6 104.952 3672.25 107.592C3672.07 108.949 3672.13 110.451 3672.79 111.85C3673.48 113.309 3674.69 114.374 3676.27 115.03C3679.6 116.407 3682.61 114.894 3684.64 113.515C3685.7 112.8 3686.72 111.966 3687.56 111.289C3688.09 110.864 3688.55 110.506 3688.96 110.214C3689.25 110.566 3689.59 111.069 3689.97 111.724C3690.52 112.647 3691 113.595 3691.51 114.53C3691.75 114.971 3692.01 115.421 3692.25 115.807C3692.45 116.126 3692.81 116.661 3693.29 117.061C3693.44 117.182 3693.59 117.292 3693.74 117.394V145.947H3661.08V94.501H3639.8C3635.12 94.501 3631.1 94.715 3627.73 95.1426C3624.43 95.4847 3621.71 96.383 3619.56 97.8369C3617.41 99.2054 3615.76 101.258 3614.61 103.995C3614.08 105.361 3613.66 106.971 3613.35 108.827C3612.73 108.927 3612.15 109.078 3611.64 109.246C3610.07 109.76 3608.29 110.709 3607.21 112.052L3607 112.326C3606.77 112.657 3606.56 113.082 3606.42 113.373C3606.25 113.717 3606.07 114.131 3605.88 114.552C3605.49 115.42 3605.06 116.381 3604.62 117.254C3604.57 117.354 3604.52 117.448 3604.47 117.54C3604.42 117.484 3604.38 117.426 3604.33 117.371C3604 116.987 3603.57 116.522 3603.06 116.14C3602.57 115.772 3601.75 115.288 3600.69 115.288C3597.9 115.288 3595.63 116.072 3593.92 117.623C3592.26 119.132 3591.4 121.129 3590.94 123.06C3590.48 124.987 3590.35 127.058 3590.32 128.929C3590.29 130.21 3590.3 131.283 3590.29 132.291C3588.11 131.14 3585.44 130.055 3582.79 129.567C3581.82 129.389 3580.8 129.282 3579.78 129.298C3579.95 127.89 3580.1 126.427 3580.23 124.907L3581.84 108.101C3582.22 104.337 3582.68 101.087 3583.22 98.3496C3583.75 95.6128 3584.63 93.2177 3585.86 91.165C3587.09 89.1981 3588.78 87.4871 3590.92 86.0332C3593.07 84.5794 3595.94 83.2539 3599.55 82.0566C3598.4 81.7145 3597.09 81.2442 3595.64 80.6455C3594.26 79.9613 3592.76 79.1054 3591.15 78.0791C3589.62 76.9673 3588.05 75.5986 3586.44 73.9736C3584.9 72.2631 3583.45 70.1677 3582.07 67.6875C3581.07 66.0625 3580.26 64.3517 3579.65 62.5557C3579.11 60.674 3578.69 58.8776 3578.39 57.167C3578.08 55.3709 3577.89 53.7026 3577.81 52.1631C3577.73 50.6238 3577.7 49.2983 3577.7 48.1865C3577.7 43.2258 3578.23 38.8205 3579.31 34.9717C3580.38 31.0375 3581.76 27.6159 3583.45 24.708C3585.13 21.8001 3587.05 19.3202 3589.2 17.2676C3591.34 15.2149 3593.53 13.5466 3595.75 12.2637C3598.21 10.7242 3600.93 9.56956 3603.92 8.7998C3606.91 7.94456 3609.82 7.34601 3612.66 7.00391C3615.5 6.57631 3618.14 6.31892 3620.59 6.2334C3623.05 6.14789 3624.96 6.10548 3626.34 6.10547H3693.74V70.2344ZM4123.18 64.2236L4166.77 130.275C4166.03 130.112 4165.23 129.933 4164.39 129.739C4160.29 128.795 4155.24 127.524 4151.39 126.206C4149.93 125.706 4148.4 124.666 4146.85 123.436C4146.08 122.824 4145.32 122.176 4144.56 121.536C4143.81 120.899 4143.07 120.267 4142.35 119.705C4140.95 118.605 4139.53 117.663 4138.24 117.506C4137.56 117.424 4136.9 117.554 4136.3 117.998C4135.72 118.433 4135.26 119.125 4134.9 120.045C4133.91 122.59 4134.79 124.607 4135.78 126.417C4136.81 128.282 4137.93 129.921 4138.12 132.085C4138.26 133.657 4137.92 135.159 4137.35 136.646C4136.77 138.153 4136 139.562 4135.28 141.023C4134.69 142.207 4134.15 143.429 4133.88 144.667L4097.87 86.9316L4084.76 101.686V145.947H4052.21V19.5879C4052.79 19.8162 4053.44 20.089 4054.18 20.416C4056.19 21.3067 4057.14 22.3429 4057.7 22.9141C4057.83 23.053 4058.25 23.4823 4058.69 26.7754C4059.52 33.0151 4059.99 36.8438 4060.37 39.2881C4060.73 41.7051 4061.05 43.1492 4061.73 44.4502C4063.08 47.0325 4066.05 48.7697 4069.13 50.0879C4069.98 50.4554 4070.79 50.7488 4071.49 50.998C4072.21 51.2575 4072.77 51.4485 4073.25 51.6465C4073.88 51.9005 4074.11 52.0637 4074.18 52.1152C4074.79 53.5406 4075.29 54.8006 4075.73 55.9248C4076.18 57.0521 4076.58 58.0923 4076.95 58.9824C4077.67 60.699 4078.49 62.3698 4079.89 63.543C4080.96 64.4367 4082.11 64.4737 4082.75 64.4473C4083.64 64.4097 4084.54 64.0911 4085.29 63.5537C4086.43 62.7259 4087.29 61.4819 4087.94 60.2783C4088.61 59.0307 4089.19 57.5888 4089.68 56.1318C4090.08 54.9301 4090.43 53.6763 4090.74 52.4502L4100.95 40.8975C4101.42 40.8449 4101.89 40.7867 4102.32 40.708C4102.82 40.6155 4103.46 40.4684 4104.04 40.1836C4105.93 39.252 4107.68 37.5958 4108.95 36.5176C4110.43 35.2551 4111.42 34.5943 4112.29 34.4346C4114.84 33.9653 4117.16 33.8563 4119.05 33.7998C4119.96 33.7726 4120.87 33.7561 4121.58 33.709C4121.95 33.6849 4122.33 33.6491 4122.69 33.5869C4123.03 33.5295 4123.5 33.4244 4123.97 33.1885C4125.76 32.2826 4127.04 30.79 4128.06 29.1113C4129.07 27.4453 4129.94 25.4059 4130.8 23.1855C4131.97 20.1716 4132.15 17.5555 4132.3 15.5889L4132.3 15.4834C4132.55 12.1376 4133.01 8.84435 4133.55 6.10547H4174.93L4123.18 64.2236ZM32.5479 47.9277C32.5479 51.9861 32.9702 55.3108 33.8135 57.9014C34.7335 60.492 36.114 62.5648 37.9541 64.1191C39.7942 65.6735 42.0943 66.7529 44.8545 67.3574C47.6148 67.9619 50.8738 68.2646 54.6309 68.2646C60.2279 68.2646 64.6748 67.7027 67.9717 66.5801C71.2686 65.3711 73.8376 64.0325 75.6777 62.5645V4.14551H108.226V145.337H75.6777V89.6377C74.2976 90.3285 72.4188 91.0191 70.042 91.71C67.6652 92.4871 65.0199 93.1778 62.1064 93.7822C59.2696 94.3867 56.2792 94.8616 53.1357 95.207C50.0688 95.5525 47.1162 95.7256 44.2793 95.7256C37.1488 95.7256 30.8232 95.035 25.3027 93.6533C19.7822 92.1853 15.1428 89.8534 11.3857 86.6582C7.62885 83.4631 4.79181 79.3175 2.875 74.2227C0.9583 69.0415 2.49835e-05 62.6942 0 55.1816V4.14551H32.5479V47.9277ZM558.019 4.14551C563.769 4.14555 569.29 4.70652 574.58 5.8291C579.947 6.95173 584.663 8.93751 588.727 11.7871C592.79 14.5505 596.011 18.3507 598.388 23.1865C600.841 27.936 602.067 33.9813 602.067 41.3213C602.067 45.5525 601.646 49.2233 600.803 52.332C600.036 55.4404 598.962 58.1173 597.582 60.3623C596.202 62.521 594.592 64.3783 592.752 65.9326C590.989 67.4005 589.148 68.6532 587.231 69.6895C593.518 72.1937 598.311 76.209 601.607 81.7354C604.904 87.1756 606.554 93.696 606.554 101.295C606.554 107.944 605.518 113.99 603.448 119.43C601.455 124.783 598.579 129.404 594.822 133.29C591.142 137.089 586.618 140.069 581.251 142.228C575.961 144.3 570.018 145.337 563.424 145.337H493.151V4.14551H558.019ZM771.742 145.337H739.078V93.3936H717.802C713.125 93.3936 709.099 93.6093 705.726 94.041C702.429 94.3864 699.706 95.2938 697.56 96.7617C695.413 98.1433 693.764 100.216 692.614 102.979C691.541 105.743 690.927 109.5 690.773 114.249L690.313 127.85C690.16 129.836 689.931 132.427 689.624 135.622C689.394 138.817 688.665 142.056 687.438 145.337H653.05C654.046 143.437 654.852 141.623 655.465 139.896C656.078 138.083 656.539 136.355 656.846 134.715C657.229 132.988 657.497 131.26 657.65 129.533C657.88 127.806 658.072 125.993 658.226 124.094L659.836 107.124C660.219 103.325 660.679 100.043 661.216 97.2803C661.753 94.5171 662.635 92.0988 663.861 90.0264C665.088 88.0403 666.775 86.3127 668.922 84.8447C671.069 83.3768 673.944 82.038 677.548 80.8291C676.398 80.4837 675.093 80.0088 673.637 79.4043C672.257 78.7135 670.761 77.8497 669.151 76.8135C667.618 75.6909 666.047 74.3087 664.437 72.668C662.903 70.9409 661.446 68.8256 660.065 66.3213C659.069 64.6806 658.264 62.9531 657.65 61.1396C657.114 59.24 656.691 57.4262 656.385 55.6992C656.078 53.886 655.887 52.2017 655.811 50.6475C655.734 49.0933 655.695 47.7543 655.695 46.6318C655.695 41.6235 656.232 37.1759 657.306 33.29C658.379 29.3181 659.759 25.8636 661.445 22.9277C663.132 19.9918 665.05 17.4865 667.196 15.4141C669.343 13.3418 671.529 11.6575 673.752 10.3623C676.205 8.80806 678.928 7.64238 681.918 6.86523C684.908 6.00175 687.822 5.39716 690.659 5.05176C693.496 4.62005 696.141 4.36076 698.595 4.27441C701.048 4.18808 702.965 4.14551 704.345 4.14551H771.742V145.337ZM926.119 33.9375H888.166V145.337H855.732V33.9375H817.778V4.14551H926.119V33.9375ZM1162.76 57.7725L1209.69 4.14551H1252.93L1201.18 62.8242L1255.12 145.337H1212.68L1175.87 85.751L1162.76 100.647V145.337H1130.21V4.14551H1162.76V57.7725ZM1493.55 47.7275C1493.55 51.7692 1493.97 55.0803 1494.81 57.6602C1495.73 60.2398 1497.11 62.3037 1498.95 63.8516C1500.79 65.3994 1503.09 66.4742 1505.85 67.0762C1508.61 67.6781 1511.87 67.9795 1515.63 67.9795C1521.23 67.9795 1525.67 67.4206 1528.97 66.3027C1532.27 65.0988 1534.84 63.7656 1536.68 62.3037V4.12793H1569.23V144.729H1536.68V89.2627C1535.3 89.9507 1533.42 90.6392 1531.04 91.3271C1528.67 92.1011 1526.02 92.7887 1523.11 93.3906C1520.27 93.9926 1517.28 94.4656 1514.14 94.8096C1511.07 95.1536 1508.12 95.3252 1505.28 95.3252C1498.15 95.3252 1491.82 94.6376 1486.3 93.2617C1480.78 91.7998 1476.14 89.4777 1472.39 86.2959C1468.63 83.1141 1465.79 78.9866 1463.88 73.9131C1461.96 68.7534 1461 62.4326 1461 54.9512V4.12793H1493.55V47.7275ZM2019.02 4.12793C2024.77 4.12798 2030.29 4.6868 2035.58 5.80469C2040.95 6.92265 2045.66 8.90054 2049.73 11.7383C2053.79 14.4901 2057.01 18.2743 2059.39 23.0898C2061.84 27.8195 2063.07 33.8392 2063.07 41.1484C2063.07 45.3621 2062.65 49.0175 2061.8 52.1133C2061.04 55.2089 2059.96 57.8746 2058.58 60.1104C2057.2 62.2601 2055.59 64.1094 2053.75 65.6572C2051.99 67.119 2050.15 68.3665 2048.23 69.3984C2054.52 71.8923 2059.31 75.8911 2062.61 81.3945C2064.55 84.5933 2065.93 88.1671 2066.72 92.1152C2066.09 91.7598 2065.43 91.4822 2064.75 91.3213C2063.24 90.9625 2061.66 91.1805 2059.97 92.2109C2058.11 93.3501 2057.26 94.9267 2057.07 96.7803C2056.89 98.5553 2057.33 100.532 2057.87 102.506C2058.43 104.534 2059.1 106.569 2059.53 108.666C2059.95 110.743 2060.1 112.768 2059.65 114.684C2058.55 119.366 2055.69 122.185 2052.88 125.227C2050.1 128.237 2047.39 131.46 2047.2 136.857C2047.17 137.648 2047.22 138.437 2047.31 139.221C2045.72 140.114 2044.03 140.92 2042.25 141.634C2036.96 143.698 2031.02 144.729 2024.42 144.729H1954.15V42.6963C1955.08 42.7377 1956.01 42.7255 1956.92 42.6309C1958.85 42.4306 1960.73 41.8676 1962.22 40.6689C1964.28 39.0205 1964.86 36.7732 1964.72 34.3652C1964.58 32.018 1963.77 29.4329 1963 26.9795C1962.21 24.4707 1961.47 22.09 1961.34 19.9785C1961.22 17.9264 1961.69 16.2186 1963.27 14.9248C1965.84 12.8348 1968.36 13.4309 1971.3 14.4414C1974.17 15.4297 1977.47 16.8436 1981.07 15.6396C1983.88 14.698 1985.73 12.9762 1986.71 10.6377C1987.51 8.7521 1987.71 6.53393 1987.5 4.12793H2019.02ZM2232.74 144.729H2200.08V93.0039H2178.8C2174.12 93.0039 2170.1 93.2185 2166.73 93.6484C2163.43 93.9924 2160.71 94.8957 2158.56 96.3574C2156.41 97.7332 2154.76 99.7973 2153.61 102.549C2152.54 105.301 2151.93 109.042 2151.77 113.771L2151.67 116.683C2151.05 116.885 2150.32 117.147 2149.57 117.477C2148.49 117.953 2147.33 118.58 2146.35 119.382C2145.36 120.18 2144.5 121.191 2144.07 122.454C2143.6 123.854 2143.74 125.04 2143.9 126.098C2144.07 127.167 2144.24 128.071 2144.04 129.175C2143.64 131.435 2143.01 133.153 2142.11 134.666C2141.21 136.186 2140 137.533 2138.38 139.027C2137.76 139.601 2136.89 139.926 2135.87 140.128C2134.84 140.331 2133.77 140.39 2132.72 140.505C2131.73 140.613 2130.69 140.776 2129.96 141.271C2129.57 141.534 2129.24 141.907 2129.06 142.43C2128.88 142.943 2128.87 143.524 2128.99 144.15C2129.03 144.358 2129.09 144.55 2129.15 144.729H2114.05C2115.05 142.838 2115.85 141.032 2116.46 139.312C2117.08 137.507 2117.54 135.786 2117.85 134.152C2118.23 132.433 2118.5 130.713 2118.65 128.993C2118.88 127.273 2119.07 125.467 2119.23 123.575L2120.84 106.677C2121.22 102.893 2121.68 99.6257 2122.22 96.874C2122.75 94.1223 2123.63 91.7142 2124.86 89.6504C2126.09 87.6726 2127.78 85.9521 2129.92 84.4902C2132.07 83.0285 2134.94 81.695 2138.55 80.4912C2137.4 80.1473 2136.09 79.6741 2134.64 79.0723C2133.26 78.3844 2131.76 77.5249 2130.15 76.4932C2128.62 75.3753 2127.05 73.9991 2125.44 72.3652C2123.9 70.6454 2122.45 68.5377 2121.07 66.0439C2120.07 64.4102 2119.26 62.6904 2118.65 60.8848C2118.11 58.9929 2117.69 57.1867 2117.38 55.4668C2117.08 53.6611 2116.89 51.9843 2116.81 50.4365C2116.73 48.8887 2116.7 47.5554 2116.7 46.4375C2116.7 41.4498 2117.23 37.0211 2118.31 33.1514C2119.38 29.1958 2120.76 25.7558 2122.45 22.832C2124.13 19.9084 2126.05 17.4144 2128.2 15.3506C2130.34 13.2868 2132.53 11.6092 2134.75 10.3193C2137.21 8.77149 2139.93 7.61085 2142.92 6.83691C2145.91 5.97705 2148.82 5.37425 2151.66 5.03027C2154.5 4.60032 2157.14 4.34283 2159.59 4.25684C2162.05 4.17086 2163.96 4.12794 2165.34 4.12793H2232.74V144.729ZM2319.74 4.12793C2319.54 5.37479 2319.43 6.57992 2319.47 7.70703C2319.63 12.7514 2321.12 15.7368 2323.47 17.5879C2325.74 19.3849 2328.74 20.0393 2331.72 20.6807C2335.25 21.4424 2338.47 19.2945 2341.45 17.2588C2344.53 15.1512 2347.4 13.1367 2350.51 13.3809C2352.67 13.5499 2354.09 14.9554 2355.69 16.4004C2357.24 17.8089 2358.98 19.2606 2361.58 18.6729C2365.1 17.8743 2367.47 15.0555 2368.67 11.5723C2369.46 9.28542 2369.76 6.69026 2369.56 4.12793H2387.12V33.7959H2349.17V144.729H2316.73V33.7959H2278.78V4.12793H2319.74ZM2623.76 57.5312L2670.69 4.12793H2713.93L2662.18 62.5615L2716.12 144.729H2673.68L2636.87 85.3936L2623.76 100.228V144.729H2591.21V4.12793H2623.76V57.5312ZM3780.74 6.10547C3780.54 7.34564 3780.43 8.54397 3780.47 9.66504C3780.63 14.6822 3782.12 17.651 3784.47 19.4922C3786.74 21.2796 3789.74 21.9304 3792.72 22.5684C3796.25 23.326 3799.47 21.1907 3802.45 19.166C3805.53 17.0698 3808.4 15.0657 3811.51 15.3086C3813.67 15.4768 3815.09 16.8752 3816.69 18.3125C3818.24 19.7134 3819.98 21.156 3822.58 20.5713C3826.1 19.7771 3828.47 16.9741 3829.67 13.5098C3830.46 11.2352 3830.76 8.65399 3830.56 6.10547H3848.12V35.6133H3810.17V138.059C3808.83 137.464 3807.39 136.825 3805.99 136.2C3803.71 135.191 3801.52 134.212 3799.9 133.469C3799.81 133.423 3799.71 133.377 3799.62 133.334C3800.25 131.95 3800.89 130.301 3801.34 128.671C3801.72 127.272 3802.02 125.751 3802.03 124.333C3802.03 122.995 3801.79 121.253 3800.57 119.956C3798.26 117.505 3795.26 116.87 3792.83 116.537C3792.21 116.453 3791.59 116.384 3791.01 116.318C3790.42 116.251 3789.87 116.188 3789.34 116.109C3788.44 115.976 3787.66 115.809 3786.99 115.571C3787 115.559 3787 115.547 3787 115.534C3787.09 114.758 3787.5 113.648 3788.12 112.112C3788.68 110.737 3789.42 109.016 3789.81 107.462C3790.16 106.094 3790.5 103.911 3789.18 102.15L3789.05 101.981L3788.92 101.837C3788.62 101.51 3788.27 101.259 3788.07 101.116C3787.77 100.911 3787.43 100.691 3787.08 100.474C3786.32 100.003 3785.54 99.5479 3784.59 98.9473C3782.92 97.8986 3781.25 96.7273 3780.07 95.5205C3780.07 95.4742 3780.06 95.4235 3780.06 95.3682C3780.06 94.8866 3780.07 93.7198 3780.04 92.752C3779.99 90.5948 3779.75 87.658 3778.61 84.7656C3778.36 84.1444 3778.09 83.4327 3777.73 82.6895V35.6133H3739.78V6.10547H3780.74ZM3447.7 99.1436C3447.7 99.1442 3447.69 99.1449 3447.69 99.1455C3447.04 99.2461 3446.35 99.3795 3445.7 99.5566C3445.1 99.7232 3444.37 99.9735 3443.74 100.375C3442.15 101.385 3441.12 102.395 3440.39 103.424C3439.71 104.368 3439.29 105.38 3439.08 105.784C3438.5 106.944 3438.55 108.122 3438.65 108.879C3438.83 110.139 3439.68 110.894 3440.15 111.243C3440.67 111.631 3441.28 111.931 3441.79 112.162C3442.15 112.322 3442.54 112.484 3442.92 112.641C3442.6 112.964 3442.27 113.288 3441.95 113.613C3441.14 114.421 3440.27 115.307 3439.68 116.124C3438.57 117.649 3438.64 119.267 3438.73 120.275C3438.87 121.874 3439.55 123.234 3440.17 124.206C3440.78 125.154 3441.47 125.934 3441.77 126.292C3441.78 126.315 3441.82 126.396 3441.88 126.563C3441.98 126.826 3442.07 127.17 3442.17 127.604C3442.28 128.053 3442.36 128.466 3442.47 128.97C3442.56 129.424 3442.68 129.952 3442.84 130.428C3443.1 131.221 3443.65 131.899 3444.45 132.279C3445.15 132.61 3445.83 132.618 3446.26 132.585C3447.09 132.521 3447.95 132.212 3448.54 131.991C3449.31 131.704 3449.78 131.499 3450.45 131.261C3450.9 131.101 3451.24 131.003 3451.5 130.953C3451.55 131.015 3451.71 131.223 3452.01 131.73C3452.18 132.026 3452.36 132.342 3452.56 132.719C3452.76 133.08 3452.99 133.486 3453.24 133.887C3453.32 134.027 3453.55 134.388 3453.96 134.698C3454.47 135.081 3455.34 135.431 3456.34 135.107C3457.14 134.851 3457.57 134.299 3457.72 134.085C3457.91 133.821 3458.04 133.556 3458.12 133.37C3458.41 132.689 3458.71 131.556 3459.09 129.981C3459.68 127.539 3460.57 123.605 3461.4 120.16H3472.77C3477.45 120.16 3481.21 119.604 3484.04 118.492C3486.96 117.38 3489.18 115.969 3490.71 114.259C3492.32 112.548 3493.36 110.666 3493.82 108.613C3494.36 106.561 3494.62 104.636 3494.62 102.84C3494.62 99.419 3494.2 96.5967 3493.36 94.373C3492.59 92.064 3491.33 90.2249 3489.56 88.8564C3487.88 87.488 3485.65 86.5464 3482.89 86.0332C3480.06 85.5201 3476.68 85.2637 3472.77 85.2637H3447.7V99.1436ZM4289.98 77.6943C4287.98 78.8916 4285.99 80.004 4284 81.0303C4282 81.971 4279.36 82.7836 4276.06 83.4678L4267.43 85.2637C4263.68 86.0334 4260.38 86.9317 4257.54 87.958C4254.71 88.9843 4252.33 90.353 4250.41 92.0635C4248.57 93.6885 4247.15 95.699 4246.16 98.0938C4245.24 100.489 4244.78 103.482 4244.78 107.074C4244.78 110.068 4245.2 112.677 4246.04 114.9C4246.89 117.038 4248.04 118.834 4249.49 120.288C4251.03 121.656 4252.79 122.683 4254.78 123.367C4256.78 124.051 4258.92 124.394 4261.22 124.394C4262.45 124.394 4264.02 124.265 4265.94 124.009C4267.86 123.667 4269.89 123.068 4272.03 122.213C4274.18 121.358 4276.33 120.203 4278.47 118.749C4280.62 117.21 4282.54 115.242 4284.23 112.848C4285.91 110.453 4287.29 107.544 4288.37 104.123C4289.44 100.616 4289.98 96.5106 4289.98 91.8066V77.6943ZM1367.98 76.4248C1365.98 77.6336 1363.99 78.7568 1362 79.793C1360 80.7428 1357.36 81.5631 1354.06 82.2539L1345.43 84.0674C1341.68 84.8445 1338.38 85.751 1335.54 86.7871C1332.71 87.8233 1330.33 89.2057 1328.41 90.9326C1326.57 92.5732 1325.15 94.6028 1324.16 97.0205C1323.24 99.4383 1322.78 102.461 1322.78 106.088C1322.78 109.11 1323.2 111.744 1324.04 113.989C1324.89 116.148 1326.04 117.962 1327.49 119.43C1329.03 120.811 1330.79 121.848 1332.78 122.539C1334.78 123.23 1336.92 123.575 1339.22 123.575C1340.45 123.575 1342.02 123.446 1343.94 123.187C1345.86 122.841 1347.89 122.237 1350.03 121.373C1352.18 120.51 1354.33 119.344 1356.47 117.876C1358.62 116.322 1360.54 114.335 1362.23 111.917C1363.91 109.499 1365.29 106.562 1366.37 103.108C1367.44 99.5681 1367.98 95.4229 1367.98 90.6738V76.4248ZM2828.98 76.1055C2826.98 77.3093 2824.99 78.4281 2823 79.46C2821 80.4058 2818.36 81.2223 2815.06 81.9102L2806.43 83.7168C2802.68 84.4907 2799.38 85.393 2796.54 86.4248C2793.71 87.4567 2791.33 88.833 2789.41 90.5527C2787.57 92.1866 2786.15 94.2075 2785.16 96.6152C2784.24 99.0231 2783.78 102.034 2783.78 105.646C2783.78 108.655 2784.2 111.278 2785.04 113.514C2785.89 115.663 2787.04 117.47 2788.49 118.932C2790.03 120.307 2791.79 121.339 2793.78 122.027C2795.78 122.715 2797.92 123.06 2800.22 123.06C2801.45 123.06 2803.02 122.93 2804.94 122.672C2806.86 122.328 2808.89 121.726 2811.03 120.866C2813.18 120.006 2815.33 118.846 2817.47 117.384C2819.62 115.836 2821.54 113.858 2823.23 111.45C2824.91 109.042 2826.29 106.118 2827.37 102.679C2828.44 99.1529 2828.98 95.0246 2828.98 90.2949V76.1055ZM525.7 119.301H550.772C555.449 119.301 559.207 118.739 562.044 117.616C564.957 116.494 567.182 115.069 568.715 113.342C570.325 111.615 571.359 109.715 571.819 107.643C572.356 105.57 572.625 103.627 572.625 101.813C572.625 98.3595 572.203 95.5098 571.359 93.2646C570.593 90.9332 569.328 89.076 567.564 87.6943C565.878 86.3127 563.654 85.3629 560.894 84.8447C558.057 84.3266 554.683 84.0674 550.772 84.0674H525.7V119.301ZM3302.75 34.5869C3297.54 34.587 3293.13 35.8275 3289.53 38.3076C3286 40.7879 3283.12 43.9955 3280.9 47.9297C3278.75 51.864 3277.18 56.3118 3276.18 61.2725C3275.19 66.2331 3274.69 71.1512 3274.69 76.0264C3274.69 78.6778 3274.8 81.5864 3275.03 84.751C3275.34 87.8298 3275.88 90.9943 3276.64 94.2441C3277.41 97.4086 3278.45 100.488 3279.75 103.481C3281.13 106.475 3282.86 109.127 3284.93 111.437C3287 113.746 3289.49 115.627 3292.4 117.081C3295.31 118.449 3298.77 119.134 3302.75 119.134C3306.74 119.134 3310.19 118.449 3313.1 117.081C3316.02 115.627 3318.51 113.746 3320.58 111.437C3322.65 109.127 3324.34 106.475 3325.64 103.481C3327.02 100.488 3328.09 97.4086 3328.86 94.2441C3329.63 90.9943 3330.13 87.8298 3330.36 84.751C3330.66 81.5864 3330.82 78.6778 3330.82 76.0264C3330.82 71.1512 3330.32 66.2332 3329.32 61.2725C3328.32 56.3118 3326.71 51.8641 3324.49 47.9297C3322.34 43.9955 3319.47 40.7879 3315.86 38.3076C3312.26 35.8275 3307.89 34.5869 3302.75 34.5869ZM1986.7 118.803H2011.77C2016.45 118.803 2020.21 118.243 2023.04 117.125C2025.96 116.007 2028.18 114.589 2029.71 112.869C2031.32 111.149 2032.36 109.257 2032.82 107.193C2033.36 105.13 2033.62 103.194 2033.62 101.389C2033.62 97.949 2033.2 95.1108 2032.36 92.875C2031.59 90.5533 2030.33 88.704 2028.56 87.3281C2026.88 85.9523 2024.65 85.0062 2021.89 84.4902C2019.06 83.9743 2015.68 83.7168 2011.77 83.7168H1986.7V118.803ZM380.752 32.9014C375.539 32.9015 371.13 34.1541 367.526 36.6582C363.999 39.1625 361.124 42.4008 358.9 46.373C356.754 50.3453 355.181 54.8362 354.185 59.8447C353.188 64.8532 352.689 69.8191 352.689 74.7412C352.689 77.4179 352.804 80.3541 353.034 83.5488C353.341 86.6575 353.878 89.8534 354.645 93.1348C355.411 96.3297 356.447 99.4387 357.75 102.461C359.13 105.483 360.856 108.161 362.926 110.492C364.996 112.824 367.488 114.723 370.401 116.191C373.315 117.573 376.765 118.265 380.752 118.265C384.739 118.265 388.19 117.573 391.104 116.191C394.017 114.723 396.509 112.824 398.579 110.492C400.649 108.161 402.336 105.483 403.64 102.461C405.02 99.4386 406.094 96.3298 406.86 93.1348C407.627 89.8533 408.125 86.6576 408.355 83.5488C408.662 80.3541 408.815 77.418 408.815 74.7412C408.815 69.8191 408.317 64.8532 407.32 59.8447C406.324 54.8363 404.713 50.3453 402.489 46.373C400.342 42.401 397.467 39.1624 393.863 36.6582C390.26 34.1542 385.889 32.9014 380.752 32.9014ZM1841.75 32.7646C1836.54 32.7648 1832.13 34.0113 1828.53 36.5049C1825 38.9987 1822.12 42.224 1819.9 46.1797C1817.75 50.1354 1816.18 54.6071 1815.18 59.5947C1814.19 64.5823 1813.69 69.5271 1813.69 74.4287C1813.69 77.0945 1813.8 80.0185 1814.03 83.2002C1814.34 86.296 1814.88 89.4783 1815.64 92.7461C1816.41 95.9277 1817.45 99.0235 1818.75 102.033C1820.13 105.043 1821.86 107.709 1823.93 110.031C1826 112.353 1828.49 114.244 1831.4 115.706C1834.31 117.082 1837.77 117.77 1841.75 117.771C1845.74 117.771 1849.19 117.082 1852.1 115.706C1855.02 114.244 1857.51 112.353 1859.58 110.031C1861.65 107.709 1863.34 105.043 1864.64 102.033C1866.02 99.0235 1867.09 95.9278 1867.86 92.7461C1868.63 89.4783 1869.13 86.296 1869.36 83.2002C1869.66 80.0184 1869.82 77.0945 1869.82 74.4287C1869.82 69.5271 1869.32 64.5824 1868.32 59.5947C1867.32 54.6071 1865.71 50.1354 1863.49 46.1797C1861.34 42.224 1858.47 38.9987 1854.86 36.5049C1851.26 34.0113 1846.89 32.7646 1841.75 32.7646ZM3941.4 21.0166C3940.38 20.2627 3939.17 19.9772 3937.88 20.7021C3937.45 20.9467 3936.92 21.0626 3936.29 21.1035C3935.66 21.1446 3934.99 21.1076 3934.26 21.083C3932.89 21.0364 3931.26 21.0184 3930.01 22.0596C3927.38 24.2642 3926.59 27.449 3926.2 30.6836C3926.01 32.2753 3925.91 34.0024 3925.75 35.583C3925.59 37.2022 3925.37 38.7599 3924.94 40.2021C3924.84 40.5392 3924.75 40.9057 3924.67 41.2939C3923.36 43.1712 3922.19 45.3403 3921.18 47.8018C3919.57 51.9072 3918.77 57.0393 3918.77 63.1973H3947.23C3947.25 63.4671 3947.27 63.7384 3947.29 64.0107C3947.45 66.2999 3947.61 68.7825 3948.02 70.5576C3948.2 71.382 3948.53 72.5087 3949.27 73.3525C3949.68 73.8319 3950.31 74.311 3951.17 74.4824C3952.03 74.6526 3952.8 74.4565 3953.38 74.1738C3955.36 73.2226 3956.75 72.123 3957.86 71.2119C3959.01 70.2661 3959.71 69.6775 3960.59 69.2617C3960.75 69.1899 3960.94 69.1214 3961.26 69.0947C3961.6 69.0662 3962.14 69.0809 3963 69.2646C3964.38 69.5638 3965.76 69.9222 3967.11 70.2725C3968.44 70.6154 3969.77 70.9602 3970.96 71.1904C3972.11 71.4116 3973.38 71.5843 3974.52 71.4385C3975.73 71.283 3977.33 70.6589 3977.98 68.8564C3978.14 68.4089 3978.17 67.9877 3978.17 67.665C3978.26 67.6256 3978.35 67.5843 3978.44 67.5391C3979.28 67.1455 3980.39 66.6053 3981.46 65.9541C3982.49 65.3236 3983.68 64.4787 3984.53 63.4141C3985.42 62.3147 3986.19 60.6379 3985.53 58.6963C3985.32 58.0738 3984.95 57.5561 3984.68 57.2041C3984.38 56.8221 3984.04 56.4482 3983.71 56.1104C3983.38 55.7701 3983.02 55.4171 3982.68 55.0918C3982.34 54.7562 3982.02 54.4407 3981.73 54.1328C3981.61 54.0105 3981.51 53.8952 3981.41 53.79C3981.48 53.7658 3981.54 53.7433 3981.61 53.7178C3982.35 53.4269 3983.96 52.7665 3984.69 51.0391C3985.4 49.3718 3984.98 47.766 3984.38 46.6055C3983.8 45.457 3982.9 44.4371 3982.05 43.6123C3980.33 41.9549 3978.23 40.56 3977.44 40.0078H3977.44L3977.43 40.0059L3976.28 39.21C3975.1 38.413 3973.83 37.6406 3972.43 37.1367C3970.43 36.4204 3968.28 36.2774 3965.67 36.8682C3964.16 37.2115 3962.71 37.7434 3961.33 38.4004C3961.22 38.2826 3961.1 38.1647 3960.98 38.0508C3958.52 35.5706 3955.8 33.8597 3952.81 32.9189C3949.91 31.9221 3947.11 31.4094 3944.42 31.3809L3945.76 29.8711L3946.04 29.5566L3945.92 29.1357V29.1348L3945.91 29.126C3945.91 29.1202 3945.91 29.1109 3945.91 29.1006C3945.9 29.0793 3945.89 29.0479 3945.88 29.0088C3945.85 28.9299 3945.82 28.8156 3945.77 28.6729C3945.68 28.3861 3945.54 27.9799 3945.37 27.502C3945.02 26.5495 3944.5 25.2915 3943.84 24.1006C3943.19 22.9224 3942.37 21.7448 3941.4 21.0166ZM3654.34 25.2832C3652.44 24.3327 3650.42 23.6601 3647.76 24.8564C3646.34 25.4982 3645.38 26.5729 3644.51 27.5391C3643.62 28.5253 3642.82 29.4028 3641.67 29.9453C3639.43 31.0079 3637.67 29.6186 3635.55 28.0156C3634.54 27.2542 3633.44 26.4465 3632.24 26.1064C3631 25.7515 3629.68 25.9118 3628.28 26.9678C3626.58 28.2463 3624.98 30.8236 3623.83 32.9717C3623.61 33.3897 3623.4 33.7978 3623.21 34.1826C3621.75 34.5318 3620.38 35.0518 3619.1 35.7422C3616.95 36.854 3615.19 38.6496 3613.81 41.1299C3612.51 43.5247 3611.85 46.9461 3611.85 51.3936C3611.85 55.7554 3612.54 59.0911 3613.92 61.4004C3615.23 63.7096 3616.91 65.4203 3618.98 66.5322C3621.13 67.6441 3623.51 68.286 3626.12 68.457C3628.72 68.6281 3631.33 68.7139 3633.94 68.7139H3661.08V52.6465L3664.8 54.0479L3665.2 54.1973L3665.48 53.8574L3665.49 53.8555L3665.49 53.8516C3665.49 53.849 3665.5 53.8464 3665.5 53.8418C3665.51 53.8314 3665.52 53.814 3665.54 53.7939C3665.57 53.7537 3665.62 53.6941 3665.68 53.6172C3665.81 53.4623 3666 53.2345 3666.23 52.9443C3666.69 52.3637 3667.34 51.5289 3668.1 50.5117C3669.61 48.4788 3671.55 45.7028 3673.22 42.7539C3674.9 39.8197 3676.35 36.647 3676.85 33.8301C3677.1 32.4163 3677.12 31.041 3676.76 29.8135C3676.4 28.566 3675.66 27.5208 3674.5 26.7734C3671.89 25.1005 3669.52 25.5076 3667.24 26.1904C3664.92 26.8829 3662.76 27.8147 3660.21 27.5908C3657.93 27.3914 3656.26 26.2416 3654.34 25.2832ZM712.855 31.7354C710.095 31.7354 707.335 31.8224 704.575 31.9951C701.815 32.1678 699.323 32.8586 697.1 34.0674C694.953 35.1899 693.189 37.0037 691.809 39.5078C690.505 41.9256 689.854 45.38 689.854 49.8701C689.854 54.274 690.544 57.642 691.924 59.9736C693.227 62.3052 694.914 64.0326 696.984 65.1553C699.131 66.2779 701.508 66.9259 704.115 67.0986C706.722 67.2713 709.329 67.3574 711.936 67.3574H739.078V31.7354H712.855ZM2193.34 23.4092C2191.44 22.4536 2189.42 21.7777 2186.76 22.9805C2185.34 23.6257 2184.38 24.7063 2183.51 25.6777C2182.62 26.6694 2181.82 27.5522 2180.67 28.0977C2178.43 29.1659 2176.67 27.7688 2174.55 26.1572C2173.54 25.3917 2172.44 24.5792 2171.24 24.2373C2170 23.8805 2168.68 24.0418 2167.28 25.1035C2165.58 26.389 2163.98 28.9808 2162.83 31.1406C2162.61 31.5608 2162.4 31.9706 2162.21 32.3574C2160.75 32.7085 2159.38 33.2308 2158.1 33.9248C2155.95 35.0427 2154.19 36.849 2152.81 39.3428C2151.51 41.7506 2150.85 45.1905 2150.85 49.6621C2150.85 54.0479 2151.54 57.4018 2152.92 59.7236C2154.23 62.0454 2155.91 63.7659 2157.98 64.8838C2160.13 66.0016 2162.51 66.6464 2165.12 66.8184C2167.72 66.9903 2170.33 67.0762 2172.94 67.0762H2200.08V50.9219L2203.8 52.3311L2204.2 52.4814L2204.48 52.1387L2204.49 52.1377C2204.49 52.137 2204.49 52.1341 2204.49 52.1328C2204.49 52.1302 2204.5 52.1278 2204.5 52.123C2204.51 52.1126 2204.52 52.0962 2204.54 52.0762C2204.57 52.0358 2204.62 51.9757 2204.68 51.8984C2204.81 51.7427 2205 51.5135 2205.23 51.2217C2205.69 50.6379 2206.34 49.7982 2207.1 48.7754C2208.61 46.7314 2210.55 43.9405 2212.22 40.9756C2213.9 38.0254 2215.35 34.8351 2215.85 32.0029C2216.1 30.5814 2216.12 29.1981 2215.76 27.9639C2215.4 26.7097 2214.66 25.6595 2213.5 24.9082C2210.89 23.2262 2208.52 23.6357 2206.24 24.3223C2203.92 25.0185 2201.76 25.9546 2199.21 25.7295C2196.93 25.529 2195.26 24.3728 2193.34 23.4092ZM3137.22 31.3799C3134.54 31.3799 3131.7 31.8927 3128.71 32.9189C3125.72 33.8598 3123 35.5281 3120.54 37.9229C3118.01 40.4032 3115.9 43.6964 3114.22 47.8018C3112.61 51.9072 3111.8 57.0392 3111.8 63.1973H3162.75C3162.75 57.0391 3161.91 51.9072 3160.22 47.8018C3158.61 43.6964 3156.54 40.4456 3154.01 38.0508C3151.56 35.5705 3148.83 33.8598 3145.84 32.9189C3142.85 31.8926 3139.98 31.3799 3137.22 31.3799ZM215.219 29.6631C212.535 29.6631 209.698 30.1816 206.708 31.2178C203.718 32.1677 200.996 33.8516 198.542 36.2695C196.012 38.7737 193.904 42.0984 192.217 46.2432C190.607 50.3881 189.801 55.5699 189.801 61.7871H240.751C240.751 55.5699 239.907 50.3881 238.221 46.2432C236.611 42.0987 234.541 38.8172 232.011 36.3994C229.557 33.8953 226.835 32.1677 223.845 31.2178C220.855 30.1816 217.979 29.6631 215.219 29.6631ZM1022.19 29.6631C1019.5 29.6632 1016.66 30.1816 1013.67 31.2178C1010.68 32.1677 1007.96 33.8518 1005.51 36.2695C1002.98 38.7737 1000.87 42.0983 999.184 46.2432C997.574 50.3881 996.769 55.5699 996.769 61.7871H1047.72C1047.72 55.5699 1046.88 50.3881 1045.19 46.2432C1043.58 42.0985 1041.51 38.8172 1038.98 36.3994C1036.52 33.8953 1033.8 32.1676 1030.81 31.2178C1027.82 30.1816 1024.95 29.6631 1022.19 29.6631ZM1676.22 29.5391C1673.54 29.5391 1670.7 30.0551 1667.71 31.0869C1664.72 32.0329 1662 33.7104 1659.54 36.1182C1657.01 38.612 1654.9 41.9231 1653.22 46.0508C1651.61 50.1784 1650.8 55.3379 1650.8 61.5293H1701.75C1701.75 55.3379 1700.91 50.1785 1699.22 46.0508C1697.61 41.9232 1695.54 38.6549 1693.01 36.2471C1690.56 33.7533 1687.83 32.0328 1684.84 31.0869C1681.85 30.055 1678.98 29.5391 1676.22 29.5391ZM2480.4 19.1191C2479.38 18.3611 2478.17 18.0755 2476.88 18.8047C2476.45 19.0505 2475.92 19.1659 2475.29 19.207C2474.66 19.2484 2473.99 19.2112 2473.26 19.1865C2471.89 19.1397 2470.26 19.1221 2469.01 20.1689C2466.38 22.3856 2465.59 25.5876 2465.2 28.8398C2465.01 30.4403 2464.91 32.1764 2464.75 33.7656C2464.59 35.3937 2464.37 36.9601 2463.94 38.4102C2463.84 38.749 2463.75 39.1175 2463.67 39.5078C2462.36 41.3953 2461.19 43.5759 2460.18 46.0508C2458.57 50.1784 2457.77 55.338 2457.77 61.5293H2508.72C2508.72 55.3379 2507.88 50.1784 2506.19 46.0508C2504.58 41.9231 2502.51 38.6549 2499.98 36.2471C2497.52 33.7533 2494.8 32.0328 2491.81 31.0869C2488.91 30.0847 2486.11 29.5697 2483.42 29.541L2484.76 28.0234L2485.04 27.7061L2484.92 27.2832V27.2822L2484.91 27.2734C2484.91 27.2677 2484.91 27.2584 2484.91 27.248C2484.9 27.2267 2484.89 27.1955 2484.88 27.1562C2484.85 27.0769 2484.82 26.9612 2484.77 26.8174C2484.68 26.5291 2484.54 26.121 2484.37 25.6406C2484.02 24.683 2483.5 23.4182 2482.84 22.2207C2482.19 21.0359 2481.37 19.8513 2480.4 19.1191ZM3447.7 61.0156H3472.77C3476.45 61.0156 3479.52 60.7168 3481.97 60.1182C3484.43 59.4339 3486.38 58.4498 3487.84 57.167C3489.22 55.9696 3490.18 54.4728 3490.71 52.6768C3491.33 50.7952 3491.63 48.614 3491.63 46.1338C3491.63 44.0811 3491.33 42.1988 3490.71 40.4883C3490.18 38.6924 3489.22 37.1954 3487.84 35.998C3486.46 34.7153 3484.62 33.732 3482.32 33.0479C3480.02 32.2781 3477.14 31.8926 3473.69 31.8926H3447.7V61.0156ZM525.7 59.5859H550.772C554.453 59.5859 557.52 59.2832 559.974 58.6787C562.427 57.9879 564.382 56.9944 565.839 55.6992C567.219 54.4903 568.178 52.9792 568.715 51.166C569.328 49.2663 569.635 47.0637 569.635 44.5596C569.635 42.4873 569.328 40.5873 568.715 38.8604C568.178 37.047 567.219 35.5351 565.839 34.3262C564.459 33.031 562.618 32.0375 560.318 31.3467C558.018 30.5696 555.142 30.1817 551.692 30.1816H525.7V59.5859ZM1986.7 59.3369H2011.77C2015.45 59.3369 2018.52 59.0355 2020.97 58.4336C2023.43 57.7457 2025.38 56.7566 2026.84 55.4668C2028.22 54.2629 2029.18 52.7579 2029.71 50.9521C2030.33 49.0603 2030.63 46.8668 2030.63 44.373C2030.63 42.3096 2030.33 40.4178 2029.71 38.6982C2029.18 36.8925 2028.22 35.3865 2026.84 34.1826C2025.46 32.893 2023.62 31.9037 2021.32 31.2158C2019.02 30.442 2016.14 30.0557 2012.69 30.0557H1986.7V59.3369Z" fill="white"/>
</svg>
