<svg width="1408" height="184" viewBox="0 0 1408 184" fill="none" xmlns="http://www.w3.org/2000/svg">
<path d="M390.413 0C394.247 0 398.196 0.512782 402.26 1.53906C406.323 2.56538 410.272 4.23386 414.105 6.54297C418.016 8.76668 421.696 11.7179 425.146 15.3955C426.056 16.3423 426.935 17.3493 427.786 18.415C427.018 18.7662 426.333 19.2315 425.751 19.8242C424.227 21.3769 423.802 23.3928 423.951 25.2363C424.161 27.8316 425.514 30.5316 427.398 32.6406C426.924 32.8338 426.413 33.045 426.014 33.2227C425.314 33.5339 424.229 34.0432 423.504 34.7959C421.429 36.9498 420.224 39.1997 419.9 41.5254C419.575 43.8597 420.18 45.972 421.181 47.7666C422.829 50.721 425.714 53.0885 428.068 54.7705C427.66 55.1398 427.1 55.5865 426.387 56.0996C425.175 56.971 423.969 57.7384 422.743 58.582C422.173 58.9743 421.606 59.3802 421.133 59.7695C420.786 60.0547 420.265 60.5064 419.885 61.0771L419.73 61.3291C418.172 64.1536 417.922 68.2056 418.514 71.749C419.101 75.2618 420.669 79.1705 423.697 81.2256C424.27 81.6144 424.927 81.7859 425.332 81.876C425.811 81.9826 426.348 82.0577 426.89 82.1143C427.977 82.2278 429.297 82.2878 430.645 82.3252C432.893 82.3876 435.158 82.3916 437.047 82.4434C436.982 82.7588 436.904 83.0915 436.816 83.4795C436.76 83.7323 436.69 84.0566 436.649 84.3652C436.629 84.5217 436.608 84.7333 436.611 84.9678C436.614 85.1722 436.637 85.5794 436.818 86.0312C437.774 88.4107 439.266 90.3758 441.523 90.8848C440.992 94.9066 440.289 98.7812 439.408 102.508C437.261 111.916 433.965 119.999 429.518 126.756C425.147 133.513 419.588 138.773 412.841 142.536C406.17 146.299 398.31 148.182 389.263 148.182C386.119 148.182 382.937 147.839 379.717 147.155C376.497 146.471 373.353 145.316 370.286 143.691C367.219 142.066 364.305 139.884 361.545 137.147C358.862 134.325 356.485 130.818 354.415 126.628H353.954V184C348.647 182.395 343.447 179.982 339.973 176.363C338.331 174.653 337.357 172.47 336.684 170.07C336.005 167.651 335.653 165.098 335.204 162.606C334.763 160.159 334.227 157.765 333.156 155.873C332.058 153.934 330.414 152.55 327.854 152.092C326.041 151.767 324.11 152.156 322.271 152.874C321.981 152.987 321.693 153.111 321.406 153.24V79.1641C322.714 78.2832 323.765 77.3447 324.593 76.3154C325.974 74.5975 326.6 72.7966 326.905 70.9902C327.19 69.3044 327.213 67.4232 327.3 65.7715C327.392 64.0301 327.556 62.2193 328.073 60.2041C328.067 60.2266 328.101 60.0875 328.392 59.7676C328.677 59.454 329.069 59.1153 329.591 58.6953C330.055 58.3216 330.699 57.8242 331.224 57.3496C331.733 56.889 332.417 56.2041 332.83 55.3125C333.898 53.0035 334.444 50.9159 334.153 49.043C333.832 46.9688 332.578 45.6562 331.209 44.8213C329.972 44.0671 328.44 43.5866 327.257 43.1953C327.215 43.1815 327.174 43.167 327.133 43.1533C327.512 42.882 327.915 42.5971 328.334 42.3047C329.551 41.4555 330.91 40.5277 331.966 39.7744C332.499 39.3942 332.997 39.0281 333.399 38.708C333.6 38.5484 333.801 38.3808 333.98 38.2148C334.129 38.0778 334.388 37.8294 334.603 37.5127C336.73 34.3772 335.579 31.1228 334.18 28.9404C332.769 26.7395 330.679 24.8763 329.38 23.7764C328.631 23.1419 328.297 22.2385 328.646 20.5225C329.013 18.7128 330.073 16.5107 331.516 14.085C332.965 11.6473 334.554 9.37236 335.981 7.13672C336.649 6.09067 337.277 5.0571 337.762 4.10547H352.459V24.1191H352.92C355.143 19.9285 357.482 16.3362 359.936 13.3428C362.389 10.264 365.111 7.74053 368.101 5.77344C371.091 3.80633 374.389 2.35197 377.992 1.41113C381.672 0.470384 385.813 4.57895e-05 390.413 0ZM215.219 0C226.336 1.31479e-05 235.691 2.05289 243.281 6.1582C250.872 10.1781 256.968 15.9086 261.568 23.3496C261.799 23.7161 262.024 24.0879 262.248 24.4619V24.4648C261.962 24.8921 261.556 25.5114 261.076 26.2861C260.117 27.8356 258.856 30.0114 257.656 32.5098C256.458 35.0055 255.312 37.8413 254.589 40.7109C253.867 43.5748 253.554 46.5233 254.072 49.2188C254.759 52.7942 256.831 54.9065 258.67 56.8623C260.534 58.8448 262.175 60.6765 262.57 63.7656C263.076 67.7213 260.839 70.4153 258.34 73.4111C255.928 76.3023 253.247 79.5029 254.069 84.2373C254.133 84.6042 254.218 84.9636 254.317 85.3164H188.651C188.651 86.5993 188.766 88.31 188.996 90.4482C189.226 92.5864 189.686 94.8958 190.376 97.376C191.066 99.8562 192.063 102.38 193.366 104.945C194.67 107.426 196.395 109.692 198.542 111.745C200.765 113.798 203.449 115.466 206.593 116.749C209.813 118.032 213.647 118.674 218.094 118.674C220.394 118.674 222.656 118.332 224.88 117.647C227.18 116.878 229.288 115.808 231.205 114.439C233.122 112.985 234.77 111.275 236.15 109.308C237.607 107.255 238.642 104.946 239.256 102.38H272.954C272.954 104.946 272.456 107.897 271.459 111.232C270.462 114.482 268.929 117.818 266.858 121.239C264.865 124.575 262.335 127.868 259.269 131.118C256.202 134.368 252.559 137.276 248.342 139.842C244.125 142.322 239.333 144.333 233.966 145.872C228.675 147.412 222.771 148.182 216.254 148.182C210.624 148.182 205.237 147.559 200.094 146.316C200.694 145.34 201.215 144.296 201.616 143.21C202.631 140.462 202.972 137.204 201.604 134.16C201.147 133.142 200.45 132.299 199.855 131.648C199.55 131.314 199.231 130.989 198.946 130.698C198.651 130.397 198.39 130.129 198.146 129.862C197.079 128.698 197.029 128.254 197.09 127.95C198.359 121.666 195.177 115.861 190.609 112.426C187.319 109.952 183.048 108.511 178.771 109.03C179.288 106.862 179.682 104.39 179.686 101.998C179.689 99.7666 179.357 97.3717 178.271 95.334C177.128 93.1873 175.205 91.5625 172.413 90.9844C171.357 90.7657 170.145 90.967 169.338 91.123C168.454 91.2939 167.417 91.555 166.651 91.7314C166.444 85.4259 163.282 79.0491 157.674 75.458C157.124 75.1061 156.497 74.8536 155.886 74.6641C155.877 73.9443 155.873 73.2188 155.873 72.4873C155.873 62.9935 156.984 53.8842 159.208 45.1602C161.508 36.3506 165.035 28.6098 169.789 21.9385C169.822 21.8928 169.855 21.8473 169.889 21.8018C170.629 22.0112 171.398 22.2242 172.189 22.4336C176.602 23.6004 180.543 21.7368 182.674 20.6494C183.614 20.1691 184.153 19.3611 184.448 18.832C184.767 18.2606 185.015 17.6197 185.212 17.0713C185.603 15.9837 185.864 15.1071 186.224 14.3057C186.267 14.3097 186.318 14.3143 186.375 14.3223C186.735 14.3731 187.031 14.4557 187.529 14.5674C187.725 14.6112 188.039 14.6785 188.358 14.7061C188.523 14.7202 188.774 14.7325 189.062 14.6963C189.338 14.6616 189.821 14.5621 190.305 14.2246C191.306 13.5259 191.837 12.4696 192.139 11.7178C192.465 10.903 192.691 10.0012 192.864 9.20801C193.017 8.50851 193.209 7.48543 193.32 6.95605V6.95508C193.78 7.11564 194.299 7.32467 194.878 7.56543C195.503 7.82557 196.227 8.13328 196.882 8.37012C197.142 8.46455 198.501 9.04588 199.865 8.32031C200.501 7.98204 200.894 7.4899 201.126 7.14062C201.359 6.78945 201.549 6.39921 201.707 6.04785C202.508 4.26764 203.119 2.49694 203.551 0.927734C207.21 0.309558 211.1 1.29853e-05 215.219 0ZM1347.27 0C1358.47 7.3919e-05 1367.52 1.2828 1374.42 3.84863C1377.95 5.10526 1381.08 6.57233 1383.81 8.24609C1383.87 11.4185 1383.73 14.8121 1383.14 17.5068C1382.72 19.4001 1381.55 21.2464 1380.05 23.0537C1378.54 24.8618 1376.79 26.5318 1375.24 28.1465C1374.47 28.9438 1373.75 29.7281 1373.16 30.4883C1372.58 31.2432 1372.09 32.0141 1371.82 32.792C1371.54 33.5872 1371.48 34.4265 1371.79 35.2461C1372.1 36.0444 1372.73 36.713 1373.63 37.29C1375.54 38.5179 1377.33 38.067 1378.92 37.6172C1380.55 37.1544 1381.97 36.7027 1383.55 37.3438C1385.5 38.1379 1386.42 39.5075 1386.83 41.2637C1387.27 43.0932 1387.16 45.346 1386.95 47.8643C1386.76 50.332 1386.48 53.0373 1386.65 55.5859C1386.83 58.1558 1387.47 60.6557 1389.18 62.7012C1391.94 65.9984 1396.61 68.2237 1400.52 69.626V116.364C1400.52 120.555 1400.72 124.019 1401.1 126.756C1401.56 129.407 1402.13 131.546 1402.82 133.171C1403.51 134.71 1404.28 135.865 1405.12 136.635C1406.04 137.319 1407 137.832 1408 138.174V143.947H1372C1371.39 142.322 1370.7 140.184 1369.93 137.533C1369.24 134.796 1368.9 131.503 1368.9 127.654C1366.37 130.562 1363.87 133.256 1361.42 135.736C1359.04 138.217 1356.36 140.398 1353.37 142.279C1350.38 144.075 1346.93 145.487 1343.02 146.514C1339.11 147.626 1334.39 148.182 1328.87 148.182C1328.05 148.182 1327.23 148.158 1326.43 148.117C1326.76 146.401 1326.89 144.272 1326.38 141.921C1326.01 140.191 1325.11 138.723 1323.9 137.237C1322.72 135.777 1321.06 134.099 1318.98 132.005C1317.18 130.19 1316.44 128.944 1316.24 127.346C1316.09 126.217 1315.9 125.286 1315.73 124.486C1315.54 123.648 1315.4 123.088 1315.3 122.493C1315.12 121.484 1315.08 120.539 1315.48 118.961C1316.27 115.844 1316.97 113.096 1317.46 110.971C1317.7 109.909 1317.9 108.973 1318.04 108.206C1318.16 107.513 1318.28 106.734 1318.24 106.107C1318.19 105.105 1317.98 103.077 1316.18 101.914C1315.43 101.426 1314.51 100.898 1313.65 100.397C1312.76 99.8778 1311.9 99.3612 1311.12 98.835C1310.33 98.3004 1309.73 97.8193 1309.33 97.3984C1309.05 97.0982 1308.97 96.9325 1308.96 96.8955C1308.86 95.9977 1308.8 94.8295 1308.73 93.4512C1308.66 92.0877 1308.58 90.5571 1308.44 89.0781C1308.3 87.6105 1308.1 86.0962 1307.75 84.7725C1307.43 83.547 1306.88 82.0362 1305.76 81.0156C1304.02 79.4349 1301.71 77.5564 1299.79 76.0527C1299.74 76.0151 1299.69 75.9786 1299.64 75.9414C1302.59 72.2994 1306.12 69.3086 1310.24 66.9707C1314.53 64.4905 1319.33 62.8221 1324.62 61.9668L1356.47 56.707C1357.62 56.536 1358.85 56.2786 1360.16 55.9365C1361.54 55.5944 1362.8 55.0382 1363.95 54.2686C1365.1 53.4133 1366.06 52.3019 1366.83 50.9336C1367.59 49.4796 1367.98 47.5548 1367.98 45.1602C1367.98 42.851 1367.63 40.7556 1366.94 38.874C1366.33 36.907 1365.25 35.2385 1363.72 33.8701C1362.19 32.4162 1360.12 31.3039 1357.51 30.5342C1354.98 29.7645 1351.8 29.3799 1347.96 29.3799C1343.59 29.3799 1340.07 29.8927 1337.38 30.9189C1334.78 31.8597 1332.71 33.2284 1331.17 35.0244C1329.64 36.7349 1328.53 38.7879 1327.84 41.1826C1327.15 43.4919 1326.65 45.9726 1326.34 48.624H1293.79C1293.79 46.9134 1294.02 44.5609 1294.48 41.5674C1295.02 38.4884 1295.94 35.1527 1297.24 31.5605C1298.62 27.9684 1300.5 24.3329 1302.88 20.6553C1305.33 16.9777 1308.52 13.6418 1312.43 10.6484C1316.41 7.56955 1321.24 5.0462 1326.92 3.0791C1332.59 1.11203 1339.38 0.0855276 1347.27 0ZM32.5479 47.4697C32.5479 51.4893 32.9702 54.7819 33.8135 57.3477C34.7336 59.9135 36.1139 61.9663 37.9541 63.5059C39.7943 65.0454 42.0942 66.1152 44.8545 66.7139C47.6148 67.3126 50.8738 67.6113 54.6309 67.6113C60.2278 67.6113 64.6748 67.0561 67.9717 65.9443C71.2687 64.7469 73.8375 63.4208 75.6777 61.9668V4.10547H90.3857C90.5615 4.74278 90.8013 5.34001 91.0557 5.87305C92.2503 8.37605 94.4016 10.8022 96.1055 12.3154C96.0168 13.017 95.8841 13.8991 95.7383 14.9355C95.5896 15.9927 95.437 17.1671 95.3594 18.2256C95.2898 19.1743 95.2433 20.4055 95.5049 21.377C96.2383 24.1008 98.5508 25.3664 99.916 26.0859C100.718 26.5088 101.258 26.7654 101.771 27.0879C101.503 27.2233 101.169 27.397 100.843 27.5977C100.31 27.9252 99.3157 28.6063 98.8613 29.8281L98.7783 30.0801C96.9961 36.1872 101.26 41.6245 105.424 43.9385C106.286 44.4176 107.237 44.8166 108.226 45.0742V143.947H75.6777V88.7803C75.187 89.0236 74.6324 89.2655 74.0156 89.5088L73.9717 88.7246C73.7448 85.0804 73.2308 80.9251 70.0352 77.9502C67.6979 75.7745 64.3436 75.8828 61.6318 76.4072C58.7592 76.9628 55.6155 78.1825 52.8145 79.4004C51.3981 80.0162 50.0271 80.6505 48.79 81.2227C47.5376 81.8019 46.4432 82.3074 45.5215 82.6963C45.4112 82.7428 45.3045 82.7841 45.2041 82.8252C44.7509 81.0184 44.0821 79.0283 43.4033 77.3066C42.8992 76.028 42.3575 74.814 41.8438 73.8564C41.5896 73.3827 41.3133 72.9178 41.0244 72.5234C40.8799 72.3261 40.7035 72.1063 40.4961 71.9004C40.3478 71.7533 40.1088 71.5394 39.7842 71.3535C34.7298 68.0833 30.6282 67.7453 27.7812 68.0273C28.1644 65.5374 28.4242 62.3667 28.1729 59.4111C27.9917 57.2814 27.5265 55.0113 26.4502 53.1709C25.3053 51.2132 23.4286 49.7128 20.7324 49.5459C19.4925 49.4692 18.2887 49.7682 17.3379 50.0713C16.4107 50.3669 15.3728 50.7912 14.6973 51.042C14.3012 51.189 14.0003 51.2872 13.7744 51.3516C12.607 49.3457 11.0798 47.1444 9.35059 45.1709C7.44555 42.9967 5.13909 40.9155 2.65137 39.7852C1.80834 39.4021 0.915005 39.12 0 38.9863V4.10547H32.5479V47.4697ZM558.019 4.10547C563.769 4.10551 569.29 4.66159 574.58 5.77344C579.947 6.88535 584.663 8.85241 588.727 11.6748C592.79 14.4118 596.011 18.1753 598.388 22.9648C600.841 27.669 602.067 33.6569 602.067 40.9268C602.067 45.1173 601.646 48.7522 600.803 51.8311C600.036 54.91 598.962 57.5624 597.582 59.7861C596.202 61.9241 594.592 63.7633 592.752 65.3027C590.989 66.7566 589.148 67.9971 587.231 69.0234C593.518 71.5038 598.311 75.4806 601.607 80.9541C603.554 84.1355 604.925 87.6904 605.723 91.6172C605.087 91.2637 604.433 90.9872 603.755 90.8271C602.241 90.4703 600.658 90.688 598.974 91.7129C597.111 92.8458 596.261 94.4135 596.073 96.2568C595.894 98.0224 596.33 99.989 596.872 101.952C597.429 103.969 598.101 105.993 598.528 108.079C598.951 110.145 599.105 112.159 598.654 114.063C597.553 118.721 594.693 121.524 591.883 124.549C589.101 127.543 586.39 130.749 586.202 136.117C586.175 136.904 586.216 137.688 586.313 138.468C584.718 139.356 583.032 140.159 581.251 140.868C575.961 142.921 570.018 143.947 563.424 143.947H493.151V54.1162C493.174 54.1322 493.197 54.148 493.22 54.1641C493.997 54.7125 494.772 55.3017 495.603 55.9277C496.419 56.5426 497.282 57.1879 498.171 57.7939C501.727 60.2193 506.251 62.3905 511.81 60.0264C514.388 58.9296 516.18 57.361 517.113 55.2891C518.021 53.2737 517.937 51.1695 517.587 49.3477C517.241 47.5445 516.567 45.7108 516.021 44.1787C515.737 43.38 515.489 42.6635 515.292 42.0137C515.375 42.0152 515.46 42.0158 515.547 42.0176C515.867 42.024 516.225 42.0315 516.569 42.0293C516.911 42.0271 517.294 42.0147 517.668 41.9736C518.017 41.9353 518.509 41.857 518.999 41.6514C521.559 40.5772 523.327 38.8801 524.244 36.7188C525.136 34.6166 525.103 32.3583 524.639 30.3086C524.166 28.223 523.203 26.1594 522.006 24.3291C523.624 24.7007 525.411 25.106 527.106 25.4092C529.218 25.7867 531.53 26.0801 533.318 25.832C540.232 24.8727 544.623 19.7613 548.188 15.0068C550.066 12.5036 551.669 10.1556 553.485 7.95703C554.726 6.45603 555.969 5.15252 557.283 4.10547H558.019ZM771.742 68.2344C769.028 69.5535 767.376 71.0735 766.008 72.5107C764.357 74.244 763.51 75.3352 761.703 76.1348L761.328 76.291C760.586 76.5821 760 77.0804 759.582 77.5068C759.138 77.9602 758.733 78.4899 758.375 79.0352C757.66 80.1244 757.021 81.4492 756.572 82.7744C756.136 84.063 755.808 85.5682 755.911 86.9639C755.986 87.979 756.347 89.2765 757.347 90.1904C757.252 90.4104 757.132 90.6784 756.972 90.9971C756.547 91.8444 755.982 92.8389 755.326 93.9805C754.683 95.0998 753.964 96.344 753.284 97.6094C751.964 100.067 750.597 102.952 750.251 105.592C750.073 106.949 750.134 108.451 750.794 109.85C751.483 111.309 752.691 112.374 754.273 113.03C757.596 114.407 760.606 112.894 762.645 111.515C763.701 110.8 764.718 109.966 765.563 109.289C766.095 108.864 766.554 108.506 766.963 108.214C767.245 108.566 767.585 109.069 767.972 109.724C768.517 110.647 769.003 111.595 769.513 112.53C769.753 112.971 770.005 113.421 770.251 113.807C770.454 114.126 770.81 114.661 771.292 115.061C771.439 115.182 771.59 115.292 771.742 115.394V143.947H739.078V92.501H717.802C713.125 92.501 709.099 92.715 705.726 93.1426C702.429 93.4847 699.706 94.383 697.56 95.8369C695.413 97.2054 693.764 99.2582 692.614 101.995C692.079 103.361 691.656 104.971 691.35 106.827C690.733 106.927 690.152 107.078 689.641 107.246C688.073 107.76 686.29 108.709 685.207 110.052L685 110.326C684.766 110.657 684.558 111.082 684.419 111.373C684.255 111.717 684.069 112.131 683.881 112.552C683.492 113.42 683.063 114.381 682.619 115.254C682.568 115.354 682.515 115.448 682.467 115.54C682.42 115.484 682.376 115.426 682.329 115.371C682.001 114.987 681.57 114.522 681.061 114.14C680.571 113.772 679.753 113.288 678.692 113.288C675.904 113.288 673.63 114.072 671.923 115.623C670.262 117.132 669.405 119.129 668.939 121.06C668.475 122.987 668.353 125.058 668.315 126.929C668.29 128.21 668.299 129.283 668.295 130.291C666.109 129.14 663.441 128.055 660.792 127.567C659.822 127.389 658.803 127.282 657.776 127.298C657.95 125.89 658.102 124.427 658.226 122.907L659.836 106.101C660.219 102.337 660.679 99.0866 661.216 96.3496C661.753 93.6128 662.635 91.2177 663.861 89.165C665.088 87.1981 666.775 85.4871 668.922 84.0332C671.069 82.5794 673.945 81.2539 677.548 80.0566C676.398 79.7145 675.093 79.2442 673.637 78.6455C672.257 77.9613 670.761 77.1054 669.151 76.0791C667.618 74.9673 666.046 73.5986 664.436 71.9736C662.902 70.2631 661.445 68.1677 660.065 65.6875C659.069 64.0625 658.264 62.3517 657.65 60.5557C657.114 58.674 656.692 56.8776 656.386 55.167C656.079 53.3709 655.887 51.7026 655.811 50.1631C655.734 48.6238 655.695 47.2983 655.695 46.1865C655.695 41.2258 656.232 36.8205 657.306 32.9717C658.379 29.0375 659.759 25.6159 661.445 22.708C663.132 19.8001 665.05 17.3202 667.196 15.2676C669.343 13.2149 671.528 11.5466 673.752 10.2637C676.205 8.72418 678.928 7.56956 681.918 6.7998C684.908 5.94456 687.822 5.34601 690.659 5.00391C693.496 4.57631 696.141 4.31892 698.595 4.2334C701.048 4.14789 702.965 4.10548 704.345 4.10547H771.742V68.2344ZM1201.18 62.2236L1244.77 128.275C1244.03 128.112 1243.23 127.933 1242.39 127.739C1238.29 126.795 1233.24 125.524 1229.39 124.206C1227.93 123.706 1226.4 122.666 1224.85 121.436C1224.08 120.824 1223.32 120.176 1222.56 119.536C1221.81 118.899 1221.07 118.267 1220.35 117.705C1218.95 116.605 1217.53 115.663 1216.24 115.506C1215.56 115.424 1214.9 115.554 1214.3 115.998C1213.72 116.433 1213.26 117.125 1212.9 118.045C1211.91 120.59 1212.79 122.607 1213.78 124.417C1214.81 126.282 1215.93 127.921 1216.12 130.085C1216.26 131.657 1215.92 133.159 1215.35 134.646C1214.77 136.153 1214 137.562 1213.28 139.023C1212.69 140.207 1212.15 141.429 1211.88 142.667L1175.87 84.9316L1162.76 99.6855V143.947H1130.21V17.5879C1130.79 17.8162 1131.44 18.089 1132.18 18.416C1134.19 19.3067 1135.14 20.3429 1135.7 20.9141C1135.83 21.053 1136.25 21.4823 1136.69 24.7754C1137.52 31.0151 1137.99 34.8438 1138.37 37.2881C1138.73 39.7051 1139.05 41.1492 1139.73 42.4502C1141.08 45.0325 1144.05 46.7697 1147.13 48.0879C1147.98 48.4554 1148.79 48.7488 1149.49 48.998C1150.21 49.2575 1150.77 49.4485 1151.25 49.6465C1151.88 49.9005 1152.11 50.0637 1152.18 50.1152C1152.79 51.5406 1153.29 52.8006 1153.73 53.9248C1154.18 55.0521 1154.58 56.0923 1154.95 56.9824C1155.67 58.699 1156.49 60.3698 1157.89 61.543C1158.96 62.4367 1160.11 62.4737 1160.75 62.4473C1161.64 62.4097 1162.54 62.0911 1163.29 61.5537C1164.43 60.7259 1165.29 59.4819 1165.94 58.2783C1166.61 57.0307 1167.19 55.5888 1167.68 54.1318C1168.08 52.9301 1168.43 51.6763 1168.74 50.4502L1178.95 38.8975C1179.42 38.8449 1179.89 38.7867 1180.32 38.708C1180.82 38.6155 1181.46 38.4684 1182.04 38.1836C1183.93 37.252 1185.68 35.5958 1186.95 34.5176C1188.43 33.2551 1189.42 32.5943 1190.29 32.4346C1192.84 31.9653 1195.16 31.8563 1197.05 31.7998C1197.96 31.7726 1198.87 31.7561 1199.58 31.709C1199.95 31.6849 1200.33 31.6491 1200.69 31.5869C1201.03 31.5295 1201.5 31.4244 1201.97 31.1885C1203.76 30.2826 1205.04 28.79 1206.06 27.1113C1207.07 25.4453 1207.94 23.4059 1208.8 21.1855C1209.97 18.1716 1210.15 15.5555 1210.3 13.5889L1210.3 13.4834C1210.55 10.1376 1211.01 6.84435 1211.55 4.10547H1252.93L1201.18 62.2236ZM1022.19 0C1033.3 0 1042.66 2.05282 1050.25 6.1582C1057.84 10.1781 1063.94 15.9086 1068.54 23.3496C1073.21 30.7907 1076.55 39.7718 1078.54 50.292C1080.54 60.8121 1081.53 72.487 1081.53 85.3164H995.618C995.618 86.5993 995.733 88.3101 995.963 90.4482C996.193 92.5864 996.654 94.8957 997.344 97.376C998.034 99.8562 999.031 102.38 1000.33 104.945C1001.64 107.426 1003.36 109.692 1005.51 111.745C1007.73 113.798 1010.42 115.466 1013.56 116.749C1016.78 118.032 1020.61 118.674 1025.06 118.674C1027.12 118.674 1029.15 118.397 1031.14 117.85C1031.03 119.051 1031.19 120.284 1031.67 121.535C1031.01 121.569 1030.43 121.62 1029.92 121.698C1028.8 121.872 1027.66 122.236 1026.77 123.185L1026.6 123.383C1025.98 124.129 1025.37 124.992 1024.49 127.349C1023.77 129.291 1022.84 132.155 1022.06 134.082C1020.85 137.114 1020.2 138.859 1018.59 139.937C1017.65 140.562 1016.96 140.929 1016.49 141.112C1016.37 140.998 1016.23 140.852 1016.05 140.661C1015.26 139.832 1013.94 138.43 1011.56 136.062C1010.04 134.562 1008.73 133.62 1005.63 131.861C1002.44 130.055 997.993 127.705 995.658 125.729C994.607 124.84 994.109 124.111 993.83 123.556C993.529 122.955 993.43 122.477 993.221 121.694L993.197 121.607L992.967 120.751C992.403 118.704 991.613 116.337 989.577 113.93C988.404 112.542 986.443 110.351 983.29 108.211C980.43 106.27 977.579 104.453 975.326 103.709C975.097 103.633 974.879 103.575 974.688 103.528C974.679 103.444 974.667 103.352 974.657 103.253C974.594 102.621 974.516 101.791 974.39 100.899C974.148 99.1996 973.791 97.1246 973.055 95.1006C972.415 93.3429 971.851 91.8577 971.356 90.709C970.911 89.6758 970.38 88.5583 969.726 87.8457C968.507 86.5192 966.604 84.4369 963.942 83.4375C963.687 83.3415 963.435 83.2553 963.188 83.1777C962.957 79.7655 962.84 76.2021 962.84 72.4873C962.84 62.9935 963.952 53.8842 966.176 45.1602C968.476 36.3506 972.003 28.6098 976.757 21.9385C981.587 15.2674 987.721 9.96459 995.158 6.03027C1002.67 2.01043 1011.68 8.50685e-05 1022.19 0ZM525.7 97.1436C525.696 97.1442 525.692 97.1449 525.688 97.1455C525.037 97.2461 524.347 97.3795 523.704 97.5566C523.1 97.7232 522.365 97.9735 521.736 98.375C520.154 99.3849 519.122 100.395 518.387 101.424C517.712 102.368 517.286 103.38 517.082 103.784C516.497 104.944 516.546 106.122 516.651 106.879C516.827 108.139 517.684 108.894 518.152 109.243C518.674 109.631 519.284 109.931 519.795 110.162C520.149 110.322 520.54 110.484 520.922 110.641C520.596 110.964 520.271 111.288 519.945 111.613C519.138 112.421 518.274 113.307 517.679 114.124C516.568 115.649 516.643 117.267 516.729 118.275C516.866 119.874 517.549 121.234 518.171 122.206C518.778 123.154 519.465 123.934 519.769 124.292C519.781 124.315 519.824 124.396 519.885 124.563C519.98 124.826 520.074 125.17 520.174 125.604C520.277 126.053 520.358 126.466 520.467 126.97C520.564 127.424 520.685 127.952 520.839 128.428C521.096 129.221 521.65 129.899 522.452 130.279C523.149 130.61 523.827 130.618 524.259 130.585C525.088 130.521 525.952 130.212 526.541 129.991C527.308 129.704 527.776 129.499 528.448 129.261C528.9 129.101 529.244 129.003 529.497 128.953C529.548 129.015 529.714 129.223 530.011 129.73C530.183 130.026 530.356 130.342 530.564 130.719C530.765 131.08 530.991 131.486 531.236 131.887C531.322 132.027 531.551 132.388 531.961 132.698C532.466 133.081 533.338 133.431 534.342 133.107C535.136 132.851 535.567 132.299 535.721 132.085C535.91 131.821 536.037 131.556 536.117 131.37C536.412 130.689 536.715 129.556 537.093 127.981C537.679 125.539 538.574 121.605 539.396 118.16H550.772C555.449 118.16 559.207 117.604 562.044 116.492C564.957 115.38 567.181 113.969 568.715 112.259C570.325 110.548 571.359 108.666 571.819 106.613C572.356 104.561 572.625 102.636 572.625 100.84C572.625 97.419 572.203 94.5967 571.359 92.373C570.593 90.064 569.328 88.2249 567.564 86.8564C565.878 85.488 563.654 84.5464 560.894 84.0332C558.057 83.5201 554.683 83.2637 550.772 83.2637H525.7V97.1436ZM858.744 4.10547C858.535 5.34564 858.432 6.54397 858.469 7.66504C858.632 12.6822 860.124 15.651 862.467 17.4922C864.741 19.2796 867.745 19.9304 870.719 20.5684C874.253 21.326 877.47 19.1907 880.448 17.166C883.531 15.0698 886.395 13.0657 889.513 13.3086C891.668 13.4768 893.091 14.8752 894.687 16.3125C896.242 17.7134 897.982 19.156 900.576 18.5713C904.099 17.7771 906.47 14.9741 907.674 11.5098C908.464 9.23524 908.76 6.65399 908.559 4.10547H926.119V33.6133H888.166V123.487C886.717 122.84 885.376 122.239 884.296 121.742C884.197 121.697 884.101 121.651 884.007 121.607C884.645 120.223 885.277 118.575 885.728 116.944C886.114 115.546 886.408 114.024 886.417 112.606C886.425 111.268 886.182 109.527 884.96 108.229C882.651 105.779 879.655 105.143 877.222 104.811C876.604 104.726 875.981 104.657 875.404 104.592C874.815 104.525 874.265 104.461 873.733 104.383C872.827 104.249 872.055 104.083 871.386 103.845C871.387 103.833 871.388 103.82 871.39 103.808C871.484 103.031 871.888 101.921 872.514 100.386C873.074 99.0103 873.814 97.2891 874.206 95.7354C874.551 94.367 874.889 92.1841 873.573 90.4238L873.441 90.2549L873.314 90.1104C873.011 89.7835 872.661 89.5321 872.458 89.3896C872.165 89.1841 871.82 88.964 871.469 88.7471C870.708 88.2764 869.932 87.8213 868.979 87.2207C867.316 86.1721 865.644 85.0007 864.459 83.7939C864.458 83.7476 864.456 83.697 864.455 83.6416C864.447 83.16 864.459 81.9933 864.434 81.0254C864.377 78.8682 864.137 75.9314 863 73.0391C862.297 71.2501 861.382 68.7066 858.684 66.8389C857.928 66.3162 856.928 65.8653 855.732 65.4805V33.6133H817.778V4.10547H858.744ZM1367.98 75.6943C1365.98 76.8916 1363.99 78.004 1362 79.0303C1360 79.971 1357.36 80.7836 1354.06 81.4678L1345.43 83.2637C1341.68 84.0334 1338.38 84.9317 1335.54 85.958C1332.71 86.9843 1330.33 88.353 1328.41 90.0635C1326.57 91.6885 1325.15 93.699 1324.16 96.0938C1323.24 98.4885 1322.78 101.482 1322.78 105.074C1322.78 108.068 1323.2 110.677 1324.04 112.9C1324.89 115.038 1326.04 116.834 1327.49 118.288C1329.03 119.656 1330.79 120.683 1332.78 121.367C1334.78 122.051 1336.92 122.394 1339.22 122.394C1340.45 122.394 1342.02 122.265 1343.94 122.009C1345.86 121.667 1347.89 121.068 1350.03 120.213C1352.18 119.358 1354.33 118.203 1356.47 116.749C1358.62 115.21 1360.54 113.242 1362.23 110.848C1363.91 108.453 1365.29 105.544 1366.37 102.123C1367.44 98.6164 1367.98 94.5106 1367.98 89.8066V75.6943ZM380.752 32.5869C375.539 32.587 371.13 33.8275 367.526 36.3076C364 38.7879 361.124 41.9955 358.9 45.9297C356.754 49.864 355.181 54.3118 354.185 59.2725C353.188 64.2331 352.689 69.1512 352.689 74.0264C352.689 76.6778 352.804 79.5864 353.034 82.751C353.341 85.8298 353.878 88.9943 354.645 92.2441C355.411 95.4086 356.447 98.488 357.75 101.481C359.13 104.475 360.856 107.127 362.926 109.437C364.996 111.746 367.488 113.627 370.401 115.081C373.315 116.449 376.765 117.134 380.752 117.134C384.739 117.134 388.19 116.449 391.104 115.081C394.017 113.627 396.509 111.746 398.579 109.437C400.649 107.127 402.336 104.475 403.64 101.481C405.02 98.488 406.094 95.4086 406.86 92.2441C407.627 88.9943 408.125 85.8298 408.355 82.751C408.662 79.5864 408.815 76.6778 408.815 74.0264C408.815 69.1512 408.317 64.2332 407.32 59.2725C406.324 54.3118 404.713 49.8641 402.489 45.9297C400.342 41.9955 397.467 38.7879 393.863 36.3076C390.26 33.8275 385.889 32.5869 380.752 32.5869ZM1019.4 19.0166C1018.38 18.2627 1017.17 17.9772 1015.88 18.7021C1015.45 18.9467 1014.92 19.0626 1014.29 19.1035C1013.66 19.1446 1012.99 19.1076 1012.26 19.083C1010.89 19.0364 1009.26 19.0184 1008.01 20.0596C1005.38 22.2642 1004.59 25.449 1004.2 28.6836C1004.01 30.2753 1003.91 32.0024 1003.75 33.583C1003.59 35.2022 1003.37 36.7599 1002.94 38.2021C1002.84 38.5392 1002.75 38.9057 1002.67 39.2939C1001.36 41.1712 1000.19 43.3403 999.184 45.8018C997.574 49.9072 996.769 55.0393 996.769 61.1973H1028.95C1029.04 61.5017 1029.12 61.846 1029.19 62.2324C1029.55 64.1013 1029.72 66.4412 1029.89 68.8584C1030.05 71.1476 1030.21 73.6302 1030.61 75.4053C1030.8 76.2296 1031.13 77.3564 1031.86 78.2002C1032.28 78.6795 1032.91 79.1587 1033.77 79.3301C1034.62 79.5001 1035.39 79.3041 1035.98 79.0215C1037.96 78.0703 1039.34 76.9706 1040.45 76.0596C1041.61 75.1139 1042.31 74.5251 1043.19 74.1094C1043.34 74.0376 1043.54 73.969 1043.85 73.9424C1044.19 73.9139 1044.74 73.9286 1045.59 74.1123C1046.98 74.4114 1048.36 74.7699 1049.71 75.1201C1051.04 75.463 1052.37 75.8078 1053.56 76.0381C1054.7 76.2592 1055.98 76.432 1057.12 76.2861C1058.33 76.1306 1059.93 75.5063 1060.57 73.7041C1060.73 73.2566 1060.77 72.8353 1060.77 72.5127C1060.85 72.4733 1060.94 72.4319 1061.04 72.3867C1061.87 71.9931 1062.98 71.4529 1064.05 70.8018C1065.09 70.1713 1066.27 69.3263 1067.13 68.2617C1068.01 67.1624 1068.79 65.4854 1068.13 63.5439C1067.91 62.9216 1067.55 62.4038 1067.28 62.0518C1066.98 61.6698 1066.63 61.2958 1066.3 60.958C1065.97 60.6179 1065.61 60.2647 1065.28 59.9395C1064.94 59.604 1064.62 59.2882 1064.32 58.9805C1064.21 58.8582 1064.1 58.7427 1064.01 58.6377C1064.07 58.6135 1064.14 58.5909 1064.21 58.5654C1064.95 58.2745 1066.56 57.6139 1067.29 55.8867C1068 54.2197 1067.57 52.6136 1066.98 51.4531C1066.39 50.3048 1065.5 49.2847 1064.64 48.46C1062.93 46.8028 1060.83 45.4078 1060.03 44.8555H1060.03L1060.03 44.8535L1058.88 44.0576C1057.69 43.2607 1056.43 42.4882 1055.02 41.9844C1053.03 41.2681 1050.88 41.1252 1048.27 41.7158C1046.79 42.0497 1045.39 42.5614 1044.04 43.1934C1042.63 40.2954 1040.95 37.9136 1038.98 36.0508C1036.52 33.5706 1033.8 31.8597 1030.81 30.9189C1027.91 29.9221 1025.11 29.4094 1022.42 29.3809L1023.76 27.8711L1024.04 27.5566L1023.92 27.1357V27.1348L1023.91 27.126C1023.91 27.1202 1023.91 27.1109 1023.91 27.1006C1023.9 27.0793 1023.89 27.0479 1023.88 27.0088C1023.85 26.9299 1023.82 26.8156 1023.77 26.6729C1023.68 26.3861 1023.54 25.9799 1023.37 25.502C1023.02 24.5495 1022.5 23.2915 1021.84 22.1006C1021.19 20.9224 1020.37 19.7448 1019.4 19.0166ZM732.344 23.2832C730.445 22.3327 728.415 21.6601 725.764 22.8564C724.342 23.4982 723.378 24.5729 722.507 25.5391C721.618 26.5253 720.822 27.4028 719.675 27.9453C717.428 29.0079 715.672 27.6186 713.55 26.0156C712.542 25.2542 711.439 24.4465 710.244 24.1064C708.996 23.7515 707.678 23.9118 706.277 24.9678C704.582 26.2463 702.982 28.8236 701.835 30.9717C701.612 31.3897 701.404 31.7978 701.213 32.1826C699.753 32.5318 698.382 33.0518 697.1 33.7422C694.953 34.854 693.189 36.6496 691.809 39.1299C690.505 41.5247 689.854 44.9461 689.854 49.3936C689.854 53.7554 690.544 57.0911 691.924 59.4004C693.227 61.7096 694.914 63.4203 696.984 64.5322C699.131 65.6441 701.508 66.286 704.115 66.457C706.722 66.6281 709.329 66.7139 711.936 66.7139H739.078V50.6465L742.799 52.0479L743.197 52.1973L743.484 51.8574L743.486 51.8555L743.488 51.8516C743.49 51.849 743.495 51.8464 743.499 51.8418C743.508 51.8314 743.52 51.814 743.537 51.7939C743.571 51.7537 743.619 51.6941 743.683 51.6172C743.81 51.4623 743.996 51.2345 744.228 50.9443C744.691 50.3637 745.344 49.5289 746.1 48.5117C747.611 46.4788 749.545 43.7028 751.225 40.7539C752.896 37.8197 754.353 34.647 754.851 31.8301C755.1 30.4163 755.118 29.041 754.761 27.8135C754.397 26.566 753.662 25.5208 752.498 24.7734C749.893 23.1005 747.523 23.5076 745.239 24.1904C742.924 24.8829 740.764 25.8147 738.208 25.5908C735.934 25.3914 734.258 24.2416 732.344 23.2832ZM215.219 29.3799C212.535 29.3799 209.698 29.8927 206.708 30.9189C203.718 31.8598 200.996 33.5281 198.542 35.9229C196.012 38.4032 193.904 41.6964 192.217 45.8018C190.607 49.9072 189.801 55.0392 189.801 61.1973H240.751C240.751 55.0391 239.908 49.9072 238.221 45.8018C236.611 41.6964 234.541 38.4456 232.011 36.0508C229.557 33.5705 226.835 31.8598 223.845 30.9189C220.855 29.8926 217.979 29.3799 215.219 29.3799ZM525.7 59.0156H550.772C554.453 59.0156 557.52 58.7168 559.974 58.1182C562.427 57.4339 564.382 56.4498 565.839 55.167C567.219 53.9696 568.178 52.4728 568.715 50.6768C569.328 48.7952 569.635 46.614 569.635 44.1338C569.635 42.0811 569.328 40.1988 568.715 38.4883C568.178 36.6924 567.219 35.1954 565.839 33.998C564.459 32.7153 562.618 31.732 560.318 31.0479C558.018 30.2781 555.142 29.8926 551.692 29.8926H525.7V59.0156Z" fill="white"/>
</svg>
