<svg width="1408" height="186" viewBox="0 0 1408 186" fill="none" xmlns="http://www.w3.org/2000/svg">
<path d="M390.413 0C394.247 0 398.196 0.518231 402.259 1.5544C406.323 2.59062 410.272 4.27478 414.106 6.60622C418.016 8.85137 421.697 11.831 425.147 15.544C428.597 19.1709 431.626 23.6617 434.233 29.0155C436.84 34.3695 438.91 40.6306 440.443 47.7979C441.977 54.879 442.744 62.9967 442.744 72.1503C442.744 83.5491 441.632 93.9983 439.408 103.497C437.261 112.997 433.964 121.157 429.517 127.979C425.147 134.801 419.588 140.112 412.841 143.912C406.17 147.711 398.311 149.611 389.263 149.611C386.12 149.611 382.937 149.266 379.717 148.575C376.497 147.884 373.353 146.718 370.286 145.078C367.219 143.437 364.305 141.235 361.545 138.471C358.862 135.622 356.485 132.081 354.415 127.85H353.955V185L321.406 185.5V4.14508H352.459V24.3523H352.919C355.143 20.1209 357.482 16.4939 359.935 13.4715C362.389 10.3628 365.111 7.81518 368.101 5.82902C371.091 3.84291 374.388 2.37479 377.992 1.42487C381.672 0.474993 385.813 3.57306e-05 390.413 0ZM215.219 0C226.336 0 235.691 2.07266 243.281 6.21762C250.872 10.2763 256.968 16.0624 261.568 23.5751C266.245 31.088 269.581 40.1556 271.574 50.7772C273.568 61.3989 274.565 73.1867 274.565 86.1399H188.651C188.651 87.4352 188.766 89.1625 188.996 91.3212C189.226 93.48 189.686 95.8119 190.376 98.3161C191.066 100.82 192.063 103.368 193.366 105.959C194.67 108.463 196.395 110.751 198.542 112.824C200.765 114.896 203.449 116.58 206.593 117.876C209.813 119.171 213.647 119.819 218.094 119.819C220.394 119.819 222.656 119.473 224.88 118.782C227.18 118.005 229.288 116.926 231.205 115.544C233.122 114.076 234.771 112.349 236.151 110.363C237.608 108.29 238.643 105.959 239.256 103.368H272.954C272.954 105.958 272.456 108.938 271.459 112.306C270.463 115.587 268.929 118.955 266.859 122.409C264.865 125.777 262.335 129.102 259.268 132.383C256.201 135.665 252.559 138.601 248.342 141.192C244.125 143.696 239.333 145.725 233.966 147.28C228.675 148.834 222.771 149.611 216.254 149.611C207.896 149.611 200.075 148.23 192.791 145.466C185.431 142.617 178.99 138.169 173.469 132.124C168.026 125.993 163.732 118.091 160.588 108.42C157.445 98.7479 155.873 87.0033 155.873 73.1865C155.873 63.6012 156.984 54.404 159.208 45.5959C161.508 36.7013 165.035 28.8859 169.789 22.1503C174.62 15.4146 180.754 10.0604 188.191 6.08808C195.705 2.02939 204.714 3.34331e-05 215.219 0ZM1022.19 0C1033.3 0 1042.66 2.07266 1050.25 6.21762C1057.84 10.2763 1063.94 16.0624 1068.54 23.5751C1073.21 31.088 1076.55 40.1556 1078.54 50.7772C1080.54 61.3989 1081.53 73.1867 1081.53 86.1399H995.618C995.618 87.4352 995.733 89.1625 995.963 91.3212C996.193 93.48 996.653 95.8119 997.343 98.3161C998.033 100.82 999.03 103.368 1000.33 105.959C1001.64 108.463 1003.36 110.751 1005.51 112.824C1007.73 114.896 1010.42 116.58 1013.56 117.876C1016.78 119.171 1020.61 119.819 1025.06 119.819C1027.36 119.819 1029.62 119.473 1031.85 118.782C1034.15 118.005 1036.26 116.926 1038.17 115.544C1040.09 114.076 1041.74 112.349 1043.12 110.363C1044.57 108.29 1045.61 105.959 1046.22 103.368H1079.92C1079.92 105.958 1079.42 108.938 1078.43 112.306C1077.43 115.587 1075.9 118.955 1073.83 122.409C1071.83 125.777 1069.3 129.102 1066.24 132.383C1063.17 135.665 1059.53 138.601 1055.31 141.192C1051.09 143.696 1046.3 145.725 1040.93 147.28C1035.64 148.834 1029.74 149.611 1023.22 149.611C1014.86 149.611 1007.04 148.23 999.759 145.466C992.398 142.617 985.957 138.169 980.437 132.124C974.993 125.993 970.699 118.091 967.555 108.42C964.412 98.7479 962.84 87.0033 962.84 73.1865C962.84 63.6012 963.952 54.404 966.175 45.5959C968.476 36.7013 972.003 28.8859 976.756 22.1503C981.587 15.4146 987.721 10.0604 995.158 6.08808C1002.67 2.02939 1011.68 3.08613e-05 1022.19 0ZM1347.27 0C1358.47 3.69669e-05 1367.52 1.29537 1374.42 3.88601C1381.39 6.39031 1386.8 9.71509 1390.63 13.8601C1394.54 17.9187 1397.15 22.4958 1398.45 27.5907C1399.83 32.5992 1400.52 37.6081 1400.52 42.6166V117.487C1400.52 121.718 1400.72 125.216 1401.1 127.979C1401.56 130.656 1402.13 132.815 1402.82 134.456C1403.51 136.01 1404.28 137.176 1405.12 137.953C1406.04 138.644 1407 139.162 1408 139.508V145.337H1372C1371.39 143.696 1370.7 141.537 1369.93 138.86C1369.24 136.097 1368.9 132.772 1368.9 128.886C1366.37 131.822 1363.87 134.542 1361.42 137.047C1359.04 139.551 1356.36 141.753 1353.37 143.653C1350.38 145.466 1346.93 146.891 1343.02 147.927C1339.11 149.05 1334.39 149.611 1328.87 149.611C1323.27 149.611 1318.1 148.661 1313.35 146.762C1308.67 144.948 1304.6 142.228 1301.15 138.601C1297.7 134.974 1295.02 130.44 1293.1 125C1291.19 119.56 1290.23 113.256 1290.23 106.088C1290.23 100.302 1291.03 94.9481 1292.64 90.0259C1294.25 85.0175 1296.52 80.6562 1299.43 76.943C1302.42 73.1436 1306.02 70.0344 1310.24 67.6166C1314.53 65.1124 1319.33 63.4283 1324.62 62.5648L1356.47 57.2539C1357.62 57.0812 1358.85 56.8221 1360.16 56.4767C1361.54 56.1313 1362.8 55.5699 1363.95 54.7927C1365.1 53.9292 1366.06 52.8064 1366.83 51.4249C1367.59 49.9569 1367.98 48.0135 1367.98 45.5959C1367.98 43.2644 1367.63 41.1484 1366.94 39.2487C1366.33 37.2627 1365.25 35.5785 1363.72 34.1969C1362.19 32.7289 1360.12 31.6062 1357.51 30.829C1354.98 30.0518 1351.8 29.6632 1347.96 29.6632C1343.59 29.6632 1340.07 30.1815 1337.38 31.2176C1334.78 32.1674 1332.71 33.5495 1331.17 35.3627C1329.64 37.0897 1328.53 39.1626 1327.84 41.5803C1327.15 43.9118 1326.65 46.4164 1326.34 49.0933H1293.79C1293.79 47.3662 1294.02 44.9911 1294.48 41.9689C1295.02 38.8602 1295.94 35.492 1297.24 31.8653C1298.62 28.2385 1300.5 24.568 1302.88 20.8549C1305.33 17.1418 1308.52 13.7736 1312.43 10.7513C1316.41 7.64266 1321.24 5.09491 1326.92 3.10881C1332.59 1.12275 1339.38 0.0863531 1347.27 0ZM32.5483 47.9275C32.5483 51.986 32.9701 55.3109 33.8134 57.9016C34.7335 60.4922 36.1137 62.5648 37.9538 64.1192C39.794 65.6736 42.0943 66.753 44.8545 67.3575C47.6148 67.962 50.8735 68.2643 54.6305 68.2643C60.2277 68.2643 64.6749 67.7029 67.9719 66.5803C71.2688 65.3713 73.8375 64.0328 75.6776 62.5648V4.14508H108.226V145.337H75.6776V89.6373C74.2975 90.3281 72.4189 91.019 70.0421 91.7098C67.6652 92.487 65.0199 93.1779 62.1063 93.7824C59.2693 94.3869 56.279 94.8618 53.1354 95.2073C50.0684 95.5527 47.1164 95.7254 44.2795 95.7254C37.1487 95.7254 30.8231 95.0345 25.3026 93.6528C19.782 92.1848 15.1432 89.8532 11.3861 86.658C7.62918 83.4629 4.79212 79.3177 2.87529 74.2228C0.95851 69.0415 0 62.6941 0 55.1813V4.14508H32.5483V47.9275ZM558.018 4.14508C563.769 4.14511 569.29 4.70642 574.58 5.82902C579.947 6.95166 584.663 8.9379 588.726 11.7876C592.79 14.5509 596.011 18.3507 598.387 23.1865C600.841 27.936 602.068 33.9812 602.068 41.3212C602.068 45.5524 601.646 49.2229 600.803 52.3316C600.036 55.4402 598.962 58.1176 597.582 60.3627C596.202 62.5214 594.592 64.3783 592.752 65.9326C590.988 67.4005 589.148 68.6529 587.231 69.6891C593.518 72.1934 598.311 76.2091 601.608 81.7358C604.905 87.1761 606.553 93.6962 606.553 101.295C606.553 107.945 605.518 113.99 603.448 119.43C601.454 124.784 598.579 129.404 594.822 133.29C591.142 137.09 586.618 140.069 581.251 142.228C575.96 144.3 570.018 145.337 563.424 145.337H493.152V4.14508H558.018ZM771.742 145.337H739.079V93.3938H717.801C713.124 93.3938 709.099 93.6097 705.725 94.0415C702.428 94.3869 699.706 95.2937 697.559 96.7617C695.413 98.1433 693.764 100.216 692.614 102.979C691.54 105.743 690.927 109.499 690.774 114.249L690.314 127.85C690.16 129.836 689.93 132.427 689.624 135.622C689.394 138.817 688.665 142.055 687.438 145.337H653.05C654.047 143.437 654.852 141.623 655.465 139.896C656.078 138.083 656.539 136.356 656.845 134.715C657.229 132.988 657.497 131.261 657.65 129.534C657.88 127.807 658.072 125.993 658.225 124.093L659.836 107.124C660.219 103.325 660.679 100.043 661.216 97.2798C661.752 94.5166 662.634 92.0983 663.861 90.0259C665.088 88.0399 666.775 86.3125 668.922 84.8446C671.068 83.3766 673.944 82.0379 677.547 80.829C676.397 80.4836 675.094 80.0086 673.637 79.4041C672.257 78.7133 670.762 77.8497 669.151 76.8135C667.618 75.6908 666.046 74.3092 664.436 72.6684C662.903 70.9413 661.446 68.8255 660.066 66.3212C659.069 64.6805 658.264 62.9533 657.65 61.1399C657.114 59.2402 656.692 57.4265 656.385 55.6995C656.079 53.8861 655.887 52.202 655.81 50.6477C655.734 49.0934 655.695 47.7547 655.695 46.6321C655.695 41.6236 656.232 37.1761 657.305 33.2902C658.379 29.318 659.759 25.8635 661.446 22.9275C663.133 19.9915 665.05 17.487 667.196 15.4145C669.343 13.3421 671.529 11.658 673.752 10.3627C676.205 8.80839 678.928 7.64245 681.918 6.86528C684.908 6.00177 687.822 5.39722 690.659 5.05181C693.496 4.62006 696.141 4.36096 698.594 4.27461C701.048 4.18826 702.965 4.14508 704.345 4.14508H771.742V145.337ZM926.119 33.9378H888.166V145.337H855.732V33.9378H817.778V4.14508H926.119V33.9378ZM1162.76 57.772L1209.69 4.14508H1252.93L1201.18 62.8238L1255.12 145.337H1212.68L1175.87 85.7513L1162.76 100.648V145.337H1130.21V4.14508H1162.76V57.772ZM1367.98 76.4249C1365.98 77.6337 1363.99 78.7566 1362 79.7927C1360 80.7426 1357.36 81.5631 1354.06 82.2539L1345.43 84.0674C1341.68 84.8445 1338.38 85.7514 1335.54 86.7876C1332.71 87.8238 1330.33 89.2057 1328.41 90.9326C1326.57 92.5733 1325.15 94.603 1324.16 97.0207C1323.24 99.4386 1322.78 102.461 1322.78 106.088C1322.78 109.11 1323.2 111.744 1324.04 113.99C1324.89 116.149 1326.04 117.962 1327.49 119.43C1329.03 120.812 1330.79 121.848 1332.78 122.539C1334.78 123.23 1336.92 123.575 1339.22 123.575C1340.45 123.575 1342.02 123.446 1343.94 123.187C1345.86 122.841 1347.89 122.237 1350.03 121.373C1352.18 120.51 1354.33 119.344 1356.47 117.876C1358.62 116.321 1360.54 114.335 1362.23 111.917C1363.91 109.499 1365.29 106.563 1366.37 103.109C1367.44 99.5683 1367.98 95.4229 1367.98 90.6736V76.4249ZM525.7 119.301H550.773C555.45 119.3 559.207 118.739 562.044 117.617C564.957 116.494 567.181 115.069 568.714 113.342C570.324 111.615 571.36 109.715 571.82 107.642C572.356 105.57 572.625 103.627 572.625 101.813C572.625 98.3594 572.203 95.5094 571.36 93.2643C570.593 90.9328 569.328 89.0759 567.564 87.6943C565.878 86.3127 563.654 85.3627 560.894 84.8446C558.057 84.3264 554.683 84.0674 550.773 84.0674H525.7V119.301ZM380.752 32.9016C375.539 32.9016 371.13 34.1538 367.526 36.658C363.999 39.1623 361.124 42.4008 358.9 46.3731C356.753 50.3454 355.181 54.836 354.185 59.8446C353.188 64.8531 352.689 69.8188 352.689 74.7409C352.689 77.4178 352.804 80.3542 353.034 83.5492C353.341 86.6579 353.878 89.8534 354.645 93.1347C355.411 96.3297 356.447 99.4389 357.75 102.461C359.13 105.483 360.855 108.161 362.925 110.492C364.996 112.824 367.488 114.724 370.401 116.192C373.315 117.573 376.765 118.264 380.752 118.264C384.739 118.264 388.19 117.573 391.103 116.192C394.017 114.724 396.509 112.824 398.579 110.492C400.649 108.161 402.336 105.484 403.64 102.461C405.02 99.4387 406.093 96.3299 406.86 93.1347C407.627 89.8533 408.125 86.658 408.355 83.5492C408.662 80.3542 408.815 77.4179 408.815 74.7409C408.815 69.8188 408.317 64.8531 407.32 59.8446C406.323 54.8361 404.713 50.3453 402.489 46.3731C400.343 42.4009 397.467 39.1622 393.864 36.658C390.26 34.154 385.889 32.9016 380.752 32.9016ZM712.856 31.7358C710.096 31.7358 707.335 31.8221 704.575 31.9948C701.815 32.1675 699.323 32.8585 697.099 34.0674C694.953 35.1899 693.189 37.0037 691.809 39.5078C690.505 41.9257 689.854 45.3802 689.854 49.8705C689.854 54.2745 690.544 57.6425 691.924 59.9741C693.227 62.3057 694.914 64.0328 696.984 65.1554C699.131 66.278 701.508 66.9257 704.115 67.0984C706.722 67.2712 709.329 67.3575 711.936 67.3575H739.079V31.7358H712.856ZM215.219 29.6632C212.535 29.6632 209.698 30.1814 206.708 31.2176C203.718 32.1675 200.995 33.8515 198.542 36.2694C196.012 38.7737 193.903 42.0985 192.216 46.2435C190.606 50.3885 189.801 55.5701 189.801 61.7876H240.751C240.751 55.5701 239.908 50.3885 238.221 46.2435C236.611 42.0986 234.54 38.8168 232.01 36.399C229.557 33.8948 226.835 32.1675 223.845 31.2176C220.854 30.1814 217.979 29.6632 215.219 29.6632ZM1022.19 29.6632C1019.5 29.6632 1016.67 30.1814 1013.68 31.2176C1010.68 32.1675 1007.96 33.8515 1005.51 36.2694C1002.98 38.7737 1000.87 42.0985 999.184 46.2435C997.574 50.3885 996.768 55.5701 996.768 61.7876H1047.72C1047.72 55.5701 1046.88 50.3885 1045.19 46.2435C1043.58 42.0986 1041.51 38.8168 1038.98 36.399C1036.52 33.8948 1033.8 32.1675 1030.81 31.2176C1027.82 30.1814 1024.95 29.6632 1022.19 29.6632ZM525.7 59.5855H550.773C554.453 59.5855 557.52 59.2832 559.974 58.6788C562.427 57.9879 564.382 56.9947 565.839 55.6995C567.219 54.4906 568.178 52.9791 568.714 51.1658C569.328 49.2661 569.635 47.0637 569.635 44.5596C569.634 42.4872 569.328 40.5871 568.714 38.8601C568.178 37.0468 567.219 35.5353 565.839 34.3264C564.459 33.0312 562.619 32.038 560.319 31.3472C558.018 30.57 555.143 30.1814 551.693 30.1813H525.7V59.5855Z" fill="white"/>
</svg>
