<svg width="1408" height="185" viewBox="0 0 1408 185" fill="none" xmlns="http://www.w3.org/2000/svg">
<path d="M390.413 0C394.247 0 398.196 0.516055 402.259 1.54791C406.323 2.57982 410.272 4.25689 414.106 6.57863C418.016 8.81445 421.696 11.7815 425.147 15.4791C428.597 19.0909 431.626 23.5628 434.233 28.8944C436.84 34.2261 438.91 40.4608 440.443 47.5983C441.977 54.6499 442.744 62.7335 442.744 71.849C442.744 83.2003 441.632 93.6058 439.408 103.065C437.261 112.525 433.964 120.651 429.517 127.445C425.147 134.238 419.588 139.527 412.841 143.311C406.17 147.095 398.311 148.987 389.263 148.987C386.12 148.987 382.937 148.643 379.717 147.955C376.497 147.267 373.353 146.106 370.286 144.472C367.219 142.838 364.305 140.645 361.545 137.893C358.862 135.055 356.485 131.529 354.415 127.316H353.955V185C348.647 183.386 343.447 180.961 339.973 177.322C338.331 175.602 337.357 173.407 336.684 170.994C336.005 168.562 335.652 165.995 335.204 163.49C334.763 161.029 334.228 158.622 333.157 156.72C332.059 154.771 330.414 153.379 327.853 152.918C326.041 152.592 324.11 152.983 322.27 153.705C321.981 153.819 321.693 153.943 321.406 154.073V4.12777H352.459V24.2506H352.919C355.143 20.037 357.482 16.425 359.935 13.4152C362.389 10.3196 365.111 7.78253 368.101 5.80467C371.091 3.82688 374.388 2.36487 377.992 1.41892C381.672 0.473009 385.813 3.55815e-05 390.413 0ZM215.219 0C226.336 0 235.691 2.06396 243.281 6.19165C250.872 10.2334 256.968 15.9952 261.568 23.4767C266.245 30.9583 269.581 39.9878 271.574 50.5652C273.568 61.1426 274.565 72.8809 274.565 85.7802H188.651C188.651 87.0701 188.766 88.79 188.996 90.9399C189.226 93.0898 189.686 95.4117 190.376 97.9055C191.066 100.399 192.063 102.936 193.366 105.516C194.67 108.01 196.395 110.289 198.542 112.353C200.765 114.417 203.449 116.094 206.593 117.383C209.813 118.673 213.647 119.318 218.094 119.318C220.394 119.318 222.656 118.974 224.88 118.286C227.18 117.512 229.288 116.437 231.205 115.062C233.122 113.6 234.771 111.88 236.151 109.902C237.608 107.838 238.643 105.516 239.256 102.936H272.954C272.954 105.516 272.456 108.483 271.459 111.837C270.463 115.105 268.929 118.458 266.859 121.898C264.865 125.252 262.335 128.563 259.268 131.831C256.201 135.098 252.559 138.022 248.342 140.602C244.125 143.096 239.333 145.117 233.966 146.665C228.675 148.213 222.771 148.987 216.254 148.987C207.896 148.987 200.075 147.611 192.791 144.859C185.431 142.021 178.99 137.592 173.469 131.573C168.026 125.467 163.732 117.598 160.588 107.967C157.445 98.3355 155.873 86.6401 155.873 72.8809C155.873 63.3355 156.984 54.1769 159.208 45.4055C161.508 36.548 165.035 28.7654 169.789 22.0578C174.619 15.3502 180.754 10.0184 188.191 6.06266C195.705 2.02092 204.714 3.32936e-05 215.219 0ZM1022.19 0C1033.3 0 1042.66 2.06395 1050.25 6.19165C1057.84 10.2334 1063.94 15.9952 1068.54 23.4767C1073.21 30.9583 1076.55 39.9878 1078.54 50.5652C1080.54 61.1426 1081.53 72.8809 1081.53 85.7802H995.618C995.618 87.0701 995.733 88.79 995.963 90.9399C996.193 93.0898 996.653 95.4117 997.343 97.9055C998.034 100.399 999.03 102.936 1000.33 105.516C1001.64 108.01 1003.36 110.289 1005.51 112.353C1007.73 114.417 1010.42 116.094 1013.56 117.383C1016.78 118.673 1020.61 119.318 1025.06 119.318C1027.12 119.318 1029.15 119.041 1031.14 118.49C1031.03 119.725 1031.19 120.994 1031.7 122.281C1032.53 124.353 1034.14 125.562 1035.95 126.357C1037.74 127.147 1039.84 127.572 1041.73 127.995C1043.68 128.43 1045.38 128.858 1046.58 129.619C1047.16 129.991 1047.59 130.422 1047.86 130.935C1048.13 131.441 1048.27 132.081 1048.22 132.936C1048.14 134.132 1047.7 136.401 1047.06 139.196C1046.64 141.038 1046.13 143.079 1045.61 145.143C1044.1 145.692 1042.54 146.2 1040.93 146.665C1035.64 148.213 1029.74 148.987 1023.22 148.987C1014.86 148.987 1007.04 147.611 999.759 144.859C992.398 142.021 985.957 137.592 980.437 131.573C974.993 125.467 970.699 117.598 967.555 107.967C964.412 98.3355 962.84 86.6401 962.84 72.8809C962.84 63.3355 963.952 54.1769 966.175 45.4055C968.476 36.548 972.003 28.7654 976.756 22.0578C981.587 15.3502 987.721 10.0184 995.158 6.06266C1002.67 2.02092 1011.68 3.07325e-05 1022.19 0ZM1347.27 0C1358.47 3.68126e-05 1367.52 1.28996 1374.42 3.86978C1381.39 6.36363 1386.8 9.67454 1390.63 13.8022C1394.54 17.8439 1397.15 22.4019 1398.45 27.4755C1399.83 32.4631 1400.52 37.451 1400.52 42.4386V116.996C1400.52 121.21 1400.72 124.693 1401.1 127.445C1401.56 130.111 1402.13 132.261 1402.82 133.895C1403.51 135.442 1404.28 136.603 1405.12 137.377C1406.04 138.065 1407 138.581 1408 138.925V144.73H1372C1371.39 143.096 1370.7 140.946 1369.93 138.28C1369.24 135.528 1368.9 132.218 1368.9 128.348C1366.37 131.272 1363.87 133.981 1361.42 136.474C1359.04 138.968 1356.36 141.161 1353.37 143.053C1350.38 144.859 1346.93 146.278 1343.02 147.31C1339.11 148.428 1334.39 148.987 1328.87 148.987C1323.27 148.987 1318.1 148.041 1313.35 146.149C1308.67 144.343 1304.6 141.634 1301.15 138.022C1297.7 134.411 1295.02 129.896 1293.1 124.478C1291.19 119.06 1290.23 112.783 1290.23 105.645C1290.23 99.8834 1291.03 94.5517 1292.64 89.65C1294.25 84.6623 1296.52 80.3195 1299.43 76.6217C1302.42 72.838 1306.02 69.742 1310.24 67.3342C1314.53 64.8405 1319.33 63.1634 1324.62 62.3035L1356.47 57.0148C1357.62 56.8428 1358.85 56.5848 1360.16 56.2408C1361.54 55.8969 1362.8 55.3378 1363.95 54.5639C1365.1 53.704 1366.06 52.5859 1366.83 51.2101C1367.59 49.7482 1367.98 47.8132 1367.98 45.4055C1367.98 43.0837 1367.63 40.9767 1366.94 39.0848C1366.33 37.107 1365.25 35.43 1363.72 34.0541C1362.19 32.5923 1360.12 31.4742 1357.51 30.7003C1354.98 29.9264 1351.8 29.5394 1347.96 29.5393C1343.59 29.5393 1340.07 30.0554 1337.38 31.0873C1334.78 32.0332 1332.71 33.4093 1331.17 35.215C1329.64 36.9349 1328.53 38.9989 1327.84 41.4067C1327.15 43.7285 1326.65 46.2224 1326.34 48.8883H1293.79C1293.79 47.1684 1294.02 44.8035 1294.48 41.7937C1295.02 38.6979 1295.94 35.344 1297.24 31.7322C1298.62 28.1205 1300.5 24.4656 1302.88 20.7678C1305.33 17.0701 1308.52 13.7162 1312.43 10.7064C1316.41 7.61069 1321.24 5.07366 1326.92 3.09583C1332.59 1.11804 1339.38 0.085993 1347.27 0ZM32.5483 47.7273C32.5483 51.7691 32.97 55.0799 33.8134 57.6598C34.7335 60.2396 36.1136 62.3035 37.9538 63.8514C39.794 65.3993 42.0942 66.4743 44.8545 67.0762C47.6148 67.6782 50.8735 67.9792 54.6305 67.9792C60.2277 67.9792 64.6749 67.4202 67.9719 66.3023C71.2689 65.0984 73.8374 63.7654 75.6776 62.3035V4.12777H108.226V144.73H75.6776V89.263C74.2975 89.951 72.419 90.6389 70.0421 91.3269C67.6652 92.1008 65.0199 92.7888 62.1063 93.3908C59.2693 93.9927 56.279 94.4657 53.1354 94.8097C50.0684 95.1537 47.1164 95.3257 44.2795 95.3257C37.1487 95.3257 30.8231 94.6377 25.3026 93.2618C19.782 91.7999 15.1432 89.478 11.3861 86.2962C7.6291 83.1143 4.79215 78.9866 2.87529 73.9129C0.95843 68.7531 0 62.4325 0 54.9509V4.12777H32.5483V47.7273ZM558.018 4.12777C563.769 4.1278 569.29 4.68677 574.58 5.80467C579.947 6.92263 584.663 8.90059 588.726 11.7383C592.79 14.4902 596.011 18.2741 598.387 23.0897C600.841 27.8194 602.068 33.8392 602.068 41.1487C602.068 45.3624 601.646 49.0173 600.803 52.1131C600.036 55.2088 598.962 57.8748 597.582 60.1106C596.202 62.2604 594.592 64.1095 592.752 65.6573C590.988 67.1191 589.148 68.3662 587.231 69.3981C593.518 71.892 598.311 75.8909 601.608 81.3944C603.554 84.5932 604.925 88.167 605.723 92.1152C605.087 91.7597 604.433 91.482 603.755 91.3212C602.24 90.9624 600.659 91.1808 598.974 92.2112C597.111 93.3504 596.261 94.9268 596.073 96.7804C595.893 98.5556 596.329 100.532 596.872 102.506C597.429 104.534 598.101 106.569 598.528 108.666C598.951 110.744 599.105 112.768 598.655 114.683C597.553 119.366 594.693 122.184 591.883 125.226C589.101 128.236 586.391 131.46 586.203 136.857C586.175 137.648 586.217 138.436 586.314 139.22C584.718 140.114 583.032 140.921 581.251 141.634C575.96 143.698 570.018 144.73 563.424 144.73H493.152V42.6966C494.076 42.738 495.009 42.7253 495.921 42.6307C497.849 42.4304 499.732 41.8672 501.224 40.6686C503.277 39.02 503.855 36.7732 503.718 34.3651C503.584 32.0179 502.768 29.433 501.997 26.9796C501.21 24.4706 500.467 22.0897 500.343 19.9781C500.222 17.9259 500.687 16.2183 502.274 14.9245C504.836 12.8344 507.359 13.431 510.299 14.4415C513.174 15.4298 516.47 16.8438 520.07 15.6397C522.884 14.698 524.728 12.9761 525.713 10.6376C526.507 8.75196 526.713 6.53384 526.499 4.12777H558.018ZM771.742 144.73H739.079V93.0038H717.801C713.124 93.0038 709.099 93.2188 705.725 93.6488C702.428 93.9927 699.706 94.8958 697.559 96.3576C695.413 97.7335 693.764 99.7975 692.614 102.549C691.54 105.301 690.927 109.042 690.774 113.772L690.674 116.683C690.046 116.885 689.321 117.147 688.572 117.477C687.489 117.953 686.334 118.579 685.346 119.381C684.363 120.18 683.498 121.191 683.07 122.454C682.597 123.854 682.739 125.04 682.902 126.098C683.066 127.167 683.239 128.071 683.041 129.175C682.636 131.435 682.013 133.153 681.111 134.666C680.205 136.186 678.997 137.533 677.379 139.027C676.757 139.601 675.89 139.926 674.866 140.128C673.836 140.331 672.768 140.39 671.718 140.505C670.729 140.613 669.691 140.775 668.96 141.27C668.57 141.534 668.241 141.907 668.06 142.43C667.882 142.943 667.874 143.524 667.994 144.151C668.034 144.358 668.088 144.55 668.152 144.73H653.05C654.047 142.838 654.852 141.032 655.465 139.312C656.079 137.506 656.539 135.786 656.845 134.152C657.229 132.433 657.497 130.713 657.65 128.993C657.88 127.273 658.072 125.467 658.225 123.575L659.836 106.677C660.219 102.893 660.679 99.6254 661.216 96.8736C661.752 94.1218 662.634 91.7138 663.861 89.65C665.088 87.6721 666.775 85.9522 668.921 84.4903C671.068 83.0284 673.944 81.6954 677.547 80.4915C676.397 80.1475 675.094 79.6745 673.637 79.0726C672.257 78.3846 670.762 77.5246 669.152 76.4927C667.618 75.3748 666.046 73.9988 664.436 72.3649C662.903 70.6451 661.446 68.5381 660.066 66.0443C659.069 64.4104 658.264 62.6905 657.65 60.8846C657.114 58.9927 656.692 57.1868 656.385 55.4669C656.079 53.661 655.887 51.9841 655.81 50.4362C655.733 48.8883 655.695 47.5553 655.695 46.4374C655.695 41.4497 656.232 37.0209 657.305 33.1511C658.379 29.1954 659.759 25.7555 661.446 22.8317C663.133 19.9079 665.049 17.414 667.196 15.3501C669.343 13.2863 671.528 11.6093 673.752 10.3194C676.206 8.77157 678.928 7.61055 681.918 6.83662C684.908 5.9767 687.822 5.37469 690.659 5.03072C693.496 4.60076 696.141 4.34275 698.594 4.25676C701.048 4.17077 702.965 4.12777 704.345 4.12777H771.742V144.73ZM858.744 4.12777C858.535 5.37469 858.432 6.57943 858.468 7.7066C858.631 12.7512 860.124 15.7363 862.467 17.5874C864.742 19.3846 867.744 20.039 870.718 20.6804C874.253 21.4425 877.47 19.295 880.448 17.2592C883.531 15.1516 886.395 13.1367 889.512 13.3809C891.668 13.5499 893.091 14.9556 894.687 16.4007C896.242 17.8093 897.982 19.2605 900.577 18.6724C904.099 17.8739 906.47 15.0554 907.674 11.5721C908.464 9.28519 908.759 6.69015 908.558 4.12777H926.119V33.7961H888.166V144.73H855.732V33.7961H817.778V4.12777H858.744ZM1162.76 57.5308L1209.69 4.12777H1252.93L1201.18 62.5615L1255.12 144.73H1212.68L1175.87 85.3932L1162.76 100.227V144.73H1130.21V4.12777H1162.76V57.5308ZM1367.98 76.1057C1365.98 77.3096 1363.99 78.4277 1362 79.4595C1360 80.4055 1357.36 81.2225 1354.06 81.9104L1345.43 83.7163C1341.68 84.4902 1338.38 85.3933 1335.54 86.4252C1332.71 87.457 1330.33 88.8331 1328.41 90.5529C1326.57 92.1868 1325.15 94.2078 1324.16 96.6156C1323.24 99.0235 1322.78 102.033 1322.78 105.645C1322.78 108.655 1323.2 111.278 1324.04 113.514C1324.88 115.663 1326.04 117.469 1327.49 118.931C1329.03 120.307 1330.79 121.339 1332.78 122.027C1334.78 122.715 1336.92 123.059 1339.22 123.059C1340.45 123.059 1342.02 122.93 1343.94 122.672C1345.86 122.328 1347.89 121.726 1350.03 120.866C1352.18 120.006 1354.33 118.845 1356.47 117.383C1358.62 115.836 1360.54 113.857 1362.23 111.45C1363.91 109.042 1365.29 106.118 1366.37 102.678C1367.44 99.1525 1367.98 95.0246 1367.98 90.2949V76.1057ZM525.7 118.802H550.773C555.45 118.802 559.207 118.243 562.044 117.125C564.957 116.008 567.181 114.588 568.714 112.869C570.324 111.149 571.36 109.257 571.82 107.193C572.356 105.129 572.625 103.194 572.625 101.388C572.625 97.9486 572.203 95.1106 571.36 92.8748C570.593 90.5531 569.328 88.704 567.564 87.3281C565.878 85.9523 563.654 85.0063 560.894 84.4903C558.057 83.9743 554.683 83.7163 550.773 83.7163H525.7V118.802ZM380.752 32.7642C375.539 32.7642 371.13 34.0112 367.526 36.505C363.999 38.9988 361.124 42.2238 358.9 46.1794C356.753 50.1351 355.181 54.6071 354.185 59.5947C353.188 64.5823 352.689 69.5271 352.689 74.4288C352.689 77.0947 352.804 80.0185 353.034 83.2003C353.341 86.2961 353.878 89.478 354.645 92.7458C355.411 95.9275 356.447 99.0235 357.75 102.033C359.13 105.043 360.855 107.709 362.925 110.031C364.996 112.353 367.488 114.245 370.401 115.707C373.315 117.082 376.765 117.77 380.752 117.77C384.739 117.77 388.19 117.082 391.103 115.707C394.017 114.245 396.509 112.353 398.579 110.031C400.649 107.709 402.336 105.043 403.64 102.033C405.02 99.0235 406.093 95.9276 406.86 92.7458C407.627 89.478 408.125 86.2962 408.355 83.2003C408.662 80.0185 408.815 77.0947 408.815 74.4288C408.815 69.5271 408.317 64.5824 407.32 59.5947C406.323 54.607 404.713 50.1352 402.489 46.1794C400.343 42.2238 397.467 38.9988 393.864 36.505C390.26 34.0113 385.889 32.7642 380.752 32.7642ZM732.344 23.4093C730.445 22.4537 728.416 21.7779 725.764 22.9808C724.342 23.6261 723.378 24.7066 722.507 25.6782C721.617 26.6698 720.822 27.552 719.675 28.0975C717.428 29.1659 715.672 27.7685 713.55 26.1569C712.542 25.3913 711.439 24.5797 710.244 24.2377C708.996 23.8809 707.678 24.0417 706.277 25.1034C704.582 26.3889 702.982 28.9805 701.835 31.1403C701.612 31.5605 701.404 31.9702 701.213 32.3571C699.752 32.7082 698.381 33.231 697.099 33.9251C694.952 35.043 693.189 36.849 691.809 39.3428C690.505 41.7507 689.854 45.1905 689.854 49.6622C689.854 54.048 690.544 57.4018 691.924 59.7237C693.227 62.0455 694.914 63.7654 696.984 64.8834C699.131 66.0012 701.508 66.6463 704.115 66.8183C706.722 66.9902 709.329 67.0762 711.936 67.0762H739.079V50.922L742.799 52.3309L743.197 52.4814L743.485 52.1389L743.486 52.1374C743.487 52.1367 743.488 52.1344 743.489 52.1331C743.491 52.1305 743.495 52.1278 743.499 52.1231C743.508 52.1126 743.52 52.096 743.537 52.0758C743.571 52.0354 743.62 51.9755 743.683 51.8981C743.81 51.7423 743.996 51.5134 744.227 51.2216C744.691 50.6378 745.343 49.798 746.099 48.775C747.61 46.731 749.546 43.9403 751.225 40.9753C752.896 38.0251 754.353 34.8353 754.85 32.0031C755.1 30.5815 755.118 29.1985 754.761 27.9642C754.398 26.7099 753.662 25.6599 752.498 24.9085C749.892 23.2265 747.523 23.6357 745.239 24.3223C742.924 25.0185 740.764 25.9548 738.208 25.7298C735.934 25.5293 734.259 24.373 732.344 23.4093ZM215.219 29.5393C212.535 29.5394 209.698 30.0553 206.708 31.0873C203.718 32.0332 200.995 33.7102 198.542 36.118C196.012 38.6118 193.903 41.9227 192.216 46.0504C190.606 50.1782 189.801 55.338 189.801 61.5296H240.751C240.751 55.3379 239.908 50.1782 238.221 46.0504C236.611 41.9227 234.541 38.6548 232.01 36.247C229.557 33.7532 226.835 32.0332 223.845 31.0873C220.854 30.0554 217.979 29.5393 215.219 29.5393ZM1019.4 19.1196C1018.38 18.3616 1017.17 18.0751 1015.88 18.8043C1015.45 19.0501 1014.92 19.1659 1014.29 19.207C1013.66 19.2484 1012.99 19.2117 1012.26 19.187C1010.89 19.1401 1009.26 19.1218 1008.01 20.1687C1005.38 22.3855 1004.59 25.5876 1004.2 28.8399C1004.01 30.4405 1003.91 32.1767 1003.75 33.766C1003.59 35.3941 1003.37 36.9597 1002.94 38.4097C1002.84 38.7487 1002.75 39.1172 1002.67 39.5076C1001.36 41.3951 1000.2 43.5756 999.184 46.0504C997.574 50.1782 996.768 55.338 996.768 61.5296H1047.72C1047.72 55.3379 1046.88 50.1782 1045.19 46.0504C1043.58 41.9227 1041.51 38.6548 1038.98 36.247C1036.52 33.7532 1033.8 32.0332 1030.81 31.0873C1027.91 30.0849 1025.11 29.5695 1022.42 29.5408L1023.76 28.023L1024.04 27.7062L1023.92 27.2834V27.282L1023.91 27.2734C1023.91 27.2675 1023.91 27.258 1023.91 27.2476C1023.9 27.2262 1023.89 27.1952 1023.88 27.1558C1023.86 27.0765 1023.82 26.9615 1023.77 26.8176C1023.68 26.5293 1023.54 26.1214 1023.37 25.6409C1023.02 24.6833 1022.5 23.4187 1021.84 22.2212C1021.19 21.0363 1020.37 19.8518 1019.4 19.1196ZM525.7 59.3367H550.773C554.453 59.3366 557.52 59.0357 559.974 58.4337C562.427 57.7458 564.382 56.7567 565.839 55.4669C567.219 54.263 568.178 52.7579 568.714 50.9521C569.328 49.0603 569.635 46.8673 569.635 44.3735C569.635 42.3097 569.328 40.4177 568.714 38.6978C568.178 36.8921 567.219 35.387 565.839 34.1831C564.459 32.8932 562.619 31.9042 560.319 31.2163C558.018 30.4423 555.143 30.0554 551.693 30.0553H525.7V59.3367Z" fill="white"/>
</svg>
