<svg width="1867" height="363" viewBox="0 0 1867 363" fill="none" xmlns="http://www.w3.org/2000/svg">
<rect width="468" height="363" fill="black"/>
<rect x="468" width="468" height="363" fill="black"/>
<path d="M26.7385 8.51367C26.7385 43.9551 83.0762 40.699 95.1348 67.6832C101.317 81.5168 90.9224 94.003 81.9402 103.048C65.9186 119.182 32.7992 105.178 24.1012 87.7931C22.3285 84.25 24.8468 80.3331 25.9331 75.3271C28.0406 65.6157 24.9924 58.0549 15.5151 55.4615" stroke="white" stroke-width="15" stroke-linecap="round"/>
<path d="M15.4482 123.545C21.327 123.562 35.8816 123.912 40.6571 125.085C44.8036 126.103 56.8832 136.192 67.9836 143.895C78.7405 151.359 98.6762 147.704 109.066 141.29C130.615 127.986 118.152 92.0423 127.022 73.431C131.648 63.7266 145.744 61.178 155.137 62.1643C165.269 63.2283 170.875 81.1232 166.803 88.8831C163.668 92.0981 159.477 91.707 155.317 91.7774" stroke="white" stroke-width="15" stroke-linecap="round"/>
<path d="M148.854 125.631C178.999 181.897 69.3581 171.473 49.0008 178.849C25.9077 187.216 14.2946 213.671 19.6888 237.011C20.4403 240.263 24.3178 241.243 39.9014 254.024C54.3991 265.914 59.7469 291.993 47.8421 307.393C42.8074 313.905 26.8599 320.18 19.7415 313.682C16.1155 310.372 17.4939 297.38 18.5161 289.651C19.0363 285.718 27.0816 278.647 29.2445 284.82" stroke="white" stroke-width="15" stroke-linecap="round"/>
<path d="M65.6313 243.775C65.649 238.645 65.9352 226.554 68.6364 221.185C74.701 209.131 88.6203 198.391 96.2181 213.51C117.707 256.27 78.0855 294.477 87.9125 336.759C97.5141 378.072 118.863 308.585 126.533 309.691C140.792 311.748 145.644 337.086 163.033 338.684C209.057 342.911 171.756 266.714 207.739 268.565" stroke="white" stroke-width="15" stroke-linecap="round"/>
<path d="M157.81 274.055C156.763 274.161 153.791 273.903 152.138 272.674C149.827 270.957 147.674 260.008 144.353 244.698C142.017 233.927 143.128 228.38 143.637 226.527C144.779 222.368 150.182 219.541 155.071 217.106C168.927 210.203 183.009 224.708 194.769 229.613C205.402 234.048 210.479 232.902 214.626 231.901C227.571 228.775 226.441 208.425 223.437 199.277C218.797 185.148 200.452 178.116 196.716 164.3C194.401 155.741 197.353 147.884 200.329 140.498C203.322 133.07 211.324 128.587 218.465 124.615C226.226 120.299 240.321 122.654 246.725 128.86C250.877 132.883 254.345 150.013 249.596 154.551C248.192 155.511 242.419 156.182 234.836 156.218C232.235 155.944 232.167 155.077 233.14 153.336" stroke="white" stroke-width="15" stroke-linecap="round"/>
<path d="M194.245 105.084C194.269 104.848 197.003 98.3825 201.641 86.2394C205.533 76.0518 211.421 47.5084 200.117 38.9665C199.33 38.3717 198.407 37.9149 182.609 36.9856C166.81 36.0564 136.135 34.7084 119.985 33.7781C103.834 32.8479 103.139 32.3762 102.642 31.7241C93.2512 19.4089 122.393 14.2871 130.597 14.2871" stroke="white" stroke-width="15" stroke-linecap="round"/>
<path d="M229 27C231.791 27 239.382 27.3385 245.265 29.7822C254.65 33.6811 252.987 51.3503 251.023 58.8845C244.881 82.4468 244.106 87.1535 244.487 89.8423C244.809 92.1116 254.702 97.0027 267.844 104.016C273.961 107.281 277.911 111.955 282.929 117.901C286.179 121.752 287.751 126.752 289.248 132.258C290.256 135.965 290.379 144.139 290.294 154.988C290.061 184.592 251.517 198.773 241.182 224.158C238.479 230.797 240.175 241.291 241.91 245.931C246.315 257.709 263.794 264.438 266.519 267.612C268.858 270.336 269.467 274.444 269.39 280.186C269.269 289.265 259.565 297.255 251.299 298.582C249.262 298.91 247.226 297.766 245.542 296.677C242.32 294.593 240.154 282.278 243.704 280.639C244.3 280.575 244.946 280.915 245.612 281.266" stroke="white" stroke-width="15" stroke-linecap="round"/>
<path d="M225.328 316.445C212.543 320.031 211.39 336.158 220.948 343.9C225.421 347.523 240.802 346.535 253.596 344.31C263.397 342.606 294.754 349.533 300.703 340.423C307.175 330.511 296.181 312.58 295.945 301.728C295.827 296.275 311.052 295.501 314.491 297.117C321.017 300.183 326.712 309.692 330.778 312.901C350.786 328.696 368.69 289.947 366.725 276.11C363.595 254.069 324.011 243.712 307.277 236.8C293.81 231.237 303.509 206.118 309.759 198.438C312.835 194.658 319.816 193.052 324.106 191.515C330.776 189.126 334.841 205.128 331.043 208.846" stroke="white" stroke-width="15" stroke-linecap="round"/>
<path d="M310.769 57.2572C302.999 57.2572 291.299 57.8003 291.348 47.1012C291.408 33.8652 317.356 35.7231 324.733 34.6973C332.546 33.6107 339.764 27.1405 344.165 26.3722C357.081 24.1173 357.479 47.6776 363.494 54.4882C379.442 72.5452 310.412 83.9734 305.384 90.2073C286.709 113.362 345.737 111.363 354.137 111.378C359.603 111.388 355.826 128.111 354.32 130.63C350.64 136.784 325.934 137.373 327.413 125.455" stroke="white" stroke-width="15" stroke-linecap="round"/>
<path d="M425.38 321.182C432.418 321.182 447.402 323.245 441.238 333.784C432.874 348.087 389.617 345.347 379.316 334.287C367.938 322.07 382.226 297.878 392.695 290.619C402.456 283.851 425.738 286.2 432.034 276.849C440.957 263.594 422.487 249.498 427.74 238.768C431.414 231.262 441.734 230.723 444.382 223.331C447.203 215.457 445.371 203.744 443.184 197.977C436.785 181.106 415.315 192.936 414.952 207.102C417.2 209.557 419.649 209.751 422.673 209.108" stroke="white" stroke-width="15" stroke-linecap="round"/>
<path d="M393.302 232.677C379.242 227.982 376.648 197.167 374.592 186.222C372.723 176.27 373.334 172.5 374.149 170.947C378.149 163.327 390.956 158.463 402.115 156.807C410.436 155.571 435.234 160.931 438.38 150.63C442.838 136.033 447.985 115.174 439.047 101.081C423.892 77.1811 393.423 123.885 396.004 125.096C397.007 125.566 398.43 125.896 401.763 126.834" stroke="white" stroke-width="15" stroke-linecap="round"/>
<path d="M445.833 76.1365C437.925 76.2247 420.032 76.1304 414.501 73.339C398.099 65.0606 390.268 38.6583 395.288 22.091C398.499 11.4972 419.165 12.9816 426.636 17.2112C433.43 21.0576 441.659 29.8245 440.766 38.3662C440.391 41.9458 435.811 43.7809 434.35 47.1232C431.6 53.4116 442.527 55.4253 446.426 54.9214" stroke="white" stroke-width="15" stroke-linecap="round"/>
<rect x="1404" y="363" width="468" height="363" transform="rotate(180 1404 363)" fill="black"/>
<path d="M1378.31 352.949C1378.31 317.508 1321.97 320.764 1309.91 293.78C1303.73 279.946 1314.12 267.46 1323.11 258.415C1339.13 242.281 1372.25 256.285 1380.95 273.67C1382.72 277.213 1380.2 281.13 1379.11 286.136C1377.01 295.847 1380.05 303.408 1389.53 306.001" stroke="white" stroke-width="15" stroke-linecap="round"/>
<path d="M1389.21 238.226C1383.33 238.209 1368.77 237.86 1364 236.687C1359.85 235.668 1347.77 225.58 1336.67 217.877C1325.91 210.412 1305.98 214.068 1295.59 220.482C1274.04 233.786 1286.5 269.729 1277.63 288.34C1273.01 298.045 1258.91 300.593 1249.52 299.607C1239.39 298.543 1233.78 280.648 1237.85 272.888C1240.99 269.673 1245.18 270.065 1249.34 269.994" stroke="white" stroke-width="15" stroke-linecap="round"/>
<path d="M1254.8 236.094C1224.65 179.827 1334.3 190.252 1354.65 182.876C1377.75 174.509 1389.36 148.053 1383.96 124.713C1383.21 121.462 1379.34 120.482 1363.75 107.701C1349.25 95.8105 1343.91 69.7316 1355.81 54.332C1360.85 47.8192 1376.79 41.5448 1383.91 48.0423C1387.54 51.3522 1386.16 64.3448 1385.14 72.0738C1384.62 76.007 1376.57 83.078 1374.41 76.9044" stroke="white" stroke-width="15" stroke-linecap="round"/>
<path d="M1337.53 118.389C1337.52 123.519 1337.23 135.61 1334.53 140.979C1328.46 153.033 1314.54 163.773 1306.95 148.654C1285.46 105.894 1325.08 67.6872 1315.25 25.4048C1305.65 -15.9083 1284.3 53.579 1276.63 52.4727C1262.37 50.4158 1257.52 25.0778 1240.13 23.4805C1194.11 19.2528 1231.41 95.4498 1195.43 93.5991" stroke="white" stroke-width="15" stroke-linecap="round"/>
<path d="M1246.04 88.631C1247.09 88.5244 1250.06 88.7827 1251.72 90.0116C1254.03 91.7289 1256.18 102.678 1259.5 117.987C1261.84 128.758 1260.73 134.306 1260.22 136.159C1259.07 140.317 1253.67 143.144 1248.78 145.58C1234.93 152.483 1220.85 137.978 1209.09 133.073C1198.45 128.638 1193.38 129.783 1189.23 130.784C1176.28 133.91 1177.41 154.261 1180.42 163.408C1185.06 177.537 1203.4 184.57 1207.14 198.385C1209.45 206.945 1206.5 214.802 1203.53 222.187C1200.53 229.615 1192.53 234.098 1185.39 238.07C1177.63 242.386 1163.53 240.032 1157.13 233.826C1152.98 229.803 1149.51 212.673 1154.26 208.134C1155.66 207.175 1161.44 206.504 1169.02 206.467C1171.62 206.741 1171.69 207.609 1170.71 209.349" stroke="white" stroke-width="15" stroke-linecap="round"/>
<path d="M1210.8 257.221C1210.78 257.457 1208.04 263.922 1203.41 276.065C1199.51 286.253 1193.63 314.796 1204.93 323.338C1205.72 323.933 1206.64 324.39 1222.44 325.319C1238.24 326.248 1268.91 327.596 1285.06 328.527C1301.21 329.457 1301.91 329.929 1302.41 330.581C1311.8 342.896 1282.65 348.018 1274.45 348.018" stroke="white" stroke-width="15" stroke-linecap="round"/>
<path d="M1175.16 336.221C1172.37 336.221 1164.78 335.882 1158.9 333.438C1149.51 329.54 1151.18 311.87 1153.14 304.336C1159.28 280.774 1160.06 276.067 1159.67 273.378C1159.35 271.109 1149.46 266.218 1136.32 259.204C1130.2 255.94 1126.25 251.266 1121.23 245.319C1117.98 241.468 1116.41 236.469 1114.91 230.963C1113.91 227.256 1113.78 219.082 1113.87 208.233C1114.1 178.629 1152.64 164.448 1162.98 139.062C1165.68 132.424 1163.99 121.929 1162.25 117.289C1157.85 105.512 1140.37 98.7826 1137.64 95.6088C1135.3 92.8847 1134.69 88.7763 1134.77 83.0351C1134.89 73.956 1144.6 65.9659 1152.86 64.6383C1154.9 64.3111 1156.94 65.4547 1158.62 66.544C1161.84 68.6278 1164.01 80.9426 1160.46 82.5815C1159.86 82.6457 1159.22 82.3053 1158.55 81.9547" stroke="white" stroke-width="15" stroke-linecap="round"/>
<path d="M1177.92 47.0496C1190.71 43.4635 1191.86 27.3363 1182.3 19.5946C1177.83 15.9715 1162.45 16.9596 1149.65 19.1841C1139.85 20.8882 1108.5 13.9616 1102.55 23.071C1096.07 32.9829 1107.07 50.914 1107.3 61.7662C1107.42 67.2195 1092.2 67.9931 1088.76 66.3772C1082.23 63.3108 1076.54 53.8026 1072.47 50.5932C1052.46 34.7983 1034.56 73.5469 1036.52 87.3837C1039.65 109.425 1079.24 119.782 1095.97 126.694C1109.44 132.257 1099.74 157.376 1093.49 165.056C1090.41 168.837 1083.43 170.442 1079.14 171.979C1072.47 174.368 1068.41 158.366 1072.21 154.648" stroke="white" stroke-width="15" stroke-linecap="round"/>
<path d="M1094.11 306.555C1101.87 306.555 1113.57 306.012 1113.53 316.711C1113.47 329.947 1087.52 328.089 1080.14 329.115C1072.33 330.202 1065.11 336.672 1060.71 337.44C1047.79 339.695 1047.39 316.135 1041.38 309.324C1025.43 291.267 1094.46 279.839 1099.49 273.605C1118.16 250.451 1059.14 252.449 1050.74 252.434C1045.27 252.424 1049.05 235.701 1050.55 233.182C1054.23 227.029 1078.94 226.439 1077.46 238.358" stroke="white" stroke-width="15" stroke-linecap="round"/>
<path d="M977.893 43.3438C970.855 43.3438 955.87 41.2805 962.034 30.741C970.399 16.4388 1013.66 19.1786 1023.96 30.2382C1035.33 42.4551 1021.05 66.6469 1010.58 73.9061C1000.82 80.6744 977.534 78.3249 971.239 87.6763C962.316 100.932 980.786 115.027 975.533 125.758C971.859 133.264 961.539 133.803 958.891 141.194C956.07 149.069 957.901 160.782 960.089 166.549C966.488 183.419 987.958 171.59 988.321 157.423C986.073 154.969 983.623 154.774 980.599 155.417" stroke="white" stroke-width="15" stroke-linecap="round"/>
<path d="M1010.86 131.829C1024.92 136.524 1027.51 167.339 1029.57 178.284C1031.44 188.236 1030.83 192.006 1030.01 193.559C1026.01 201.179 1013.21 206.043 1002.05 207.699C993.726 208.934 968.928 203.575 965.782 213.876C961.324 228.472 956.177 249.332 965.114 263.425C980.27 287.325 1010.74 240.621 1008.16 239.41C1007.16 238.94 1005.73 238.61 1002.4 237.672" stroke="white" stroke-width="15" stroke-linecap="round"/>
<path d="M959.351 288.463C967.259 288.375 985.151 288.469 990.682 291.261C1007.08 299.539 1014.92 325.941 1009.89 342.509C1006.68 353.102 986.018 351.618 978.547 347.388C971.753 343.542 963.524 334.775 964.417 326.233C964.792 322.654 969.372 320.819 970.833 317.476C973.583 311.188 962.657 309.174 958.757 309.678" stroke="white" stroke-width="15" stroke-linecap="round"/>
<path d="M516.603 41.9182C517.156 28.4494 534.639 28.943 542.01 36.3451C558.364 52.7699 531.925 71.0101 522.064 79.8207C510.701 89.9735 510.214 97.3648 509.929 105.483C509.46 118.804 544.503 129.212 552.468 132.989C572.176 142.336 580.611 170.067 571.178 189.482C562.375 207.599 526.777 208.473 511.616 201.152C496.04 193.631 497.584 171.936 509.261 162.581C515.223 159.867 537.252 158.815 537.9 167.473" stroke="white" stroke-width="15" stroke-linecap="round"/>
<path d="M522.209 299.738C522.209 289.381 533.157 290.704 540.406 293.4C552.408 297.862 549.881 316.872 548.12 325.983C545.415 339.978 518.916 335.738 510.943 331.218C481.616 314.59 483.082 259.665 509.447 241.974C528.648 229.089 542.904 239.51 553.52 253.357C563.341 266.166 580.526 268.093 595.625 267.48C615.346 266.68 637.272 241.528 641.352 224.159C645.897 204.812 629.858 186.055 619.722 171.974C598.21 142.088 636.721 128.347 657.817 129.82C671.332 130.764 671.91 150.191 672.131 159.602C672.334 168.182 649.644 170.148 649.245 158.377" stroke="white" stroke-width="15" stroke-linecap="round"/>
<path d="M589.909 107.439C584.439 107.439 588.622 88.5556 589.006 86.9542C591.477 76.6613 612.133 78.346 619.711 78.8787C623.404 79.1384 629.161 87.8977 635.161 92.7034C641.62 97.8762 651.194 94.259 654.434 92.8246C666.095 87.6626 664.768 70.2088 659.738 61.2296C656.59 55.6107 640.528 45.8167 628.6 40.3442C623.293 37.9099 618.428 37.8564 616.161 36.8478C601.109 30.1502 630.389 21.9109 635.186 21.3903C648.651 19.9292 665.057 18.849 676.762 26.8431C691.61 36.9842 696.606 58.2365 713.157 66.8064C717.723 69.1703 725.842 66.0811 737.56 59.683C742.089 56.5282 748.023 48.9408 754.338 39.2646C756.557 35.7318 756.774 34.9957 758.48 33.3933" stroke="white" stroke-width="15" stroke-linecap="round"/>
<path d="M887.434 33.3553C888.764 33.5731 894.054 34.9882 897.967 37.9853C905.773 43.965 898.271 57.3457 893.579 62.4439C872.463 85.3872 843.802 29.5092 831.56 24.4519C821.617 20.3444 806.213 23.4301 795.113 27.8074C779.033 34.1482 819.255 70.0175 821.625 73.8709C826.386 81.6123 798.529 83.1914 796.499 83.3582C790.608 83.8426 761.061 69.7566 776.298 66.5576" stroke="white" stroke-width="15" stroke-linecap="round"/>
<path d="M861.792 121.493C861.081 120.293 858.803 115.669 859.206 110.514C859.783 103.123 869.044 100.643 873.322 99.2854C878.536 97.6302 886.321 100.79 893.302 104.493C895.905 105.874 896.228 106.897 896.46 108.954C897.58 118.883 894.855 124.503 892.612 129.359C890.754 133.382 878.832 142.144 869.76 151.361C866.751 154.418 866.518 158.749 866.35 162.147C866.182 165.551 867.693 168.248 869.48 170.204C873.569 174.68 879.886 177.382 902.937 183.975C908.993 185.708 911.492 187.107 913.845 188.965C917.892 192.161 917.128 198.043 916.723 203.5C916.506 206.426 914.245 208.87 911.93 210.868C905.367 213.564 897.264 214.652 892.728 214.594C890.87 214.475 889.913 214.172 888.591 213.64" stroke="white" stroke-width="15" stroke-linecap="round"/>
<path d="M713.838 144.789C712.653 140.872 710.289 123.022 711.581 113.866C712.738 105.675 726.442 98.9945 730.68 98.1187C742.129 95.7523 748.872 118.53 750.687 126.443C752.558 134.592 752.67 149.405 752.156 170.462C751.738 187.608 745.97 216.641 759.236 231.266C763.078 235.501 776.761 237.485 781.076 233.01C803.852 209.389 770.022 91.4614 828.163 115.518C832.221 117.197 830.843 131.662 829.235 153.014C828.327 165.081 824.427 179.357 822.756 188.378C820.498 200.567 821.1 204.92 821.436 206.763C822.321 211.615 828.377 217.252 831.815 220.483C836.289 223.789 841.759 223.877 847.073 223.981" stroke="white" stroke-width="15" stroke-linecap="round"/>
<path d="M682.236 212.349C682.846 211.153 687.195 207.159 692.918 205.045C694.177 204.58 695.441 204.846 696.64 205.371C702.521 207.951 706.966 221.469 710.569 236.065C711.928 241.57 711.001 245.263 710.367 247.224C708.42 253.241 697.311 260.927 677.979 272.861C669.052 278.372 664.713 286.013 663.191 290.479C660.61 298.053 666.963 305.808 671.26 314.105C672.851 317.178 671.58 318.673 669.933 320.023C661.119 327.243 645.685 327.83 627.93 326.019C614.831 324.682 609.588 323.048 605.333 318.857C601.406 314.99 602.819 307.363 605.371 299.635C608.496 290.171 614.682 285.046 616.856 283.712C619.991 281.788 623.669 280.803 626.522 280.3C628.771 279.904 630.677 280.472 632.241 281.662C632.932 282.395 633.413 283.392 633.728 285.293C634.043 287.194 634.177 289.969 634.316 292.828" stroke="white" stroke-width="15" stroke-linecap="round"/>
<path d="M894.075 327.909C894.856 327.798 899.471 325.92 902.475 322.4C906.352 317.857 904.324 309.81 903.049 304.137C901.853 298.816 893.118 296.455 887.922 294.451C885.915 293.677 879.45 293.796 867.234 294.594C851.899 295.597 839.069 298.554 831.879 298.563C824.902 298.573 819.153 294.323 815.131 289.833C813.023 287.478 812.818 283.054 813.101 278.364C813.324 274.657 816.185 272.355 819.53 270.331C828.249 265.056 837.945 265.424 844.305 267.134C851.772 269.141 855.566 273.937 861.494 274.241C876.06 274.987 888.863 267.878 893.708 264.265C895.673 262.064 897.445 258.864 898.912 255.306C899.459 253.803 899.606 252.915 899.758 252" stroke="white" stroke-width="15" stroke-linecap="round"/>
<path d="M735 325.894C707.5 325.894 710.716 287.859 716.631 284.164C727.736 277.226 742.6 268.762 754.185 278.192C765.63 287.508 773.608 308.957 782.369 318.03C791.699 326.489 809.691 329.815 821.442 325.894" stroke="white" stroke-width="15" stroke-linecap="round"/>
<rect x="1867" y="363" width="468" height="363" transform="rotate(-180 1867 363)" fill="black"/>
<path d="M1819.82 317.238C1819.27 330.707 1801.79 330.213 1794.42 322.811C1778.06 306.386 1804.5 288.146 1814.36 279.336C1825.73 269.183 1826.21 261.791 1826.5 253.673C1826.97 240.352 1791.92 229.944 1783.96 226.167C1764.25 216.82 1755.82 189.089 1765.25 169.674C1774.05 151.557 1809.65 150.684 1824.81 158.005C1840.39 165.526 1838.84 187.221 1827.17 196.575C1821.2 199.289 1799.17 200.342 1798.53 191.683" stroke="white" stroke-width="15" stroke-linecap="round"/>
<path d="M1811.57 60.453C1811.57 70.81 1800.62 69.4873 1793.37 66.7918C1781.37 62.3291 1783.9 43.3193 1785.66 34.2081C1788.36 20.2137 1814.86 24.4533 1822.83 28.9734C1852.16 45.601 1850.69 100.527 1824.33 118.218C1805.13 131.102 1790.87 120.682 1780.26 106.835C1770.44 94.0253 1753.25 92.0984 1738.15 92.7111C1718.43 93.5114 1696.5 118.663 1692.42 136.033C1687.88 155.38 1703.92 174.137 1714.05 188.217C1735.57 218.103 1697.06 231.845 1675.96 230.372C1662.44 229.428 1661.87 210.001 1661.65 200.589C1661.44 192.01 1684.13 190.043 1684.53 201.814" stroke="white" stroke-width="15" stroke-linecap="round"/>
<path d="M1747.82 254.848C1753.29 254.848 1749.11 273.732 1748.72 275.333C1746.25 285.626 1725.6 283.941 1718.02 283.408C1714.33 283.149 1708.57 274.389 1702.57 269.584C1696.11 264.411 1686.54 268.028 1683.3 269.462C1671.63 274.624 1672.96 292.078 1677.99 301.058C1681.14 306.676 1697.2 316.47 1709.13 321.943C1714.44 324.377 1719.3 324.431 1721.57 325.439C1736.62 332.137 1707.34 340.376 1702.54 340.897C1689.08 342.358 1672.67 343.438 1660.97 335.444C1646.12 325.303 1641.12 304.051 1624.57 295.481C1620.01 293.117 1611.89 296.206 1600.17 302.604C1595.64 305.759 1589.71 313.346 1583.39 323.022C1581.17 326.555 1580.96 327.291 1579.25 328.894" stroke="white" stroke-width="15" stroke-linecap="round"/>
<path d="M1450.59 332.744C1449.26 332.527 1443.97 331.111 1440.06 328.114C1432.26 322.135 1439.76 308.754 1444.45 303.656C1465.57 280.712 1494.23 336.59 1506.47 341.648C1516.41 345.755 1531.82 342.669 1542.92 338.292C1559 331.951 1518.77 296.082 1516.4 292.229C1511.64 284.487 1539.5 282.908 1541.53 282.741C1547.42 282.257 1576.97 296.343 1561.73 299.542" stroke="white" stroke-width="15" stroke-linecap="round"/>
<path d="M1473.83 245.833C1474.55 247.033 1476.82 251.657 1476.42 256.812C1475.84 264.203 1466.58 266.683 1462.31 268.041C1457.09 269.696 1449.31 266.536 1442.33 262.833C1439.72 261.453 1439.4 260.429 1439.17 258.372C1438.05 248.444 1440.77 242.824 1443.02 237.967C1444.87 233.945 1456.8 225.182 1465.87 215.965C1468.88 212.908 1469.11 208.577 1469.28 205.179C1469.45 201.775 1467.93 199.078 1466.15 197.122C1462.06 192.646 1455.74 189.944 1432.69 183.351C1426.63 181.618 1424.14 180.219 1421.78 178.361C1417.74 175.166 1418.5 169.283 1418.9 163.827C1419.12 160.9 1421.38 158.457 1423.7 156.458C1430.26 153.763 1438.36 152.675 1442.9 152.732C1444.76 152.852 1445.71 153.155 1447.04 153.687" stroke="white" stroke-width="15" stroke-linecap="round"/>
<path d="M1621.53 220.002C1622.71 223.919 1625.08 241.77 1623.78 250.925C1622.63 259.116 1608.92 265.796 1604.68 266.672C1593.24 269.039 1586.49 246.261 1584.68 238.348C1582.81 230.199 1582.69 215.386 1583.21 194.329C1583.63 177.183 1589.39 148.15 1576.13 133.525C1572.29 129.29 1558.6 127.306 1554.29 131.781C1531.51 155.402 1565.34 273.33 1507.2 249.273C1503.14 247.594 1504.52 233.129 1506.13 211.777C1507.04 199.71 1510.94 185.434 1512.61 176.413C1514.87 164.224 1514.26 159.871 1513.93 158.028C1513.04 153.176 1506.99 147.539 1503.55 144.308C1499.08 141.002 1493.61 140.914 1488.29 140.81" stroke="white" stroke-width="15" stroke-linecap="round"/>
<path d="M1650.79 149.628C1650.18 150.823 1645.83 154.817 1640.11 156.932C1638.85 157.397 1637.58 157.131 1636.38 156.605C1630.5 154.025 1626.06 140.508 1622.46 125.912C1621.1 120.407 1622.02 116.713 1622.66 114.753C1624.6 108.736 1635.71 101.05 1655.05 89.1153C1663.97 83.6049 1668.31 75.9638 1669.83 71.4979C1672.41 63.9233 1666.06 56.1685 1661.76 47.8717C1660.17 44.7983 1661.44 43.3034 1663.09 41.9539C1671.91 34.7336 1687.34 34.1462 1705.09 35.958C1718.19 37.2947 1723.44 38.9289 1727.69 43.1192C1731.62 46.9869 1730.21 54.6135 1727.65 62.342C1724.53 71.8058 1718.34 76.9301 1716.17 78.2645C1713.03 80.1887 1709.36 81.174 1706.5 81.6766C1704.25 82.073 1702.35 81.5044 1700.78 80.3148C1700.09 79.5813 1699.61 78.5846 1699.3 76.6836C1698.98 74.7826 1698.85 72.0076 1698.71 69.1484" stroke="white" stroke-width="15" stroke-linecap="round"/>
<path d="M1438.44 38.7722C1437.66 38.8834 1433.05 40.762 1430.04 44.2816C1426.17 48.8242 1428.19 56.8714 1429.47 62.5449C1430.66 67.8651 1439.4 70.2271 1444.6 72.2305C1446.6 73.0044 1453.07 72.8853 1465.28 72.0872C1480.62 71.0851 1493.45 68.1281 1500.64 68.1184C1507.62 68.109 1513.37 72.3591 1517.39 76.8489C1519.5 79.2031 1519.7 83.6279 1519.42 88.3178C1519.19 92.0242 1516.33 94.3265 1512.99 96.3504C1504.27 101.626 1494.57 101.257 1488.21 99.548C1480.75 97.5411 1476.95 92.7449 1471.02 92.441C1456.46 91.6942 1443.66 98.8036 1438.81 102.416C1436.85 104.618 1435.07 107.817 1433.61 111.376C1433.06 112.879 1432.91 113.767 1432.76 114.682" stroke="white" stroke-width="15" stroke-linecap="round"/>
<path d="M1597.24 38.6514C1624.74 38.6514 1621.53 76.6859 1615.61 80.3809C1604.51 87.3187 1589.64 95.7828 1578.06 86.3526C1566.61 77.0371 1558.63 55.5883 1549.87 46.5146C1540.54 38.0557 1522.55 34.7302 1510.8 38.6514" stroke="white" stroke-width="15" stroke-linecap="round"/>
</svg>
