<svg width="163" height="246" viewBox="0 0 163 246" fill="none" xmlns="http://www.w3.org/2000/svg">
<path d="M68.662 95.7782C68.6368 95.6458 68.0328 94.6911 60.5391 87.1404C53.7797 80.3295 40.4405 68.0608 33.3038 61.4268C20.7452 49.7527 8.47621 45.4432 10.155 46.355C17.4499 50.3173 23.8444 52.8838 26.4921 54.9267C31.4074 58.7192 37.2625 63.7666 46.4641 72.2339C52.8881 78.1452 61.8707 88.3921 66.7955 93.2435C71.7203 98.0949 72.0585 97.5107 72.6114 96.6868C75.1826 92.8553 79.8204 90.4644 83.8068 89.0416C86.1209 88.2156 88.4591 88.4337 89.8895 88.2715C90.5336 88.1985 90.68 87.1325 90.6603 86.3219C90.6407 85.5113 90.3658 84.7298 88.2325 74.5998C86.0992 64.4698 82.1157 45.015 80.0798 34.5623C77.5954 21.8067 79.2808 17.3909 80.3289 11.5938C80.6221 9.97215 80.5587 8.02178 81.0744 14.726C81.5902 21.4302 82.543 36.828 83.5702 48.9625C84.5974 61.097 85.6701 69.5017 86.2409 74.1525C86.89 79.4405 87.1683 81.5958 87.8668 84.2215C89.1394 89.0053 96.5832 92.7077 98.7922 95.1285C100.578 97.0853 90.9523 99.5009 86.2198 101.005C81.6097 102.47 77.4592 105.775 74.9106 107.437C74.5929 107.644 75.2293 108.336 76.3331 108.468C82.1008 109.157 86.7887 108.314 92.4142 107.559C94.4699 107.283 95.7866 106.116 96.902 105.233C97.9136 104.432 98.1518 103.006 98.1544 101.488C98.1557 100.686 97.9378 99.8259 97.5949 99.1891C97.2521 98.5522 96.7349 98.167 95.2596 98.1827C87.6082 98.264 83.564 101.673 80.5874 104.781C78.3575 107.109 78.699 110.074 78.1103 119.658C77.7067 126.23 75.7903 138.049 75.1696 157.247C74.5488 176.444 74.9207 202.629 75.3391 217.416C75.7574 232.203 76.2109 234.8 76.3186 235.765C76.3476 236.025 75.103 229.658 74.0303 217.135C72.7344 202.006 74.4962 192.783 74.8696 190.596C75.5071 186.862 76.464 183.603 77.2985 181.907C80.749 174.892 98.9878 178.414 103.228 179.013C106.356 179.456 111.238 176.421 115.458 172.745C118.368 170.21 119.897 167.242 121.886 164.128C123.789 161.15 123.513 157.719 121.465 147.441C120.441 142.298 114.993 133.773 108.17 123.488C102.036 114.239 97.689 106.853 96.2031 104.256C95.7819 103.52 95.6801 104.202 95.9189 104.971C96.1577 105.739 96.6491 106.635 101.333 113.344C106.016 120.054 114.878 132.55 123.454 147.594C132.031 162.638 140.055 179.851 144.937 191.145C151.825 207.079 152.542 211.746 151.815 210.167C150.686 207.715 149.732 203.242 146.91 193.877C144.924 187.285 141.119 177.177 138.503 170.083C134.504 159.236 130.646 151.833 125.758 144.555C123.232 140.793 120.053 137.288 116.047 132.105C106.997 120.394 101.39 112.646 99.6899 111.052C97.7177 109.204 95.5153 107.328 94.1834 105.957C93.8351 105.599 93.8034 106.382 95.995 113.943C98.1867 121.505 102.514 135.938 105.555 145.17C108.596 154.403 110.221 157.999 114.866 164.973C119.511 171.948 127.127 182.192 131.678 188.155C141.028 200.408 146.125 207.888 147.155 208.491C148.18 209.091 149.536 208.988 150.383 209.12C150.695 209.168 150.59 208.316 147.639 202.149C144.688 195.982 138.848 184.306 135.278 177.476C130.796 168.903 127.551 164.048 124.059 158.115C121.325 153.471 116.618 145.85 110.965 135.27C103.743 121.754 99.1513 115.08 94.6343 110.433C93.1731 108.93 92.863 109.74 92.8564 110.618C92.8004 118.104 92.4231 128.823 91.5118 138.686C90.7596 146.827 89.8648 161.374 88.241 173.048C86.6172 184.722 84.4055 193.092 82.952 200.808C78.7104 223.325 78.8941 226.481 78.2537 226.986C77.9949 227.189 77.6228 226.157 77.9973 217.911C78.3718 209.665 79.4409 193.947 80.7115 181.313C81.9822 168.679 83.422 159.604 84.6075 153.365C87.1603 139.93 88.0927 133.996 88.1387 128.008C88.4103 122.751 88.8889 118.301 89.4116 116.308C89.6779 115.442 89.9462 114.87 90.2828 114.183" stroke="black" stroke-width="20" stroke-linecap="round"/>
</svg>
