<svg width="129" height="88" viewBox="0 0 129 88" fill="none" xmlns="http://www.w3.org/2000/svg">
<path d="M10 75.5091C11.6085 75.4704 18.6008 76.564 32.0459 77.4616C39.1015 77.9327 43.7287 76.8255 45.8449 74.4309C50.7088 68.9271 52.7176 61.2909 58.7147 57.1894C63.2368 54.0967 69.821 55.2128 74.4159 55.634C81.2008 56.256 83.8982 66.356 89.4752 70.5158C92.0657 72.4482 96.5974 72.5813 101.386 72.4361C109.262 72.1972 115.126 63.0519 117.521 55.768C120.495 46.7216 113.089 37.9316 108.235 31.8916C104.118 26.7677 98.5518 26.5466 97.3075 23.7658C96.725 22.4638 97.4076 21.0052 98.1199 19.7454C102.294 15.9274 109.694 15.3238 115.31 13.8731C115.716 13.0502 115.056 11.728 114.388 10.002" stroke="black" stroke-width="20" stroke-linecap="round"/>
</svg>
