<svg width="122" height="137" viewBox="0 0 122 137" fill="none" xmlns="http://www.w3.org/2000/svg">
<path d="M66.3881 26.0839C66.457 26.0453 67.5069 25.298 68.9369 24.7962C70.297 24.3189 68.4017 29.6409 67.943 33.3657C67.3979 37.7922 77.3934 47.4079 83.8779 52.8642C85.6663 54.3691 88.4683 52.6247 89.6189 53.4153C92.819 55.6141 82.0768 55.5179 80.9369 56.8591C78.8829 59.2759 82.9745 62.9893 82.2133 65.1706C79.985 71.5558 69.9723 72.5671 67.4963 71.9396C60.7688 70.2347 56.7945 60.7736 53.7042 56.8314C51.9323 54.571 51.349 51.6558 51.3523 48.778C51.3559 45.5922 52.7045 42.9404 53.6227 40.8953C54.5817 38.7591 56.9357 37.0409 59.5686 36.0634C63.7621 34.5063 65.5766 41.092 66.1701 42.8575C66.4401 43.6605 65.2268 44.4374 63.9044 44.8835C60.9344 45.8854 57.8405 45.6301 55.9769 45.0801C55.1114 44.8247 55.1119 43.3093 55.5105 42.3888C55.9091 41.4683 56.8855 40.8541 58.2056 40.6352C59.5257 40.4163 61.1598 40.6112 62.415 41.1304C64.7117 42.0804 66.2861 44.9369 67.7789 47.9022C68.4473 49.2299 68.4795 50.4037 68.0549 51.2915C67.6304 52.1793 66.6316 52.7982 66.2859 52.4905C65.9402 52.1829 66.2778 50.93 67.0511 50.5033C67.8243 50.0766 69.023 50.5139 69.6321 51.3077C72.2139 54.6728 74.4766 58.7113 75.2098 63.0269C75.3953 64.1191 75.3599 65.19 74.797 65.5338C71.2364 67.7079 67.7838 62.7391 66.5049 61.2424C65.1349 59.6392 64.8895 55.4872 60.872 50.7139C51.7233 39.8439 42.8536 42.8012 37.4834 43.7284C31.2062 44.8122 24.2352 52.0368 21.6493 57.1629C18.2867 63.8289 19.0713 75.2462 20.4116 85.4311C21.934 96.9999 30.2346 105.214 35.9771 109.741C40.1321 113.016 46.0442 113.331 54.4253 113.101C60.5051 112.934 65.4838 107.346 70.7174 100.485C72.7297 97.8464 72.8843 95.3178 72.6717 92.968C71.8972 84.4047 57.7866 67.5519 46.6787 55.7133C44.8184 53.7306 43.3394 52.7743 43.3328 53.4605C43.2994 56.9285 51.9136 67.4784 61.1163 79.4349C64.18 83.4153 65.2879 82.0634 65.3879 80.5565C66.3295 66.3704 50.4785 50.8386 51.3746 53.3975C59.2097 75.7707 67.4376 78.5323 69.4689 79.3696C70.5031 79.7959 71.8349 79.1803 72.7991 78.2235C74.9061 76.1326 75.8173 73.3549 77.3548 72.6287C78.0466 72.302 78.848 73.5619 78.9291 74.5569C79.3042 79.1618 68.9923 89.3612 62.5622 96.3132C61.3329 97.6423 58.9456 98.4311 57.9525 98.4346C56.9594 98.4381 57.1139 97.2457 58.4383 95.5729C59.7628 93.9002 62.2525 91.7831 63.9473 90.1371C66.6265 87.5351 59.6642 93.4054 47.6467 103.921C43.5075 107.543 42.4344 106.571 43.5777 100.974C46.908 84.671 50.4025 75.3958 49.0078 78.0037C47.6435 80.5549 44.6823 85.3545 43.112 89.1802C40.9013 94.5663 54.2673 84.1378 56.5164 84.7392C57.785 85.0783 58.5591 87.1172 58.6459 88.2877C58.7913 90.2495 52.1198 93.5684 44.2284 97.3986C41.4216 98.761 40.5241 97.7007 40.4292 96.542C39.2258 81.8443 58.284 64.223 57.5332 66.1548C53.8163 75.7181 48.2018 82.531 47.2187 83.4242C43.382 86.9098 43.4128 65.7236 39.6484 57.0993C38.0253 53.3808 36.0457 64.6642 33.9312 68.1087C33.2281 69.2539 33.1854 63.305 34.2829 59.5191C36.1653 53.0256 30.9562 78.5939 30.417 83.0604C29.7676 88.4392 32.4632 92.5531 33.9451 94.0531C34.5642 94.6797 35.7265 93.7975 36.463 92.7901C43.0106 83.8334 43.2684 60.6774 46.0886 49.8009C46.9748 46.383 45.9707 47.0526 45.0504 47.2618C44.13 47.471 43.1234 47.1538 42.3372 46.5125C38.9661 43.7631 37.4252 37.3171 34.9875 32.9775C32.5979 28.7233 39.4997 48.3055 39.2828 53.3574C39.2367 54.4323 38.4274 55.3484 37.6234 56.0855C34.1976 59.2264 28.1164 56.5827 23.3379 54.787C16.3512 52.1612 12.6757 51.2171 11.3769 51.5001C6.36036 52.5931 24.3463 63.8781 29.0116 70.5216C33.1878 76.4686 13.4684 77.5775 11.2642 78.0288C10.1773 78.2513 9.12944 78.3256 11.1933 78.643C27.7066 81.1827 39.4437 79.9336 47.0266 80.6313C52.2309 81.1101 62.636 85.011 76.2501 84.9932C82.3967 84.9852 85.6856 86.6082 86.7717 86.8903C92.8416 88.4671 69.7215 86.0118 65.0146 85.3062C56.9718 84.1006 76.6528 106.163 79.016 109.699C82.7182 115.238 65.2418 99.881 62.803 98.7694C61.6766 98.256 60.5205 98.5357 59.7747 99.275C56.3057 102.714 58.4437 113.536 58.3682 126.454C58.3488 129.765 57.165 112.781 56.1735 105.289C55.2555 98.3518 55.0786 91.8838 55.2779 87.4105C55.3789 85.1424 55.2753 82.9284 56.3317 80.7693C61.4498 70.3093 80.5493 64.0648 84.8301 60.9973C88.7276 58.2044 92.2241 55.6371 97.8894 52.5143C102.572 49.9334 107.946 52.8781 110.978 54.259C112.149 54.7922 107.904 52.264 105.143 52.1111C98.4317 51.7394 87.0627 57.5857 76.6787 61.5733C74.8687 62.2684 73.7462 62.0567 72.8413 61.6404C70.9575 60.7738 69.8807 58.3541 69.0113 56.025C67.298 51.435 68.6325 45.6262 68.2844 39.0738C68.0082 33.8747 70.5235 29.3153 71.43 24.6194C72.5631 18.7497 66.0779 12.9163 63.0581 11.1672C62.6364 10.923 64.0057 10.017 65.1396 10.0008C67.6061 9.96565 69.6642 12.1639 71.5295 14.3645C73.9997 17.2787 74.7261 20.5085 74.3175 22.7193C73.487 27.2131 72.0684 33.3437 70.106 39.1078C67.8844 42.6188 65.3499 47.0497 63.3668 51.2197C62.538 52.9757 62.0696 54.0008 61.4705 56.3937" stroke="black" stroke-width="20" stroke-linecap="round"/>
</svg>
