<svg width="119" height="112" viewBox="0 0 119 112" fill="none" xmlns="http://www.w3.org/2000/svg">
<path d="M34.5269 101.662C32.4542 101.187 20.7422 95.933 13.4067 89.8672C8.04959 85.4374 10.0371 74.9268 12.4257 68.0637C15.6086 58.9188 38.9016 61.8808 47.6994 64.2104C58.8132 67.1532 79.7331 78.2438 89.5784 80.4534C97.9967 82.3428 104.021 65.2955 107.721 57.2906C109.074 54.3614 105.615 49.3897 100.913 44.197C95.1088 37.7872 84.4383 37.5412 75.0934 35.4404C70.5849 34.4269 67.1259 30.0458 64.7012 25.6674C63.6157 23.7072 63.9023 21.7711 64.4013 20.2433C66.4063 14.1041 73.1823 12.5329 74.5447 11.3655C76.0085 10.1113 69.5875 9.74168 66.2592 10.172C64.6846 10.3756 63.5002 11.3578 62.6488 12.5053C60.8984 14.8646 60.8997 18.2219 61.488 21.0642C62.6747 26.7969 74.6501 28.2668 83.1527 32.9751C89.7838 36.6471 98.0061 42.0706 103.908 48.4855C106.016 50.7771 106.18 55.3091 105.823 60.5085C105.557 64.3868 103.277 67.029 101.362 69.3103C97.5542 73.8449 90.4375 74.629 75.4615 75.0135C62.043 75.3579 29.5491 67.7284 14.2345 70.8555C7.42811 72.2452 14.3104 83.6999 16.5119 86.4002C21.9915 90.7597 26.8311 93.803 32.4797 98.4413C33.7988 99.6422 34.8589 100.634 35.951 101.657" stroke="black" stroke-width="20" stroke-linecap="round"/>
</svg>
