<svg width="120" height="140" viewBox="0 0 120 140" fill="none" xmlns="http://www.w3.org/2000/svg">
<path d="M84.3328 31.1387C84.7793 29.8769 86.633 26.8475 88.8439 25.7414C90.0234 25.1514 91.6595 25.3615 92.8336 25.8116C94.0077 26.2617 94.7573 27.1649 95.2312 28.2172C96.1836 30.3319 96.0618 32.9298 95.6241 35.246C95.4147 36.3544 94.311 37.0498 92.8089 37.4479C91.3069 37.8459 89.2047 37.8547 87.9776 37.2334C85.8281 36.1451 86.1649 27.8595 86.2923 19.1518C86.3288 16.6524 86.6744 18.0622 87.0486 19.483C87.7978 22.3276 89.2762 24.5634 91.1785 25.9184C95.0375 28.6672 100.539 27.9567 103.732 29.8555C109.501 33.2854 90.3042 30.4461 88.2503 29.4645C86.1573 28.4642 85.3792 22.6022 85.0191 16.0299C84.9152 14.1315 84.299 15.2166 84.2 16.5496C83.6998 23.2822 90.3544 28.7818 93.2435 32.0151C96.083 35.1929 88.686 38.6936 87.0648 40.9837C80.6351 50.066 59.8641 44.8462 47.0368 47.789C29.8772 51.7258 19.8021 65.4246 16.1125 69.4656C7.53371 78.8612 51.085 51.2126 60.6372 47.7488C68.0182 45.0723 77.0144 45.3966 83.3887 45.915C89.4563 46.4084 88.2823 59.0712 87.7138 88.2854C87.2775 110.708 79.0176 118.059 74.4746 123.017C73.5 124.081 72.2064 124.342 72.2554 123.944C72.9467 118.325 79.4962 113.192 84.7472 97.0755C86.2211 92.5521 86.846 86.6445 87.5071 80.1542C87.6926 78.3339 88.0863 79.5752 88.2155 80.983C88.4864 83.9353 87.9811 86.7316 87.1959 89.1767C86.3523 91.8032 84.5489 93.7576 82.3899 94.7413C78.2388 96.6329 72.1573 91.7778 61.9252 88.1994C51.0479 84.3954 45.7824 79.8443 39.9798 75.0697C36.774 72.4319 34.5817 70.3038 34.2009 67.8759C34.6506 63.2235 36.1322 59.9833 37.0465 57.7745C37.5642 56.7047 38.1908 55.7385 38.9782 53.7982" stroke="black" stroke-width="30" stroke-linecap="round"/>
</svg>
